<?xml version="1.0" encoding="UTF-8"?><svg xmlns="http://www.w3.org/2000/svg" width="289.11" height="360.5" viewBox="0 0 289.11 360.5"><defs><style>.h{fill:#e2e2e2;}</style></defs><g id="a"/><g id="b"><g id="c"><g id="d"><g id="e"><path class="h" d="M1.56,62.42c2.04-1.64,3.82-.64,6.14-.07-.53,.39-.79,.58-.94,.69,1.81,1.65,3.63,3.35,5.5,4.98,.34,.3,.88,.51,1.33,.5,3.47-.09,6.65,.75,9.8,2.26,1.24,.59,3.03,.15,4.56,.01,1.35-.12,2.14,.1,2.96,1.46,.63,1.05,2.24,1.65,3.54,2.1,.96,.33,2.12,.16,3.19,.08,1.56-.1,2.58,.18,3.69,1.66,.9,1.21,3.07,1.45,4.61,2.23,1.91,.96,3.18,.42,4.7-1.06,1.51-1.45,3.63-2.27,5.44-3.34l-.22,1.34c4.45,.55,7.98-1.08,11.01-4.22,.7-.73,1.73-1.53,2.65-1.58,1.73-.08,2.87-.88,3.47-2.24,.92-2.12,2.49-2.13,4.32-1.82,1.47,.25,2.43,.15,2-1.89-.15-.73,.57-1.92,1.25-2.48,2.1-1.76,4.2-3.57,7.36-3.08,1.82,.28,2.49-.89,2.54-2.69,.04-1.41,.53-2.8,.83-4.2l.81,.16c-.22,2.08-.23,4.21-.76,6.2-.21,.81-1.46,1.57-2.4,1.91-2.17,.79-4.47,1.22-6.64,2.01-.53,.2-1,1.18-1.11,1.86-.54,3.33-2.12,4.47-5.45,4.08-.68-.08-1.46,.68-3.07,1.5,3.91,2.83,6.95,5.82,10.59,7.47,4.17,1.89,5.07,1.02,7.45-2.93,1.98-3.28,5.34-4.67,8.78-5.81,3.07-1.02,4.72,1.46,6.81,2.88,.83,.56,1.76,.97,2.65,1.44,.43,.23,1.07,.33,1.26,.68,1.19,2.29,3.73,1.43,5.5,2.33,.36,.18,1.41-.73,1.97-1.3,.68-.69,1-1.87,1.78-2.3,4.5-2.5,7.23-6.62,10.32-10.5,1.13-1.42,3.4-2.54,5.22-2.65,2.2-.13,3.73-1.06,4.86-2.46,2.16-2.67,5.22-3.54,8.13-4.8,1.49-.64,2.93-1.41,4.4-2.11,1.75-.83,3.73-1.37,5.2-2.55,1.61-1.29,2.74-3.16,4.06-4.74-.32,1.15-.68,2.46-1.08,3.89,.56,.11,1.1,.41,1.49,.27,2.97-1.08,5.96-2.14,8.83-3.46,.92-.43,1.91-1.53,2.12-2.49,.55-2.52,2.19-3.97,4.13-5.3,2.5-1.71,2.64-2.82,.8-5.23-1.47-1.93-2.85-3.91-4.93-6.77,.44-.34,1.27-1,2.1-1.64l.81,.26c-.98,1.58-.49,2.31,.7,3.42,1.68,1.56,2.67,3.85,3.86,5.67,1.99-2.28,4.34-4.49,6.03-7.12,1.08-1.69,1.04-4.07,1.76-6.04,.47-1.26,1.74-2.26,2.09-3.53,.55-2,1.95-1.52,3.32-1.93,3.7-1.1,7.09-2.87,9.21-6.42,.43-.71,1.19-1.36,1.95-1.71,3.01-1.41,3.29-1.28,6.55-2.7,.13-1.7,4.31,.5,6.91,.59l-1,.99c-2.68-.83-5.03-1.41-7.1,1.13-.33,.4-.99,.77-1.48,.76-2.98-.05-4.59,1.69-5.86,4.52,1.99,.5,3.79,1.05,5.63,1.35,.44,.07,.99-.69,1.51-1.03,.86-.56,1.69-1.24,2.64-1.6,2.03-.78,4.21-1.23,6.18-2.12l-2.4,2.52c-2.83,.72-7.74,6.42-10.62,6.91-1.15,.19-2.49-.5-3.7-.91-2.74-.95-4.13-.43-6.02,1.8-1.35,1.58-2.41,3.69-5.12,3.6-.39-.01-1.24,1.57-1.18,2.36,.19,2.55-.2,4.22-2.99,5.42-1.6,.69-2.34,3.21-3.64,4.77-1.66,2.01-3.51,3.86-5.23,5.82-.98,1.11-1.86,2.3-3.18,3.96,1.49,.19,2.19,.39,2.88,.34,2.03-.13,3.02,.84,3.92,2.64,.6,1.21,2.13,2.41,3.45,2.73,4.26,1.03,6.74,3.83,8.78,7.4,.42,.74,1.56,1.39,2.43,1.49,3.46,.4,6.22,2.82,6.87,6.33,.07,.4-.06,.94,.16,1.2,.35,.41,.93,.92,1.38,.9,3.46-.22,5.12,5.32,9.37,2.76,2.05-1.23,4.24-2.37,7-1.39,.7,.25,2.11-1.5,3.15-2.29-.17,.52-.42,1.28-.69,2.12,.73,.38,1.43,.74,2.51,1.29,2.31-3.54,4.65-7.09,6.97-10.66,.18-.27,.52-.59,.48-.84-.37-2.3,1.32-3.24,2.74-4.45,1.62-1.38,3.78-1.53,5.45-.18,2.21,1.79,4.21,1.83,6.74,.28,.79-.49,1.74-.71,2.61-1.05l.39,1.01c-2.44,.93-4.84,1.96-7.34,2.73-.62,.19-1.84-.21-2.2-.74-1.69-2.47-3.47-1.88-5.43-.49-.46,.33-1,.54-1.06,.57-2.07,5.53-5.13,10.06-9,14.68,5.17,.58,7.18,3.46,7.89,7.75,.32,1.96,5.89,5.47,7.9,5.38,2.56-.12,4.14,1.07,5.07,3.63,1.16,3.18,2.67,5.24,6.83,5.64,2.55,.24,5.94-.63,8.24,1.88,.27,.29,1.21-.02,1.83-.07,1.09-.08,2.19-.14,3.28-.28,.69-.09,1.47-.14,2.04-.49,2.43-1.45,4.79-2,7.58-.77,1.12,.5,2.7,.08,4.05-.1,2.7-.37,5.39-.86,8.11-1.16-1.79,.65-2.99,2.49-5.53,1.61-1.47-.51-3.5,.77-5.31,1.01-.78,.1-1.63-.47-2.47-.57-1.21-.15-2.8-.69-3.6-.14-2.6,1.77-5.46,2.01-8.38,2.25-.94,.08-1.91,.01-2.84-.16-2.15-.4-4.46-1.62-6.38-1.16-1.6,.39-2.53-.14-3.79-.44-3.39-.81-4.44-3.6-5.19-6.35-.63-2.32-2.21-2.5-3.92-2.39-2.44,.15-4.28-.52-5.58-2.66-.37-.6-1.14-.93-1.59-1.51-.73-.96-1.73-1.93-1.94-3.03-.61-3.28-2.69-5.53-5.96-5.88-.47-.05-1.16-.1-1.4,.16-2.86,3.23-6.38,2.37-9.49,1.05-3.21-1.36-5.83-.07-8.61,.73-2.58,.74-5,.89-7.14-.96-.76-.65-1.25-1.61-1.89-2.41-.97-1.22-1.81-2.63-2.99-3.6-1.52-1.25-2.75-2.3-2.69-4.59,.12-4.53-2.62-9.05-7.61-10.55-2.27-.68-4.93-1.27-5.31-4.4-2.17-.36-4.34-.85-6.53-1-.76-.05-1.57,.76-2.06,1.01v4.39c-.08,.06-.16,.13-.25,.2-.65,.45-1.31,.9-2.32,1.6,.04-.91,.26-1.53,.04-1.9-.29-.51-1.17-1.27-1.35-1.16-1.42,.83-2.89,1.68-4.04,2.83-2.08,2.07-3.17,2.16-5.52,.32-.53-.42-1.59-.6-2.23-.38-3.09,1.07-6.22,2.12-9.12,3.59-1.04,.53-1.52,2.18-2.24,3.32-.5,.79-.78,1.9-1.49,2.31-.96,.55-2.49,1.16-2.28-.83-5.55,1.89-10.79,4.26-13.91,10.08,2.71-1.09,3.28,.81,4.62,2.28,2.2,2.42,3.52,5.95,7.31,6.74,1.26,.26,2.43,.99,3.69,1.32,2.33,.61,4.52,.57,7.04,.14,3.11-.53,6.53-2.19,9.86-.35,1.49,.82,3.04,1.54,4.56,2.31l-.14,.17c-1.93-.5-3.84-1.11-5.8-1.46-1.01-.17-2.1,.11-3.15,.24-.62,.08-1.31,.52-1.82,.35-1.79-.59-3.18-.12-4.95,.52-1.91,.68-4.42-.2-6.64-.53-.95-.14-1.83-.68-2.77-.92-2.2-.55-4.1-1.4-5.32-3.56-.53-.94-1.82-1.41-2.71-2.17-.33-.29-.64-.77-.68-1.19-.21-2.28-1.33-2.9-3.48-2.24-2.53,.78-4.92,1.64-6.45,4.05-.77,1.22-1.83,2.26-2.76,3.38l2.05,1.41-.46,.86c-1.3-.76-2.6-1.52-3.89-2.29-.41-.24-.77-.65-1.2-.73-4.72-.88-8.04-4.12-11.72-6.77-.48-.34-1.34-.64-1.8-.44-2.66,1.15-6.08,1.64-7.28,4.54-2.51,6.06-10.51,6.64-14.25,2.27-1.4-1.63-3.29-2.87-5.04-4.17-1.84-1.36-3.7-.17-5.58,1.06-2.98,1.96-6.46,3.5-9.94,4.21-2.75,.56-5.42,.62-7.74,2.56-2.22,1.85-6.86,1.22-9.86-1.53-1.52-1.39-3.1-1.73-4.89-1.78-2.82-.08-5.34-.67-7.06-3.19-.24-.35-1-.43-1.53-.47-1.72-.11-3.47,.03-5.15-.26-1.64-.29-3.22-.99-4.6-1.43-.1,1.66-.51,3.38-.24,5,.35,2.14,1.38,4.16,1.8,6.29,.37,1.84,.77,3.9,.29,5.63-.64,2.28-2.05,4.01-.61,6.79,1.08,2.08,.6,4.97,.82,7.5l-.64,.61c-.35-.47-.89-.9-1-1.42-.58-2.66-1.14-5.33-1.53-8.02-.13-.91-.07-2.13,.44-2.79,2.82-3.63,.68-6.91-.41-10.33-.48-1.5-.88-3.16-.74-4.69,.24-2.7-.46-3.99-2.85-5.23-1.91-.99-3.64-2.36-5.34-3.7-1.99-1.57-4.1-2.02-6.63-1.79m209.59,3.33c-1.4-.91-2.51-1.61-3.6-2.35-1.91-1.28-4.62-1.47-5-4.76-.16-1.41-1.89-2.84-3.23-3.83-.87-.64-2.32-.48-3.51-.68-.92,3.14-.58,3.83,2.03,5.45,1.42,.88,2.91,1.77,2.97,3.89,.02,.69,.92,1.47,1.58,2,2.62,2.11,5.45,1.25,8.77,.27h0Zm4.85-.74c6.17,2.45,8.44,2.33,10.03-.84-3.43,.08-6.7-1.75-10.03,.84Zm-56.59-19.98c2.39,3.42,3,3.39,5.15,0h-5.15Z"/></g></g><g id="f"><g id="g"><path class="h" d="M126.5,71.7c1.82,1.88,.98,3.75,.63,6.11-.44-.49-.65-.73-.77-.87-1.48,1.96-3.01,3.92-4.47,5.93-.27,.36-.43,.92-.38,1.37,.41,3.45-.15,6.69-1.37,9.96-.48,1.29,.12,3.03,.4,4.54,.24,1.34,.09,2.14-1.18,3.08-.98,.72-1.45,2.38-1.77,3.71-.24,.99,.03,2.13,.2,3.18,.24,1.54,.06,2.59-1.32,3.82-1.13,1.01-1.16,3.18-1.8,4.79-.78,1.99-.13,3.2,1.48,4.59,1.58,1.37,2.59,3.41,3.82,5.12l-1.36-.1c-.14,4.48,1.8,7.85,5.19,10.58,.79,.63,1.68,1.59,1.81,2.49,.24,1.71,1.13,2.78,2.55,3.25,2.19,.73,2.34,2.29,2.2,4.14-.11,1.48,.07,2.44,2.06,1.82,.71-.22,1.96,.4,2.58,1.02,1.95,1.93,3.93,3.86,3.73,7.05-.12,1.84,1.11,2.4,2.91,2.29,1.41-.08,2.84,.28,4.26,.44l-.09,.82c-2.09-.03-4.21,.15-6.25-.19-.82-.14-1.7-1.31-2.12-2.22-.99-2.09-1.62-4.34-2.6-6.43-.25-.51-1.26-.89-1.96-.94-3.36-.24-4.65-1.71-4.56-5.06,.02-.68-.81-1.39-1.77-2.92-2.47,4.15-5.16,7.44-6.48,11.22-1.51,4.32-.56,5.14,3.59,7.16,3.45,1.67,5.13,4.9,6.58,8.22,1.29,2.96-1.03,4.83-2.26,7.04-.49,.87-.8,1.84-1.19,2.76-.19,.44-.23,1.1-.57,1.31-2.17,1.4-1.09,3.84-1.83,5.69-.15,.37,.86,1.33,1.48,1.84,.75,.61,1.95,.83,2.45,1.56,2.9,4.26,7.24,6.6,11.39,9.33,1.52,1,2.84,3.16,3.11,4.96,.33,2.18,1.39,3.61,2.89,4.62,2.85,1.91,3.99,4.88,5.52,7.66,.78,1.43,1.67,2.79,2.49,4.19,.99,1.67,1.7,3.59,3.01,4.95,1.43,1.49,3.4,2.45,5.09,3.61-1.18-.22-2.51-.46-3.97-.72-.06,.57-.3,1.14-.13,1.5,1.35,2.86,2.67,5.75,4.24,8.48,.51,.87,1.7,1.76,2.67,1.89,2.56,.32,4.15,1.83,5.65,3.64,1.93,2.33,3.05,2.37,5.28,.33,1.79-1.63,3.64-3.2,6.29-5.52,.38,.41,1.11,1.17,1.83,1.94l-.18,.83c-1.66-.83-2.35-.28-3.35,1.01-1.4,1.81-3.59,3.01-5.3,4.36,2.45,1.77,4.86,3.92,7.63,5.37,1.79,.93,4.15,.66,6.18,1.21,1.3,.35,2.41,1.53,3.7,1.76,2.04,.37,1.69,1.8,2.22,3.14,1.43,3.58,3.5,6.8,7.23,8.59,.75,.36,1.46,1.07,1.88,1.79,1.68,2.87,1.57,3.17,3.29,6.28,1.71-.02-.1,4.34,.03,6.93l-1.07-.9c.59-2.75,.95-5.14-1.77-6.97-.43-.29-.85-.91-.89-1.41-.22-2.97-2.1-4.42-5.03-5.43-.32,2.02-.7,3.87-.84,5.73-.03,.44,.78,.92,1.16,1.41,.64,.81,1.39,1.57,1.84,2.48,.96,1.95,1.6,4.08,2.67,5.97l-2.73-2.16c-.98-2.76-7.1-7.13-7.84-9.95-.3-1.13,.27-2.53,.57-3.76,.69-2.82,.05-4.15-2.34-5.84-1.7-1.2-3.89-2.07-4.04-4.78-.02-.39-1.68-1.1-2.46-.97-2.52,.42-4.22,.18-5.67-2.48-.83-1.53-3.41-2.04-5.08-3.19-2.15-1.47-4.16-3.14-6.27-4.68-1.19-.87-2.46-1.64-4.23-2.81-.05,1.5-.19,2.22-.08,2.9,.32,2.01-.56,3.08-2.28,4.14-1.15,.71-2.21,2.33-2.41,3.68-.64,4.33-3.21,7.06-6.58,9.41-.7,.49-1.24,1.67-1.27,2.56-.09,3.48-2.24,6.45-5.68,7.41-.39,.11-.94,.02-1.18,.27-.38,.38-.83,1.01-.77,1.45,.53,3.42-4.83,5.58-1.91,9.58,1.41,1.93,2.75,4,2.02,6.84-.18,.72,1.68,1.96,2.56,2.93-.53-.12-1.31-.3-2.17-.49-.31,.76-.61,1.49-1.06,2.61,3.73,1.98,7.48,3.99,11.25,5.98,.29,.15,.64,.46,.88,.4,2.26-.57,3.35,1.02,4.68,2.33,1.52,1.49,1.87,3.63,.67,5.41-1.58,2.36-1.44,4.36,.33,6.74,.55,.74,.86,1.67,1.28,2.5l-.97,.48c-1.15-2.34-2.39-4.65-3.38-7.06-.25-.6,.04-1.85,.54-2.26,2.31-1.91,1.56-3.63,0-5.45-.37-.42-.63-.94-.67-1-5.7-1.56-10.48-4.2-15.44-7.64-.11,5.2-2.8,7.46-7,8.55-1.92,.5-4.92,6.36-4.64,8.36,.35,2.54-.69,4.22-3.16,5.38-3.06,1.44-4.98,3.13-5,7.31-.01,2.56,1.16,5.86-1.13,8.37-.27,.29,.13,1.2,.24,1.82,.18,1.08,.34,2.17,.57,3.25,.15,.68,.28,1.45,.67,1.99,1.66,2.29,2.43,4.59,1.45,7.48-.39,1.16,.17,2.7,.47,4.03,.61,2.66,1.35,5.29,1.89,7.98-.81-1.72-2.75-2.75-2.11-5.36,.37-1.51-1.08-3.42-1.48-5.2-.17-.77,.32-1.67,.35-2.51,.04-1.22,.43-2.85-.19-3.6-2-2.43-2.49-5.26-3-8.14-.16-.93-.19-1.9-.1-2.84,.2-2.18,1.21-4.59,.58-6.46-.53-1.56-.09-2.53,.1-3.82,.5-3.45,3.18-4.75,5.86-5.74,2.26-.84,2.29-2.43,2.02-4.12-.37-2.41,.13-4.31,2.14-5.8,.56-.42,.82-1.22,1.36-1.71,.89-.82,1.77-1.9,2.84-2.2,3.21-.9,5.27-3.18,5.32-6.47,0-.47,0-1.17-.28-1.38-3.47-2.55-2.94-6.14-1.9-9.36,1.07-3.32-.46-5.81-1.51-8.51-.97-2.5-1.34-4.9,.31-7.2,.58-.81,1.49-1.39,2.23-2.1,1.13-1.08,2.45-2.04,3.31-3.3,1.11-1.63,2.04-2.95,4.32-3.1,4.52-.29,8.78-3.42,9.82-8.53,.48-2.33,.82-5.02,3.9-5.68,.16-2.2,.46-4.4,.4-6.59-.02-.76-.9-1.5-1.19-1.96l-4.37,.4c-.07-.08-.14-.15-.22-.23-.51-.61-1.02-1.22-1.8-2.17,.91-.04,1.55,.12,1.9-.13,.48-.34,1.16-1.28,1.03-1.45-.95-1.34-1.94-2.72-3.18-3.77-2.25-1.89-2.44-2.96-.82-5.47,.37-.57,.45-1.64,.18-2.25-1.34-2.98-2.67-6-4.4-8.76-.62-.99-2.31-1.32-3.51-1.93-.83-.42-1.96-.61-2.43-1.28-.64-.9-1.38-2.38,.62-2.34-2.39-5.35-5.22-10.36-11.29-12.95,1.33,2.6-.51,3.34-1.86,4.81-2.21,2.41-5.61,4.05-6.05,7.89-.15,1.28-.77,2.51-.98,3.79-.4,2.37-.16,4.55,.5,7.03,.81,3.05,2.77,6.3,1.24,9.79-.68,1.56-1.26,3.16-1.89,4.75l-.19-.12c.32-1.97,.76-3.93,.93-5.91,.08-1.02-.3-2.08-.52-3.12-.13-.61-.63-1.26-.51-1.78,.43-1.83-.17-3.17-.96-4.88-.85-1.84-.2-4.42-.07-6.66,.06-.96,.52-1.89,.67-2.85,.35-2.25,1.02-4.21,3.07-5.62,.88-.61,1.24-1.94,1.92-2.9,.26-.36,.71-.71,1.12-.79,2.26-.41,2.77-1.59,1.92-3.67-1-2.45-2.08-4.75-4.62-6.06-1.28-.66-2.42-1.62-3.62-2.45l-1.22,2.16-.9-.38c.64-1.36,1.28-2.72,1.93-4.08,.21-.43,.58-.83,.62-1.27,.45-4.78,3.38-8.38,5.68-12.28,.3-.5,.52-1.39,.27-1.83-1.39-2.54-2.19-5.9-5.18-6.84-6.27-1.95-7.56-9.87-3.55-13.99,1.5-1.54,2.56-3.54,3.7-5.4,1.19-1.95-.16-3.7-1.56-5.46-2.22-2.79-4.07-6.12-5.09-9.52-.81-2.69-1.11-5.35-3.25-7.47-2.05-2.04-1.84-6.72,.63-9.96,1.24-1.64,1.45-3.25,1.33-5.03-.17-2.82,.18-5.37,2.54-7.32,.32-.27,.34-1.03,.33-1.56-.05-1.72-.35-3.46-.21-5.15,.14-1.66,.69-3.3,1.01-4.71-1.66,.05-3.42-.2-5,.21-2.09,.54-4.01,1.75-6.1,2.36-1.8,.53-3.82,1.12-5.58,.79-2.33-.43-4.18-1.68-6.81,0-1.97,1.26-4.9,1.05-7.39,1.5l-.66-.58c.44-.39,.81-.96,1.32-1.12,2.59-.82,5.2-1.62,7.85-2.24,.89-.22,2.11-.27,2.82,.19,3.87,2.48,6.94,.05,10.25-1.34,1.45-.61,3.06-1.16,4.6-1.16,2.72,0,3.94-.81,4.95-3.31,.81-1.99,2.02-3.84,3.2-5.66,1.38-2.13,1.64-4.26,1.19-6.77m15.63,209.04c.78-1.47,1.38-2.65,2.02-3.8,1.1-2.02,1.05-4.73,4.28-5.41,1.39-.29,2.66-2.14,3.52-3.56,.56-.93,.27-2.36,.36-3.56-3.21-.63-3.87-.23-5.25,2.52-.75,1.5-1.5,3.06-3.6,3.31-.68,.08-1.38,1.05-1.85,1.75-1.86,2.8-.76,5.54,.52,8.76h0Zm1.18,4.77c-1.88,6.37-1.56,8.61,1.75,9.91-.39-3.41,1.14-6.83-1.75-9.91Zm14.78-58.17c-3.19,2.69-3.1,3.3,.47,5.13l-.47-5.13Z"/></g></g></g></g></svg>