<?xml version="1.0" encoding="UTF-8"?><svg id="a" xmlns="http://www.w3.org/2000/svg" width="196.43" height="165.83" viewBox="-100 -100 396.43 365.83"><defs><style>.b{fill:#e2e2e2;}</style></defs><path class="b" d="M78.55,4.05c-.49-1.42-.33-2.68,.29-4.05l-2.56,.09c-1.31,.81-1.09,2.01-1.23,3.41,.32-.22,.48-.33,.57-.39,.57,1.33,1.17,2.68,1.71,4.04,.1,.25,.11,.59,.02,.84-.73,1.92-.87,3.86-.64,5.91,.09,.81-.5,1.72-.88,2.55-.33,.74-.36,1.21,.24,1.94,.46,.55,.49,1.57,.48,2.38,0,.61-.33,1.22-.58,1.8-.36,.85-.41,1.48,.21,2.38,.5,.74,.22,1.99,.35,3.01,.16,1.25-.38,1.85-1.5,2.42-1.1,.56-1.97,1.58-2.92,2.39l.79,.14c-.56,2.6-2.15,4.25-4.49,5.33-.55,.25-1.2,.67-1.4,1.17-.38,.95-1.05,1.44-1.92,1.5-1.36,.1-1.67,.98-1.86,2.06-.15,.87-.39,1.39-1.44,.75-.38-.23-1.18-.05-1.63,.22-1.4,.83-2.81,1.65-3.15,3.51-.2,1.07-.98,1.22-2,.9-.8-.25-1.67-.24-2.51-.35l-.07,.48c1.2,.28,2.39,.69,3.61,.78,.49,.04,1.16-.51,1.53-.97,.86-1.06,1.55-2.26,2.41-3.32,.22-.26,.85-.33,1.25-.26,1.97,.34,2.91-.32,3.34-2.25,.09-.4,.66-.68,1.43-1.42,.82,2.73,1.9,5.01,2.11,7.36,.25,2.7-.42,3.03-3.08,3.59-2.22,.46-3.64,2.07-4.95,3.77-1.17,1.52-.1,2.92,.28,4.36,.16,.57,.2,1.17,.29,1.76,.04,.28-.03,.67,.13,.84,1.05,1.11,.08,2.35,.23,3.52,.03,.24-.68,.65-1.11,.85-.52,.25-1.24,.2-1.63,.55-2.27,2.03-5.1,2.75-7.87,3.72-1.01,.36-2.08,1.4-2.49,2.4-.5,1.2-1.31,1.87-2.32,2.24-1.91,.69-2.99,2.23-4.26,3.61-.65,.71-1.36,1.36-2.03,2.05-.8,.82-1.49,1.82-2.43,2.41-1.03,.65-2.3,.92-3.43,1.35,.71,.05,1.51,.1,2.38,.15-.04,.34,.01,.7-.14,.88-1.19,1.45-2.35,2.92-3.65,4.26-.41,.43-1.23,.77-1.8,.7-1.51-.18-2.64,.45-3.76,1.28-1.44,1.06-2.09,.92-3.08-.57-.79-1.2-1.63-2.35-2.82-4.07-.28,.18-.8,.52-1.32,.85v.5c1.06-.24,1.37,.18,1.76,1.06,.54,1.24,1.63,2.24,2.42,3.26-1.66,.66-3.35,1.55-5.15,1.98-1.15,.27-2.47-.22-3.71-.19-.8,.02-1.6,.53-2.38,.48-1.22-.08-1.23,.79-1.72,1.48-1.33,1.85-2.98,3.4-5.37,3.89-.48,.1-.98,.4-1.33,.76-1.37,1.41-1.35,1.6-2.78,3.13-.98-.25-.57,2.51-1.01,3.97l.75-.37c.06-1.66,.19-3.08,2.01-3.74,.29-.11,.61-.4,.71-.68,.55-1.67,1.84-2.23,3.66-2.39-.11,1.2-.16,2.32-.34,3.41-.05,.26-.58,.41-.87,.64-.48,.38-1.02,.7-1.41,1.16-.83,.98-1.5,2.11-2.38,3.04l1.87-.85c.96-1.44,5.1-3.08,5.92-4.59,.33-.61,.21-1.49,.21-2.24,0-1.71,.57-2.38,2.17-3.01,1.14-.45,2.53-.63,3-2.16,.07-.22,1.12-.39,1.55-.2,1.39,.6,2.4,.7,3.61-.62,.7-.76,2.25-.69,3.37-1.11,1.44-.54,2.84-1.21,4.27-1.79,.81-.33,1.65-.59,2.83-1.01-.18,.87-.22,1.3-.37,1.67-.47,1.11-.12,1.85,.71,2.7,.55,.57,.93,1.66,.85,2.46-.25,2.58,.83,4.51,2.43,6.34,.33,.38,.47,1.14,.36,1.65-.44,2.01,.36,4.03,2.2,5.06,.21,.12,.54,.15,.64,.32,.16,.28,.33,.7,.23,.95-.79,1.89,1.97,3.89-.28,5.77-1.08,.91-2.15,1.91-2.14,3.64,0,.44-1.25,.89-1.89,1.31,.32,0,.8,.01,1.32,.03,.06,.48,.13,.95,.23,1.65-2.42,.6-4.86,1.21-7.31,1.82-.19,.05-.43,.18-.56,.1-1.21-.65-2.07,.11-3.02,.67-1.09,.64-1.59,1.81-1.16,3.01,.57,1.58,.2,2.71-1.15,3.82-.43,.35-.73,.83-1.09,1.25l.49,.41c.99-1.18,2.04-2.33,2.95-3.57,.23-.31,.24-1.07,.01-1.37-1.06-1.43-.38-2.3,.78-3.13,.27-.19,.5-.45,.52-.48,3.49-.08,6.61-.91,9.94-2.17-.68,3.01,.54,4.68,2.79,5.91,1.03,.56,1.91,4.35,1.47,5.46-.56,1.41-.21,2.52,1.04,3.54,1.55,1.27,2.41,2.51,1.82,4.91-.36,1.47-1.51,3.19-.55,4.97,.12,.2-.25,.67-.39,1.01-.26,.59-.5,1.2-.79,1.78-.18,.37-.37,.79-.67,1.04-1.28,1.07-2.05,2.29-1.9,4.08,.06,.72-.48,1.52-.84,2.24-.73,1.44-1.53,2.84-2.22,4.3,.71-.87,1.97-1.19,1.97-2.77,0-.92,1.11-1.8,1.6-2.77,.21-.41,.05-1,.16-1.49,.15-.7,.16-1.7,.62-2.04,1.49-1.1,2.18-2.66,2.88-4.24,.23-.51,.38-1.06,.46-1.62,.19-1.28-.04-2.8,.59-3.79,.53-.82,.41-1.44,.49-2.2,.21-2.05-1.15-3.18-2.54-4.13-1.18-.8-.97-1.72-.57-2.65,.56-1.33,.54-2.49-.4-3.63-.26-.32-.3-.82-.53-1.18-.39-.6-.74-1.35-1.31-1.67-1.71-.98-2.56-2.58-2.12-4.47,.06-.27,.17-.67,.36-.75,2.36-.97,2.56-3.1,2.43-5.09-.14-2.06,1.09-3.27,2.08-4.66,.91-1.3,1.46-2.62,.85-4.17-.22-.55-.65-1.02-.98-1.52-.5-.78-1.12-1.52-1.43-2.37-.4-1.09-.75-1.98-2.04-2.39-2.55-.81-4.54-3.22-4.41-6.3,.06-1.4,.25-3-1.42-3.82,.22-1.29,.36-2.59,.71-3.84,.12-.43,.73-.73,.96-.95l2.45,.85c.06-.04,.11-.07,.16-.1,.38-.28,.75-.55,1.34-.98-.52-.15-.9-.16-1.07-.35-.23-.26-.48-.9-.39-.98,.74-.63,1.5-1.29,2.36-1.71,1.55-.76,1.82-1.35,1.25-3.02-.12-.38-.03-1,.22-1.32,1.2-1.52,2.39-3.05,3.78-4.39,.49-.48,1.51-.43,2.29-.61,.54-.12,1.21-.07,1.58-.38,.5-.43,1.13-1.16-.02-1.43,2.14-2.72,4.47-5.19,8.33-5.81-1.13,1.3-.19,1.99,.38,3.02,.92,1.7,2.64,3.12,2.34,5.39-.1,.76,.08,1.55,.02,2.32-.1,1.42-.56,2.63-1.29,3.96-.91,1.63-2.49,3.22-2.11,5.44,.17,.99,.27,2,.4,2.99l.12-.05c.1-1.17,.12-2.36,.31-3.52,.1-.6,.47-1.15,.75-1.71,.17-.33,.54-.63,.55-.95,.02-1.11,.56-1.8,1.25-2.66,.75-.93,.74-2.51,.99-3.81,.11-.56-.02-1.15,.02-1.73,.12-1.34,.01-2.56-.95-3.66-.42-.48-.43-1.29-.68-1.93-.1-.24-.31-.51-.53-.61-1.23-.56-1.36-1.31-.57-2.38,.93-1.26,1.87-2.43,3.51-2.81,.83-.19,1.62-.58,2.42-.88l.39,1.42,.57-.09c-.17-.87-.35-1.74-.52-2.62-.06-.27-.21-.56-.17-.81,.43-2.81-.74-5.29-1.5-7.86-.1-.34-.1-.87,.1-1.09,1.16-1.26,2.1-3.08,3.95-3.18,1.21-.07,2.21-.54,2.98-1.24,.43,.03,.87,.07,1.31,.09,.91,.05,1.83,.03,2.74,.13,.33,.04,.71,.28,.92,.55,.88,1.09,1.71,2.23,2.56,3.35,.33,.43,.67,.84,1,1.27,.8,1.02,1.95,1.33,3.13,1.57,1.49,.29,2.98,.58,4.48,.87,.66,.13,1.16,.38,1.36,1.12,.43,1.53,.98,3.02,1.39,4.55,.37,1.37,.57,2.79,.91,4.17,.14,.56,.44,1.07,.69,1.6,.18,.38,.42,.73,.61,1.11,.37,.73,.39,1.46,.06,2.24-.14,.33-.12,.73-.16,1.1,.11,.04,.21,.09,.33,.13,.22-.37,.58-.72,.62-1.1,.12-1.09,.16-2.19-.5-3.19-.53-.81-.97-1.7-1.01-2.89,.29,.19,.47,.29,.64,.42,1.21,.87,1.64,2.22,2.27,3.48,.54,1.09,1.31,2.1,2.14,2.99,1.25,1.35,2.32,2.73,2.52,4.66,.06,.58,.43,1.18,.8,1.66,.51,.66,1.23,1.17,1.75,1.83,.33,.41,.46,.97,.68,1.47,.16,.36,.28,.73,.49,1.06,.16,.25,.44,.42,.66,.63,1.08,1,1.33,1.74,.75,3.07-.68,1.52-.76,3-.36,4.59,.14,.58,.1,1.29-.11,1.85-.49,1.29-.29,2.51,.21,3.69,.45,1.07,1.05,2.09,1.62,3.1,.36,.64,.55,1.28,.44,2.01-.04,.29,0,.6,.16,.91,.3-.73,.55-1.48,.21-2.23-.51-1.13-1.13-2.21-1.63-3.34-.66-1.48-.96-2.95-.08-4.52,.25-.44,.16-1.23-.04-1.75-.48-1.26-.47-2.46,.17-3.6,.82-1.47,.64-2.77-.4-4.02-.24-.29-.52-.55-.73-.85-.19-.29-.44-.65-.4-.94,.1-.82-.35-1.32-.86-1.82-.17-.16-.33-.33-.51-.48-1-.85-1.73-1.73-1.85-3.2-.15-1.77-1.29-3.21-2.58-4.41-1.53-1.41-2.16-3.25-2.7-5.15-.02-.08,0-.18,.03-.45,.35,.18,.66,.26,.86,.45,.98,.94,1.93,1.91,2.9,2.87,.16,.16,.32,.32,.58,.58,0-.23,.03-.33,0-.38-.99-1.18-1.94-2.41-3.01-3.51-.37-.39-1.06-.53-1.63-.63-.67-.12-1.26-.29-1.7-.86-1.05-1.37-1.76-2.83-1.9-4.6-.07-.86-.54-1.68-.82-2.51-.23-.69-.13-.79,.59-.89,.92-.14,1.54,.2,2.09,.94,1.21,1.61,2.57,3.11,3.7,4.77,.63,.93,.98,2.05,1.37,3.12,1.25,3.38,2.88,6.52,5.33,9.18,1.74,1.9,3.54,3.75,5.3,5.64,.69,.74,1.31,1.54,1.47,2.58,.21,1.33,.98,2.16,2.23,2.65,2.19,.88,4.39,1.76,6.53,2.78,1.47,.71,2.84,1.63,4.24,2.47,1.02,.61,1.5,1.62,1.74,2.7,.38,1.69,1.31,3.08,2.17,4.53,.39,.67,.68,1.4,1.02,2.11l.2-.06c-.09-.32-.12-.69-.27-.98-.73-1.37-1.53-2.69-2.2-4.08-.39-.81-.61-1.71-.88-2.58-.42-1.36-1.58-1.99-2.63-2.72-2.25-1.56-4.77-2.58-7.26-3.66-.92-.4-1.83-.85-2.74-1.28-1.01-.47-1.75-1.96-1.47-3.15,.11-.48-.07-.69-.35-.95-1.49-1.36-2.98-2.71-4.43-4.11-.55-.53-1.01-1.17-1.49-1.77-.09-.11-.17-.3-.15-.44,.09-.8,1.62-1.86,2.38-1.66,.06,.02,.13,0,.44-.03-.27-.33-.41-.62-.64-.74-.21-.1-.58-.11-.76,.02-.51,.32-.96,.74-1.43,1.13-.56,.46-.83,.48-1.18-.13-.62-1.06-1.17-2.17-1.74-3.26-.04-.08-.07-.19-.14-.24-1.46-1.08-1.9-2.79-2.35-4.37-.48-1.7-1.29-3.11-2.44-4.42-.86-.98-1.53-2.12-2.29-3.2-.28-.41-.27-.81,.25-.94,1.98-.48,3.97-1.24,5.96-1.28,4.82-.11,9.6,.39,14,2.69,1.62,.84,3.36,1.15,5.19,.93,.88-.11,1.78-.1,2.67-.19,.76-.08,1.32,.19,1.78,.77,1.2,1.51,2.37,3.03,3.63,4.49,.87,1,1.83,1.94,2.82,2.84,.84,.76,1.97,.81,3.02,1,1.01,.19,2.03,.34,3.03,.55,1.38,.29,2.36,1.21,3.24,2.24,1.4,1.64,2.27,3.54,2.73,5.63,.51,2.32,1.88,3.81,4.28,4.14,1.34,.19,2.44,.74,3.41,1.64,2.77,2.57,5.58,5.1,8.32,7.7,.62,.58,1.02,1.39,1.54,2.08,1.75,2.34,3.92,4.12,6.66,5.23,2.22,.9,3.95,2.5,5.61,4.18,.98,.99,1.95,1.95,3.27,2.5,1.66,.69,2.39,2.17,3.05,3.69,.22,.51,.29,1.08,.44,1.62,.05,.18,.14,.35,.21,.52l.31-.05c-.07-.52-.03-1.08-.22-1.55-.38-.95-.88-1.85-1.33-2.78-.12-.24-.2-.5-.36-.94,1.13,.16,2.1,.29,3.05,.43,.35,.05,.69,.16,1.04,.2,1.56,.18,2.59,1.1,3.36,2.39,.93,1.56,2.19,2.71,3.96,3.29,.87,.28,1.62,.78,2.22,1.53,.26,.32,.75,.55,1.17,.66,1.78,.48,3.57,.9,5.36,1.33,.32,.07,.66,.06,1,.08l.05-.28c-.65-.12-1.3-.26-1.96-.37-1.61-.26-3.16-.6-4.53-1.58-.96-.69-1.96-1.35-3.04-1.82-1.49-.65-2.76-1.5-3.53-2.96-1.23-2.32-3.33-3.04-5.75-3.34-1.44-.18-2.88-.45-4.26-.88-.76-.24-1.43-.85-2.08-1.38-1.87-1.53-3.64-3.16-5.57-4.62-.96-.73-2.16-1.12-3.21-1.72-1.84-1.06-3.3-2.54-4.4-4.36-1.16-1.94-2.89-3.37-4.49-4.92-1.66-1.62-3.36-3.21-5.04-4.81-1-.94-2.24-1.42-3.54-1.79-.61-.17-1.22-.33-1.82-.54-1.11-.38-1.5-1.35-1.8-2.35-.15-.5-.15-1.05-.22-1.64,.71,0,1.32,.06,1.92,.02,2.08-.14,4.16-.37,6.25-.48,.78-.04,1.65-.06,2.34,.23,1.63,.7,3.29,.64,4.98,.62,2.02-.02,4.04-.03,6.06-.01,.74,0,1.5,.11,2.24,.21,1.67,.23,3.16-.24,4.52-1.17,1.33-.9,2.12-.83,3.2,.36,.34,.38,.69,.78,.92,1.23,.76,1.46,2.04,2.06,3.57,2.29,.45,.07,.9,.08,1.35,.13l.02-.29c-.53-.09-1.07-.18-1.61-.26-1.29-.17-2.15-.93-2.84-1.97-.4-.6-.83-1.2-1.3-1.74-.94-1.06-1.64-1.18-2.92-.56-.38,.19-.78,.34-1.13,.57-1.35,.88-2.85,.85-4.36,.76-.26-.01-.51-.13-.76-.28,1.95-.62,3.78-1.36,5.3-2.7l-.13-.27c-.46,.23-.95,.42-1.39,.68-2.19,1.3-4.58,1.9-7.09,2.11-1.22,.1-2.44,.13-3.65,.29-1.62,.22-3.14-.01-4.67-.59-.85-.32-1.83-.4-2.74-.39-2.25,.02-4.5,.17-6.75,.26-1.05,.04-1.84-.24-2.38-1.32-.59-1.15-1.45-2.19-2.25-3.22-1.26-1.6-3-2.35-4.97-2.65-.95-.15-1.9-.27-2.85-.45-1.29-.25-2.1-1.22-2.88-2.14-1.27-1.5-2.4-3.12-3.61-4.67-.8-1.04-1.57-2.13-2.98-2.44-.34-.07-.69-.11-1.04-.09-1.31,.07-2.62,.2-3.94,.23-.6,.01-1.19-.17-1.79-.26v-.3c.24-.08,.47-.2,.72-.23,2.16-.26,4.31-.35,6.41,.37,.59,.2,1.12,.07,1.61-.23,.49-.3,.95-.27,1.25,.17,.94,1.37,2.19,1.39,3.74,1.36,1.98-.04,3.97,.24,5.96,.02,2.96-.33,5.92-.67,8.77-1.62,.22-.07,.5-.04,.74,.02,.71,.18,1.39,.4,2.09,.61,.73,.23,1.43,.07,2.01-.35,.8-.59,1.65-.94,2.63-1.09,.81-.13,1.58-.44,2.38-.59,1.53-.29,2.82,.53,4.2,.95,.26,.08,.52,.16,.79,.24,.01-.09,.03-.16,.02-.17-1.96-.98-3.91-1.99-6.22-1.38-1.2,.32-2.37,.7-3.55,1.05-.08,.03-.16,.1-.24,.15-.41,.25-.88,.75-1.23,.69-.86-.16-1.68-.56-2.49-.92-.12-.06-.19-.42-.16-.62,.17-1,.12-2.09,1.02-2.83,.05-.05,.06-.16,.09-.26-1.01,.15-1.25,.4-1.39,1.27-.09,.59-.2,1.21-.44,1.76-.39,.89-1.3,1.09-2.12,1.19-3.45,.41-6.9,.77-10.35,1.1-.41,.04-.83-.1-1.25-.2-.4-.09-.47-.43-.16-.6,1.55-.81,2.09-2.5,3.24-3.65,.11-.11,.22-.24,.33-.36,0,0,0-.04-.03-.17-.21,.05-.41,.09-.6,.17-.13,.06-.25,.17-.32,.28-1.01,1.56-2.4,2.71-3.9,3.78-.87,.62-1.56,.71-2.27-.09-.9-1.01-1.88-1.52-3.3-1.07-.54,.17-1.24-.06-1.85-.19-1.93-.42-3.88-.32-5.82-.16-1.88,.16-3.57-.25-5.18-1.61,.73-.27,1.37-.49,2-.76,1.24-.54,2.5-1.05,3.69-1.68,.49-.26,.83-.81,1.28-1.18,.27-.22,.61-.42,.95-.48,.92-.17,1.86-.25,2.79-.41,.35-.06,.76-.19,1.02-.43,.61-.57,1.31-.65,2.09-.61,.87,.05,1.75-.04,2.6,.07,.6,.07,1.21,.31,1.75,.59,.61,.31,1.16,.76,1.74,1.16l.4-1.16c-.59-.26-1.23-.5-1.84-.82-1.08-.57-1.14-.93-.26-1.77,.38-.36,.83-.65,1.24-.97l-.08-.19c-.29,.12-.6,.19-.85,.36-.43,.28-.82,.62-1.24,.93-.33,.24-.65,.32-1.01,0-.77-.69-.99-.61-1.9-.12-1.34,.74-2.71,1.43-4.14,1.97-.73,.27-1.61,.12-2.41,.22-.42,.05-.96,.11-1.2,.38-1.76,2.08-4.17,2.64-6.67,2.89-1.79,.18-3.61,.11-5.42,.02-1.61-.08-2.99,.31-4.26,1.3-.41,.32-.99,.48-1.51,.61-1.5,.35-3.01,.66-4.53,.93-1.04,.19-2.08,.36-3.13,.42-3.35,.19-6.67,.03-9.89-.96-.7-.21-1.4-.57-1.94-1.05-1.29-1.16-2.5-2.4-3.7-3.65-.51-.54-1.13-.67-1.82-.78-1.15-.18-2.27-.16-3.39,.05,1.21-1.59,1.49-3.86,.46-5.62-.64-1.1-.96-2.39-1.35-3.62-.4-1.29,.62-2.1,1.68-2.91,1.67-1.28,3.21-2.93,4.28-4.73,.85-1.43,1.41-2.91,2.93-3.82,1.46-.88,2.01-3.59,1.06-5.8-.48-1.12-.36-2.07-.04-3.08,.5-1.59,.66-3.11-.41-4.56-.15-.2-.05-.64,.03-.95,.27-.98,.69-1.93,.86-2.93,.16-.98,.08-1.99,.1-2.85,.95,.27,1.99,.38,2.84,.84,1.13,.61,2.05,1.58,3.16,2.23,.96,.57,2.03,1.19,3.09,1.26,1.4,.09,2.64-.36,3.91,.98,.95,1.01,2.66,1.3,4.03,1.91l.46-.24c-.19-.29-.33-.67-.6-.83-1.37-.85-2.75-1.67-4.18-2.41-.48-.25-1.17-.46-1.64-.3-2.57,.87-3.99-.96-5.69-2.24-.75-.55-1.6-1.1-2.47-1.32-1.56-.38-2.14-1.03-2.37-2.61-.18-1.26-.61-2.49-1.03-3.7l.07-.03ZM38.57,120.24c.17,3.93-.33,5.17-2.42,5.44,.71-1.9,.32-4.08,2.42-5.44Zm-2.13-13.4c1.93,.09,2.25,.42,2.65,2.19,.22,.96,.42,1.97,1.59,2.41,.38,.15,.64,.8,.81,1.27,.66,1.87-.36,3.29-1.55,4.95-.24-.95-.41-1.71-.61-2.46-.35-1.32,.07-2.86-1.69-3.72-.76-.36-1.22-1.61-1.51-2.55-.19-.61,.18-1.39,.3-2.09h0Zm1.97-22.08c1.44,2,1.31,2.33-1,2.88l1-2.88Z"/></svg>