<?xml version="1.0" encoding="UTF-8"?><svg xmlns="http://www.w3.org/2000/svg" width="205.89mm" height="74.34mm" viewBox="0 0 583.62 210.73"><defs><style>.d{fill:#fff;}</style></defs><g id="a"/><g id="b"><g id="c"><path class="d" d="M3.12,125.98c4.11-3.32,7.72-1.29,12.4-.15-1.07,.79-1.59,1.17-1.89,1.39,3.66,3.34,7.33,6.76,11.1,10.06,.68,.6,1.78,1.03,2.68,1.01,7.01-.19,13.43,1.52,19.78,4.57,2.51,1.2,6.12,.31,9.21,.03,2.73-.24,4.32,.2,5.97,2.94,1.27,2.11,4.52,3.34,7.14,4.24,1.94,.67,4.28,.32,6.43,.17,3.14-.21,5.21,.36,7.44,3.36,1.82,2.45,6.19,2.92,9.31,4.5,3.86,1.94,6.41,.85,9.49-2.13,3.04-2.93,7.32-4.58,10.99-6.74l-.45,2.71c8.99,1.11,16.1-2.18,22.22-8.51,1.42-1.47,3.5-3.09,5.34-3.18,3.49-.17,5.8-1.77,7-4.53,1.86-4.28,5.03-4.29,8.72-3.67,2.96,.5,4.91,.31,4.04-3.81-.31-1.47,1.16-3.87,2.52-5.01,4.24-3.56,8.48-7.2,14.86-6.21,3.68,.57,5.02-1.79,5.13-5.43,.09-2.84,1.08-5.65,1.67-8.48l1.63,.33c-.44,4.19-.47,8.49-1.53,12.52-.43,1.63-2.95,3.17-4.85,3.86-4.38,1.6-9.02,2.46-13.4,4.06-1.08,.4-2.02,2.38-2.24,3.76-1.1,6.72-4.28,9.03-11,8.24-1.37-.16-2.94,1.37-6.19,3.03,7.89,5.72,14.02,11.74,21.37,15.08,8.41,3.82,10.24,2.06,15.04-5.91,3.99-6.63,10.79-9.42,17.73-11.72,6.19-2.05,9.53,2.95,13.74,5.82,1.67,1.14,3.55,1.95,5.34,2.9,.86,.46,2.17,.67,2.54,1.38,2.41,4.62,7.52,2.89,11.11,4.71,.72,.36,2.84-1.48,3.97-2.63,1.37-1.39,2.02-3.77,3.59-4.64,9.09-5.05,14.6-13.36,20.83-21.2,2.28-2.87,6.87-5.13,10.54-5.35,4.44-.27,7.52-2.13,9.82-4.97,4.36-5.39,10.54-7.14,16.41-9.69,3.01-1.3,5.92-2.84,8.88-4.25,3.53-1.68,7.53-2.77,10.5-5.15,3.25-2.6,5.54-6.38,8.19-9.57-.65,2.33-1.38,4.96-2.18,7.85,1.14,.23,2.23,.82,3,.54,6-2.19,12.04-4.31,17.82-6.98,1.85-.86,3.85-3.09,4.28-5.03,1.11-5.08,4.43-8.02,8.34-10.7,5.04-3.45,5.32-5.69,1.62-10.56-2.96-3.89-5.76-7.9-9.95-13.66,.89-.69,2.56-2.01,4.24-3.32l1.63,.52c-1.98,3.19-.99,4.67,1.42,6.91,3.39,3.14,5.4,7.77,7.8,11.45,4.01-4.61,8.77-9.06,12.18-14.37,2.19-3.42,2.09-8.22,3.56-12.2,.94-2.55,3.51-4.56,4.22-7.12,1.11-4.03,3.93-3.06,6.71-3.89,7.46-2.22,14.32-5.8,18.59-12.96,.86-1.44,2.41-2.74,3.94-3.46,6.08-2.85,6.65-2.58,13.22-5.46,.27-3.44,8.71,1,13.94,1.2l-2.01,1.99c-5.42-1.68-10.16-2.84-14.33,2.28-.66,.81-1.99,1.55-2.99,1.54-6.02-.1-9.26,3.41-11.83,9.13,4.01,1.01,7.65,2.11,11.37,2.73,.88,.14,1.99-1.4,3.05-2.08,1.74-1.13,3.41-2.51,5.32-3.24,4.1-1.57,8.49-2.48,12.48-4.28l-4.85,5.09c-5.72,1.46-15.63,12.97-21.43,13.94-2.33,.39-5.03-1-7.46-1.84-5.54-1.91-8.33-.86-12.16,3.63-2.72,3.19-4.87,7.45-10.34,7.26-.79-.03-2.51,3.17-2.39,4.76,.39,5.15-.41,8.51-6.03,10.94-3.22,1.39-4.73,6.48-7.34,9.63-3.35,4.05-7.08,7.79-10.55,11.75-1.97,2.24-3.75,4.65-6.42,8,3.01,.38,4.43,.78,5.81,.69,4.1-.27,6.09,1.69,7.91,5.33,1.22,2.44,4.29,4.87,6.96,5.52,8.59,2.08,13.6,7.74,17.72,14.94,.85,1.49,3.14,2.8,4.91,3.01,6.98,.81,12.56,5.69,13.86,12.77,.15,.81-.13,1.9,.32,2.42,.7,.83,1.87,1.86,2.78,1.81,6.98-.44,10.34,10.73,18.92,5.58,4.14-2.48,8.55-4.79,14.13-2.81,1.41,.5,4.25-3.02,6.35-4.62-.34,1.04-.84,2.58-1.39,4.28,1.47,.76,2.89,1.49,5.06,2.61,4.67-7.14,9.38-14.32,14.08-21.52,.36-.55,1.04-1.2,.96-1.7-.74-4.65,2.67-6.55,5.54-8.99,3.27-2.79,7.63-3.09,11-.36,4.46,3.61,8.5,3.69,13.61,.56,1.59-.98,3.51-1.43,5.27-2.12l.79,2.03c-4.92,1.88-9.78,3.96-14.81,5.51-1.25,.39-3.71-.42-4.44-1.49-3.41-4.99-7.01-3.79-10.96-.98-.92,.66-2.01,1.09-2.14,1.16-4.18,11.17-10.35,20.31-18.17,29.64,10.44,1.18,14.49,6.99,15.92,15.64,.65,3.95,11.89,11.05,15.95,10.86,5.17-.25,8.35,2.16,10.23,7.33,2.34,6.42,5.39,10.58,13.78,11.38,5.14,.49,11.99-1.27,16.63,3.8,.54,.59,2.44-.05,3.7-.15,2.21-.17,4.43-.28,6.63-.56,1.4-.18,2.96-.29,4.12-.98,4.9-2.92,9.67-4.04,15.31-1.55,2.26,1,5.46,.16,8.18-.21,5.46-.74,10.88-1.74,16.38-2.34-3.61,1.31-6.04,5.02-11.17,3.26-2.97-1.02-7.07,1.55-10.72,2.03-1.58,.21-3.3-.95-4.99-1.16-2.45-.31-5.65-1.39-7.27-.28-5.24,3.57-11.03,4.05-16.92,4.55-1.89,.16-3.86,.03-5.73-.32-4.35-.81-9-3.27-12.88-2.34-3.24,.78-5.11-.28-7.66-.89-6.84-1.64-8.96-7.26-10.48-12.82-1.28-4.69-4.47-5.04-7.92-4.82-4.92,.31-8.64-1.05-11.27-5.37-.74-1.21-2.31-1.88-3.2-3.04-1.48-1.93-3.5-3.9-3.91-6.12-1.23-6.62-5.43-11.17-12.04-11.87-.94-.1-2.35-.21-2.82,.32-5.77,6.52-12.88,4.78-19.16,2.12-6.47-2.75-11.76-.14-17.38,1.48-5.21,1.5-10.1,1.79-14.41-1.93-1.53-1.32-2.53-3.25-3.81-4.86-1.96-2.47-3.65-5.3-6.04-7.26-3.07-2.52-5.56-4.64-5.44-9.26,.24-9.14-5.28-18.27-15.36-21.29-4.59-1.38-9.95-2.56-10.71-8.88-4.39-.72-8.76-1.72-13.18-2.01-1.53-.1-3.17,1.53-4.15,2.04,0,3.41,0,6.13,0,8.86-.17,.13-.33,.26-.5,.4-1.32,.91-2.64,1.82-4.69,3.23,.09-1.84,.52-3.09,.09-3.84-.59-1.03-2.36-2.56-2.73-2.34-2.86,1.67-5.83,3.4-8.16,5.71-4.2,4.17-6.4,4.37-11.14,.65-1.08-.84-3.21-1.21-4.5-.77-6.24,2.15-12.55,4.28-18.42,7.24-2.1,1.06-3.07,4.4-4.52,6.71-1,1.59-1.58,3.83-3.01,4.66-1.93,1.12-5.03,2.34-4.6-1.68-11.2,3.82-21.78,8.6-28.09,20.34,5.48-2.2,6.62,1.63,9.33,4.61,4.44,4.88,7.11,12.01,14.76,13.6,2.55,.53,4.9,2,7.44,2.67,4.7,1.24,9.12,1.15,14.22,.28,6.28-1.08,13.18-4.42,19.9-.7,3.01,1.66,6.13,3.11,9.2,4.66l-.28,.35c-3.9-1.01-7.76-2.25-11.71-2.94-2.03-.35-4.24,.22-6.36,.48-1.25,.16-2.64,1.04-3.67,.7-3.61-1.2-6.41-.24-9.99,1.04-3.86,1.38-8.92-.41-13.41-1.08-1.92-.29-3.7-1.38-5.6-1.86-4.45-1.12-8.27-2.82-10.73-7.19-1.06-1.89-3.68-2.85-5.47-4.39-.67-.58-1.3-1.56-1.38-2.4-.42-4.61-2.69-5.85-7.02-4.52-5.11,1.57-9.93,3.31-13.02,8.18-1.56,2.46-3.7,4.56-5.58,6.83l4.13,2.84c-.31,.58-.62,1.16-.93,1.74-2.62-1.54-5.24-3.07-7.86-4.62-.82-.49-1.56-1.32-2.43-1.48-9.52-1.78-16.23-8.32-23.66-13.67-.96-.69-2.7-1.29-3.63-.88-5.36,2.33-12.27,3.32-14.69,9.17-5.06,12.24-21.22,13.4-28.77,4.59-2.83-3.3-6.64-5.79-10.18-8.42-3.71-2.75-7.46-.35-11.26,2.14-6.01,3.95-13.04,7.07-20.06,8.5-5.55,1.13-10.95,1.26-15.62,5.16-4.48,3.74-13.84,2.47-19.91-3.09-3.06-2.8-6.26-3.5-9.87-3.6-5.7-.17-10.77-1.35-14.26-6.44-.48-.7-2.01-.87-3.08-.94-3.47-.22-7.01,.07-10.4-.52-3.32-.58-6.5-1.99-9.28-2.89-.21,3.35-1.02,6.83-.49,10.09,.7,4.31,2.79,8.39,3.64,12.69,.74,3.72,1.56,7.88,.58,11.36-1.29,4.6-4.14,8.1-1.23,13.7,2.18,4.2,1.22,10.04,1.66,15.14-.43,.41-.86,.82-1.29,1.23-.7-.95-1.79-1.81-2.02-2.86-1.18-5.36-2.3-10.75-3.08-16.19-.27-1.83-.15-4.3,.89-5.63,5.7-7.32,1.37-13.94-.83-20.85-.96-3.03-1.77-6.37-1.5-9.46,.49-5.46-.92-8.06-5.76-10.56-3.86-1.99-7.35-4.76-10.79-7.47-4.02-3.17-8.27-4.08-13.39-3.62m423.11,6.73c-2.82-1.84-5.07-3.26-7.27-4.75-3.86-2.59-9.32-2.97-10.1-9.6-.33-2.84-3.82-5.74-6.52-7.73-1.76-1.29-4.69-.97-7.09-1.37-1.85,6.33-1.17,7.73,4.1,11.01,2.87,1.78,5.87,3.57,5.99,7.85,.04,1.39,1.85,2.96,3.18,4.03,5.29,4.25,11,2.53,17.7,.55Zm9.8-1.5c12.46,4.95,17.03,4.71,20.24-1.7-6.92,.16-13.52-3.54-20.24,1.7Zm-114.24-40.34c4.83,6.91,6.06,6.84,10.4,0h-10.4Z"/></g></g></svg>