<?xml version="1.0" encoding="UTF-8"?><svg id="a" xmlns="http://www.w3.org/2000/svg" width="289.11" height="319.53" viewBox="0 0 289.11 319.53"><defs><style>.b{fill:#e2e2e2;}</style></defs><path class="b" d="M282.48,251.29c-1.7-1.34-3.43-2.71-5.34-3.7-2.4-1.24-3.1-2.53-2.85-5.23,.13-1.53-.27-3.19-.74-4.69-1.09-3.42-3.23-6.7-.41-10.33,.52-.66,.57-1.88,.44-2.79-.39-2.69-.94-5.36-1.53-8.02-.11-.52-.65-.95-1-1.42l-.64,.61c.22,2.53-.26,5.42,.82,7.5,1.44,2.77,.03,4.51-.61,6.79-.49,1.72-.08,3.78,.29,5.63,.42,2.13,1.46,4.15,1.8,6.29,.26,1.61-.14,3.34-.24,5-1.38-.45-2.95-1.14-4.6-1.43-1.68-.29-3.43-.15-5.15-.26-.53-.03-1.29-.12-1.53-.47-1.73-2.52-4.24-3.11-7.06-3.19-1.79-.05-3.37-.4-4.89-1.78-3.01-2.75-7.64-3.38-9.86-1.53-2.31,1.93-4.99,2-7.74,2.56-3.48,.71-6.96,2.25-9.94,4.21-1.88,1.23-3.74,2.42-5.58,1.06-1.75-1.3-3.64-2.54-5.04-4.17-2.24-2.62-6.02-3.44-9.23-2.39,.97-1.66,1.62-3.45,1.97-5.38,.21-1.16,.34-2.22-.23-3.34-1.33-2.62-2.65-5.25-3.78-7.95-.47-1.12-.65-2.45-.6-3.68,.2-5.7,1.79-11.1,3.96-16.34,.68-1.64,1.53-3.22,2.41-4.77,1.28-2.27,2.62-4.51,4.01-6.72,.49-.77,1.07-1.6,1.81-2.08,2.29-1.48,3.68-3.48,4.45-6.09,.86-2.93,1.77-5.88,3.05-8.64,1.78-3.85,4.02-7.4,8.32-9.05,.57-.22,.97-1.06,1.28-1.7,.61-1.23,.86-2.72,1.7-3.73,1.65-1.98,3.53-3.79,5.45-5.52,1.29-1.17,1.54-1.49,.86-3.1-.31-.75,0-1.23,.56-1.62,.72-.5,1.48-.93,2.17-1.46,.41-.31,.7-.77,1.05-1.16l-.26-.23c-.74,.49-1.45,1.04-2.24,1.45-1.83,.94-2.37,.66-2.68-1.39-.17-1.15-.2-2.32-.29-3.4-.71,0-1.33,0-2.08,0,.31,1.16,.72,2.28,.88,3.43,.15,1.03,.19,2.13-.03,3.13-.3,1.43-.92,2.79-1.33,4.2-.36,1.27-.88,2.34-2.13,3-.52,.28-.95,.86-1.25,1.39-.77,1.39-1.41,2.85-2.2,4.23-.29,.5-.8,.94-1.3,1.25-.83,.52-1.9,.75-2.59,1.39-1.66,1.56-3.18,3.28-4.73,4.97-.77,.85-1.48,1.76-2.32,2.77-1.27-3.33-.99-6.26,.31-9.17,1.34-3.01,2.58-6.07,2.98-9.39,.13-1.05,.15-2.29,.72-3.06,1.5-2.02,1.24-3.87,.12-5.87-.88-1.58-.36-2.62,1.12-3.67,2.54-1.8,5.15-3.39,8.21-4.13,.22-.05,.46-.18,.62-.35,.24-.25,.41-.56,.61-.86-.19-.11-.24-.15-.26-.14-.26,.1-.52,.2-.76,.32-2.48,1.19-5.47,1.12-7.63,3.14-.44,.41-.94,.1-.87-.59,.08-.71,.09-1.47,.38-2.1,2.46-5.33,4.94-10.65,7.52-15.93,.61-1.25,1.44-2.6,3.08-2.72,1.01-.07,2.05,.1,3.05,.28,1.46,.26,2,.02,2.8-1.51-.18,0-.36-.06-.47,0-1.69,1.03-3.4,.35-5.09,.06-.34-.06-.89-.37-.91-.6-.12-1.5-.31-3.03-.08-4.49,.09-.6,1.15-1.06,1.78-1.58,.12-.1,.28-.18,.37-.3,1.22-1.69,2.47-3.36,3.65-5.09,2.27-3.34,1.74-7.03,1.26-10.7,0-.02-.13-.03-.28-.06-.02,.48-.04,.94-.06,1.4-.1,2.43,.5,4.95-.82,7.23-.69,1.2-1.62,2.26-2.27,3.48-.78,1.48-1.81,2.64-3.2,3.59-1,.69-1.64,1.72-1.68,3.02-.04,1.23-.08,2.45-.18,3.68-.03,.41-.13,.88-.37,1.19-3.11,4.02-5.3,8.56-7.47,13.11-1.46,3.06-2.13,6.4-3.29,9.54-.91,2.46-1.57,4.46,.1,6.73,.54,.73,.33,1.48-.42,2.09-.75,.62-1.25,1.38-1.26,2.44-.01,3.75-1.35,7.14-2.97,10.44-.19,.38-.51,.69-.77,1.03l-.47-.17c.19-1.01,.24-2.06,.59-3.01,.78-2.08,1.72-4.1,2.56-6.16,.22-.54,.36-1.13,.43-1.71,.29-2.41-1.03-4.25-2.24-6.11-1.81-2.79-3.76-5.5-5.46-8.36-1.04-1.75-2.14-3.59-1.82-5.79,.23-1.61,.57-3.2,.86-4.8,.6-3.31,.38-6.51-1.48-9.41-1.2-1.86-2.38-3.8-3.89-5.39-1.41-1.47-1.42-2.89-.78-4.54,1.39-3.55,2.88-7.06,4.17-10.64,.53-1.46,.95-3.07,.91-4.6-.07-2.77,.4-5.32,1.65-7.79,.93-1.84,1.66-3.78,2.5-5.67,1.72-3.89,4.02-7.38,7.31-10.15,.66-.56,1.24-1.23,1.86-1.84l-.36-.36c-2.98,1.68-5.19,4.2-7.26,6.97-.1-.48-.14-.94-.02-1.36,.7-2.46,1.49-4.87,3.64-6.54,.56-.43,1.03-.98,1.54-1.48,1.7-1.7,1.91-2.89,.73-4.98-.6-1.06-1.31-2.07-2.05-3.05-1.28-1.68-2.01-3.48-1.57-5.64,.18-.9,.32-1.81,.48-2.71l-.47-.12c-.18,.74-.41,1.48-.55,2.23-.47,2.57-.23,4.96,1.68,6.98,.59,.62,1.05,1.39,1.46,2.15,1.3,2.38,.97,3.69-1.21,5.31-2.24,1.67-3.81,3.78-4.38,6.58-.25,1.24-.51,2.5-.91,3.69-1.09,3.24-2.23,6.45-3.39,9.67-.97,2.69-1.98,5.31-1.77,8.3,.09,1.27-.43,2.65-.93,3.87-1.34,3.27-2.85,6.47-4.24,9.72-.4,.93-.66,1.93-1.04,3.07-.91-.45-1.78-.75-2.5-1.27-1.43-1.03-2.78-2.19-2.76-4.18,0-1.07,.08-2.13,.15-3.2,.13-2.28,.06-4.53-.89-6.65-1.61-3.58-3.22-7.17-4.88-10.73-1.59-3.41-2.91-6.97-5.37-9.91-2.3-2.77-3.85-5.92-4.52-9.45-.38-2.02-.34-4.16-.97-6.09-1.26-3.88-2.88-7.63-4.28-11.46-.48-1.33-1.09-2.74-1.05-4.09,.07-2.44,.45-4.89,.96-7.29,.86-4.03,.88-7.79-2.15-11.04-1.91-2.04-2.56-4.54-2.77-7.29-.15-1.98-.65-3.96-1.22-5.87-.8-2.73-.48-5.4,0-8.11,.19-1.11,.33-2.22,.5-3.33l-.48-.08c-.15,.55-.37,1.09-.43,1.64-.32,3.1-.63,6.2-.86,9.31-.05,.74,.04,1.64,.41,2.24,.86,1.38,1.24,2.85,1.21,4.4-.06,3.15,1.08,5.8,3.06,8.16,1.63,1.95,2.52,4.11,1.95,6.7-.13,.58-.14,1.18-.25,1.77-.3,1.61-.63,3.22-1.01,5.12-.61-.51-.98-.78-1.3-1.1-1.23-1.23-2.39-2.54-3.7-3.67-.65-.56-1.56-.81-2.35-1.21l-.25,.46c.24,.21,.46,.44,.72,.62,.78,.54,1.64,.98,2.34,1.61,2.07,1.89,4.04,3.88,4.21,6.92,.14,2.41,1.13,4.5,2.17,6.61,1.76,3.57,3.36,7.23,3.56,11.28,.25,4.99,1.89,9.45,4.65,13.55,.82,1.21,1.88,2.31,2.47,3.62,2.63,5.82,5.12,11.71,7.68,17.57,.9,2.05,1.17,4.13,.73,6.37-.8,4.02,.82,7.03,4.24,9.14,3.09,1.91,5.64,4.35,7.48,7.5,1.16,1.98,2.08,4.05,1.78,6.42-.22,1.72-.54,3.43-.8,5.15-.27,1.79-.83,3.63-.08,5.39,.88,2.08,1.85,4.13,2.97,6.08,1.62,2.82,3.41,5.54,5.15,8.29,.67,1.06,.79,2.1,.24,3.27-.64,1.37-1.13,2.81-1.79,4.16-1.37,2.8-1.85,5.76-1.4,8.81,1.23,8.31-.62,16.22-3.48,23.86-1.18,3.16-3.5,5.91-5.36,8.81-.49,.77-1.15,.56-1.64-.12-1.3-1.8-2.75-3.51-3.84-5.43-1.45-2.57-3.25-4.64-5.7-6.36-2.28-1.6-4.76-3.24-5.68-6.18-.04-.14-.19-.25-.3-.36-1.42-1.53-2.89-3.02-4.24-4.6-.78-.91-.6-1.33,.45-1.96,.88-.53,1.8-1.03,2.6-1.66,.3-.23,.5-.82,.45-1.21-.06-.43-.45-.82-.82-1.43-.2,.47-.28,.57-.29,.68-.11,1.33-2.65,3.19-3.98,2.88-.24-.06-.49-.28-.62-.49-.69-1.1-1.46-2.18-2-3.36-1.42-3.1-2.75-6.24-4.1-9.37-.26-.6-.49-1-1.32-1.09-2.07-.22-4.03-2.24-4.22-4.11-.18-1.7-.39-3.39-.52-5.09-.35-4.58-.57-9.18-1.81-13.64-.58-2.08-.94-4.29-2.88-5.71-1.24-.91-2.55-1.76-3.63-2.84-1.84-1.85-3.51-3.87-5.29-5.79-.38-.41-.94-.66-1.41-.98l-.2,.29c.94,.93,1.95,1.8,2.8,2.8,1.84,2.17,3.55,4.43,6.04,5.98,1.6,.99,2.94,2.32,3.35,4.29,.56,2.71,1.27,5.41,1.58,8.15,.44,3.97,.63,7.98,.81,11.97,.1,2.27,.99,3.96,3,5.04,1.58,.85,2.51,2.27,3.31,3.79,2.03,3.86,3.99,7.76,6.06,11.6,2.9,5.39,7.01,9.75,11.71,13.62,1.49,1.23,3.1,2.41,4.23,3.93,2.02,2.73,3.66,5.74,5.56,8.56,.87,1.29,1.07,2.47,.34,3.86-.57,1.09-.78,1.19-1.75,.44-1.18-.92-2.23-2.12-3.56-2.71-2.75-1.21-4.69-3.17-6.29-5.6-.67-1.02-.61-2.05-.43-3.19,.15-.97,.31-2.15-.1-2.96-1.16-2.33-2.6-4.53-3.94-6.77-.05-.09-.24-.09-.6-.22,.27,.57,.43,.91,.6,1.25,1,2.07,2.02,4.13,2.97,6.22,.2,.43,.15,.98,.24,1.63-.45-.12-.62-.13-.74-.21-2.74-1.92-5.33-3.95-6.73-7.17-1.19-2.73-2.87-5.34-5.61-6.57-2.28-1.02-3.29-2.67-4.09-4.74-.14-.37-.33-.72-.49-1.08-.51-1.1-1.06-2.09-2.43-2.39-.49-.11-.92-.71-1.28-1.17-.38-.5-.63-1.1-.96-1.64-1.42-2.36-3.4-3.37-6.2-2.88-2.17,.38-4.1-.26-5.84-1.73-.72-.61-1.92-1.19-2.77-1.03-2.99,.53-5.17-.77-7.17-2.64-1.53-1.43-2.91-3.03-4.43-4.47-1.02-.96-2.36-.97-3.69-.9,.4,.42,.87,.66,1.36,.76,1.23,.24,2.15,.9,2.97,1.83,1.31,1.47,2.6,2.99,4.06,4.31,1.61,1.45,3.44,2.46,5.78,2.39,1.01-.03,2.17,.3,3.02,.85,2.33,1.51,4.74,2.21,7.54,1.97,2.45-.2,3.5,.62,4.49,2.9,.2,.47,.32,1.01,.63,1.41,.4,.52,.94,.92,1.42,1.37,.67,.63,1.49,1.15,1.97,1.9,.76,1.2,1.18,2.62,1.95,3.81,.56,.86,1.32,1.78,2.21,2.2,2.97,1.4,4.57,3.87,6.04,6.62,.97,1.83,2.15,3.63,3.59,5.09,1.67,1.7,3.58,3.15,4.3,5.56,.1,.34,.17,.68,.31,1.25-1.89-.73-3.06-1.93-4.06-3.23-1.24-1.62-3.02-2.16-4.82-2.58-.64-.15-1.4,.24-2.11,.38,0,.2,.02,.39,.02,.59,.62,.13,1.24,.39,1.85,.35,1.42-.09,2.58,.34,3.54,1.34,.5,.51,.93,1.09,1.43,1.59,.7,.7,1.35,1.47,2.17,2,2.02,1.32,4.17,2.43,6.16,3.78,2.22,1.5,4.3,3.21,6.5,4.75,1.06,.74,1.19,1.68,1.03,2.8-.37,2.55-.74,5.09-1.1,7.64-.28,2.03-.43,4.04,.76,5.88,.5,.77,.96,1.55,1.47,2.31,1.31,1.98,2.68,3.93,3.93,5.95,.31,.49,.49,1.23,.37,1.78-.34,1.51-.88,2.97-1.31,4.45-.21,.71-.4,1.43-.59,2.14-1.55,.84-2.86,2.19-3.64,4.08-1.2,2.9-4.62,3.39-7.28,4.54-.46,.2-1.32-.09-1.8-.44-3.68-2.65-7-5.89-11.72-6.77-.43-.08-.8-.49-1.2-.73-1.3-.77-2.6-1.53-3.89-2.29l-.46,.86,2.05,1.41c-.93,1.12-1.99,2.16-2.76,3.38-1.53,2.41-3.92,3.27-6.45,4.05-2.14,.66-3.27,.04-3.48-2.24-.04-.42-.35-.9-.68-1.19-.89-.76-2.18-1.24-2.71-2.17-1.22-2.16-3.11-3.01-5.32-3.56-.94-.24-1.82-.78-2.77-.92-2.22-.33-4.73-1.22-6.64-.54-1.77,.63-3.16,1.11-4.95,.52-.51-.17-1.2,.27-1.82,.35-1.05,.13-2.14,.41-3.15,.24-1.96-.34-3.87-.96-5.8-1.46l-.14,.17c1.52,.77,3.07,1.49,4.56,2.31,3.33,1.84,6.75,.19,9.86-.35,2.53-.43,4.72-.48,7.04,.14,1.26,.33,2.42,1.06,3.69,1.32,3.79,.79,5.11,4.32,7.31,6.74,1.34,1.48,1.91,3.37,4.62,2.28-3.13,5.82-8.37,8.18-13.91,10.08,.21-1.99-1.32-1.39-2.28-.83-.71,.41-1,1.52-1.49,2.31-.72,1.14-1.2,2.8-2.24,3.32-2.91,1.47-6.03,2.52-9.12,3.59-.64,.22-1.69,.03-2.23-.38-2.35-1.84-3.44-1.74-5.52,.32-1.15,1.14-2.63,2-4.04,2.83-.18,.11-1.06-.65-1.35-1.16-.21-.37,0-.99,.04-1.9-1.02,.7-1.67,1.15-2.32,1.6-.08,.07-.16,.13-.25,.2v4.39c-.49,.25-1.3,1.06-2.06,1.01-2.19-.14-4.35-.64-6.53-1-.38-3.13-3.03-3.72-5.31-4.4-4.99-1.5-7.73-6.02-7.61-10.55,.06-2.29-1.17-3.34-2.69-4.59-1.18-.97-2.02-2.37-2.99-3.6-.63-.8-1.13-1.75-1.89-2.41-2.14-1.84-4.56-1.7-7.14-.96-2.78,.8-5.4,2.1-8.61,.73-3.11-1.32-6.63-2.18-9.49,1.05-.23,.26-.93,.21-1.4,.16-3.27-.35-5.35-2.6-5.96-5.88-.2-1.1-1.2-2.08-1.94-3.03-.44-.57-1.22-.91-1.59-1.51-1.3-2.14-3.15-2.81-5.58-2.66-1.71,.11-3.29-.06-3.92-2.39-.75-2.75-1.8-5.54-5.19-6.35-1.26-.3-2.19-.83-3.79-.44-1.92,.46-4.23-.76-6.38-1.16-.93-.17-1.9-.24-2.84-.16-2.92,.25-5.79,.49-8.38,2.25-.8,.55-2.39,.01-3.6-.14-.84-.1-1.69-.68-2.47-.57-1.81,.24-3.84,1.51-5.31,1.01-2.54-.87-3.74,.97-5.53,1.61,2.72-.3,5.41-.79,8.11-1.16,1.35-.18,2.93-.6,4.05-.1,2.79,1.23,5.16,.68,7.58-.77,.57-.34,1.35-.4,2.04-.49,1.09-.14,2.19-.19,3.28-.28,.62-.05,1.57-.37,1.83-.07,2.3,2.51,5.69,1.64,8.24,1.88,4.16,.4,5.67,2.46,6.83,5.64,.93,2.56,2.51,3.75,5.07,3.63,2.01-.09,7.58,3.42,7.9,5.38,.71,4.28,2.71,7.16,7.89,7.75-3.87,4.62-6.93,9.15-9,14.68-.06,.03-.6,.25-1.06,.57-1.96,1.39-3.74,1.99-5.43-.49-.36-.53-1.58-.93-2.2-.74-2.49,.77-4.9,1.8-7.34,2.73l.39,1.01c.87-.34,1.82-.56,2.61-1.05,2.53-1.55,4.53-1.51,6.74,.28,1.67,1.35,3.83,1.2,5.45-.18,1.42-1.21,3.11-2.15,2.74-4.45-.04-.25,.3-.57,.48-.84,2.33-3.57,4.66-7.12,6.97-10.66,1.07,.55,1.78,.92,2.51,1.29-.27,.84-.52,1.6-.69,2.12,1.04-.79,2.45-2.54,3.15-2.29,2.76,.98,4.95-.16,7-1.39,4.25-2.55,5.91,2.98,9.37,2.76,.45-.02,1.03,.49,1.38,.9,.22,.26,.08,.8,.16,1.2,.64,3.51,3.41,5.92,6.87,6.33,.88,.1,2.01,.75,2.43,1.49,2.04,3.57,4.52,6.37,8.78,7.4,1.32,.32,2.84,1.53,3.45,2.73,.9,1.8,1.89,2.77,3.92,2.64,.68-.04,1.39,.15,2.88,.34-1.32,1.66-2.2,2.85-3.18,3.96-1.72,1.96-3.57,3.81-5.23,5.82-1.29,1.56-2.04,4.08-3.64,4.77-2.78,1.2-3.18,2.87-2.99,5.42,.06,.79-.79,2.37-1.18,2.36-2.71-.09-3.77,2.02-5.12,3.6-1.9,2.22-3.28,2.74-6.02,1.8-1.2-.42-2.54-1.1-3.7-.91-2.87,.48-7.78,6.18-10.62,6.91l-2.4,2.52c1.98-.89,4.15-1.34,6.18-2.12,.95-.36,1.77-1.05,2.64-1.6,.53-.34,1.07-1.1,1.51-1.03,1.84,.31,3.65,.85,5.63,1.35-1.27,2.83-2.88,4.57-5.86,4.52-.5,0-1.15,.36-1.48,.76-2.07,2.54-4.41,1.96-7.1,1.13l-1,.99c2.59,.1,6.77,2.3,6.91,.59,3.25-1.43,3.54-1.29,6.55-2.7,.76-.36,1.53-1,1.95-1.71,2.12-3.55,5.51-5.32,9.21-6.42,1.38-.41,2.77,.07,3.32-1.93,.35-1.27,1.62-2.26,2.09-3.53,.73-1.97,.68-4.35,1.76-6.04,1.69-2.63,4.05-4.83,6.03-7.12,1.19,1.82,2.18,4.12,3.86,5.67,1.19,1.11,1.68,1.84,.7,3.42l.81,.26c.83-.65,1.66-1.3,2.1-1.64-2.08-2.85-3.46-4.84-4.93-6.77-1.83-2.41-1.69-3.52,.8-5.23,1.94-1.33,3.58-2.78,4.13-5.3,.21-.96,1.2-2.07,2.12-2.49,2.86-1.32,5.86-2.37,8.83-3.46,.38-.14,.92,.15,1.49,.27-.4,1.43-.76,2.73-1.08,3.89,1.31-1.58,2.45-3.45,4.06-4.74,1.47-1.18,3.45-1.72,5.2-2.55,1.47-.7,2.91-1.46,4.4-2.11,2.91-1.26,5.97-2.13,8.13-4.8,1.14-1.41,2.67-2.33,4.86-2.46,1.82-.11,4.09-1.23,5.22-2.65,3.09-3.88,5.82-8,10.32-10.5,.78-.43,1.1-1.61,1.78-2.3,.56-.57,1.61-1.48,1.97-1.3,1.78,.9,4.31,.04,5.5,2.33,.18,.35,.83,.46,1.26,.68,.89,.47,1.82,.87,2.65,1.44,2.09,1.42,3.74,3.9,6.81,2.88,3.44-1.14,6.81-2.52,8.78-5.81,2.38-3.95,3.28-4.82,7.45-2.93,3.64,1.65,6.68,4.64,10.59,7.47-1.61,.82-2.39,1.58-3.07,1.5-3.33-.39-4.9,.75-5.45,4.08-.11,.68-.57,1.66-1.11,1.86-2.17,.79-4.47,1.22-6.64,2.01-.94,.34-2.19,1.1-2.4,1.91-.53,2-.54,4.13-.76,6.2l.81,.16c.29-1.4,.78-2.79,.83-4.2,.05-1.8,.72-2.97,2.54-2.69,3.16,.49,5.26-1.31,7.36-3.08,.67-.56,1.4-1.75,1.25-2.48-.43-2.04,.53-2.14,2-1.89,1.83,.31,3.4,.3,4.32-1.82,.59-1.37,1.74-2.16,3.47-2.24,.91-.04,1.94-.85,2.65-1.58,3.03-3.14,6.55-4.77,11.01-4.22l-.22,1.34c1.82-1.07,3.94-1.89,5.44-3.34,1.53-1.48,2.79-2.02,4.7-1.06,1.55,.78,3.71,1.02,4.61,2.23,1.1,1.49,2.13,1.77,3.69,1.66,1.06-.07,2.22-.25,3.19,.08,1.3,.45,2.91,1.06,3.54,2.1,.82,1.36,1.6,1.58,2.96,1.46,1.53-.14,3.32-.58,4.56,.01,3.15,1.51,6.33,2.36,9.8,2.26,.45,0,.99,.2,1.33,.5,1.87,1.63,3.69,3.33,5.5,4.98-.15,.11-.41,.3-.94,.69,2.32,.56,4.11,1.57,6.14-.07l1.56-4.04c-2.54,.23-4.64-.22-6.63-1.79Zm-217.84,.04c1.59-3.18,3.85-3.29,10.03-.84-3.33,2.6-6.6,.76-10.03,.84Zm30.23,10.03c-1.19-.2-2.64-.04-3.51-.68-1.34-.99-3.07-2.42-3.23-3.83-.39-3.28-3.09-3.47-5-4.76-1.09-.74-2.2-1.44-3.59-2.35,3.32-.98,6.15-1.83,8.77,.27,.66,.53,1.56,1.31,1.58,2,.06,2.12,1.55,3.01,2.97,3.89,2.61,1.62,2.95,2.32,2.03,5.45Zm31.24,9.11c2.15-3.39,2.76-3.42,5.15,0h-5.15Z"/></svg>