<?xml version="1.0" encoding="UTF-8"?><svg xmlns="http://www.w3.org/2000/svg" width="241.21" height="106.7" viewBox="0 0 241.21 106.7"><defs><style>.d{fill:#e2e2e2;}</style></defs><g id="a"/><g id="b"><g id="c"><path class="d" d="M192.6,81.53l.12-.47c-.74-.18-1.48-.41-2.23-.55-2.57-.47-4.96-.23-6.98,1.68-.62,.59-1.39,1.05-2.15,1.46-2.38,1.3-3.69,.97-5.31-1.21-1.67-2.24-3.78-3.81-6.58-4.38-1.24-.25-2.5-.51-3.69-.91-3.24-1.09-6.45-2.23-9.67-3.39-2.69-.97-5.31-1.98-8.3-1.77-1.27,.09-2.65-.43-3.87-.93-3.27-1.34-6.47-2.85-9.72-4.24-.93-.4-1.93-.66-3.07-1.04,.45-.91,.75-1.78,1.27-2.5,1.03-1.43,2.19-2.78,4.18-2.76,1.07,0,2.13,.08,3.2,.15,2.28,.13,4.53,.06,6.65-.89,3.58-1.61,7.17-3.22,10.73-4.88,3.41-1.59,6.97-2.91,9.91-5.37,2.77-2.3,5.92-3.85,9.45-4.52,2.02-.38,4.16-.34,6.09-.97,3.88-1.26,7.63-2.88,11.46-4.28,1.33-.48,2.74-1.09,4.09-1.05,2.44,.07,4.89,.45,7.29,.96,4.03,.86,7.79,.88,11.04-2.15,2.04-1.91,4.54-2.56,7.29-2.77,1.98-.15,3.96-.65,5.87-1.22,2.73-.8,5.4-.48,8.11,0,1.11,.19,2.22,.33,3.33,.5l.08-.48c-.55-.15-1.09-.37-1.64-.43-3.1-.32-6.2-.63-9.31-.86-.74-.05-1.64,.04-2.24,.41-1.38,.86-2.85,1.24-4.4,1.21-3.15-.06-5.8,1.08-8.16,3.06-1.95,1.63-4.11,2.52-6.7,1.95-.58-.13-1.18-.14-1.77-.25-1.61-.3-3.22-.63-5.12-1.01,.51-.61,.78-.98,1.1-1.3,1.23-1.23,2.54-2.39,3.67-3.7,.56-.65,.81-1.56,1.21-2.35l-.46-.25c-.21,.24-.44,.46-.62,.72-.54,.78-.98,1.64-1.61,2.34-1.89,2.07-3.88,4.04-6.92,4.21-2.41,.14-4.5,1.13-6.61,2.17-3.57,1.76-7.23,3.36-11.28,3.56-4.99,.25-9.45,1.89-13.55,4.65-1.21,.82-2.31,1.88-3.62,2.47-5.82,2.63-11.71,5.12-17.57,7.68-2.05,.9-4.13,1.17-6.37,.73-4.02-.8-7.03,.82-9.14,4.24-1.91,3.09-4.36,5.64-7.5,7.48-1.98,1.16-4.05,2.08-6.42,1.78-1.72-.22-3.43-.54-5.15-.8-1.79-.27-3.63-.83-5.39-.08-2.08,.88-4.13,1.85-6.08,2.97-2.82,1.62-5.54,3.41-8.29,5.15-1.06,.67-2.1,.79-3.27,.24-1.37-.64-2.81-1.13-4.16-1.79-2.8-1.37-5.76-1.85-8.81-1.4-8.31,1.23-16.22-.62-23.86-3.48-3.16-1.18-5.91-3.5-8.81-5.36-.77-.49-.56-1.15,.12-1.64,1.8-1.3,3.51-2.75,5.43-3.84,2.57-1.45,4.64-3.25,6.36-5.7,1.6-2.28,3.24-4.76,6.18-5.68,.14-.04,.25-.19,.36-.3,1.53-1.42,3.02-2.89,4.6-4.24,.91-.78,1.33-.6,1.96,.45,.53,.88,1.03,1.8,1.66,2.6,.23,.3,.82,.5,1.21,.45,.43-.06,.82-.45,1.43-.82-.47-.2-.57-.28-.68-.29-1.33-.11-3.19-2.65-2.88-3.98,.06-.24,.28-.49,.49-.62,1.1-.69,2.18-1.46,3.36-2,3.1-1.42,6.24-2.75,9.37-4.1,.6-.26,1-.49,1.09-1.32,.22-2.07,2.24-4.03,4.11-4.22,1.7-.18,3.39-.39,5.09-.52,4.58-.35,9.18-.57,13.64-1.81,2.08-.58,4.29-.94,5.71-2.88,.91-1.24,1.76-2.55,2.84-3.63,1.85-1.84,3.87-3.51,5.79-5.29,.41-.38,.66-.94,.98-1.41l-.29-.2c-.93,.94-1.8,1.95-2.8,2.8-2.17,1.84-4.43,3.55-5.98,6.04-.99,1.6-2.32,2.94-4.29,3.35-2.71,.56-5.41,1.27-8.15,1.58-3.97,.44-7.98,.63-11.97,.81-2.27,.1-3.96,.99-5.04,3-.85,1.58-2.27,2.51-3.79,3.31-3.86,2.03-7.76,3.99-11.6,6.06-5.39,2.9-9.75,7.01-13.62,11.71-1.23,1.49-2.41,3.1-3.93,4.23-2.73,2.02-5.74,3.66-8.56,5.56-1.29,.87-2.47,1.07-3.86,.34-1.09-.57-1.19-.78-.44-1.75,.92-1.18,2.12-2.23,2.71-3.56,1.21-2.75,3.17-4.69,5.6-6.29,1.02-.67,2.05-.61,3.19-.43,.97,.15,2.15,.31,2.96-.1,2.33-1.16,4.53-2.6,6.77-3.94,.09-.05,.09-.24,.22-.6-.57,.27-.91,.43-1.25,.6-2.07,1-4.13,2.02-6.22,2.97-.43,.2-.98,.15-1.63,.24,.12-.45,.13-.62,.21-.74,1.92-2.74,3.95-5.33,7.17-6.73,2.73-1.19,5.34-2.87,6.57-5.61,1.02-2.28,2.67-3.29,4.74-4.09,.37-.14,.72-.33,1.08-.49,1.1-.51,2.09-1.06,2.39-2.43,.11-.49,.71-.92,1.17-1.28,.5-.38,1.1-.63,1.64-.96,2.36-1.42,3.37-3.4,2.88-6.2-.38-2.17,.26-4.1,1.73-5.84,.61-.72,1.19-1.92,1.03-2.77-.53-2.99,.77-5.17,2.64-7.17,1.43-1.53,3.03-2.91,4.47-4.43,.96-1.02,.97-2.36,.9-3.69-.42,.4-.66,.87-.76,1.36-.24,1.23-.9,2.15-1.83,2.97-1.47,1.31-2.99,2.6-4.31,4.06-1.45,1.61-2.46,3.44-2.39,5.78,.03,1.01-.3,2.17-.85,3.02-1.51,2.33-2.21,4.74-1.97,7.54,.2,2.45-.62,3.5-2.9,4.49-.47,.2-1.01,.32-1.41,.63-.51,.4-.92,.94-1.37,1.42-.63,.67-1.15,1.49-1.9,1.97-1.2,.76-2.62,1.18-3.81,1.95-.86,.56-1.78,1.32-2.2,2.21-1.4,2.97-3.87,4.57-6.62,6.04-1.83,.97-3.63,2.15-5.09,3.59-1.7,1.67-3.15,3.58-5.56,4.3-.34,.1-.68,.17-1.25,.31,.73-1.89,1.93-3.06,3.23-4.06,1.62-1.24,2.16-3.02,2.58-4.82,.15-.64-.24-1.4-.38-2.11l-.59,.02c-.13,.62-.39,1.24-.35,1.85,.09,1.42-.34,2.58-1.34,3.54-.51,.5-1.09,.93-1.59,1.43-.7,.7-1.47,1.35-2,2.17-1.32,2.02-2.43,4.17-3.78,6.16-1.5,2.22-3.21,4.3-4.75,6.5-.74,1.06-1.68,1.19-2.8,1.03-2.55-.37-5.09-.74-7.64-1.1-2.03-.28-4.04-.43-5.88,.76-.77,.5-1.55,.96-2.31,1.47-1.98,1.31-3.93,2.68-5.95,3.93-.49,.31-1.23,.49-1.78,.37-1.51-.34-2.97-.88-4.45-1.31-1.03-.3-2.07-.57-3.11-.86l-.13,.3c.33,.32,.62,.71,1,.96,1.85,1.21,3.87,1.97,6.06,2.36,1.16,.21,2.22,.34,3.34-.23,2.62-1.33,5.25-2.65,7.95-3.78,1.12-.47,2.45-.65,3.68-.6,5.7,.2,11.1,1.79,16.34,3.96,1.64,.68,3.22,1.53,4.77,2.41,2.27,1.28,4.51,2.62,6.72,4.01,.77,.49,1.6,1.07,2.08,1.81,1.48,2.29,3.48,3.68,6.09,4.45,2.93,.86,5.88,1.77,8.64,3.05,3.85,1.78,7.4,4.02,9.05,8.32,.22,.57,1.06,.97,1.7,1.28,1.23,.61,2.72,.86,3.73,1.7,1.98,1.65,3.79,3.53,5.52,5.45,1.17,1.29,1.49,1.54,3.1,.86,.75-.31,1.23,0,1.62,.56,.5,.72,.93,1.48,1.46,2.17,.31,.41,.77,.7,1.16,1.05l.23-.26c-.49-.74-1.04-1.45-1.45-2.24-.94-1.83-.66-2.37,1.39-2.68,1.15-.17,2.32-.2,3.4-.29v-2.08c-1.17,.31-2.29,.72-3.44,.88-1.03,.15-2.13,.19-3.13-.03-1.43-.3-2.79-.92-4.2-1.33-1.27-.36-2.34-.88-3-2.13-.28-.52-.86-.95-1.39-1.25-1.39-.77-2.85-1.41-4.23-2.19-.5-.29-.94-.8-1.25-1.3-.52-.83-.75-1.9-1.39-2.59-1.56-1.66-3.28-3.18-4.97-4.73-.85-.77-1.76-1.48-2.77-2.32,3.33-1.27,6.26-.99,9.17,.31,3.01,1.35,6.06,2.58,9.39,2.98,1.05,.13,2.29,.15,3.06,.72,2.02,1.5,3.87,1.24,5.87,.12,1.58-.88,2.62-.36,3.67,1.12,1.8,2.54,3.39,5.15,4.13,8.21,.05,.22,.18,.46,.35,.62,.25,.24,.56,.41,.86,.61,.11-.19,.15-.24,.14-.26-.1-.26-.2-.52-.32-.76-1.19-2.48-1.12-5.47-3.14-7.63-.41-.44-.1-.94,.59-.87,.71,.08,1.47,.09,2.1,.38,5.33,2.46,10.65,4.94,15.93,7.52,1.25,.61,2.6,1.44,2.72,3.08,.07,1.01-.1,2.05-.28,3.05-.26,1.46-.02,2,1.51,2.8,0-.18,.06-.36,0-.47-1.03-1.69-.35-3.4-.06-5.09,.06-.34,.37-.89,.6-.91,1.5-.12,3.03-.31,4.49-.08,.6,.09,1.06,1.15,1.58,1.78,.1,.12,.18,.28,.3,.37,1.69,1.22,3.36,2.47,5.09,3.65,3.34,2.27,7.03,1.74,10.7,1.26,.02,0,.03-.13,.06-.28-.48-.02-.94-.04-1.4-.06-2.43-.1-4.95,.5-7.23-.82-1.2-.69-2.26-1.62-3.48-2.27-1.48-.78-2.64-1.81-3.59-3.2-.69-1-1.72-1.64-3.02-1.68-1.23-.04-2.45-.08-3.68-.18-.41-.03-.88-.13-1.19-.37-4.02-3.11-8.56-5.3-13.11-7.47-3.06-1.46-6.4-2.13-9.54-3.29-2.46-.91-4.46-1.57-6.73,.1-.73,.54-1.48,.33-2.09-.42-.62-.75-1.38-1.25-2.44-1.26-3.75-.01-7.14-1.35-10.44-2.97-.38-.19-.69-.51-1.03-.77l.17-.47c1.01,.19,2.06,.24,3.01,.59,2.08,.78,4.1,1.72,6.16,2.56,.54,.22,1.13,.36,1.71,.43,2.41,.29,4.25-1.03,6.11-2.24,2.79-1.81,5.5-3.76,8.36-5.46,1.75-1.04,3.59-2.14,5.79-1.82,1.61,.23,3.2,.57,4.8,.86,3.31,.6,6.51,.38,9.41-1.48,1.86-1.2,3.8-2.38,5.39-3.89,1.47-1.41,2.89-1.42,4.54-.78,3.55,1.39,7.06,2.88,10.64,4.17,1.46,.53,3.07,.95,4.6,.91,2.77-.07,5.32,.4,7.79,1.65,1.84,.93,3.78,1.66,5.67,2.5,3.89,1.72,7.38,4.02,10.15,7.31,.56,.66,1.23,1.24,1.84,1.86l.36-.36c-1.68-2.98-4.2-5.19-6.97-7.26,.48-.1,.94-.14,1.36-.02,2.46,.7,4.87,1.49,6.54,3.64,.43,.56,.98,1.03,1.48,1.54,1.7,1.7,2.89,1.91,4.98,.73,1.06-.6,2.07-1.31,3.05-2.05,1.68-1.28,3.48-2.01,5.64-1.57,.9,.18,1.81,.32,2.71,.48Z"/></g></g></svg>