<?xml version="1.0" encoding="UTF-8"?><svg xmlns="http://www.w3.org/2000/svg" width="398.72" height="234.16" viewBox="0 0 398.72 234.16"><defs><style>.f{fill:#e2e2e2;}</style></defs><g id="a"/><g id="b"><g id="c"><g id="d"><g id="e"><path class="f" d="M109.91,103.46c1.88-1.82,3.75-.98,6.11-.63-.49,.44-.73,.65-.87,.77,1.96,1.48,3.92,3.01,5.93,4.47,.36,.27,.92,.43,1.37,.38,3.45-.41,6.69,.15,9.96,1.37,1.29,.48,3.03-.12,4.54-.4,1.34-.24,2.14-.09,3.08,1.18,.72,.98,2.38,1.45,3.71,1.77,.99,.24,2.13-.03,3.18-.2,1.54-.24,2.59-.06,3.82,1.32,1.01,1.13,3.18,1.16,4.79,1.8,1.99,.78,3.2,.13,4.59-1.48,1.37-1.58,3.41-2.59,5.12-3.82l-.1,1.36c4.48,.14,7.85-1.8,10.58-5.19,.63-.79,1.59-1.68,2.49-1.81,1.71-.24,2.78-1.13,3.25-2.55,.73-2.19,2.29-2.34,4.14-2.2,1.48,.11,2.44-.07,1.82-2.06-.22-.71,.4-1.96,1.02-2.58,1.93-1.95,3.86-3.93,7.05-3.73,1.84,.12,2.4-1.11,2.29-2.91-.08-1.41,.28-2.84,.44-4.26l.82,.09c-.03,2.09,.15,4.21-.19,6.25-.14,.82-1.31,1.7-2.22,2.12-2.09,.99-4.34,1.62-6.43,2.6-.51,.25-.89,1.26-.94,1.96-.24,3.36-1.71,4.65-5.06,4.56-.68-.02-1.39,.81-2.92,1.77,4.15,2.47,7.44,5.16,11.22,6.48,4.32,1.51,5.14,.56,7.16-3.59,1.67-3.45,4.9-5.13,8.22-6.58,2.96-1.29,4.83,1.03,7.04,2.26,.87,.49,1.84,.8,2.76,1.19,.44,.19,1.1,.23,1.31,.57,1.4,2.17,3.84,1.09,5.69,1.83,.37,.15,1.33-.86,1.84-1.48,.61-.75,.83-1.95,1.56-2.45,4.26-2.9,6.6-7.24,9.33-11.39,1-1.52,3.16-2.84,4.96-3.11,2.18-.33,3.61-1.39,4.62-2.89,1.91-2.85,4.88-3.99,7.66-5.52,1.43-.78,2.79-1.67,4.19-2.49,1.67-.99,3.59-1.7,4.95-3.01,1.49-1.43,2.45-3.4,3.61-5.09-.22,1.18-.46,2.51-.72,3.97,.57,.06,1.14,.3,1.5,.13,2.86-1.35,5.75-2.67,8.48-4.24,.87-.51,1.76-1.7,1.89-2.67,.32-2.56,1.83-4.15,3.64-5.65,2.33-1.93,2.37-3.05,.33-5.28-1.63-1.79-3.2-3.64-5.52-6.29,.41-.38,1.17-1.11,1.94-1.83l.83,.18c-.83,1.66-.28,2.35,1.01,3.35,1.81,1.4,3.01,3.59,4.36,5.3,1.77-2.45,3.92-4.86,5.37-7.63,.93-1.79,.66-4.15,1.21-6.18,.35-1.3,1.53-2.41,1.76-3.7,.37-2.04,1.8-1.69,3.14-2.22,3.58-1.43,6.8-3.5,8.59-7.23,.36-.75,1.07-1.46,1.79-1.88,2.87-1.68,3.17-1.57,6.28-3.29-.02-1.71,4.34,.1,6.93-.03l-.9,1.07c-2.75-.59-5.14-.95-6.97,1.77-.29,.43-.91,.85-1.41,.89-2.97,.22-4.42,2.1-5.43,5.03,2.02,.32,3.87,.7,5.73,.84,.44,.03,.92-.78,1.41-1.16,.81-.64,1.57-1.39,2.48-1.84,1.95-.96,4.08-1.6,5.97-2.67l-2.16,2.73c-2.76,.98-7.13,7.1-9.95,7.84-1.13,.3-2.53-.27-3.76-.57-2.82-.69-4.15-.05-5.84,2.34-1.2,1.7-2.07,3.89-4.78,4.04-.39,.02-1.1,1.68-.97,2.46,.42,2.52,.18,4.22-2.48,5.67-1.53,.83-2.04,3.41-3.19,5.08-1.47,2.15-3.14,4.16-4.68,6.27-.87,1.19-1.64,2.46-2.81,4.23,1.5,.05,2.22,.19,2.9,.08,2.01-.32,3.08,.56,4.14,2.28,.71,1.15,2.33,2.21,3.68,2.41,4.33,.64,7.06,3.21,9.41,6.58,.49,.7,1.67,1.24,2.56,1.27,3.48,.09,6.45,2.24,7.41,5.68,.11,.39,.02,.94,.27,1.18,.38,.38,1.01,.83,1.45,.77,3.42-.53,5.58,4.83,9.58,1.91,1.93-1.41,4-2.75,6.84-2.02,.72,.18,1.96-1.68,2.93-2.56-.12,.53-.3,1.31-.49,2.17,.76,.31,1.49,.61,2.61,1.06,1.98-3.73,3.99-7.48,5.98-11.25,.15-.29,.46-.64,.4-.88-.57-2.26,1.02-3.35,2.33-4.68,1.49-1.52,3.63-1.87,5.41-.67,2.36,1.58,4.36,1.44,6.74-.33,.74-.55,1.67-.86,2.5-1.28l.48,.97c-2.34,1.15-4.65,2.39-7.06,3.38-.6,.25-1.85-.04-2.26-.54-1.91-2.31-3.63-1.56-5.45,0-.42,.37-.94,.63-1,.67-1.56,5.7-4.2,10.48-7.64,15.44,5.2,.11,7.46,2.8,8.55,7,.5,1.92,6.36,4.92,8.36,4.64,2.54-.35,4.22,.69,5.38,3.16,1.44,3.06,3.13,4.98,7.31,5,2.56,.01,5.86-1.16,8.37,1.13,.29,.27,1.2-.13,1.82-.24,1.08-.18,2.17-.34,3.25-.57,.68-.15,1.45-.28,1.99-.67,2.29-1.66,4.59-2.43,7.48-1.45,1.16,.39,2.7-.17,4.03-.47,2.66-.61,5.29-1.35,7.98-1.89-1.72,.81-2.75,2.75-5.36,2.11-1.51-.37-3.42,1.08-5.2,1.48-.77,.17-1.67-.32-2.51-.35-1.22-.04-2.85-.43-3.6,.19-2.43,2-5.26,2.49-8.14,3-.93,.16-1.9,.19-2.84,.1-2.18-.2-4.59-1.21-6.46-.58-1.56,.53-2.53,.09-3.82-.1-3.45-.5-4.75-3.18-5.74-5.86-.84-2.26-2.43-2.29-4.12-2.02-2.41,.37-4.31-.13-5.8-2.14-.42-.56-1.22-.82-1.71-1.36-.82-.89-1.9-1.77-2.2-2.84-.9-3.21-3.18-5.27-6.47-5.32-.47,0-1.17,0-1.38,.28-2.55,3.47-6.14,2.94-9.36,1.9-3.32-1.07-5.81,.46-8.51,1.51-2.5,.97-4.9,1.34-7.2-.31-.81-.58-1.39-1.49-2.1-2.23-1.08-1.13-2.04-2.45-3.3-3.31-1.63-1.11-2.95-2.04-3.1-4.32-.29-4.52-3.42-8.78-8.53-9.82-2.33-.48-5.02-.82-5.68-3.9-2.2-.16-4.4-.46-6.59-.4-.76,.02-1.5,.9-1.96,1.19l.4,4.37c-.08,.07-.15,.14-.23,.22-.61,.51-1.22,1.02-2.17,1.8-.04-.91,.12-1.55-.13-1.9-.34-.48-1.28-1.16-1.45-1.03-1.34,.95-2.72,1.94-3.77,3.18-1.89,2.25-2.96,2.44-5.47,.82-.57-.37-1.64-.45-2.25-.18-2.98,1.34-6,2.67-8.76,4.4-.99,.62-1.32,2.31-1.93,3.51-.42,.83-.61,1.96-1.28,2.43-.9,.64-2.38,1.38-2.34-.62-5.35,2.39-10.36,5.22-12.95,11.29,2.6-1.33,3.34,.51,4.81,1.86,2.41,2.21,4.05,5.61,7.89,6.05,1.28,.15,2.51,.77,3.79,.98,2.37,.4,4.55,.16,7.03-.5,3.05-.81,6.3-2.77,9.79-1.24,1.56,.68,3.16,1.26,4.75,1.89l-.12,.19c-1.97-.32-3.93-.76-5.91-.93-1.02-.08-2.08,.3-3.12,.52-.61,.13-1.26,.63-1.78,.51-1.83-.43-3.17,.17-4.88,.96-1.84,.85-4.42,.2-6.66,.07-.96-.06-1.89-.52-2.85-.67-2.25-.35-4.21-1.02-5.62-3.07-.61-.88-1.94-1.24-2.9-1.92-.36-.26-.71-.71-.79-1.12-.41-2.26-1.59-2.77-3.67-1.92-2.45,1-4.75,2.08-6.06,4.62-.66,1.28-1.62,2.42-2.45,3.62l2.16,1.22-.38,.9c-1.36-.64-2.72-1.28-4.08-1.93-.43-.21-.83-.58-1.27-.62-4.78-.45-8.38-3.38-12.28-5.68-.5-.3-1.39-.52-1.83-.27-2.54,1.39-5.9,2.19-6.84,5.18-1.95,6.27-9.87,7.56-13.99,3.55-1.54-1.5-3.54-2.56-5.4-3.7-1.95-1.19-3.7,.16-5.46,1.56-2.79,2.22-6.12,4.07-9.52,5.09-2.69,.81-5.35,1.11-7.47,3.25-2.04,2.05-6.72,1.84-9.96-.63-1.64-1.24-3.25-1.45-5.03-1.33-2.82,.17-5.37-.18-7.32-2.54-.27-.32-1.03-.34-1.56-.33-1.72,.05-3.46,.35-5.15,.21-1.66-.14-3.3-.69-4.71-1.01,.05,1.66-.2,3.42,.21,5,.54,2.09,1.75,4.01,2.36,6.1,.53,1.8,1.12,3.82,.79,5.58-.43,2.33-1.68,4.18,0,6.81,1.26,1.97,1.05,4.9,1.5,7.39l-.58,.66c-.39-.44-.96-.81-1.12-1.32-.82-2.59-1.62-5.2-2.24-7.85-.22-.89-.27-2.11,.19-2.82,2.48-3.87,.05-6.94-1.34-10.25-.61-1.45-1.16-3.06-1.16-4.6,0-2.72-.81-3.94-3.31-4.95-1.99-.81-3.84-2.02-5.66-3.2-2.13-1.38-4.26-1.64-6.77-1.19m209.04-15.63c-1.47-.78-2.65-1.38-3.8-2.02-2.02-1.1-4.73-1.05-5.41-4.28-.29-1.39-2.14-2.66-3.56-3.52-.93-.56-2.36-.27-3.56-.36-.63,3.21-.23,3.87,2.52,5.25,1.5,.75,3.06,1.5,3.31,3.6,.08,.68,1.05,1.38,1.75,1.85,2.8,1.86,5.54,.76,8.76-.52h0Zm4.77-1.17c6.37,1.88,8.61,1.56,9.91-1.75-3.41,.39-6.83-1.14-9.91,1.75Zm-58.17-14.78c2.69,3.19,3.3,3.1,5.13-.47l-5.13,.47Z"/></g></g><path class="f" d="M54.88,.41l1.8-.41c-.28,2.04-1.27,3.58-2.35,5.18-1.13,1.67-1.58,3.74-1.26,5.86,.2,1.29,.38,2.59,.59,3.88,.39,2.38,0,4.58-1.35,6.62-1.1,1.65-.76,3.38-.05,5.11,.25,.62,.43,1.3,.48,1.96,.18,2.25-.26,4.73,.57,6.69,1.08,2.52,2.69,4.82,3.26,7.58,.03,.15,.19,.29,.31,.41,.09,.09,.21,.14,.32,.2,.8-1.36,.66-3.07-.33-4.2-1.15-1.31-1.29-3.12,.03-4.16,2.32-1.84,3.56-4.38,4.81-6.88,.9-1.8,2.24-2.06,4.24-2.05-.55,.62-.9,1.07-1.31,1.47-1.47,1.44-2.71,2.95-3.39,5.01-.42,1.26-1.68,2.28-2.65,3.32-.56,.6-.72,1.12-.04,1.63,2.64,1.96,1.63,4.34,.74,6.66-.22,.57-.83,.99-1.21,1.51-.81,1.11-1.62,2.23-2.38,3.37-1.64,2.47-3.23,4.96-4.9,7.41-.3,.45-.86,.73-1.32,1.05-1.63,1.13-1.86,1.59-1.29,3.49,.36,1.22,.37,2.24-.46,3.31-.34,.44-.28,1.24-.3,1.87-.12,4.23,.02,8.49-.42,12.68-.24,2.27-1.46,4.43-2.27,6.63-.39,1.06-.96,2.06-1.29,3.14-.2,.67-.34,1.53-.1,2.14,1.04,2.71,.56,5.44,.33,8.17-.24,3-.59,5.99-.91,8.98-.07,.69-.15,1.39-.35,2.05-1.38,4.53-1.38,8.94,1.13,13.12,1,1.66,1.42,3.4,1.37,5.35-.06,2.36,.09,4.72,.21,7.07,.03,.59,.19,1.23,.46,1.75,1.67,3.16,3.33,6.33,5.13,9.42,.97,1.66,1.58,3.36,1.9,5.24,.16,.98,.64,1.96,1.19,2.81,.96,1.5,2.1,2.9,3.12,4.36,.43,.63,.83,.7,1.36,.16,.55-.56,1.18-1.05,1.68-1.65,.64-.77,.81-1.57,.5-2.66-.3-1.08-.26-2.35-.01-3.46,.48-2.19-.09-4.06-.91-6.06-.66-1.6-.74-3.44-1.05-5.18-.04-.23,.1-.51,.21-.75,1.24-2.82,2.7-5.56,3.67-8.46,.79-2.33,1.08-4.84,1.43-7.3,.18-1.24,.75-1.41,1.84-1.42,1.59,0,3.21-.08,4.74-.45,.77-.19,1.52-1,2.02-1.71,1.71-2.41,3.37-4.87,4.92-7.38,.55-.9,.86-1.98,1.1-3.02,.28-1.23-.06-2.18-1.51-2.58-.54-.15-1.17-.81-1.34-1.36-.88-2.78-1.7-5.58-2.38-8.41-.6-2.49-1.11-5.03-1.41-7.57-.19-1.6-.45-3.1-1.44-4.4-1.01-1.33-.95-2.66-.11-4.02,.78-1.26,1.56-2.52,2.38-3.75,.32-.48,.77-.87,1.38-1.53,.46,1.86,.2,3.31-.73,4.48-.99,1.25-.79,2.55-.52,3.86,.39,1.95,.89,3.89,1.43,5.8,.28,.99,.75,1.93,1.09,2.91,.21,.6,.42,1.23,.48,1.86,.1,1.04,.02,2.1,.11,3.14,.11,1.29,.54,2.3,2.03,2.69,1.48,.39,2.28-.25,3.08-1.32,4.23-5.66,8.91-10.93,14.09-15.76,1.12-1.04,1.8-2.56,2.72-3.92,.75,.74,1.49,.32,2.3-.37,1.03-.87,2.15-1.64,3.23-2.46,1.11-.84,1.72-1.91,1.76-3.34,.06-1.82,.2-3.63,.55-5.53,.7,1.33,1.4,2.67,2.15,4.09,1.01-1.2,1.78-2.12,2.55-3.03l.52,.3-.91,3.06c1.29,.26,2.55,.51,3.8,.78,.64,.14,1.26,.36,1.89,.51,1.52,.35,2.89-.12,4.03-1.07,1.25-1.04,2.47-.65,3.75-.3l.35,.44c-.28,.11-.59,.17-.83,.33-.9,.61-1.94,1.12-2.62,1.93-1.45,1.72-3.15,1.63-4.96,.99-3.07-1.08-6.57-.67-8.54,2.95-1.2,2.22-2.51,4.38-3.67,6.62-.45,.87-.97,1.33-1.97,1.41-1.87,.17-3.72,.44-5.58,.73-.4,.06-.84,.27-1.12,.56-3.27,3.21-6.1,6.77-8.54,10.66-.92,1.47-2.15,2.74-3.16,4.16-.23,.32-.27,.92-.15,1.32,.45,1.63,1.3,3.21,1.43,4.85,.31,4.02,2.17,7.32,4.34,10.5,.63,.92,.66,1.75,.54,2.8-.27,2.59-.36,5.2-.5,7.8-.05,.86,.58,1.02,1.13,.73,1.46-.75,2.98-1.46,4.23-2.49,1.4-1.16,2.82-2.49,3.67-4.05,.71-1.31,1-3.12,.81-4.61-.45-3.43-.31-6.75,1.07-9.89,1.41-3.22,3.88-5.64,6.69-7.71,1.43-1.05,2.94-1.86,4.75-2,1.58-.12,2.65-1.09,3.45-2.32,1.5-2.31,3.6-3.21,6.27-2.83,1.43,.2,2.51-.31,3.43-1.4,.64-.77,1.42-1.42,2.13-2.13,1.14-1.13,1.9-1.19,3.72-.04-2.1,.27-1.93,2.2-2.91,3.23-1.41,1.48-3,2.83-5.25,2.84-.31,0-.61,0-.92,0-1.41-.02-2.55,.14-3.63,1.45-1.9,2.33-4.86,3.16-7.55,4.27-5.27,2.18-7.61,6.6-8.76,11.74-.36,1.62,.3,3.45,.39,5.19,.04,.79-.03,1.64-.28,2.38-.36,1.07-1,2.03-1.38,3.1-1.21,3.44-3.83,5.39-7.02,6.73-.44,.19-.9,.34-1.34,.53-1.57,.67-2.86,1.36-3.82,3.12-1.63,3-3.93,5.65-6.05,8.36-.78,.99-.81,1.63,.22,2.34,.16,.11,.22,.35,.39,.63-.31,.09-.54,.21-.77,.21-1.77,0-2.46,.41-2.56,2.14-.09,1.67-.92,2.76-2.09,3.74-1.49,1.24-2.83,2.64-3.37,4.56-.52,1.86-1.87,2.44-3.56,2.69-1.12,.16-2.25,.32-3.34,.63-.53,.15-1.19,.53-1.42,.99-1.66,3.45-3.43,6.86-4.71,10.45-.51,1.42,.19,3.26,.23,4.91,.02,.88-.05,1.82-.36,2.62-.68,1.79-1.6,3.48-2.29,5.27-.27,.69-.3,1.53-.21,2.27,.19,1.56,.42,3.13,.85,4.63,.2,.7,.79,1.45,1.42,1.83,1.74,1.05,1.89,.95,3.21-.7q1.11-1.39,3.39-1.17c-.62,.81-1.16,1.5-1.68,2.2-2.19,2.93-4.35,5.87-6.56,8.78-.89,1.18-1.8,2.37-2.85,3.4-1.17,1.14-1.57,2.53-1.91,4.05-.47,2.09-.4,4.11,.11,6.18,.12,.49-.36,1.33-.81,1.72-1.04,.92-1.24,1.99-1.44,3.31-.38,2.57-1.14,5.08-1.81,7.6-.33,1.23-.8,2.43-1.3,3.94-.6-.68-.98-1.08-1.32-1.51-2.44-3.02-4.79-6.12-7.34-9.03-2.09-2.39-2.4-5.23-2.67-8.15-.02-.27,.09-.65,.28-.84,2.42-2.42,3.12-5.68,4.32-8.7,.87-2.18,1.61-4.41,2.56-6.56,.31-.7,.99-1.3,1.63-1.79,.82-.64,1.77-1.11,2.66-1.67,1.29-.81,1.65-2.07,.98-3.45-.17-.35-.38-.68-.55-1.04-.69-1.42-.6-1.63,.97-1.71,1.11-.06,1.49-.71,1.41-1.64-.28-3.35-.61-6.69-.98-10.03-.13-1.12-.65-2.23-.62-3.33,.04-1.41,.4-2.82,.74-4.19,.25-1.01,.13-1.72-.58-2.6-1.41-1.75-3.1-2.42-5.3-2.58-3.78-.27-7.42-3.67-7.92-7.32-.13-.97,.45-2.03,.7-3.05l.44,.04c.03,.35,.1,.7,.09,1.04-.1,2.98,1.27,5.15,3.86,6.42,1.21,.59,2.67,.74,4.04,.92,1.01,.14,1.33-.57,.68-1.54-1.47-2.16-3.02-4.27-4.49-6.43-.86-1.26-1.58-2.62-2.45-3.87-.49-.71-1.08-1.4-1.75-1.92-1.14-.89-1.53-2.04-1.66-3.4-.38-3.95-.78-7.89-1.27-11.82-.1-.77-.59-1.52-1-2.22-.66-1.16-1.41-2.27-2.11-3.4l.23-.24c.24,.11,.51,.17,.71,.32,1.11,.89,2.23,1.78,3.3,2.73,.26,.23,.42,.65,.49,1,.34,1.84,.72,3.68,.93,5.53,.18,1.63,.15,3.28,.19,4.92,.02,1-.1,2.02,.03,3.01,.09,.65,.39,1.35,.78,1.88,1.08,1.45,2.39,2.74,3.39,4.25,1.86,2.82,4.04,5.33,6.37,7.78,1.54,1.62,2.65,3.66,3.84,5.58,.51,.83,.85,1.07,1.48,.21,.03-.03,.06-.06,.09-.1,2.3-2.49,2.19-2.38-.19-4.75-1.02-1.02-1.48-2.61-2.2-3.94-1.28-2.38-2.49-4.8-3.89-7.11-.46-.77-1.31-1.37-2.11-1.86-1.46-.9-2.52-2.04-3.06-4l2.49,.68,.32-.27c-.84-1.77-1.61-3.58-2.54-5.31-.69-1.29-.9-2.44-.22-3.83,1.28-2.63,.77-5.29-.27-7.85-1.38-3.37-2.91-6.68-4.28-10.06-.22-.55-.18-1.53,.18-1.92,1.41-1.55,1.26-3.56,1.79-5.35,.33-1.11,.22-2.34,.31-3.52,.09-1.17-.26-2.18-1.23-2.87-1.81-1.29-3.02-3-3.6-5.13-.36-1.32-1.23-2.16-2.45-2.49-3.03-.83-4.39-2.97-5.02-5.84-.41-1.87-.82-3.79-1.6-5.52-.78-1.71-1.94-3.28-3.1-4.79-1.46-1.89-2.27-3.98-2.67-6.31-.15-.87-.42-1.91-1.02-2.46-2.36-2.19-3.55-5.01-4.73-7.88-.28-.67-.82-1.4-1.44-1.73-1.74-.92-2.19-2.29-2.08-4.12,.09-1.59-.02-3.2-.16-4.79-.1-1.05-.71-1.87-1.74-2.26-2.44-.92-4.89-1.81-7.33-2.72-.4-.15-.78-.33-1.17-.49l-.09-.43c.53-.2,1.07-.61,1.58-.57,3.33,.25,6.34,1.57,9.17,3.22,1.05,.62,1.7,1.79,1.58,3.24-.12,1.52-.04,3.05-.06,4.58-.01,.96,.43,1.5,1.41,1.49,1.03,0,1.44,.56,1.61,1.5,.59,3.23,2.28,5.92,4.4,8.32,1.27,1.44,1.42,3.23,1.95,4.92,.42,1.35,1,2.67,1.66,3.91,1.27,2.37,2.65,4.68,3.99,7.01,.35,.6,.61,1.31,1.1,1.76,1.47,1.34,1.79,3.02,1.8,4.87,0,1.96,.15,2.06,2.07,2.51,2.17,.51,3.74,1.82,4.73,3.8,.76,1.51,1.38,3.11,3.2,3.95,.12-.42,.31-.78,.32-1.14,.04-3.04,.02-6.09,.07-9.13,.03-2.03,.41-4.06,1.77-5.6,1.96-2.22,2.69-4.92,3.01-7.67,.16-1.36-.61-2.85-1.04-4.25-.65-2.12-.74-4.16,.28-6.22,.81-1.64,.44-3.12-.95-4.36-2.72-2.43-4.23-5.36-3.8-9.15,.18-1.56,.06-3.14,.09-4.72,0-.42,.08-.83,.29-1.26,.74,1,1.44,1.83,1.19,3.31-.33,2-.45,4.13-.13,6.11,.18,1.13,1.31,2.2,2.22,3.1,.63,.62,1.61,.01,1.81-.93,.31-1.44,.78-2.86,.94-4.32,.12-1.04,.04-2.2-.32-3.17-.74-2.03-1.72-3.97-2.59-5.95-.49-1.1-1.43-1.56-2.52-1.85-1.85-.5-3.08-1.64-3.33-3.59-.31-2.38-.56-4.76-.77-7.15-.16-1.82,.46-3.49,1.58-4.88,1.81-2.24,2.64-4.77,2.63-7.62,0-.32,.1-.64,.48-1.03,.23,.51,.55,1,.69,1.54,.6,2.38,.21,4.6-1.34,6.52-2.44,3-2.77,6.39-2.02,10.02,.12,.6,.14,1.25,.4,1.78,.31,.63,.75,1.26,1.3,1.68,1.22,.95,2.64,1.65,3.8,2.66,1.8,1.56,3.67,3.12,4.33,5.61,.19,.71,.68,1,1.35,.35,.75-.73,1.64-1.34,2.29-2.14,2.28-2.83,2.01-6.06,.36-8.84-1.79-3.01-2.01-6.04-1.74-9.3,.03-.42,0-.9-.18-1.27-1.09-2.2-1.13-4.4,.11-6.5,1.79-3.04,1.12-6.29,.87-9.47-.24-3.08,.6-5.84,1.89-8.53,.54-1.13,1.1-2.24,1.66-3.36l-.31-.15Zm30.96,124.69l.3-.1c-.37-1.08-.64-2.2-1.12-3.22-.71-1.54-1.52-3.03-2.36-4.5-.4-.69-.98-1.27-1.48-1.91-.65,.54-1.31,1.07-1.94,1.63-.15,.13-.19,.38-.27,.58-.71,1.78-1.35,3.58-2.16,5.31-.26,.55-.86,1.18-1.42,1.32-2.33,.55-4.68,1.04-7.06,1.32-1.12,.13-1.43,.51-1.59,1.55-.42,2.75-.94,5.49-1.53,8.22-.27,1.23-.76,2.39-2.09,2.98-1.84,.81-2.55,3.25-1.47,4.93,.4,.62,.99,1.12,1.38,1.74,.65,1.04,1.29,2.11,1.8,3.23,.29,.64,.63,.79,1.2,.53,2.65-1.22,5.46-1.44,8.31-1.39,.84,.01,1.26-.29,1.69-1.07,1.94-3.46,3.45-7.31,7.3-9.28,1.49-.76,1.83-2.19,1.97-3.61,.27-2.74,.36-5.49,.52-8.23Zm-40.45,97.25l.48-.06c.62-1.52,1.3-3.02,1.84-4.57,.42-1.21,.95-2.49,.94-3.74-.02-3.19,1.19-5.81,3.39-7.93,2.94-2.84,3.22-6.21,2.42-9.89-.1-.44-.5-.82-.86-1.38-.88,.94-1.54,1.75-2.31,2.44-.77,.69-1.67,1.22-2.47,1.87-.62,.5-1.39,.97-1.71,1.64-1.93,4.05-3.74,8.15-5.62,12.23-.42,.92-.53,1.71,.27,2.5,1.92,1.89,3.98,3.71,3.64,6.9Zm27.54-71.85c-5.15-.7-8.33,.98-8.7,5.78-.16,2.07,0,2.18,2.06,1.63,.38-.1,.76-.19,1.15-.23,2.18-.21,3.78-1.29,4.56-3.32,.46-1.2,.62-2.52,.93-3.87Zm-12.24,11.72l-.36-.14c-.8,.85-1.64,1.66-2.37,2.56-.47,.59-1,1.28-1.12,1.99-.31,1.85-.41,3.74-.59,5.66,.85-.75,1.79-1.48,1.97-2.82,.3-2.18,.82-4.28,2.3-6.03,.22-.26,.12-.8,.17-1.22Zm-5.14,19.03c1.59-1.12,1.82-3.8,.52-5.11-.94,.88-1.15,2.81-.52,5.11Zm43.56-96.86c1.36-.03,3.95-2.63,4.41-4.88-1.63,1.8-3.05,3.37-4.41,4.88Zm-49.09-30.5l.57,.34c.76-1.17,1.51-2.34,2.27-3.51l-.44-.29c-.97,1.04-2.16,1.92-2.4,3.46Z"/></g></g></svg>