<?xml version="1.0" encoding="UTF-8"?><svg id="a" xmlns="http://www.w3.org/2000/svg" width="20.63cm" height="3.14cm" viewBox="0 0 584.79 88.88"><defs><style>.b{fill:#fff;stroke:#272525;stroke-miterlimit:10;stroke-width:1.5px;}</style></defs><path class="b" d="M583.92,33.44l-.25-2.02c-.12-.97-.33-1.91-.62-2.83,.48-1.53,.74-3.15,.74-4.84v-1.78c0-3.02-.84-5.84-2.29-8.25-1.04-4.59-4.07-8.56-8.38-10.74-2.28-1.16-4.76-1.72-7.22-1.72-3.35,0-6.68,1.05-9.47,3.11l-1.77,1.3s-.07,0-.1,0c-1.18,0-2.35,.1-3.5,.3h-1.7c-1.38,0-2.71,.19-3.99,.52-1.85-.54-3.78-.83-5.75-.83-1.79,0-3.54,.24-5.23,.68-1.09-.23-2.21-.37-3.35-.37h-1.93c-1.06,0-2.11,.1-3.12,.31-1.01-.2-2.06-.31-3.12-.31h-1.98c-.72,0-1.43,.06-2.13,.16-.69-.09-1.39-.16-2.11-.16h-1.88c-.89,0-1.76,.07-2.61,.21-.85-.14-1.72-.21-2.61-.21h-1.87c-1.37,0-2.69,.19-3.96,.52-1.84-.54-3.76-.82-5.73-.82-2.43,0-4.8,.43-7.02,1.23-2.18-.8-4.5-1.23-6.88-1.23-1.17,0-2.32,.1-3.46,.3h-1.45c-2.87,0-5.55,.76-7.88,2.08-.24-.13-.49-.26-.74-.38-2.8-1.33-5.84-2-9.06-2-2.26,0-4.45,.36-6.5,1.02-2.02-.68-4.15-1.02-6.33-1.02-1.18,0-2.35,.1-3.5,.3h-1.7c-1.37,0-2.7,.19-3.97,.52-1.86-.54-3.82-.82-5.83-.82-1.77,0-3.48,.22-5.13,.63-1.27-.34-2.57-.53-3.89-.59-1.12-1.07-2.38-2-3.81-2.72-2.28-1.16-4.76-1.72-7.22-1.72-3.35,0-6.68,1.05-9.47,3.11l-1.78,1.31c-2.34,.04-4.61,.48-6.75,1.27-1.75-.65-3.58-1.06-5.47-1.21-2.91-3.01-6.98-4.9-11.5-4.9h-1.87c-1.18,0-2.32,.14-3.42,.38-1.24-.31-2.53-.48-3.85-.48h-2.45c-5.33,0-10.22,2.65-13.16,6.91-2.79-1.32-5.81-1.98-9-1.98-2.38,0-4.67,.4-6.82,1.13-1.62-.56-3.32-.92-5.06-1.06-2.91-3.01-6.98-4.9-11.5-4.9h-1.87c-5.52,0-10.39,2.8-13.26,7.05-2.26-1.22-4.84-1.92-7.59-1.92h-2.25c-.87,0-1.74,.07-2.58,.21-.85-.14-1.71-.21-2.58-.21h-2.34c-.77,0-1.53,.06-2.27,.17-.72-.1-1.44-.17-2.19-.17h-1.88c-.89,0-1.76,.07-2.61,.21-.85-.14-1.72-.21-2.61-.21h-1.87c-1.27,0-2.51,.16-3.69,.45-1.38-.37-2.83-.61-4.34-.7-2.91-3-6.97-4.87-11.48-4.87h-1.87c-3.06,0-5.9,.87-8.33,2.36-2.51-1.58-5.44-2.46-8.51-2.46h-2.45c-2.12,0-4.17,.42-6.06,1.2-1.48-.43-2.99-.68-4.51-.68-3.35,0-6.68,1.05-9.47,3.11l-1.79,1.32c-.2,0-.39-.02-.58-.02-2.67,0-4.97,.42-6.96,1.05-2.01-.69-4.15-1.05-6.34-1.05-1.1,0-2.18,.09-3.25,.27-1.08-.18-2.18-.27-3.3-.27s-2.31,.1-3.44,.3h-1.58c-2.87,0-5.55,.76-7.88,2.09-.25-.13-.5-.27-.75-.39-2.79-1.33-5.83-2-9.05-2-2.26,0-4.45,.36-6.5,1.02-1.72-.58-3.51-.91-5.35-1-2.91-2.99-6.96-4.85-11.46-4.85h-1.87c-3.99,0-7.63,1.47-10.43,3.88-.83-.66-1.72-1.25-2.69-1.74-2.28-1.16-4.76-1.72-7.22-1.72-3.35,0-6.68,1.05-9.47,3.11l-1.87,1.37c-.1,.07-.19,.16-.29,.23h-.16c-1.38,0-2.71,.19-3.99,.52-1.85-.54-3.78-.83-5.75-.83-2.27,0-4.49,.38-6.59,1.08-2.08-.7-4.28-1.08-6.53-1.08-3.96,0-7.75,1.12-11,3.18-.68-.43-1.38-.83-2.11-1.18-2.79-1.33-5.83-2-9.05-2-2.26,0-4.45,.36-6.5,1.02-2.02-.68-4.14-1.02-6.33-1.02-1.18,0-2.35,.1-3.5,.3h-1.7c-1.28,0-2.52,.17-3.72,.45-1.84-.5-3.8-.76-5.86-.76-.78,0-1.53,.04-2.26,.1-2-1.66-4.27-2.94-6.73-3.76-2.34-.78-4.97-1.16-8.03-1.16h-5.27C8.85,.85,1.69,8.02,1.69,16.85v18.61c0,3.58,1.19,6.87,3.17,9.54-2.45,3.36-3.8,7.43-3.8,11.76,0,.73,.04,1.45,.11,2.17-.46,1.92-.56,3.95-.26,6.01,1.58,10.78,9.79,18.03,20.44,18.03,3.55,0,6.92-.84,9.89-2.39,2.88,1.56,6.16,2.39,9.6,2.39,1.24,0,2.46-.11,3.66-.32,.26,.01,.52,.02,.78,.02h1.96c.8,0,1.59-.07,2.38-.18,.75,.11,1.52,.18,2.3,.18h1.87c.74,0,1.46-.07,2.17-.16,3.75,3.63,8.84,5.64,14.39,5.64,4.23,0,8.26-1.19,11.65-3.45,.98-.65,1.89-1.39,2.74-2.19,.11-.02,.22-.02,.33-.04,.85,.14,1.73,.21,2.62,.21h1.87c1.38,0,2.71-.19,3.98-.52,1.88,.54,3.87,.83,5.92,.83s3.95-.27,5.8-.8c1.24,.31,2.53,.49,3.87,.49h1.87c3.46,0,6.66-1.11,9.28-2.98,3.31,2.14,7.18,3.29,11.32,3.29,2.33,0,4.57-.38,6.68-1.08,1.91,.62,3.93,.95,6.01,.95,1.79,0,3.63-.25,5.47-.73,1.04-.27,2.03-.65,2.97-1.11,2.53,1.21,5.33,1.84,8.26,1.84,1.5,0,3.04-.18,4.59-.53,1.67,.43,3.41,.65,5.21,.65,2.4,0,4.71-.39,6.87-1.14,2.1,.74,4.35,1.14,6.67,1.14,1.17,0,2.34-.1,3.47-.3h1.71c.92,0,1.81-.09,2.68-.24,.87,.15,1.77,.24,2.68,.24h1.87c1.32,0,2.6-.18,3.82-.48,1.23,.3,2.5,.48,3.82,.48h1.87c.89,0,1.77-.07,2.62-.21,.85,.14,1.73,.21,2.62,.21h1.87c1.38,0,2.71-.19,3.99-.52,1.88,.54,3.87,.83,5.92,.83s3.95-.27,5.8-.8c1.24,.31,2.53,.49,3.87,.49h1.87c3.45,0,6.63-1.1,9.24-2.96,3.23,2.11,6.97,3.26,10.88,3.26,1.15,0,2.29-.1,3.4-.3h1.38c1.15,0,2.28-.13,3.36-.36,1.65,.42,3.37,.67,5.14,.67,1.24,0,2.46-.11,3.66-.32,.26,.01,.52,.02,.78,.02h1.96c.81,0,1.62-.07,2.41-.19,.76,.11,1.54,.19,2.33,.19h1.87c.89,0,1.77-.07,2.62-.21,.85,.14,1.73,.21,2.62,.21h1.87c1.23,0,2.42-.15,3.57-.41,1.77,.47,3.65,.72,5.61,.72,3.48,0,6.81-.8,9.74-2.31,2.3,1.27,4.93,2,7.74,2h1.87c1.15,0,2.27-.13,3.36-.36,1.65,.42,3.36,.66,5.13,.66,1.24,0,2.46-.11,3.66-.32,.26,.01,.52,.02,.78,.02h1.96c2.3,0,4.52-.5,6.55-1.41,2,.9,4.21,1.41,6.55,1.41h1.87c.8,0,1.58-.06,2.35-.17,.77,.11,1.55,.17,2.35,.17h1.87c.8,0,1.58-.06,2.35-.17,.77,.11,1.55,.17,2.35,.17h1.87c1.35,0,2.66-.19,3.92-.5,1.87,.53,3.83,.81,5.87,.81s3.95-.28,5.8-.8c1.24,.31,2.54,.49,3.88,.49h1.87c.8,0,1.58-.06,2.35-.17,.77,.11,1.55,.17,2.35,.17h1.87c.8,0,1.58-.06,2.35-.17,.77,.11,1.55,.17,2.35,.17h1.87c1.35,0,2.66-.19,3.92-.5,1.87,.53,3.83,.81,5.87,.81,4.11,0,7.95-1.13,11.26-3.27,3.23,2.11,6.98,3.27,10.88,3.27,1.15,0,2.29-.1,3.4-.3h1.38c.92,0,1.81-.09,2.68-.24,.87,.15,1.77,.24,2.68,.24h1.87c.9,0,1.78-.09,2.64-.24,.86,.14,1.74,.24,2.64,.24h1.87c1.82,0,3.57-.32,5.2-.88,2.21,.78,4.58,1.19,7.05,1.19s4.89-.42,7.13-1.22c2.2,.8,4.55,1.22,6.96,1.22,2.1,0,4.15-.33,6.1-.94,1.78,.53,3.66,.81,5.58,.81,1.12,0,2.27-.11,3.42-.3,.62,.07,1.26,.12,1.9,.12h1.87c1.36,0,2.68-.19,3.94-.51,1.86,.53,3.8,.81,5.82,.81s3.99-.28,5.85-.82c1.27,.32,2.59,.51,3.96,.51h1.87c.89,0,1.77-.07,2.62-.21,.85,.14,1.73,.21,2.62,.21h1.87c1.01,0,1.99-.1,2.94-.28,.95,.18,1.94,.28,2.94,.28h2.13c8.84,0,16-7.16,16-16v-2.6c0-5.02-2.32-9.5-5.94-12.44,.82,.09,1.65,.14,2.5,.14,2.01,0,3.95-.27,5.8-.8,1.24,.31,2.53,.49,3.87,.49h1.87c.89,0,1.77-.07,2.62-.21,.85,.14,1.73,.21,2.62,.21h1.87c1.23,0,2.42-.15,3.56-.41,1.53,.38,3.13,.59,4.76,.59,1.79,0,3.62-.25,5.46-.73,7.76-2.04,12.81-9.51,11.81-17.47ZM16.75,62.63l.36-.07h0l-.36,.07h0Z"/><g><path d="M17.69,35.46V16.85h5.27c1.3,0,2.29,.11,2.97,.34,.89,.3,1.66,.84,2.31,1.62s1.16,1.78,1.52,2.98,.55,2.62,.55,4.26c0,2.11-.31,3.9-.93,5.36-.62,1.47-1.41,2.51-2.38,3.12-.97,.61-2.24,.92-3.8,.92h-5.51Zm2.02-2.2h3.25c1.31,0,2.31-.21,2.98-.64,.68-.43,1.2-1.11,1.56-2.06,.48-1.26,.72-2.77,.72-4.53,0-1.89-.26-3.37-.77-4.45s-1.17-1.8-1.97-2.16c-.54-.25-1.4-.37-2.58-.37h-3.2v14.22Z"/><path d="M42.48,33.8c-.63,.65-1.28,1.14-1.96,1.47s-1.38,.5-2.11,.5c-1.15,0-2.07-.35-2.75-1.04s-1.03-1.63-1.03-2.81c0-.78,.16-1.47,.48-2.07s.76-1.07,1.32-1.41c.56-.34,1.4-.59,2.54-.75,1.52-.22,2.64-.49,3.35-.8v-.58c.01-.92-.15-1.57-.48-1.94-.47-.54-1.18-.81-2.15-.81-.87,0-1.52,.18-1.96,.54-.43,.36-.75,1.04-.95,2.03l-1.84-.3c.26-1.45,.79-2.5,1.59-3.16s1.94-.99,3.43-.99c1.16,0,2.07,.22,2.73,.65s1.08,.98,1.25,1.62,.26,1.58,.26,2.82v3.05c0,2.13,.04,3.48,.12,4.03,.08,.55,.24,1.09,.48,1.62h-1.96c-.19-.47-.32-1.02-.38-1.66Zm-.15-5.1c-.69,.34-1.71,.63-3.06,.86-.79,.14-1.34,.29-1.65,.46-.31,.17-.56,.42-.73,.74-.17,.32-.26,.68-.26,1.1,0,.64,.2,1.16,.6,1.54,.4,.38,.95,.58,1.65,.58s1.28-.17,1.82-.52,.95-.81,1.23-1.39c.27-.58,.41-1.42,.41-2.53v-.84Z"/><path d="M49.56,35.46v-13.48h1.69v1.9c.41-.74,.9-1.29,1.49-1.66,.59-.37,1.26-.55,2.02-.55,.59,0,1.14,.12,1.64,.35,.5,.23,.91,.54,1.22,.91,.31,.38,.54,.87,.69,1.47,.15,.6,.23,1.52,.23,2.77v8.29h-1.87v-8.21c0-.99-.08-1.72-.25-2.17s-.43-.81-.79-1.06-.78-.38-1.25-.38c-.9,0-1.61,.33-2.15,1-.53,.67-.8,1.82-.8,3.44v7.37h-1.87Z"/><path d="M63.11,31.43l1.87-.36c.11,.95,.41,1.66,.9,2.12,.49,.46,1.14,.7,1.95,.7s1.44-.2,1.88-.6c.44-.4,.67-.91,.67-1.53,0-.53-.19-.95-.57-1.24-.26-.2-.9-.46-1.9-.76-1.46-.45-2.43-.83-2.92-1.14-.49-.31-.87-.73-1.14-1.26s-.41-1.12-.41-1.79c0-1.15,.37-2.09,1.1-2.81s1.76-1.08,3.06-1.08c.82,0,1.54,.15,2.16,.44s1.1,.69,1.43,1.19,.56,1.21,.69,2.15l-1.83,.3c-.17-1.47-.97-2.21-2.4-2.21-.81,0-1.42,.16-1.82,.49s-.6,.74-.6,1.25,.19,.89,.57,1.18c.23,.17,.91,.44,2.04,.81,1.55,.49,2.55,.88,3.01,1.18,.46,.29,.81,.69,1.06,1.2,.25,.5,.38,1.1,.38,1.8,0,1.29-.41,2.33-1.23,3.13s-1.93,1.2-3.35,1.2c-2.65,0-4.19-1.45-4.61-4.34Z"/><path d="M92.5,30.52l1.84,.29c-.21,1.61-.74,2.83-1.59,3.68s-1.87,1.27-3.07,1.27c-1.45,0-2.64-.59-3.57-1.78-.94-1.19-1.4-2.95-1.4-5.28s.47-4.1,1.42-5.27,2.16-1.76,3.64-1.76c1.14,0,2.11,.36,2.89,1.07s1.28,1.78,1.5,3.2l-1.82,.33c-.18-.91-.49-1.59-.93-2.04-.44-.45-.97-.68-1.59-.68-.92,0-1.69,.41-2.29,1.23s-.91,2.11-.91,3.89,.29,3.17,.87,3.99,1.32,1.23,2.23,1.23c.71,0,1.32-.27,1.82-.82,.5-.55,.82-1.39,.96-2.55Z"/><path d="M105.9,31.12l1.93,.29c-.32,1.44-.9,2.52-1.75,3.26-.84,.73-1.89,1.1-3.13,1.1-1.57,0-2.83-.59-3.8-1.78-.97-1.19-1.45-2.91-1.45-5.15s.49-4.1,1.47-5.33,2.22-1.83,3.71-1.83,2.62,.6,3.58,1.8,1.43,2.94,1.43,5.22v.61h-8.26c.08,1.51,.43,2.66,1.05,3.43s1.39,1.16,2.29,1.16c1.4,0,2.38-.92,2.93-2.77Zm-6.16-3.69h6.17c-.08-1.17-.33-2.04-.75-2.62-.6-.84-1.37-1.26-2.3-1.26-.84,0-1.55,.35-2.15,1.05s-.92,1.64-.98,2.82Z"/><path d="M112.62,35.46v-13.48h1.69v2.04c.43-.95,.83-1.58,1.19-1.89s.76-.46,1.21-.46c.63,0,1.27,.25,1.92,.74l-.63,2.12c-.47-.33-.92-.5-1.36-.5-.4,0-.76,.14-1.09,.42s-.56,.67-.7,1.17c-.24,.87-.36,1.8-.36,2.78v7.06h-1.87Z"/><path d="M126.3,33.42l.25,2.02c-.52,.14-.98,.2-1.4,.2-.65,0-1.18-.13-1.57-.39-.4-.26-.67-.61-.82-1.06s-.22-1.34-.22-2.68v-7.76h-1.37v-1.78h1.37v-3.34l1.87-1.37v4.71h1.89v1.78h-1.89v7.88c0,.73,.06,1.2,.17,1.41,.16,.3,.46,.46,.9,.46,.21,0,.49-.03,.83-.09Z"/><path d="M137.68,33.8c-.63,.65-1.28,1.14-1.96,1.47s-1.38,.5-2.11,.5c-1.15,0-2.07-.35-2.75-1.04s-1.03-1.63-1.03-2.81c0-.78,.16-1.47,.48-2.07s.76-1.07,1.32-1.41c.56-.34,1.4-.59,2.54-.75,1.52-.22,2.64-.49,3.35-.8v-.58c.01-.92-.15-1.57-.48-1.94-.47-.54-1.18-.81-2.15-.81-.87,0-1.52,.18-1.96,.54-.43,.36-.75,1.04-.95,2.03l-1.84-.3c.26-1.45,.79-2.5,1.59-3.16s1.94-.99,3.43-.99c1.16,0,2.07,.22,2.73,.65s1.08,.98,1.25,1.62,.26,1.58,.26,2.82v3.05c0,2.13,.04,3.48,.12,4.03,.08,.55,.24,1.09,.48,1.62h-1.96c-.19-.47-.32-1.02-.38-1.66Zm-.15-5.1c-.69,.34-1.71,.63-3.06,.86-.79,.14-1.34,.29-1.65,.46-.31,.17-.56,.42-.73,.74-.17,.32-.26,.68-.26,1.1,0,.64,.2,1.16,.6,1.54,.4,.38,.95,.58,1.65,.58s1.28-.17,1.82-.52,.95-.81,1.23-1.39c.27-.58,.41-1.42,.41-2.53v-.84Z"/><path d="M144.75,19.48v-2.63h1.87v2.63h-1.87Zm0,15.98v-13.48h1.87v13.48h-1.87Z"/><path d="M151.91,35.46v-13.48h1.69v1.9c.41-.74,.9-1.29,1.49-1.66,.59-.37,1.26-.55,2.02-.55,.59,0,1.14,.12,1.64,.35,.5,.23,.91,.54,1.22,.91,.31,.38,.54,.87,.69,1.47,.15,.6,.23,1.52,.23,2.77v8.29h-1.87v-8.21c0-.99-.08-1.72-.25-2.17s-.43-.81-.79-1.06-.78-.38-1.25-.38c-.9,0-1.61,.33-2.15,1-.53,.67-.8,1.82-.8,3.44v7.37h-1.87Z"/><path d="M165.46,31.43l1.87-.36c.11,.95,.41,1.66,.9,2.12,.49,.46,1.14,.7,1.95,.7s1.44-.2,1.88-.6c.44-.4,.67-.91,.67-1.53,0-.53-.19-.95-.57-1.24-.26-.2-.9-.46-1.9-.76-1.46-.45-2.43-.83-2.92-1.14-.49-.31-.87-.73-1.14-1.26s-.41-1.12-.41-1.79c0-1.15,.37-2.09,1.1-2.81s1.76-1.08,3.06-1.08c.82,0,1.54,.15,2.16,.44s1.1,.69,1.43,1.19,.56,1.21,.69,2.15l-1.83,.3c-.17-1.47-.97-2.21-2.4-2.21-.81,0-1.42,.16-1.82,.49s-.6,.74-.6,1.25,.19,.89,.57,1.18c.23,.17,.91,.44,2.04,.81,1.55,.49,2.55,.88,3.01,1.18,.46,.29,.81,.69,1.06,1.2,.25,.5,.38,1.1,.38,1.8,0,1.29-.41,2.33-1.23,3.13s-1.93,1.2-3.35,1.2c-2.65,0-4.19-1.45-4.61-4.34Z"/><path d="M187.62,35.46v-13.48h1.68v1.88c.37-.7,.85-1.24,1.43-1.62,.58-.38,1.22-.57,1.91-.57,.78,0,1.43,.2,1.97,.6,.54,.4,.92,.98,1.15,1.75,.44-.78,.95-1.37,1.52-1.76s1.21-.59,1.9-.59c1.06,0,1.9,.36,2.51,1.08s.92,1.87,.92,3.45v9.25h-1.87v-8.5c0-.97-.07-1.65-.21-2.05s-.37-.71-.68-.93-.67-.33-1.06-.33c-.81,0-1.47,.32-1.98,.96-.51,.64-.77,1.65-.77,3.02v7.84h-1.87v-8.77c0-1.12-.17-1.91-.51-2.36-.34-.46-.81-.69-1.42-.69-.85,0-1.53,.35-2.02,1.04-.5,.69-.74,1.95-.74,3.78v7h-1.87Z"/><path d="M214.99,33.8c-.63,.65-1.28,1.14-1.96,1.47s-1.38,.5-2.11,.5c-1.15,0-2.07-.35-2.75-1.04s-1.03-1.63-1.03-2.81c0-.78,.16-1.47,.48-2.07s.76-1.07,1.32-1.41c.56-.34,1.41-.59,2.54-.75,1.52-.22,2.64-.49,3.35-.8v-.58c.01-.92-.15-1.57-.48-1.94-.47-.54-1.18-.81-2.15-.81-.87,0-1.52,.18-1.96,.54-.43,.36-.75,1.04-.95,2.03l-1.84-.3c.26-1.45,.79-2.5,1.59-3.16,.8-.66,1.95-.99,3.43-.99,1.16,0,2.07,.22,2.73,.65s1.08,.98,1.25,1.62c.17,.64,.26,1.58,.26,2.82v3.05c0,2.13,.04,3.48,.12,4.03,.08,.55,.24,1.09,.48,1.62h-1.96c-.19-.47-.32-1.02-.38-1.66Zm-.15-5.1c-.69,.34-1.71,.63-3.06,.86-.79,.14-1.34,.29-1.65,.46-.31,.17-.56,.42-.73,.74-.17,.32-.26,.68-.26,1.1,0,.64,.2,1.16,.6,1.54,.4,.38,.95,.58,1.65,.58s1.28-.17,1.82-.52c.54-.35,.95-.81,1.22-1.39,.27-.58,.41-1.42,.41-2.53v-.84Z"/><path d="M226.23,33.42l.25,2.02c-.52,.14-.98,.2-1.4,.2-.65,0-1.18-.13-1.57-.39-.4-.26-.67-.61-.82-1.06-.15-.45-.22-1.34-.22-2.68v-7.76h-1.37v-1.78h1.37v-3.34l1.87-1.37v4.71h1.89v1.78h-1.89v7.88c0,.73,.05,1.2,.17,1.41,.16,.3,.46,.46,.9,.46,.21,0,.49-.03,.83-.09Z"/><path d="M237.97,31.12l1.93,.29c-.32,1.44-.9,2.52-1.75,3.26-.84,.73-1.88,1.1-3.13,1.1-1.57,0-2.83-.59-3.8-1.78-.97-1.19-1.45-2.91-1.45-5.15s.49-4.1,1.47-5.33c.98-1.22,2.21-1.83,3.71-1.83s2.62,.6,3.58,1.8,1.43,2.94,1.43,5.22v.61h-8.26c.08,1.51,.43,2.66,1.05,3.43s1.39,1.16,2.29,1.16c1.41,0,2.38-.92,2.93-2.77Zm-6.16-3.69h6.17c-.08-1.17-.33-2.04-.75-2.62-.6-.84-1.37-1.26-2.3-1.26-.84,0-1.55,.35-2.15,1.05s-.92,1.64-.98,2.82Zm1.71-7.12l1.38-3.55h2.45l-2.29,3.55h-1.55Z"/><path d="M244.69,35.46v-13.48h1.69v2.04c.43-.95,.83-1.58,1.19-1.89,.36-.31,.76-.46,1.21-.46,.63,0,1.27,.25,1.92,.74l-.63,2.12c-.47-.33-.92-.5-1.36-.5-.4,0-.76,.14-1.09,.42s-.56,.67-.7,1.17c-.24,.87-.36,1.8-.36,2.78v7.06h-1.87Z"/><path d="M254.2,19.48v-2.63h1.87v2.63h-1.87Zm0,15.98v-13.48h1.87v13.48h-1.87Z"/><path d="M268.55,33.8c-.63,.65-1.28,1.14-1.96,1.47s-1.38,.5-2.11,.5c-1.15,0-2.07-.35-2.75-1.04s-1.03-1.63-1.03-2.81c0-.78,.16-1.47,.48-2.07s.76-1.07,1.32-1.41c.56-.34,1.41-.59,2.54-.75,1.52-.22,2.64-.49,3.35-.8v-.58c.01-.92-.15-1.57-.48-1.94-.47-.54-1.18-.81-2.15-.81-.87,0-1.52,.18-1.96,.54-.43,.36-.75,1.04-.95,2.03l-1.84-.3c.26-1.45,.79-2.5,1.59-3.16,.8-.66,1.95-.99,3.43-.99,1.16,0,2.07,.22,2.73,.65s1.08,.98,1.25,1.62c.17,.64,.26,1.58,.26,2.82v3.05c0,2.13,.04,3.48,.12,4.03,.08,.55,.24,1.09,.48,1.62h-1.96c-.19-.47-.32-1.02-.38-1.66Zm-.15-5.1c-.69,.34-1.71,.63-3.06,.86-.79,.14-1.34,.29-1.65,.46-.31,.17-.56,.42-.73,.74-.17,.32-.26,.68-.26,1.1,0,.64,.2,1.16,.6,1.54,.4,.38,.95,.58,1.65,.58s1.28-.17,1.82-.52c.54-.35,.95-.81,1.22-1.39,.27-.58,.41-1.42,.41-2.53v-.84Z"/><path d="M282.87,35.46v-1.98c-.43,.76-.94,1.33-1.52,1.71s-1.24,.57-1.98,.57c-.87,0-1.62-.23-2.23-.71-.62-.47-1.03-1.06-1.24-1.78-.21-.72-.31-1.7-.31-2.95v-8.35h1.87v7.48c0,1.39,.07,2.32,.21,2.79,.14,.47,.4,.85,.78,1.13,.38,.28,.81,.42,1.29,.42,.9,0,1.63-.37,2.21-1.1,.49-.63,.74-1.8,.74-3.49v-7.22h1.88v13.48h-1.68Z"/><path d="M288.69,35.46l4.03-7-3.72-6.48h2.34l1.68,3.15c.31,.58,.57,1.09,.78,1.51,.32-.57,.6-1.05,.85-1.47l1.86-3.2h2.23l-3.82,6.33,4.11,7.15h-2.3l-2.27-4.2-.59-1.13-2.91,5.33h-2.27Z"/><path d="M303.53,35.46v-2.6h2.13v2.6c0,1.01-.15,1.8-.44,2.37-.3,.57-.73,1.01-1.29,1.31l-.52-.98c.38-.2,.67-.51,.86-.91,.19-.4,.3-1,.32-1.8h-1.05Z"/><path d="M319.62,35.46V16.85h1.87v18.61h-1.87Z"/><path d="M334.39,31.12l1.93,.29c-.32,1.44-.9,2.52-1.75,3.26-.84,.73-1.88,1.1-3.13,1.1-1.57,0-2.83-.59-3.8-1.78-.97-1.19-1.45-2.91-1.45-5.15s.49-4.1,1.47-5.33c.98-1.22,2.21-1.83,3.71-1.83s2.62,.6,3.58,1.8,1.43,2.94,1.43,5.22v.61h-8.26c.08,1.51,.43,2.66,1.05,3.43s1.39,1.16,2.29,1.16c1.41,0,2.38-.92,2.93-2.77Zm-6.16-3.69h6.17c-.08-1.17-.33-2.04-.75-2.62-.6-.84-1.37-1.26-2.3-1.26-.84,0-1.55,.35-2.15,1.05s-.92,1.64-.98,2.82Z"/><path d="M340.39,31.43l1.87-.36c.11,.95,.41,1.66,.9,2.12,.49,.46,1.14,.7,1.95,.7s1.44-.2,1.88-.6c.44-.4,.67-.91,.67-1.53,0-.53-.19-.95-.57-1.24-.26-.2-.9-.46-1.9-.76-1.46-.45-2.43-.83-2.92-1.14-.49-.31-.87-.73-1.14-1.26s-.41-1.12-.41-1.79c0-1.15,.37-2.09,1.1-2.81s1.76-1.08,3.06-1.08c.82,0,1.54,.15,2.17,.44,.62,.3,1.1,.69,1.43,1.19s.56,1.21,.69,2.15l-1.83,.3c-.17-1.47-.97-2.21-2.4-2.21-.81,0-1.42,.16-1.82,.49s-.6,.74-.6,1.25,.19,.89,.57,1.18c.23,.17,.91,.44,2.04,.81,1.55,.49,2.55,.88,3.01,1.18,.46,.29,.81,.69,1.06,1.2,.25,.5,.38,1.1,.38,1.8,0,1.29-.41,2.33-1.23,3.13-.82,.8-1.93,1.2-3.34,1.2-2.65,0-4.19-1.45-4.61-4.34Z"/><path d="M370.09,31.12l1.93,.29c-.32,1.44-.9,2.52-1.75,3.26-.84,.73-1.88,1.1-3.13,1.1-1.57,0-2.83-.59-3.8-1.78-.97-1.19-1.45-2.91-1.45-5.15s.49-4.1,1.47-5.33c.98-1.22,2.21-1.83,3.71-1.83s2.62,.6,3.58,1.8,1.43,2.94,1.43,5.22v.61h-8.26c.08,1.51,.43,2.66,1.05,3.43s1.39,1.16,2.29,1.16c1.41,0,2.38-.92,2.93-2.77Zm-6.16-3.69h6.17c-.08-1.17-.33-2.04-.75-2.62-.6-.84-1.37-1.26-2.3-1.26-.84,0-1.55,.35-2.15,1.05s-.92,1.64-.98,2.82Zm1.71-7.12l1.38-3.55h2.45l-2.29,3.55h-1.55Z"/><path d="M376.75,35.46V16.85h1.87v18.61h-1.87Z"/><path d="M391.52,31.12l1.93,.29c-.32,1.44-.9,2.52-1.75,3.26-.84,.73-1.88,1.1-3.13,1.1-1.57,0-2.83-.59-3.8-1.78-.97-1.19-1.45-2.91-1.45-5.15s.49-4.1,1.47-5.33c.98-1.22,2.21-1.83,3.71-1.83s2.62,.6,3.58,1.8,1.43,2.94,1.43,5.22v.61h-8.26c.08,1.51,.43,2.66,1.05,3.43s1.39,1.16,2.29,1.16c1.41,0,2.38-.92,2.93-2.77Zm-6.16-3.69h6.17c-.08-1.17-.33-2.04-.75-2.62-.6-.84-1.37-1.26-2.3-1.26-.84,0-1.55,.35-2.15,1.05s-.92,1.64-.98,2.82Z"/><path d="M405.48,30.52l1.84,.29c-.21,1.61-.74,2.83-1.59,3.68-.85,.85-1.87,1.27-3.07,1.27-1.45,0-2.64-.59-3.57-1.78-.94-1.19-1.4-2.95-1.4-5.28s.47-4.1,1.42-5.27c.94-1.17,2.16-1.76,3.64-1.76,1.14,0,2.11,.36,2.89,1.07,.78,.71,1.29,1.78,1.5,3.2l-1.82,.33c-.18-.91-.49-1.59-.93-2.04-.44-.45-.97-.68-1.59-.68-.92,0-1.69,.41-2.29,1.23-.61,.82-.91,2.11-.91,3.89s.29,3.17,.87,3.99c.58,.82,1.32,1.23,2.23,1.23,.71,0,1.32-.27,1.82-.82,.5-.55,.82-1.39,.96-2.55Z"/><path d="M415.49,33.42l.25,2.02c-.52,.14-.98,.2-1.4,.2-.65,0-1.18-.13-1.57-.39-.4-.26-.67-.61-.82-1.06-.15-.45-.22-1.34-.22-2.68v-7.76h-1.37v-1.78h1.37v-3.34l1.87-1.37v4.71h1.89v1.78h-1.89v7.88c0,.73,.05,1.2,.17,1.41,.16,.3,.46,.46,.9,.46,.21,0,.49-.03,.83-.09Z"/><path d="M419.67,35.46v-13.48h1.69v2.04c.43-.95,.83-1.58,1.19-1.89,.36-.31,.76-.46,1.21-.46,.63,0,1.27,.25,1.92,.74l-.63,2.12c-.47-.33-.92-.5-1.36-.5-.4,0-.76,.14-1.09,.42s-.56,.67-.7,1.17c-.24,.87-.36,1.8-.36,2.78v7.06h-1.87Z"/><path d="M428.48,28.72c0-2.33,.49-4.08,1.47-5.27,.98-1.19,2.22-1.78,3.71-1.78s2.7,.59,3.69,1.78,1.49,2.89,1.49,5.13c0,2.42-.49,4.22-1.46,5.41s-2.21,1.78-3.72,1.78-2.71-.59-3.7-1.78c-.99-1.19-1.48-2.94-1.48-5.26Zm1.92,0c0,1.75,.32,3.04,.95,3.9s1.42,1.28,2.36,1.28c.88,0,1.64-.43,2.27-1.29,.63-.86,.95-2.15,.95-3.88s-.32-3.03-.95-3.88c-.63-.85-1.42-1.28-2.36-1.28-.89,0-1.65,.43-2.27,1.28-.63,.86-.94,2.15-.94,3.88Z"/><path d="M443.46,35.46v-13.48h1.69v1.9c.41-.74,.9-1.29,1.49-1.66s1.26-.55,2.02-.55c.59,0,1.14,.12,1.64,.35s.91,.54,1.22,.91,.54,.87,.69,1.47c.15,.6,.23,1.52,.23,2.77v8.29h-1.87v-8.21c0-.99-.08-1.72-.25-2.17s-.43-.81-.79-1.06c-.36-.25-.78-.38-1.25-.38-.9,0-1.61,.33-2.15,1-.53,.67-.8,1.82-.8,3.44v7.37h-1.87Z"/><path d="M457.01,31.43l1.87-.36c.11,.95,.41,1.66,.9,2.12,.49,.46,1.14,.7,1.95,.7s1.44-.2,1.88-.6c.44-.4,.67-.91,.67-1.53,0-.53-.19-.95-.57-1.24-.26-.2-.9-.46-1.9-.76-1.46-.45-2.43-.83-2.92-1.14-.49-.31-.87-.73-1.14-1.26s-.41-1.12-.41-1.79c0-1.15,.37-2.09,1.1-2.81s1.76-1.08,3.06-1.08c.82,0,1.54,.15,2.17,.44,.62,.3,1.1,.69,1.43,1.19s.56,1.21,.69,2.15l-1.83,.3c-.17-1.47-.97-2.21-2.4-2.21-.81,0-1.42,.16-1.82,.49s-.6,.74-.6,1.25,.19,.89,.57,1.18c.23,.17,.91,.44,2.04,.81,1.55,.49,2.55,.88,3.01,1.18,.46,.29,.81,.69,1.06,1.2,.25,.5,.38,1.1,.38,1.8,0,1.29-.41,2.33-1.23,3.13-.82,.8-1.93,1.2-3.34,1.2-2.65,0-4.19-1.45-4.61-4.34Z"/><path d="M479.17,40.63V21.98h1.73v1.75c.42-.73,.89-1.25,1.41-1.57,.51-.32,1.11-.48,1.77-.48,.87,0,1.66,.26,2.36,.77s1.26,1.3,1.69,2.35c.43,1.05,.64,2.32,.64,3.8,0,2.29-.48,4.06-1.44,5.3-.96,1.24-2.09,1.86-3.38,1.86-.58,0-1.11-.15-1.61-.44s-.93-.71-1.29-1.26v6.56h-1.87Zm1.7-11.83c0,1.74,.29,3.03,.87,3.85,.58,.83,1.29,1.24,2.12,1.24s1.49-.43,2.09-1.28,.9-2.17,.9-3.96-.29-3.06-.87-3.91c-.58-.85-1.29-1.27-2.13-1.27-.75,0-1.44,.46-2.05,1.36s-.92,2.23-.92,3.97Z"/><path d="M501,31.12l1.93,.29c-.32,1.44-.9,2.52-1.75,3.26-.84,.73-1.88,1.1-3.13,1.1-1.57,0-2.83-.59-3.8-1.78-.97-1.19-1.45-2.91-1.45-5.15s.49-4.1,1.47-5.33c.98-1.22,2.21-1.83,3.71-1.83s2.62,.6,3.58,1.8,1.43,2.94,1.43,5.22v.61h-8.26c.08,1.51,.43,2.66,1.05,3.43s1.39,1.16,2.29,1.16c1.41,0,2.38-.92,2.93-2.77Zm-6.16-3.69h6.17c-.08-1.17-.33-2.04-.75-2.62-.6-.84-1.37-1.26-2.3-1.26-.84,0-1.55,.35-2.15,1.05s-.92,1.64-.98,2.82Z"/><path d="M514.95,35.46v-1.98c-.43,.76-.94,1.33-1.52,1.71s-1.24,.57-1.98,.57c-.87,0-1.62-.23-2.23-.71-.62-.47-1.03-1.06-1.24-1.78-.21-.72-.31-1.7-.31-2.95v-8.35h1.87v7.48c0,1.39,.07,2.32,.21,2.79,.14,.47,.4,.85,.78,1.13,.38,.28,.81,.42,1.29,.42,.9,0,1.63-.37,2.21-1.1,.49-.63,.74-1.8,.74-3.49v-7.22h1.88v13.48h-1.68Z"/><path d="M525.08,35.46l-4.21-13.48h1.98l2.38,8.07c.27,.91,.51,1.82,.71,2.72,.16-.71,.39-1.57,.69-2.56l2.47-8.23h1.93l-4.21,13.48h-1.75Z"/><path d="M542.63,31.12l1.93,.29c-.32,1.44-.9,2.52-1.75,3.26-.84,.73-1.88,1.1-3.13,1.1-1.57,0-2.83-.59-3.8-1.78-.97-1.19-1.45-2.91-1.45-5.15s.49-4.1,1.47-5.33c.98-1.22,2.21-1.83,3.71-1.83s2.62,.6,3.58,1.8,1.43,2.94,1.43,5.22v.61h-8.26c.08,1.51,.43,2.66,1.05,3.43s1.39,1.16,2.29,1.16c1.41,0,2.38-.92,2.93-2.77Zm-6.16-3.69h6.17c-.08-1.17-.33-2.04-.75-2.62-.6-.84-1.37-1.26-2.3-1.26-.84,0-1.55,.35-2.15,1.05s-.92,1.64-.98,2.82Z"/><path d="M549.35,35.46v-13.48h1.69v1.9c.41-.74,.9-1.29,1.49-1.66s1.26-.55,2.02-.55c.59,0,1.14,.12,1.64,.35s.91,.54,1.22,.91,.54,.87,.69,1.47c.15,.6,.23,1.52,.23,2.77v8.29h-1.87v-8.21c0-.99-.08-1.72-.25-2.17s-.43-.81-.79-1.06c-.36-.25-.78-.38-1.25-.38-.9,0-1.61,.33-2.15,1-.53,.67-.8,1.82-.8,3.44v7.37h-1.87Z"/><path d="M567.79,33.42l.25,2.02c-.52,.14-.98,.2-1.4,.2-.65,0-1.18-.13-1.57-.39-.4-.26-.67-.61-.82-1.06-.15-.45-.22-1.34-.22-2.68v-7.76h-1.37v-1.78h1.37v-3.34l1.87-1.37v4.71h1.89v1.78h-1.89v7.88c0,.73,.05,1.2,.17,1.41,.16,.3,.46,.46,.9,.46,.21,0,.49-.03,.83-.09Z"/><path d="M16.75,62.63l1.87-.36c.11,.95,.41,1.66,.9,2.12,.49,.46,1.14,.7,1.95,.7s1.44-.2,1.88-.6c.44-.4,.67-.91,.67-1.53,0-.53-.19-.95-.57-1.24-.26-.2-.9-.46-1.9-.76-1.46-.45-2.43-.83-2.92-1.14s-.87-.73-1.14-1.26-.41-1.12-.41-1.79c0-1.15,.37-2.09,1.1-2.81s1.76-1.08,3.06-1.08c.82,0,1.54,.15,2.16,.44s1.1,.69,1.43,1.19,.56,1.21,.69,2.15l-1.83,.3c-.17-1.47-.97-2.21-2.4-2.21-.81,0-1.42,.16-1.82,.49-.4,.33-.6,.74-.6,1.25s.19,.89,.57,1.18c.23,.17,.91,.44,2.04,.81,1.55,.49,2.55,.88,3.01,1.18,.46,.29,.81,.69,1.06,1.2,.25,.5,.38,1.1,.38,1.8,0,1.29-.41,2.33-1.23,3.13s-1.93,1.2-3.35,1.2c-2.65,0-4.19-1.45-4.61-4.34Z"/><path d="M30.42,50.72v-2.67h2.02v2.09c0,1.2-.14,2.09-.43,2.67s-.72,1.02-1.29,1.33l-.46-.89c.74-.37,1.12-1.22,1.16-2.54h-.99Z"/><path d="M44.91,65c-.63,.65-1.28,1.14-1.96,1.47s-1.38,.5-2.11,.5c-1.15,0-2.07-.35-2.75-1.04s-1.03-1.63-1.03-2.81c0-.78,.16-1.47,.48-2.07s.76-1.07,1.32-1.41,1.4-.59,2.54-.75c1.52-.22,2.64-.49,3.35-.8v-.58c.01-.92-.15-1.57-.48-1.94-.47-.54-1.18-.81-2.15-.81-.87,0-1.52,.18-1.96,.54s-.75,1.04-.95,2.04l-1.84-.3c.26-1.45,.79-2.5,1.59-3.16s1.94-.99,3.43-.99c1.16,0,2.07,.22,2.73,.65,.66,.44,1.08,.97,1.25,1.62s.26,1.58,.26,2.82v3.05c0,2.13,.04,3.48,.12,4.03,.08,.55,.24,1.09,.48,1.62h-1.96c-.19-.47-.32-1.02-.38-1.66Zm-.15-5.1c-.69,.34-1.71,.63-3.06,.86-.79,.14-1.34,.29-1.65,.46-.31,.17-.56,.42-.73,.74-.17,.32-.26,.68-.26,1.1,0,.64,.2,1.16,.6,1.54,.4,.38,.95,.58,1.65,.58s1.28-.17,1.82-.52,.95-.81,1.23-1.39c.27-.58,.41-1.42,.41-2.53v-.84Z"/><path d="M51.92,66.66v-18.61h1.87v18.61h-1.87Z"/><path d="M59.14,50.68v-2.63h1.87v2.63h-1.87Zm0,15.98v-13.48h1.87v13.48h-1.87Z"/><path d="M65.92,67.78l1.83,.33c.08,.72,.34,1.26,.76,1.62s1.01,.53,1.76,.53c.82,0,1.47-.2,1.96-.59s.82-.98,1-1.76c.11-.47,.17-1.47,.17-3-.41,.58-.86,1.02-1.37,1.31s-1.07,.44-1.69,.44c-1.32,0-2.42-.56-3.29-1.68-1-1.29-1.5-3.01-1.5-5.17,0-1.45,.22-2.71,.66-3.8s1.02-1.88,1.73-2.39,1.52-.76,2.41-.76c.65,0,1.25,.16,1.78,.48s1.01,.8,1.43,1.44v-1.61h1.73v11.65c0,2.07-.17,3.55-.51,4.44-.34,.88-.89,1.58-1.66,2.09-.77,.51-1.7,.77-2.78,.77-1.43,0-2.53-.38-3.3-1.16s-1.14-1.84-1.12-3.2Zm1.55-8.1c0,1.77,.29,3.07,.88,3.88,.58,.81,1.3,1.22,2.15,1.22s1.57-.4,2.16-1.2,.89-2.07,.89-3.81-.31-2.96-.92-3.79-1.35-1.24-2.23-1.24c-.78,0-1.47,.41-2.05,1.24-.59,.83-.88,2.06-.88,3.68Z"/><path d="M80.57,66.66v-13.48h1.69v1.9c.41-.74,.9-1.29,1.49-1.66,.59-.37,1.26-.55,2.02-.55,.59,0,1.14,.12,1.64,.35,.5,.23,.91,.54,1.22,.91,.31,.38,.54,.87,.69,1.47,.15,.6,.23,1.52,.23,2.77v8.29h-1.87v-8.21c0-.99-.08-1.72-.25-2.17-.17-.46-.43-.81-.79-1.06s-.78-.38-1.25-.38c-.9,0-1.61,.33-2.15,1-.53,.67-.8,1.82-.8,3.44v7.37h-1.87Z"/><path d="M102.4,62.32l1.93,.29c-.32,1.44-.9,2.52-1.75,3.26-.84,.73-1.89,1.1-3.13,1.1-1.57,0-2.83-.59-3.8-1.78-.97-1.19-1.45-2.91-1.45-5.15s.49-4.1,1.47-5.33c.98-1.22,2.22-1.83,3.71-1.83s2.62,.6,3.58,1.8,1.43,2.94,1.43,5.22v.61h-8.26c.08,1.51,.43,2.66,1.05,3.43s1.39,1.16,2.29,1.16c1.4,0,2.38-.92,2.93-2.77Zm-6.16-3.69h6.17c-.08-1.17-.33-2.04-.75-2.62-.6-.84-1.37-1.26-2.3-1.26-.84,0-1.55,.35-2.15,1.05-.59,.7-.92,1.64-.98,2.83Z"/><path d="M109.12,66.66v-13.48h1.69v2.04c.43-.95,.83-1.58,1.19-1.89,.36-.31,.76-.46,1.21-.46,.63,0,1.27,.25,1.92,.74l-.63,2.12c-.47-.33-.92-.5-1.36-.5-.4,0-.76,.14-1.09,.42s-.56,.67-.7,1.17c-.24,.87-.36,1.8-.36,2.78v7.06h-1.87Z"/><path d="M134.53,62.32l1.93,.29c-.32,1.44-.9,2.52-1.75,3.26-.84,.73-1.89,1.1-3.13,1.1-1.57,0-2.83-.59-3.8-1.78-.97-1.19-1.45-2.91-1.45-5.15s.49-4.1,1.47-5.33c.98-1.22,2.22-1.83,3.71-1.83s2.62,.6,3.58,1.8,1.43,2.94,1.43,5.22v.61h-8.26c.08,1.51,.43,2.66,1.05,3.43s1.39,1.16,2.29,1.16c1.4,0,2.38-.92,2.93-2.77Zm-6.16-3.69h6.17c-.08-1.17-.33-2.04-.75-2.62-.6-.84-1.37-1.26-2.3-1.26-.84,0-1.55,.35-2.15,1.05-.59,.7-.92,1.64-.98,2.83Z"/><path d="M145.42,64.62l.25,2.02c-.52,.14-.98,.2-1.4,.2-.65,0-1.18-.13-1.57-.39-.4-.26-.67-.61-.82-1.06s-.22-1.34-.22-2.68v-7.76h-1.37v-1.78h1.37v-3.34l1.87-1.37v4.71h1.89v1.78h-1.89v7.88c0,.73,.06,1.2,.17,1.41,.16,.3,.46,.46,.9,.46,.21,0,.49-.03,.83-.09Z"/><path d="M162.11,64.62l.25,2.02c-.52,.14-.98,.2-1.4,.2-.65,0-1.18-.13-1.57-.39-.4-.26-.67-.61-.82-1.06s-.22-1.34-.22-2.68v-7.76h-1.37v-1.78h1.37v-3.34l1.87-1.37v4.71h1.89v1.78h-1.89v7.88c0,.73,.06,1.2,.17,1.41,.16,.3,.46,.46,.9,.46,.21,0,.49-.03,.83-.09Z"/><path d="M165.59,59.92c0-2.33,.49-4.08,1.47-5.27s2.22-1.78,3.71-1.78,2.7,.59,3.69,1.78,1.49,2.89,1.49,5.13c0,2.42-.49,4.22-1.46,5.41s-2.21,1.78-3.72,1.78-2.71-.59-3.7-1.78c-.99-1.19-1.48-2.94-1.48-5.26Zm1.92,0c0,1.75,.32,3.04,.95,3.9s1.42,1.28,2.36,1.28c.88,0,1.64-.43,2.27-1.29s.95-2.15,.95-3.88-.32-3.03-.95-3.88-1.42-1.28-2.36-1.28c-.89,0-1.65,.43-2.27,1.28-.63,.86-.94,2.15-.94,3.88Z"/><path d="M187.81,66.66v-1.98c-.43,.76-.94,1.33-1.52,1.71s-1.24,.57-1.98,.57c-.87,0-1.62-.23-2.23-.71-.62-.47-1.03-1.06-1.24-1.78s-.31-1.7-.31-2.95v-8.35h1.87v7.48c0,1.39,.07,2.32,.21,2.79,.14,.47,.4,.85,.77,1.13,.38,.28,.81,.42,1.29,.42,.9,0,1.63-.37,2.21-1.1,.49-.63,.74-1.8,.74-3.49v-7.22h1.88v13.48h-1.68Z"/><path d="M194.85,66.66v-13.48h1.69v2.04c.43-.95,.83-1.58,1.19-1.89,.36-.31,.76-.46,1.21-.46,.63,0,1.27,.25,1.92,.74l-.63,2.12c-.47-.33-.92-.5-1.36-.5-.4,0-.76,.14-1.09,.42s-.56,.67-.7,1.17c-.24,.87-.36,1.8-.36,2.78v7.06h-1.87Z"/><path d="M204.36,66.66v-13.48h1.69v1.9c.41-.74,.9-1.29,1.49-1.66s1.26-.55,2.02-.55c.59,0,1.14,.12,1.64,.35,.5,.23,.91,.54,1.22,.91,.31,.38,.54,.87,.69,1.47,.15,.6,.23,1.52,.23,2.77v8.29h-1.87v-8.21c0-.99-.08-1.72-.25-2.17-.17-.46-.43-.81-.79-1.06-.36-.25-.78-.38-1.25-.38-.9,0-1.61,.33-2.15,1-.53,.67-.8,1.82-.8,3.44v7.37h-1.87Z"/><path d="M226.19,62.32l1.93,.29c-.32,1.44-.9,2.52-1.75,3.26-.84,.73-1.88,1.1-3.13,1.1-1.57,0-2.83-.59-3.8-1.78-.97-1.19-1.45-2.91-1.45-5.15s.49-4.1,1.47-5.33c.98-1.22,2.21-1.83,3.71-1.83s2.62,.6,3.58,1.8,1.43,2.94,1.43,5.22v.61h-8.26c.08,1.51,.43,2.66,1.05,3.43s1.39,1.16,2.29,1.16c1.41,0,2.38-.92,2.93-2.77Zm-6.16-3.69h6.17c-.08-1.17-.33-2.04-.75-2.62-.6-.84-1.37-1.26-2.3-1.26-.84,0-1.55,.35-2.15,1.05-.59,.7-.92,1.64-.98,2.83Z"/><path d="M232.91,66.66v-13.48h1.69v2.04c.43-.95,.83-1.58,1.19-1.89,.36-.31,.76-.46,1.21-.46,.63,0,1.27,.25,1.92,.74l-.63,2.12c-.47-.33-.92-.5-1.36-.5-.4,0-.76,.14-1.09,.42s-.56,.67-.7,1.17c-.24,.87-.36,1.8-.36,2.78v7.06h-1.87Z"/><path d="M257.93,66.66v-1.7c-.34,.65-.77,1.15-1.31,1.49-.53,.34-1.11,.51-1.73,.51-1.3,0-2.43-.62-3.38-1.85-.95-1.23-1.43-2.96-1.43-5.2,0-1.53,.21-2.83,.63-3.9,.42-1.07,.99-1.86,1.69-2.37,.71-.52,1.49-.77,2.35-.77,.62,0,1.19,.16,1.72,.49,.53,.33,.96,.78,1.31,1.37v-6.68h1.89v18.61h-1.75Zm-5.93-6.73c0,1.74,.3,3.04,.91,3.88s1.31,1.27,2.12,1.27,1.49-.41,2.07-1.22c.58-.81,.88-2.04,.88-3.68,0-1.89-.29-3.26-.88-4.13-.58-.87-1.32-1.3-2.21-1.3-.79,0-1.47,.42-2.03,1.25-.57,.83-.85,2.14-.85,3.93Z"/><path d="M272.25,65c-.63,.65-1.28,1.14-1.96,1.47s-1.38,.5-2.11,.5c-1.15,0-2.07-.35-2.75-1.04s-1.03-1.63-1.03-2.81c0-.78,.16-1.47,.48-2.07s.76-1.07,1.32-1.41,1.41-.59,2.54-.75c1.52-.22,2.64-.49,3.35-.8v-.58c.01-.92-.15-1.57-.48-1.94-.47-.54-1.18-.81-2.15-.81-.87,0-1.52,.18-1.96,.54s-.75,1.04-.95,2.04l-1.84-.3c.26-1.45,.79-2.5,1.59-3.16,.8-.66,1.95-.99,3.43-.99,1.16,0,2.07,.22,2.73,.65,.66,.44,1.08,.97,1.25,1.62,.17,.64,.26,1.58,.26,2.82v3.05c0,2.13,.04,3.48,.12,4.03,.08,.55,.24,1.09,.48,1.62h-1.96c-.19-.47-.32-1.02-.38-1.66Zm-.15-5.1c-.69,.34-1.71,.63-3.06,.86-.79,.14-1.34,.29-1.65,.46-.31,.17-.56,.42-.73,.74-.17,.32-.26,.68-.26,1.1,0,.64,.2,1.16,.6,1.54,.4,.38,.95,.58,1.65,.58s1.28-.17,1.82-.52c.54-.35,.95-.81,1.22-1.39,.27-.58,.41-1.42,.41-2.53v-.84Z"/><path d="M279.32,66.66v-13.48h1.69v1.9c.41-.74,.9-1.29,1.49-1.66s1.26-.55,2.02-.55c.59,0,1.14,.12,1.64,.35,.5,.23,.91,.54,1.22,.91,.31,.38,.54,.87,.69,1.47,.15,.6,.23,1.52,.23,2.77v8.29h-1.87v-8.21c0-.99-.08-1.72-.25-2.17-.17-.46-.43-.81-.79-1.06-.36-.25-.78-.38-1.25-.38-.9,0-1.61,.33-2.15,1-.53,.67-.8,1.82-.8,3.44v7.37h-1.87Z"/><path d="M292.88,62.63l1.87-.36c.11,.95,.41,1.66,.9,2.12,.49,.46,1.14,.7,1.95,.7s1.44-.2,1.88-.6c.44-.4,.67-.91,.67-1.53,0-.53-.19-.95-.57-1.24-.26-.2-.9-.46-1.9-.76-1.46-.45-2.43-.83-2.92-1.14s-.87-.73-1.14-1.26-.41-1.12-.41-1.79c0-1.15,.37-2.09,1.1-2.81s1.76-1.08,3.06-1.08c.82,0,1.54,.15,2.17,.44,.62,.3,1.1,.69,1.43,1.19s.56,1.21,.69,2.15l-1.83,.3c-.17-1.47-.97-2.21-2.4-2.21-.81,0-1.42,.16-1.82,.49-.4,.33-.6,.74-.6,1.25s.19,.89,.57,1.18c.23,.17,.91,.44,2.04,.81,1.55,.49,2.55,.88,3.01,1.18,.46,.29,.81,.69,1.06,1.2,.25,.5,.38,1.1,.38,1.8,0,1.29-.41,2.33-1.23,3.13-.82,.8-1.93,1.2-3.35,1.2-2.65,0-4.19-1.45-4.61-4.34Z"/><path d="M314.97,66.66v-18.61h1.87v18.61h-1.87Z"/><path d="M329.38,65c-.63,.65-1.28,1.14-1.96,1.47s-1.38,.5-2.11,.5c-1.15,0-2.07-.35-2.75-1.04s-1.03-1.63-1.03-2.81c0-.78,.16-1.47,.48-2.07s.76-1.07,1.32-1.41,1.41-.59,2.54-.75c1.52-.22,2.64-.49,3.35-.8v-.58c.01-.92-.15-1.57-.48-1.94-.47-.54-1.18-.81-2.15-.81-.87,0-1.52,.18-1.96,.54s-.75,1.04-.95,2.04l-1.84-.3c.26-1.45,.79-2.5,1.59-3.16,.8-.66,1.95-.99,3.43-.99,1.16,0,2.07,.22,2.73,.65,.66,.44,1.08,.97,1.25,1.62,.17,.64,.26,1.58,.26,2.82v3.05c0,2.13,.04,3.48,.12,4.03,.08,.55,.24,1.09,.48,1.62h-1.96c-.19-.47-.32-1.02-.38-1.66Zm-.15-5.1c-.69,.34-1.71,.63-3.06,.86-.79,.14-1.34,.29-1.65,.46-.31,.17-.56,.42-.73,.74-.17,.32-.26,.68-.26,1.1,0,.64,.2,1.16,.6,1.54,.4,.38,.95,.58,1.65,.58s1.28-.17,1.82-.52c.54-.35,.95-.81,1.22-1.39,.27-.58,.41-1.42,.41-2.53v-.84Z"/><path d="M344.82,66.66v-13.48h1.68v1.88c.37-.7,.85-1.24,1.43-1.62,.58-.38,1.22-.57,1.91-.57,.78,0,1.43,.2,1.97,.6,.54,.4,.92,.98,1.15,1.75,.44-.78,.95-1.37,1.52-1.76s1.21-.59,1.9-.59c1.06,0,1.9,.36,2.51,1.08s.92,1.87,.92,3.45v9.25h-1.87v-8.5c0-.97-.07-1.65-.21-2.05s-.37-.71-.68-.93c-.31-.22-.67-.33-1.06-.33-.81,0-1.47,.32-1.98,.96s-.77,1.65-.77,3.02v7.84h-1.87v-8.77c0-1.12-.17-1.91-.51-2.36-.34-.46-.81-.69-1.42-.69-.85,0-1.53,.35-2.02,1.04-.5,.69-.74,1.95-.74,3.78v7h-1.87Z"/><path d="M372.54,62.32l1.93,.29c-.32,1.44-.9,2.52-1.75,3.26-.84,.73-1.88,1.1-3.13,1.1-1.57,0-2.83-.59-3.8-1.78-.97-1.19-1.45-2.91-1.45-5.15s.49-4.1,1.47-5.33c.98-1.22,2.21-1.83,3.71-1.83s2.62,.6,3.58,1.8,1.43,2.94,1.43,5.22v.61h-8.26c.08,1.51,.43,2.66,1.05,3.43s1.39,1.16,2.29,1.16c1.41,0,2.38-.92,2.93-2.77Zm-6.16-3.69h6.17c-.08-1.17-.33-2.04-.75-2.62-.6-.84-1.37-1.26-2.3-1.26-.84,0-1.55,.35-2.15,1.05-.59,.7-.92,1.64-.98,2.83Zm3.43-9.28l-1.18,2.16h-2.13l2.25-3.55h2.01l2.34,3.55h-2.13l-1.14-2.16Z"/><path d="M379.27,66.66v-13.48h1.68v1.88c.37-.7,.85-1.24,1.43-1.62,.58-.38,1.22-.57,1.91-.57,.78,0,1.43,.2,1.97,.6,.54,.4,.92,.98,1.15,1.75,.44-.78,.95-1.37,1.52-1.76s1.21-.59,1.9-.59c1.06,0,1.9,.36,2.51,1.08s.92,1.87,.92,3.45v9.25h-1.87v-8.5c0-.97-.07-1.65-.21-2.05s-.37-.71-.68-.93c-.31-.22-.67-.33-1.06-.33-.81,0-1.47,.32-1.98,.96s-.77,1.65-.77,3.02v7.84h-1.87v-8.77c0-1.12-.17-1.91-.51-2.36-.34-.46-.81-.69-1.42-.69-.85,0-1.53,.35-2.02,1.04-.5,.69-.74,1.95-.74,3.78v7h-1.87Z"/><path d="M406.99,62.32l1.93,.29c-.32,1.44-.9,2.52-1.75,3.26-.84,.73-1.88,1.1-3.13,1.1-1.57,0-2.83-.59-3.8-1.78-.97-1.19-1.45-2.91-1.45-5.15s.49-4.1,1.47-5.33c.98-1.22,2.21-1.83,3.71-1.83s2.62,.6,3.58,1.8,1.43,2.94,1.43,5.22v.61h-8.26c.08,1.51,.43,2.66,1.05,3.43s1.39,1.16,2.29,1.16c1.41,0,2.38-.92,2.93-2.77Zm-6.16-3.69h6.17c-.08-1.17-.33-2.04-.75-2.62-.6-.84-1.37-1.26-2.3-1.26-.84,0-1.55,.35-2.15,1.05-.59,.7-.92,1.64-.98,2.83Z"/><path d="M429.22,66.66v-1.7c-.34,.65-.77,1.15-1.31,1.49-.53,.34-1.11,.51-1.73,.51-1.3,0-2.43-.62-3.38-1.85-.95-1.23-1.43-2.96-1.43-5.2,0-1.53,.21-2.83,.63-3.9,.42-1.07,.99-1.86,1.69-2.37,.71-.52,1.49-.77,2.35-.77,.62,0,1.19,.16,1.72,.49,.53,.33,.96,.78,1.31,1.37v-6.68h1.89v18.61h-1.75Zm-5.93-6.73c0,1.74,.3,3.04,.91,3.88s1.31,1.27,2.12,1.27,1.49-.41,2.07-1.22c.58-.81,.88-2.04,.88-3.68,0-1.89-.29-3.26-.88-4.13-.58-.87-1.32-1.3-2.21-1.3-.79,0-1.47,.42-2.03,1.25-.57,.83-.85,2.14-.85,3.93Z"/><path d="M436.33,50.68v-2.63h1.87v2.63h-1.87Zm0,15.98v-13.48h1.87v13.48h-1.87Z"/><path d="M443.49,66.66v-13.48h1.69v2.04c.43-.95,.83-1.58,1.19-1.89,.36-.31,.76-.46,1.21-.46,.63,0,1.27,.25,1.92,.74l-.63,2.12c-.47-.33-.92-.5-1.36-.5-.4,0-.76,.14-1.09,.42s-.56,.67-.7,1.17c-.24,.87-.36,1.8-.36,2.78v7.06h-1.87Z"/><path d="M460.56,62.32l1.93,.29c-.32,1.44-.9,2.52-1.75,3.26-.84,.73-1.88,1.1-3.13,1.1-1.57,0-2.83-.59-3.8-1.78-.97-1.19-1.45-2.91-1.45-5.15s.49-4.1,1.47-5.33c.98-1.22,2.21-1.83,3.71-1.83s2.62,.6,3.58,1.8,1.43,2.94,1.43,5.22v.61h-8.26c.08,1.51,.43,2.66,1.05,3.43s1.39,1.16,2.29,1.16c1.41,0,2.38-.92,2.93-2.77Zm-6.16-3.69h6.17c-.08-1.17-.33-2.04-.75-2.62-.6-.84-1.37-1.26-2.3-1.26-.84,0-1.55,.35-2.15,1.05-.59,.7-.92,1.64-.98,2.83Z"/><path d="M474.51,61.72l1.84,.29c-.21,1.61-.74,2.83-1.59,3.68-.85,.85-1.87,1.27-3.07,1.27-1.45,0-2.64-.59-3.57-1.78-.94-1.19-1.4-2.95-1.4-5.28s.47-4.1,1.42-5.28c.94-1.17,2.16-1.76,3.64-1.76,1.14,0,2.11,.36,2.89,1.07,.78,.71,1.29,1.78,1.5,3.2l-1.82,.33c-.18-.91-.49-1.59-.93-2.04-.44-.45-.97-.68-1.59-.68-.92,0-1.69,.41-2.29,1.22-.61,.82-.91,2.11-.91,3.89s.29,3.17,.87,3.99c.58,.82,1.32,1.23,2.23,1.23,.71,0,1.32-.27,1.82-.82,.5-.55,.82-1.39,.96-2.55Z"/><path d="M484.52,64.62l.25,2.02c-.52,.14-.98,.2-1.4,.2-.65,0-1.18-.13-1.57-.39-.4-.26-.67-.61-.82-1.06-.15-.45-.22-1.34-.22-2.68v-7.76h-1.37v-1.78h1.37v-3.34l1.87-1.37v4.71h1.89v1.78h-1.89v7.88c0,.73,.05,1.2,.17,1.41,.16,.3,.46,.46,.9,.46,.21,0,.49-.03,.83-.09Z"/><path d="M488.71,50.68v-2.63h1.87v2.63h-1.87Zm0,15.98v-13.48h1.87v13.48h-1.87Z"/><path d="M495.15,59.92c0-2.33,.49-4.08,1.47-5.27,.98-1.18,2.22-1.78,3.71-1.78s2.7,.59,3.69,1.78,1.49,2.89,1.49,5.13c0,2.42-.49,4.22-1.46,5.41s-2.21,1.78-3.72,1.78-2.71-.59-3.7-1.78c-.99-1.19-1.48-2.94-1.48-5.26Zm1.92,0c0,1.75,.32,3.04,.95,3.9s1.42,1.28,2.36,1.28c.88,0,1.64-.43,2.27-1.29,.63-.86,.95-2.15,.95-3.88s-.32-3.03-.95-3.88-1.42-1.28-2.36-1.28c-.89,0-1.65,.43-2.27,1.28-.63,.86-.94,2.15-.94,3.88Z"/><path d="M510.14,66.66v-13.48h1.69v1.9c.41-.74,.9-1.29,1.49-1.66s1.26-.55,2.02-.55c.59,0,1.14,.12,1.64,.35,.5,.23,.91,.54,1.22,.91,.31,.38,.54,.87,.69,1.47,.15,.6,.23,1.52,.23,2.77v8.29h-1.87v-8.21c0-.99-.08-1.72-.25-2.17-.17-.46-.43-.81-.79-1.06-.36-.25-.78-.38-1.25-.38-.9,0-1.61,.33-2.15,1-.53,.67-.8,1.82-.8,3.44v7.37h-1.87Z"/><path d="M524.99,66.66v-2.6h2.13v2.6h-2.13Z"/></g></svg>