<?xml version="1.0" encoding="UTF-8"?><svg id="a" xmlns="http://www.w3.org/2000/svg" width="19.79cm" height="4.4cm" viewBox="0 0 560.87 124.58"><defs><style>.b{fill:#fff;stroke:#000;stroke-miterlimit:10;stroke-width:2px;}</style></defs><path class="b" d="M559.4,60.27c.09-1.24,.06-2.51-.12-3.79-.5-3.63-1.67-6.87-3.51-9.64-2.13-3.22-5.14-5.82-8.72-7.52-3.05-1.45-6.38-2.18-9.89-2.18-2.37,0-4.66,.36-6.83,1.02-2.13-.67-4.38-1.02-6.67-1.02-1.79,0-3.55,.21-5.25,.62-1.09-.2-2.2-.31-3.32-.31h-1.76c-3.24-3.17-7.68-5.13-12.57-5.13h-1.87c-1.46,0-2.88,.19-4.24,.52-1.56-.16-3.13-.12-4.67,.13-1.51-.41-3.09-.65-4.73-.65h-1.87c-1.93,0-3.78,.31-5.52,.87-.11-.79-.27-1.57-.48-2.33,.43-1.54,.66-3.16,.66-4.84v-1.78c0-3.28-.88-6.36-2.41-9-1.24-5.03-4.61-9.36-9.35-11.76-6.05-3.06-13.32-2.46-18.79,1.55l-1.27,.94c-1.04,.03-2.08,.11-3.09,.28h-1.53c-1.37,0-2.7,.17-3.98,.46-1.86-.5-3.79-.76-5.76-.76-2.36,0-4.66,.37-6.85,1.06-2.23-.7-4.57-1.06-7.01-1.06s-4.65,.35-6.81,1.01c-2.15-.66-4.41-1.01-6.76-1.01s-4.78,.37-7,1.08c-2.18-.71-4.48-1.08-6.83-1.08-1.23,0-2.44,.1-3.63,.3h-1.28c-1.16,0-2.3,.12-3.4,.33-1.68-.41-3.42-.64-5.2-.64-1.09,0-2.18,.08-3.25,.25-2.26-.34-4.64-.33-6.91,.06h-1.41c-1.36,0-2.68,.16-3.96,.45-1.88-.49-3.84-.76-5.86-.76-2.28,0-4.49,.33-6.59,.95-2.07-.62-4.25-.95-6.47-.95-1.79,0-3.55,.21-5.25,.62-3.27-3.35-7.83-5.44-12.88-5.44h-1.87c-4.89,0-9.33,1.96-12.57,5.13h-1.76c-.91,0-1.79,.09-2.66,.22-.87-.13-1.76-.22-2.66-.22h-1.27c-1.19-.2-2.4-.3-3.63-.3-3.82,0-7.47,.97-10.68,2.76-.36-.2-.72-.39-1.09-.57-3.05-1.45-6.38-2.19-9.9-2.19-2.37,0-4.66,.36-6.83,1.02-2.13-.67-4.38-1.02-6.67-1.02s-4.51,.35-6.64,1c-2.07-.65-4.26-1-6.49-1-1.09,0-2.18,.08-3.25,.25-2.26-.34-4.64-.33-6.91,.06h-1.41c-1.36,0-2.68,.16-3.96,.45-1.49-.39-3.02-.64-4.6-.72-1.11-.96-2.33-1.82-3.68-2.5-6.05-3.06-13.32-2.46-18.79,1.55l-1.24,.91c-4.78,0-8.52,1.24-11.33,2.75-.36-.2-.72-.39-1.09-.57-3.05-1.45-6.38-2.19-9.9-2.19-2.37,0-4.66,.36-6.83,1.02-1.35-.42-2.75-.72-4.17-.88-3.23-3.07-7.58-4.96-12.39-4.96h-1.89c-6,0-11.32,2.94-14.59,7.46-2.48-1.32-5.19-2.18-8.02-2.5-3.23-3.07-7.58-4.97-12.39-4.97h-1.87c-.9,0-1.78,.09-2.64,.22-.87-.13-1.74-.22-2.64-.22h-1.87c-4.82,0-9.19,1.91-12.42,4.99-.51,.06-1.02,.14-1.52,.24-3.25-3.23-7.73-5.23-12.68-5.23h-1.87c-3.76,0-7.25,1.16-10.13,3.13-2.97-2.06-6.54-3.23-10.28-3.23h-2.45c-1.75,0-3.46,.26-5.08,.74-1.5-.4-3.06-.64-4.69-.64h-2.02c-.89,0-1.75,.09-2.61,.21-.85-.12-1.72-.21-2.61-.21h-1.87c-3.1,0-6.02,.79-8.57,2.17-2.57-1.39-5.49-2.17-8.54-2.17h-2.16c-7.85,0-14.8,5.09-17.16,12.57L1.84,32.29c-1.43,4.52-1,9.37,1.09,13.53-.37,1.44-.59,2.93-.59,4.49v18.61c0,3.59,1.06,6.92,2.87,9.72-1.92,4.78-2.9,9.7-2.9,14.72,0,4.5,.74,8.85,2.21,12.93,1.23,3.44,2.65,6.38,4.32,9,3.31,5.17,9.02,8.3,15.16,8.3h1.35c1.21,0,2.39-.12,3.55-.36,.34,.02,.68,.05,1.02,.05h1.87c4.92,0,9.37-1.97,12.62-5.17h1.66c1.8,0,3.53-.27,5.17-.76,2.2,.7,4.53,1.07,6.94,1.07s4.55-.35,6.7-1.01c1.96,.58,4.02,.88,6.13,.88,1.5,0,3.03-.16,4.56-.47,1.69,.39,3.44,.6,5.23,.6,1.99,0,3.94-.27,5.82-.76,1.28,.29,2.61,.46,3.98,.46h.75c3.35,3.45,7.99,5.47,12.91,5.47h1.35c4.6,0,8.96-1.76,12.25-4.81,3.17,2.8,7.34,4.5,11.91,4.5h1.87c4.9,0,9.34-1.97,12.59-5.15,.05,0,.11-.01,.17-.02h1.53c1.39,0,2.74-.17,4.04-.47,1.91,.51,3.9,.78,5.93,.78,3.55,0,6.91-.76,9.95-2.23,2.43,1.22,5.16,1.92,8.06,1.92h1.87c.89,0,1.77-.06,2.62-.19,.86,.12,1.73,.19,2.62,.19h1.87c1.38,0,2.72-.17,4.01-.46,1.6,.42,3.26,.67,4.95,.74,3.99,3.35,9.12,5.19,14.66,5.19,4.63,0,9.04-1.31,12.74-3.77,.67-.45,1.3-.94,1.92-1.45,.84-.05,1.68-.12,2.5-.26,.22,0,.43,.01,.65,.01h1.96c1.09,0,2.17-.1,3.23-.3,1.47,.31,2.99,.47,4.54,.47,1.13,0,2.28-.1,3.44-.28,.62,.06,1.25,.1,1.88,.1h1.87c1.43,0,2.82-.19,4.16-.5,1.36,.33,2.77,.5,4.21,.5h1.75c1.92,0,3.79-.31,5.55-.88,2.32,.78,4.78,1.19,7.3,1.19,2.33,0,4.58-.35,6.72-.99,2.14,.64,4.42,.99,6.83,.99,2.58,0,5.07-.42,7.41-1.2,3.39,4,8.4,6.36,13.73,6.36h1.35c4.92,0,9.56-2.02,12.91-5.47,.69-.11,1.38-.25,2.05-.42,1.23,.27,2.51,.42,3.83,.42h1.87c1.39,0,2.74-.17,4.04-.47,1.91,.51,3.89,.78,5.92,.78,2.48,0,4.86-.39,7.11-1.11,2.22,.73,4.57,1.11,6.97,1.11,2.1,0,4.15-.3,6.11-.86,1.79,.48,3.66,.73,5.57,.73,1.13,0,2.28-.1,3.44-.28,.62,.06,1.25,.1,1.89,.1h1.87c1.8,0,3.53-.27,5.17-.76,2.2,.7,4.53,1.07,6.94,1.07,2.02,0,3.99-.26,5.87-.75,1.27,.28,2.58,.45,3.94,.45h1.87c.89,0,1.77-.06,2.62-.19,.86,.12,1.73,.19,2.62,.19h1.87c1.23,0,2.43-.12,3.58-.36,.39,.09,.78,.19,1.18,.26,3.36,3.51,8.04,5.57,13.01,5.57h1.35c4.96,0,9.64-2.04,13-5.55,9.24-.76,16.5-8.49,16.5-17.92v-2.6c0-1.89-.3-3.72-.84-5.43h1.14c4.96,0,9.44-2,12.7-5.24,1.36,.25,2.75,.38,4.18,.38,2.36,0,4.64-.35,6.79-1.01,2.16,.65,4.47,1.01,6.9,1.01,1.91,0,3.77-.25,5.56-.67,1.17,.24,2.39,.37,3.64,.37h1.87c1.21,0,2.4-.12,3.54-.35,1.54,.35,3.14,.53,4.77,.53,1.13,0,2.28-.1,3.44-.28,.62,.06,1.25,.1,1.89,.1h1.87c1.43,0,2.82-.19,4.16-.5,1.36,.33,2.77,.5,4.21,.5h1.75c1.92,0,3.79-.31,5.55-.88,2.32,.78,4.78,1.19,7.3,1.19,2.34,0,4.59-.35,6.72-.99,2.14,.64,4.42,.99,6.83,.99,6.09,0,11.75-2.24,15.91-6.31,4.29-4.19,6.66-9.88,6.66-16.02,0-1.59-.16-3.13-.47-4.63Z"/><g><path d="M20,36.57l5.89-18.61h2.16l6.25,18.61h-2.31l-1.78-5.64h-6.42l-1.66,5.64h-2.13Zm4.38-7.64h5.2l-1.59-5.15c-.49-1.58-.85-2.87-1.08-3.86-.2,1.19-.48,2.38-.84,3.55l-1.7,5.46Z"/><path d="M45.16,36.57V17.96h1.87v18.61h-1.87Z"/><path d="M52.23,20.62v-2.67h2.02v2.09c0,1.2-.14,2.09-.43,2.67s-.72,1.02-1.29,1.33l-.46-.89c.74-.37,1.12-1.22,1.16-2.54h-.99Z"/><path d="M67.08,32.23l1.93,.29c-.32,1.44-.9,2.52-1.75,3.26-.84,.73-1.89,1.1-3.13,1.1-1.57,0-2.83-.59-3.8-1.78-.97-1.19-1.45-2.91-1.45-5.15s.49-4.1,1.47-5.33c.98-1.22,2.22-1.83,3.71-1.83s2.62,.6,3.58,1.8,1.43,2.94,1.43,5.22v.61h-8.26c.08,1.51,.43,2.66,1.05,3.43s1.39,1.16,2.29,1.16c1.4,0,2.38-.92,2.93-2.77Zm-6.16-3.69h6.17c-.08-1.17-.33-2.04-.75-2.62-.6-.84-1.37-1.26-2.3-1.26-.84,0-1.55,.35-2.15,1.05-.59,.7-.92,1.64-.98,2.83Zm1.71-7.12l1.38-3.55h2.45l-2.29,3.55h-1.55Z"/><path d="M81.04,31.63l1.84,.29c-.21,1.61-.74,2.83-1.59,3.68s-1.87,1.27-3.07,1.27c-1.45,0-2.64-.59-3.57-1.78-.94-1.19-1.4-2.95-1.4-5.28s.47-4.1,1.42-5.28c.94-1.17,2.16-1.76,3.64-1.76,1.14,0,2.11,.36,2.89,1.07s1.28,1.78,1.5,3.2l-1.82,.33c-.18-.91-.49-1.59-.93-2.04-.44-.45-.97-.68-1.59-.68-.92,0-1.69,.41-2.29,1.22-.6,.82-.91,2.11-.91,3.89s.29,3.17,.87,3.99,1.32,1.23,2.23,1.23c.71,0,1.32-.27,1.82-.82,.5-.55,.82-1.39,.96-2.55Z"/><path d="M86.89,36.57V17.96h1.87v6.68c.44-.62,.94-1.08,1.49-1.39,.55-.31,1.17-.46,1.83-.46,1.18,0,2.11,.38,2.79,1.12,.68,.75,1.02,2.12,1.02,4.12v8.54h-1.87v-8.54c0-1.17-.21-2.01-.62-2.51s-.99-.76-1.71-.76c-.81,0-1.5,.33-2.08,.98s-.86,1.81-.86,3.47v7.38h-1.87Z"/><path d="M108.71,32.23l1.93,.29c-.32,1.44-.9,2.52-1.75,3.26-.84,.73-1.89,1.1-3.13,1.1-1.57,0-2.83-.59-3.8-1.78-.97-1.19-1.45-2.91-1.45-5.15s.49-4.1,1.47-5.33c.98-1.22,2.22-1.83,3.71-1.83s2.62,.6,3.58,1.8,1.43,2.94,1.43,5.22v.61h-8.26c.08,1.51,.43,2.66,1.05,3.43s1.39,1.16,2.29,1.16c1.4,0,2.38-.92,2.93-2.77Zm-6.16-3.69h6.17c-.08-1.17-.33-2.04-.75-2.62-.6-.84-1.37-1.26-2.3-1.26-.84,0-1.55,.35-2.15,1.05-.59,.7-.92,1.64-.98,2.83Z"/><path d="M115.37,36.57V17.96h1.87v18.61h-1.87Z"/><path d="M122.53,36.57V17.96h1.87v18.61h-1.87Z"/><path d="M137.3,32.23l1.93,.29c-.32,1.44-.9,2.52-1.75,3.26-.84,.73-1.89,1.1-3.13,1.1-1.57,0-2.83-.59-3.8-1.78-.97-1.19-1.45-2.91-1.45-5.15s.49-4.1,1.47-5.33c.98-1.22,2.22-1.83,3.71-1.83s2.62,.6,3.58,1.8,1.43,2.94,1.43,5.22v.61h-8.26c.08,1.51,.43,2.66,1.05,3.43s1.39,1.16,2.29,1.16c1.4,0,2.38-.92,2.93-2.77Zm-6.16-3.69h6.17c-.08-1.17-.33-2.04-.75-2.62-.6-.84-1.37-1.26-2.3-1.26-.84,0-1.55,.35-2.15,1.05-.59,.7-.92,1.64-.98,2.83Z"/><path d="M159.53,36.57v-1.7c-.34,.65-.77,1.15-1.31,1.49-.53,.34-1.11,.51-1.73,.51-1.3,0-2.43-.62-3.38-1.85-.95-1.23-1.43-2.96-1.43-5.2,0-1.53,.21-2.83,.63-3.9,.42-1.07,.99-1.86,1.69-2.37s1.49-.77,2.35-.77c.62,0,1.19,.16,1.72,.49,.53,.33,.97,.78,1.31,1.37v-6.68h1.89v18.61h-1.75Zm-5.93-6.73c0,1.74,.3,3.04,.91,3.88s1.31,1.27,2.12,1.27,1.49-.41,2.07-1.22c.58-.81,.88-2.04,.88-3.68,0-1.89-.29-3.26-.88-4.13-.58-.87-1.32-1.3-2.21-1.3-.79,0-1.47,.42-2.03,1.25-.57,.83-.85,2.14-.85,3.93Z"/><path d="M174.19,32.23l1.93,.29c-.32,1.44-.9,2.52-1.75,3.26-.84,.73-1.89,1.1-3.13,1.1-1.57,0-2.83-.59-3.8-1.78-.97-1.19-1.45-2.91-1.45-5.15s.49-4.1,1.47-5.33c.98-1.22,2.22-1.83,3.71-1.83s2.62,.6,3.58,1.8,1.43,2.94,1.43,5.22v.61h-8.26c.08,1.51,.43,2.66,1.05,3.43s1.39,1.16,2.29,1.16c1.4,0,2.38-.92,2.93-2.77Zm-6.16-3.69h6.17c-.08-1.17-.33-2.04-.75-2.62-.6-.84-1.37-1.26-2.3-1.26-.84,0-1.55,.35-2.15,1.05-.59,.7-.92,1.64-.98,2.83Z"/><path d="M180.19,32.53l1.87-.36c.11,.95,.41,1.66,.9,2.12,.49,.46,1.14,.7,1.95,.7s1.44-.2,1.88-.6c.44-.4,.67-.91,.67-1.53,0-.53-.19-.95-.57-1.24-.26-.2-.9-.46-1.9-.76-1.46-.45-2.43-.83-2.92-1.14s-.87-.73-1.14-1.26-.41-1.12-.41-1.79c0-1.15,.37-2.09,1.1-2.81s1.76-1.08,3.06-1.08c.82,0,1.54,.15,2.16,.44s1.1,.69,1.43,1.19,.56,1.21,.69,2.15l-1.83,.3c-.17-1.47-.97-2.21-2.4-2.21-.81,0-1.42,.16-1.82,.49-.4,.33-.6,.74-.6,1.25s.19,.89,.57,1.18c.23,.17,.91,.44,2.04,.81,1.55,.49,2.55,.88,3.01,1.18,.46,.29,.81,.69,1.06,1.2,.25,.5,.38,1.1,.38,1.8,0,1.29-.41,2.33-1.23,3.13s-1.93,1.2-3.35,1.2c-2.65,0-4.19-1.45-4.61-4.34Z"/><path d="M209.54,34.9c-.63,.65-1.28,1.14-1.96,1.47s-1.38,.5-2.11,.5c-1.15,0-2.07-.35-2.75-1.04s-1.03-1.63-1.03-2.81c0-.78,.16-1.47,.48-2.07s.76-1.07,1.32-1.41,1.4-.59,2.54-.75c1.52-.22,2.64-.49,3.35-.8v-.58c.01-.92-.15-1.57-.48-1.94-.47-.54-1.18-.81-2.15-.81-.87,0-1.52,.18-1.96,.54s-.75,1.04-.95,2.04l-1.84-.3c.26-1.45,.79-2.5,1.59-3.16s1.94-.99,3.43-.99c1.16,0,2.07,.22,2.73,.65,.66,.44,1.08,.97,1.25,1.62s.26,1.58,.26,2.82v3.05c0,2.13,.04,3.48,.12,4.03,.08,.55,.24,1.09,.48,1.62h-1.96c-.19-.47-.32-1.02-.38-1.66Zm-.15-5.1c-.69,.34-1.71,.63-3.06,.86-.79,.14-1.34,.29-1.65,.46-.31,.17-.56,.42-.73,.74-.17,.32-.26,.68-.26,1.1,0,.64,.2,1.16,.6,1.54,.4,.38,.95,.58,1.65,.58s1.28-.17,1.82-.52,.95-.81,1.23-1.39c.27-.58,.41-1.42,.41-2.53v-.84Z"/><path d="M220.78,34.52l.25,2.02c-.52,.14-.98,.2-1.4,.2-.65,0-1.18-.13-1.57-.39-.4-.26-.67-.61-.82-1.06s-.22-1.34-.22-2.68v-7.76h-1.37v-1.78h1.37v-3.34l1.87-1.37v4.71h1.89v1.78h-1.89v7.88c0,.73,.06,1.2,.17,1.41,.16,.3,.46,.46,.9,.46,.21,0,.49-.03,.83-.09Z"/><path d="M224.26,29.83c0-2.33,.49-4.08,1.47-5.27s2.22-1.78,3.71-1.78,2.7,.59,3.69,1.78,1.49,2.89,1.49,5.13c0,2.42-.49,4.22-1.46,5.41s-2.21,1.78-3.72,1.78-2.71-.59-3.7-1.78c-.99-1.19-1.48-2.94-1.48-5.26Zm1.92,0c0,1.75,.32,3.04,.95,3.9s1.42,1.28,2.36,1.28c.88,0,1.64-.43,2.27-1.29s.95-2.15,.95-3.88-.32-3.03-.95-3.88-1.42-1.28-2.36-1.28c-.89,0-1.65,.43-2.27,1.28-.63,.86-.94,2.15-.94,3.88Z"/><path d="M239.25,36.57v-13.48h1.68v1.88c.37-.7,.85-1.24,1.43-1.62s1.22-.57,1.91-.57c.78,0,1.43,.2,1.97,.6,.54,.4,.92,.98,1.15,1.75,.44-.78,.95-1.37,1.52-1.76s1.21-.59,1.9-.59c1.06,0,1.9,.36,2.51,1.08,.61,.72,.92,1.87,.92,3.45v9.25h-1.87v-8.5c0-.97-.07-1.65-.21-2.05-.14-.4-.37-.71-.68-.93-.31-.22-.67-.33-1.06-.33-.81,0-1.47,.32-1.98,.96-.51,.64-.77,1.65-.77,3.02v7.84h-1.87v-8.77c0-1.12-.17-1.91-.51-2.36-.34-.46-.81-.69-1.42-.69-.85,0-1.53,.35-2.02,1.04s-.74,1.95-.74,3.78v7h-1.87Z"/><path d="M266.97,32.23l1.93,.29c-.32,1.44-.9,2.52-1.75,3.26-.84,.73-1.89,1.1-3.13,1.1-1.57,0-2.83-.59-3.8-1.78-.97-1.19-1.45-2.91-1.45-5.15s.49-4.1,1.47-5.33c.98-1.22,2.22-1.83,3.71-1.83s2.62,.6,3.58,1.8,1.43,2.94,1.43,5.22v.61h-8.26c.08,1.51,.43,2.66,1.05,3.43s1.39,1.16,2.29,1.16c1.4,0,2.38-.92,2.93-2.77Zm-6.16-3.69h6.17c-.08-1.17-.33-2.04-.75-2.62-.6-.84-1.37-1.26-2.3-1.26-.84,0-1.55,.35-2.15,1.05-.59,.7-.92,1.64-.98,2.83Z"/><path d="M272.97,32.53l1.87-.36c.11,.95,.41,1.66,.9,2.12,.49,.46,1.14,.7,1.95,.7s1.44-.2,1.88-.6c.44-.4,.67-.91,.67-1.53,0-.53-.19-.95-.57-1.24-.26-.2-.9-.46-1.9-.76-1.46-.45-2.43-.83-2.92-1.14s-.87-.73-1.14-1.26-.41-1.12-.41-1.79c0-1.15,.37-2.09,1.1-2.81s1.76-1.08,3.06-1.08c.82,0,1.54,.15,2.16,.44s1.1,.69,1.43,1.19,.56,1.21,.69,2.15l-1.83,.3c-.17-1.47-.97-2.21-2.4-2.21-.81,0-1.42,.16-1.82,.49-.4,.33-.6,.74-.6,1.25s.19,.89,.57,1.18c.23,.17,.91,.44,2.04,.81,1.55,.49,2.55,.88,3.01,1.18,.46,.29,.81,.69,1.06,1.2,.25,.5,.38,1.1,.38,1.8,0,1.29-.41,2.33-1.23,3.13s-1.93,1.2-3.35,1.2c-2.65,0-4.19-1.45-4.61-4.34Z"/><path d="M302.16,41.73v-6.6c-.3,.52-.71,.94-1.24,1.26s-1.06,.48-1.59,.48c-1.32,0-2.46-.63-3.43-1.88s-1.45-3.02-1.45-5.29c0-1.98,.41-3.63,1.22-4.94,.81-1.32,1.96-1.97,3.45-1.97,.69,0,1.29,.18,1.83,.53,.53,.35,.99,.88,1.38,1.58v-1.8h1.69v18.65h-1.87Zm-5.79-11.95c0,1.75,.3,3.06,.91,3.92,.61,.86,1.34,1.29,2.18,1.29,.75,0,1.42-.41,2.01-1.24,.58-.82,.88-2.05,.88-3.69,0-1.85-.31-3.23-.92-4.13-.61-.9-1.34-1.35-2.19-1.35-.77,0-1.44,.42-2.01,1.26-.57,.84-.86,2.16-.86,3.94Z"/><path d="M316.64,36.57v-1.98c-.43,.76-.94,1.33-1.52,1.71s-1.24,.57-1.98,.57c-.87,0-1.62-.23-2.23-.71-.62-.47-1.03-1.06-1.24-1.78s-.31-1.7-.31-2.95v-8.35h1.87v7.48c0,1.39,.07,2.32,.21,2.79,.14,.47,.4,.85,.77,1.13,.38,.28,.81,.42,1.29,.42,.9,0,1.63-.37,2.21-1.1,.49-.63,.74-1.8,.74-3.49v-7.22h1.88v13.48h-1.68Z"/><path d="M323.68,20.58v-2.63h1.87v2.63h-1.87Zm0,15.98v-13.48h1.87v13.48h-1.87Z"/><path d="M346.41,31.63l1.84,.29c-.21,1.61-.74,2.83-1.59,3.68s-1.87,1.27-3.07,1.27c-1.45,0-2.64-.59-3.57-1.78-.94-1.19-1.4-2.95-1.4-5.28s.47-4.1,1.42-5.28c.94-1.17,2.16-1.76,3.64-1.76,1.14,0,2.11,.36,2.89,1.07,.78,.71,1.28,1.78,1.5,3.2l-1.82,.33c-.18-.91-.49-1.59-.93-2.04-.44-.45-.97-.68-1.59-.68-.92,0-1.69,.41-2.29,1.22-.6,.82-.91,2.11-.91,3.89s.29,3.17,.87,3.99c.58,.82,1.32,1.23,2.23,1.23,.71,0,1.32-.27,1.82-.82,.5-.55,.82-1.39,.96-2.55Z"/><path d="M351.55,29.83c0-2.33,.49-4.08,1.47-5.27s2.21-1.78,3.71-1.78,2.7,.59,3.69,1.78,1.49,2.89,1.49,5.13c0,2.42-.49,4.22-1.46,5.41-.97,1.18-2.21,1.78-3.72,1.78s-2.71-.59-3.7-1.78c-.99-1.19-1.48-2.94-1.48-5.26Zm1.92,0c0,1.75,.32,3.04,.95,3.9s1.42,1.28,2.36,1.28c.88,0,1.64-.43,2.27-1.29,.63-.86,.95-2.15,.95-3.88s-.32-3.03-.95-3.88-1.42-1.28-2.36-1.28c-.89,0-1.65,.43-2.27,1.28-.63,.86-.94,2.15-.94,3.88Z"/><path d="M366.55,36.57v-13.48h1.68v1.88c.37-.7,.85-1.24,1.43-1.62s1.22-.57,1.91-.57c.78,0,1.43,.2,1.97,.6,.54,.4,.92,.98,1.15,1.75,.44-.78,.95-1.37,1.52-1.76s1.21-.59,1.9-.59c1.06,0,1.9,.36,2.51,1.08,.61,.72,.92,1.87,.92,3.45v9.25h-1.87v-8.5c0-.97-.07-1.65-.21-2.05-.14-.4-.37-.71-.68-.93-.31-.22-.67-.33-1.06-.33-.81,0-1.47,.32-1.98,.96-.51,.64-.77,1.65-.77,3.02v7.84h-1.87v-8.77c0-1.12-.17-1.91-.51-2.36-.34-.46-.81-.69-1.42-.69-.85,0-1.53,.35-2.02,1.04s-.74,1.95-.74,3.78v7h-1.87Z"/><path d="M386.71,41.73V23.08h1.73v1.75c.42-.73,.89-1.25,1.41-1.57,.51-.32,1.11-.48,1.77-.48,.87,0,1.66,.26,2.36,.77s1.26,1.3,1.69,2.35c.43,1.05,.64,2.32,.64,3.8,0,2.29-.48,4.06-1.44,5.3-.96,1.24-2.09,1.86-3.38,1.86-.58,0-1.11-.15-1.61-.44s-.93-.71-1.29-1.26v6.56h-1.87Zm1.7-11.83c0,1.74,.29,3.03,.87,3.85,.58,.83,1.29,1.24,2.12,1.24s1.49-.43,2.09-1.28,.9-2.17,.9-3.96-.29-3.06-.87-3.91c-.58-.85-1.29-1.27-2.13-1.27-.75,0-1.44,.46-2.05,1.36-.62,.91-.92,2.23-.92,3.97Z"/><path d="M400.28,29.83c0-2.33,.49-4.08,1.47-5.27,.98-1.18,2.22-1.78,3.71-1.78s2.7,.59,3.69,1.78,1.49,2.89,1.49,5.13c0,2.42-.49,4.22-1.46,5.41s-2.21,1.78-3.72,1.78-2.71-.59-3.7-1.78c-.99-1.19-1.48-2.94-1.48-5.26Zm1.92,0c0,1.75,.32,3.04,.95,3.9s1.42,1.28,2.36,1.28c.88,0,1.64-.43,2.27-1.29,.63-.86,.95-2.15,.95-3.88s-.32-3.03-.95-3.88-1.42-1.28-2.36-1.28c-.89,0-1.65,.43-2.27,1.28-.63,.86-.94,2.15-.94,3.88Z"/><path d="M414.54,32.53l1.87-.36c.11,.95,.41,1.66,.9,2.12,.49,.46,1.14,.7,1.95,.7s1.44-.2,1.88-.6c.44-.4,.67-.91,.67-1.53,0-.53-.19-.95-.57-1.24-.26-.2-.9-.46-1.9-.76-1.46-.45-2.43-.83-2.92-1.14s-.87-.73-1.14-1.26-.41-1.12-.41-1.79c0-1.15,.37-2.09,1.1-2.81s1.76-1.08,3.06-1.08c.82,0,1.54,.15,2.17,.44,.62,.3,1.1,.69,1.43,1.19s.56,1.21,.69,2.15l-1.83,.3c-.17-1.47-.97-2.21-2.4-2.21-.81,0-1.42,.16-1.82,.49-.4,.33-.6,.74-.6,1.25s.19,.89,.57,1.18c.23,.17,.91,.44,2.04,.81,1.55,.49,2.55,.88,3.01,1.18,.46,.29,.81,.69,1.06,1.2,.25,.5,.38,1.1,.38,1.8,0,1.29-.41,2.33-1.23,3.13-.82,.8-1.93,1.2-3.34,1.2-2.65,0-4.19-1.45-4.61-4.34Z"/><path d="M435.9,32.23l1.93,.29c-.32,1.44-.9,2.52-1.75,3.26-.84,.73-1.88,1.1-3.13,1.1-1.57,0-2.83-.59-3.8-1.78-.97-1.19-1.45-2.91-1.45-5.15s.49-4.1,1.47-5.33c.98-1.22,2.21-1.83,3.71-1.83s2.62,.6,3.58,1.8,1.43,2.94,1.43,5.22v.61h-8.26c.08,1.51,.43,2.66,1.05,3.43s1.39,1.16,2.29,1.16c1.41,0,2.38-.92,2.93-2.77Zm-6.16-3.69h6.17c-.08-1.17-.33-2.04-.75-2.62-.6-.84-1.37-1.26-2.3-1.26-.84,0-1.55,.35-2.15,1.05-.59,.7-.92,1.64-.98,2.83Z"/><path d="M442.62,36.57v-13.48h1.69v1.9c.41-.74,.9-1.29,1.49-1.66s1.26-.55,2.02-.55c.59,0,1.14,.12,1.64,.35,.5,.23,.91,.54,1.22,.91,.31,.38,.54,.87,.69,1.47,.15,.6,.23,1.52,.23,2.77v8.29h-1.87v-8.21c0-.99-.08-1.72-.25-2.17-.17-.46-.43-.81-.79-1.06-.36-.25-.78-.38-1.25-.38-.9,0-1.61,.33-2.15,1-.53,.67-.8,1.82-.8,3.44v7.37h-1.87Z"/><path d="M461.06,34.52l.25,2.02c-.52,.14-.98,.2-1.4,.2-.65,0-1.18-.13-1.57-.39-.4-.26-.67-.61-.82-1.06-.15-.45-.22-1.34-.22-2.68v-7.76h-1.37v-1.78h1.37v-3.34l1.87-1.37v4.71h1.89v1.78h-1.89v7.88c0,.73,.05,1.2,.17,1.41,.16,.3,.46,.46,.9,.46,.21,0,.49-.03,.83-.09Z"/><path d="M21.34,67.77v-18.61h1.87v18.61h-1.87Z"/><path d="M35.76,66.1c-.63,.65-1.28,1.14-1.96,1.47-.68,.33-1.38,.5-2.11,.5-1.15,0-2.07-.35-2.75-1.04-.69-.69-1.03-1.63-1.03-2.81,0-.78,.16-1.47,.48-2.07s.76-1.07,1.32-1.41,1.4-.59,2.54-.75c1.52-.22,2.64-.49,3.35-.8v-.58c.01-.92-.15-1.57-.48-1.94-.47-.54-1.18-.81-2.15-.81-.87,0-1.52,.18-1.96,.54s-.75,1.04-.95,2.04l-1.84-.3c.26-1.45,.79-2.5,1.59-3.16s1.94-.99,3.43-.99c1.16,0,2.07,.22,2.73,.65,.66,.44,1.08,.97,1.25,1.62s.26,1.58,.26,2.82v3.05c0,2.13,.04,3.48,.12,4.03,.08,.55,.24,1.09,.48,1.62h-1.96c-.19-.47-.32-1.02-.38-1.66Zm-.15-5.1c-.69,.34-1.71,.63-3.06,.86-.79,.14-1.34,.29-1.65,.46-.31,.17-.56,.42-.73,.74-.17,.32-.26,.68-.26,1.1,0,.64,.2,1.16,.6,1.54,.4,.38,.95,.58,1.65,.58s1.28-.17,1.82-.52,.95-.81,1.23-1.39c.27-.58,.41-1.42,.41-2.53v-.84Z"/><path d="M51.19,67.77v-13.48h1.68v1.88c.37-.7,.85-1.24,1.43-1.62s1.22-.57,1.91-.57c.78,0,1.43,.2,1.97,.6,.54,.4,.92,.98,1.15,1.75,.44-.78,.95-1.37,1.52-1.76s1.21-.59,1.9-.59c1.06,0,1.9,.36,2.51,1.08,.61,.72,.92,1.87,.92,3.45v9.25h-1.87v-8.5c0-.97-.07-1.65-.21-2.05-.14-.4-.37-.71-.68-.93-.31-.22-.67-.33-1.06-.33-.81,0-1.47,.32-1.98,.96-.51,.64-.77,1.65-.77,3.02v7.84h-1.87v-8.77c0-1.12-.17-1.91-.51-2.36-.34-.46-.81-.69-1.42-.69-.85,0-1.53,.35-2.02,1.04s-.74,1.95-.74,3.78v7h-1.87Z"/><path d="M78.56,66.1c-.63,.65-1.28,1.14-1.96,1.47-.68,.33-1.38,.5-2.11,.5-1.15,0-2.07-.35-2.75-1.04-.69-.69-1.03-1.63-1.03-2.81,0-.78,.16-1.47,.48-2.07s.76-1.07,1.32-1.41,1.4-.59,2.54-.75c1.52-.22,2.64-.49,3.35-.8v-.58c.01-.92-.15-1.57-.48-1.94-.47-.54-1.18-.81-2.15-.81-.87,0-1.52,.18-1.96,.54s-.75,1.04-.95,2.04l-1.84-.3c.26-1.45,.79-2.5,1.59-3.16s1.94-.99,3.43-.99c1.16,0,2.07,.22,2.73,.65,.66,.44,1.08,.97,1.25,1.62s.26,1.58,.26,2.82v3.05c0,2.13,.04,3.48,.12,4.03,.08,.55,.24,1.09,.48,1.62h-1.96c-.19-.47-.32-1.02-.38-1.66Zm-.15-5.1c-.69,.34-1.71,.63-3.06,.86-.79,.14-1.34,.29-1.65,.46-.31,.17-.56,.42-.73,.74-.17,.32-.26,.68-.26,1.1,0,.64,.2,1.16,.6,1.54,.4,.38,.95,.58,1.65,.58s1.28-.17,1.82-.52,.95-.81,1.23-1.39c.27-.58,.41-1.42,.41-2.53v-.84Z"/><path d="M89.8,65.72l.25,2.02c-.52,.14-.98,.2-1.4,.2-.65,0-1.18-.13-1.57-.39-.4-.26-.67-.61-.82-1.06s-.22-1.34-.22-2.68v-7.76h-1.37v-1.78h1.37v-3.34l1.87-1.37v4.71h1.89v1.78h-1.89v7.88c0,.73,.06,1.2,.17,1.41,.16,.3,.46,.46,.9,.46,.21,0,.49-.03,.83-.09Z"/><path d="M93.98,51.78v-2.63h1.87v2.63h-1.87Zm0,15.98v-13.48h1.87v13.48h-1.87Z"/><path d="M108.69,63.43l1.93,.29c-.32,1.44-.9,2.52-1.75,3.26-.84,.73-1.89,1.1-3.13,1.1-1.57,0-2.83-.59-3.8-1.78-.97-1.19-1.45-2.91-1.45-5.15s.49-4.1,1.47-5.33c.98-1.22,2.22-1.83,3.71-1.83s2.62,.6,3.58,1.8,1.43,2.94,1.43,5.22v.61h-8.26c.08,1.51,.43,2.66,1.05,3.43s1.39,1.16,2.29,1.16c1.4,0,2.38-.92,2.93-2.77Zm-6.16-3.69h6.17c-.08-1.17-.33-2.04-.75-2.62-.6-.84-1.37-1.26-2.3-1.26-.84,0-1.55,.35-2.15,1.05-.59,.7-.92,1.64-.98,2.83Zm4.66-7.12h-1.51l-2.4-3.55h2.51l1.4,3.55Z"/><path d="M115.41,67.77v-13.48h1.69v2.04c.43-.95,.83-1.58,1.19-1.89,.36-.31,.76-.46,1.21-.46,.63,0,1.27,.25,1.92,.74l-.63,2.12c-.47-.33-.92-.5-1.36-.5-.4,0-.76,.14-1.09,.42s-.56,.67-.7,1.17c-.24,.87-.36,1.8-.36,2.78v7.06h-1.87Z"/><path d="M132.48,63.43l1.93,.29c-.32,1.44-.9,2.52-1.75,3.26-.84,.73-1.89,1.1-3.13,1.1-1.57,0-2.83-.59-3.8-1.78-.97-1.19-1.45-2.91-1.45-5.15s.49-4.1,1.47-5.33c.98-1.22,2.22-1.83,3.71-1.83s2.62,.6,3.58,1.8,1.43,2.94,1.43,5.22v.61h-8.26c.08,1.51,.43,2.66,1.05,3.43s1.39,1.16,2.29,1.16c1.4,0,2.38-.92,2.93-2.77Zm-6.16-3.69h6.17c-.08-1.17-.33-2.04-.75-2.62-.6-.84-1.37-1.26-2.3-1.26-.84,0-1.55,.35-2.15,1.05-.59,.7-.92,1.64-.98,2.83Z"/><path d="M139.75,67.77v-2.6h2.13v2.6c0,1.01-.15,1.8-.44,2.37-.3,.57-.73,1.01-1.29,1.31l-.52-.98c.38-.2,.67-.51,.86-.91,.19-.4,.3-1,.32-1.8h-1.05Z"/><path d="M155.89,51.78v-2.63h1.87v2.63h-1.87Zm0,15.98v-13.48h1.87v13.48h-1.87Z"/><path d="M162.98,67.77v-18.61h1.87v18.61h-1.87Z"/><path d="M178.48,72.96l-.2-2.15c.42,.14,.77,.2,1.07,.2,.4,0,.73-.08,.98-.24,.26-.16,.47-.41,.64-.75,.06-.12,.3-.87,.74-2.24l-4.21-13.5h2.02l2.31,7.8c.29,.97,.55,2.01,.8,3.12,.21-1.05,.47-2.07,.76-3.07l2.36-7.85h1.88l-4.19,13.71c-.55,1.78-.99,2.96-1.3,3.56-.32,.6-.68,1.03-1.08,1.29-.4,.26-.86,.39-1.37,.39-.36,0-.76-.09-1.21-.28Z"/><path d="M207.17,66.1c-.63,.65-1.28,1.14-1.96,1.47-.68,.33-1.38,.5-2.11,.5-1.15,0-2.07-.35-2.75-1.04-.69-.69-1.03-1.63-1.03-2.81,0-.78,.16-1.47,.48-2.07s.76-1.07,1.32-1.41,1.4-.59,2.54-.75c1.52-.22,2.64-.49,3.35-.8v-.58c.01-.92-.15-1.57-.48-1.94-.47-.54-1.18-.81-2.15-.81-.87,0-1.52,.18-1.96,.54s-.75,1.04-.95,2.04l-1.84-.3c.26-1.45,.79-2.5,1.59-3.16s1.94-.99,3.43-.99c1.16,0,2.07,.22,2.73,.65,.66,.44,1.08,.97,1.25,1.62s.26,1.58,.26,2.82v3.05c0,2.13,.04,3.48,.12,4.03,.08,.55,.24,1.09,.48,1.62h-1.96c-.19-.47-.32-1.02-.38-1.66Zm-.15-5.1c-.69,.34-1.71,.63-3.06,.86-.79,.14-1.34,.29-1.65,.46-.31,.17-.56,.42-.73,.74-.17,.32-.26,.68-.26,1.1,0,.64,.2,1.16,.6,1.54,.4,.38,.95,.58,1.65,.58s1.28-.17,1.82-.52,.95-.81,1.23-1.39c.27-.58,.41-1.42,.41-2.53v-.84Z"/><path d="M229.8,66.1c-.63,.65-1.28,1.14-1.96,1.47-.68,.33-1.38,.5-2.11,.5-1.15,0-2.07-.35-2.75-1.04-.69-.69-1.03-1.63-1.03-2.81,0-.78,.16-1.47,.48-2.07s.76-1.07,1.32-1.41,1.4-.59,2.54-.75c1.52-.22,2.64-.49,3.35-.8v-.58c.01-.92-.15-1.57-.48-1.94-.47-.54-1.18-.81-2.15-.81-.87,0-1.52,.18-1.96,.54s-.75,1.04-.95,2.04l-1.84-.3c.26-1.45,.79-2.5,1.59-3.16s1.94-.99,3.43-.99c1.16,0,2.07,.22,2.73,.65,.66,.44,1.08,.97,1.25,1.62s.26,1.58,.26,2.82v3.05c0,2.13,.04,3.48,.12,4.03,.08,.55,.24,1.09,.48,1.62h-1.96c-.19-.47-.32-1.02-.38-1.66Zm-.15-5.1c-.69,.34-1.71,.63-3.06,.86-.79,.14-1.34,.29-1.65,.46-.31,.17-.56,.42-.73,.74-.17,.32-.26,.68-.26,1.1,0,.64,.2,1.16,.6,1.54,.4,.38,.95,.58,1.65,.58s1.28-.17,1.82-.52,.95-.81,1.23-1.39c.27-.58,.41-1.42,.41-2.53v-.84Z"/><path d="M244.11,67.77v-1.98c-.43,.76-.94,1.33-1.52,1.71-.58,.38-1.24,.57-1.98,.57-.87,0-1.62-.23-2.23-.7-.62-.47-1.03-1.06-1.24-1.78s-.31-1.7-.31-2.95v-8.35h1.87v7.48c0,1.39,.07,2.32,.21,2.79,.14,.47,.4,.85,.77,1.13,.38,.28,.81,.42,1.29,.42,.9,0,1.63-.37,2.21-1.1,.49-.63,.74-1.8,.74-3.49v-7.22h1.88v13.48h-1.68Z"/><path d="M255.31,65.72l.25,2.02c-.52,.14-.98,.2-1.4,.2-.65,0-1.18-.13-1.57-.39-.4-.26-.67-.61-.82-1.06s-.22-1.34-.22-2.68v-7.76h-1.37v-1.78h1.37v-3.34l1.87-1.37v4.71h1.89v1.78h-1.89v7.88c0,.73,.06,1.2,.17,1.41,.16,.3,.46,.46,.9,.46,.21,0,.49-.03,.83-.09Z"/><path d="M266.69,66.1c-.63,.65-1.28,1.14-1.96,1.47-.68,.33-1.38,.5-2.11,.5-1.15,0-2.07-.35-2.75-1.04-.69-.69-1.03-1.63-1.03-2.81,0-.78,.16-1.47,.48-2.07s.76-1.07,1.32-1.41,1.4-.59,2.54-.75c1.52-.22,2.64-.49,3.35-.8v-.58c.01-.92-.15-1.57-.48-1.94-.47-.54-1.18-.81-2.15-.81-.87,0-1.52,.18-1.96,.54s-.75,1.04-.95,2.04l-1.84-.3c.26-1.45,.79-2.5,1.59-3.16s1.94-.99,3.43-.99c1.16,0,2.07,.22,2.73,.65,.66,.44,1.08,.97,1.25,1.62s.26,1.58,.26,2.82v3.05c0,2.13,.04,3.48,.12,4.03,.08,.55,.24,1.09,.48,1.62h-1.96c-.19-.47-.32-1.02-.38-1.66Zm-.15-5.1c-.69,.34-1.71,.63-3.06,.86-.79,.14-1.34,.29-1.65,.46-.31,.17-.56,.42-.73,.74-.17,.32-.26,.68-.26,1.1,0,.64,.2,1.16,.6,1.54,.4,.38,.95,.58,1.65,.58s1.28-.17,1.82-.52,.95-.81,1.23-1.39c.27-.58,.41-1.42,.41-2.53v-.84Z"/><path d="M273.77,67.77v-13.48h1.69v1.9c.41-.74,.9-1.29,1.49-1.66,.59-.37,1.26-.55,2.02-.55,.59,0,1.14,.12,1.64,.35,.5,.23,.91,.54,1.22,.91,.31,.38,.54,.87,.69,1.47,.15,.6,.23,1.52,.23,2.77v8.29h-1.87v-8.21c0-.99-.08-1.72-.25-2.17-.17-.46-.43-.81-.79-1.06s-.78-.38-1.25-.38c-.9,0-1.61,.33-2.15,1-.53,.67-.8,1.82-.8,3.44v7.37h-1.87Z"/><path d="M292.21,65.72l.25,2.02c-.52,.14-.98,.2-1.4,.2-.65,0-1.18-.13-1.57-.39-.4-.26-.67-.61-.82-1.06s-.22-1.34-.22-2.68v-7.76h-1.37v-1.78h1.37v-3.34l1.87-1.37v4.71h1.89v1.78h-1.89v7.88c0,.73,.06,1.2,.17,1.41,.16,.3,.46,.46,.9,.46,.21,0,.49-.03,.83-.09Z"/><path d="M311.9,67.77v-1.7c-.34,.65-.77,1.15-1.31,1.49-.53,.34-1.11,.51-1.73,.51-1.3,0-2.43-.62-3.38-1.85-.95-1.23-1.43-2.96-1.43-5.2,0-1.53,.21-2.83,.63-3.9,.42-1.07,.99-1.86,1.69-2.37s1.49-.77,2.35-.77c.62,0,1.19,.16,1.72,.49,.53,.33,.97,.78,1.31,1.37v-6.68h1.89v18.61h-1.75Zm-5.93-6.73c0,1.74,.3,3.04,.91,3.88s1.31,1.27,2.12,1.27,1.49-.41,2.07-1.22c.58-.81,.88-2.04,.88-3.68,0-1.89-.29-3.26-.88-4.13-.58-.87-1.32-1.3-2.21-1.3-.79,0-1.47,.42-2.03,1.25-.57,.83-.85,2.14-.85,3.93Z"/><path d="M326.57,63.43l1.93,.29c-.32,1.44-.9,2.52-1.75,3.26-.84,.73-1.89,1.1-3.13,1.1-1.57,0-2.83-.59-3.8-1.78-.97-1.19-1.45-2.91-1.45-5.15s.49-4.1,1.47-5.33c.98-1.22,2.22-1.83,3.71-1.83s2.62,.6,3.58,1.8,1.43,2.94,1.43,5.22v.61h-8.26c.08,1.51,.43,2.66,1.05,3.43s1.39,1.16,2.29,1.16c1.4,0,2.38-.92,2.93-2.77Zm-6.16-3.69h6.17c-.08-1.17-.33-2.04-.75-2.62-.6-.84-1.37-1.26-2.3-1.26-.84,0-1.55,.35-2.15,1.05-.59,.7-.92,1.64-.98,2.83Z"/><path d="M348.87,62.83l1.84,.29c-.21,1.61-.74,2.83-1.59,3.68-.85,.85-1.87,1.27-3.07,1.27-1.45,0-2.64-.59-3.57-1.78-.94-1.19-1.4-2.95-1.4-5.28s.47-4.1,1.42-5.28c.94-1.17,2.16-1.76,3.64-1.76,1.14,0,2.11,.36,2.89,1.07,.78,.71,1.28,1.78,1.5,3.2l-1.82,.33c-.18-.91-.49-1.59-.93-2.04-.44-.45-.97-.68-1.59-.68-.92,0-1.69,.41-2.29,1.22-.61,.82-.91,2.11-.91,3.89s.29,3.17,.87,3.99c.58,.82,1.32,1.23,2.23,1.23,.71,0,1.32-.27,1.82-.82,.5-.55,.82-1.39,.96-2.55Z"/><path d="M354.72,67.77v-18.61h1.87v6.68c.44-.62,.94-1.08,1.49-1.39,.55-.31,1.17-.46,1.83-.46,1.18,0,2.11,.38,2.79,1.12,.68,.75,1.02,2.12,1.02,4.12v8.54h-1.87v-8.54c0-1.17-.21-2.01-.62-2.51-.41-.51-.99-.76-1.71-.76-.81,0-1.5,.33-2.08,.98s-.86,1.81-.86,3.47v7.38h-1.87Z"/><path d="M376.19,66.1c-.63,.65-1.28,1.14-1.96,1.47-.68,.33-1.38,.5-2.11,.5-1.15,0-2.07-.35-2.75-1.04-.69-.69-1.03-1.63-1.03-2.81,0-.78,.16-1.47,.48-2.07,.32-.6,.76-1.07,1.32-1.41s1.41-.59,2.54-.75c1.52-.22,2.64-.49,3.35-.8v-.58c.01-.92-.15-1.57-.48-1.94-.46-.54-1.18-.81-2.15-.81-.87,0-1.52,.18-1.96,.54s-.75,1.04-.95,2.04l-1.84-.3c.26-1.45,.79-2.5,1.59-3.16s1.94-.99,3.43-.99c1.16,0,2.07,.22,2.73,.65,.66,.44,1.08,.97,1.25,1.62,.17,.64,.26,1.58,.26,2.82v3.05c0,2.13,.04,3.48,.12,4.03,.08,.55,.24,1.09,.48,1.62h-1.96c-.19-.47-.32-1.02-.38-1.66Zm-.15-5.1c-.69,.34-1.71,.63-3.06,.86-.79,.14-1.34,.29-1.65,.46-.31,.17-.56,.42-.73,.74-.17,.32-.26,.68-.26,1.1,0,.64,.2,1.16,.6,1.54,.4,.38,.95,.58,1.65,.58s1.28-.17,1.82-.52,.95-.81,1.22-1.39c.27-.58,.41-1.42,.41-2.53v-.84Z"/><path d="M383.27,67.77v-13.48h1.69v2.04c.43-.95,.83-1.58,1.19-1.89,.36-.31,.76-.46,1.21-.46,.63,0,1.27,.25,1.92,.74l-.63,2.12c-.47-.33-.92-.5-1.36-.5-.4,0-.76,.14-1.09,.42s-.56,.67-.7,1.17c-.24,.87-.36,1.8-.36,2.78v7.06h-1.87Z"/><path d="M392.42,68.88l1.83,.33c.08,.72,.34,1.26,.76,1.62s1.01,.53,1.76,.53c.82,0,1.47-.2,1.96-.59,.49-.39,.82-.98,1-1.76,.11-.47,.17-1.47,.17-3-.41,.58-.86,1.02-1.37,1.31-.51,.29-1.07,.44-1.69,.44-1.32,0-2.42-.56-3.29-1.68-1-1.29-1.5-3.01-1.5-5.17,0-1.45,.22-2.71,.66-3.8s1.02-1.88,1.73-2.39c.71-.51,1.52-.76,2.41-.76,.65,0,1.25,.16,1.78,.48,.54,.32,1.01,.8,1.43,1.44v-1.61h1.73v11.65c0,2.07-.17,3.55-.51,4.44-.34,.88-.89,1.58-1.66,2.09-.77,.51-1.7,.77-2.78,.77-1.43,0-2.53-.38-3.3-1.16s-1.14-1.84-1.12-3.2Zm1.55-8.1c0,1.77,.29,3.07,.88,3.88s1.3,1.22,2.15,1.22,1.57-.4,2.16-1.2,.89-2.07,.89-3.81-.31-2.96-.92-3.79-1.35-1.24-2.23-1.24c-.78,0-1.46,.41-2.05,1.24-.59,.83-.88,2.06-.88,3.68Z"/><path d="M414.61,63.43l1.93,.29c-.32,1.44-.9,2.52-1.75,3.26-.84,.73-1.88,1.1-3.13,1.1-1.57,0-2.83-.59-3.8-1.78-.97-1.19-1.45-2.91-1.45-5.15s.49-4.1,1.47-5.33c.98-1.22,2.21-1.83,3.71-1.83s2.62,.6,3.58,1.8,1.43,2.94,1.43,5.22v.61h-8.26c.08,1.51,.43,2.66,1.05,3.43s1.39,1.16,2.29,1.16c1.41,0,2.38-.92,2.93-2.77Zm-6.16-3.69h6.17c-.08-1.17-.33-2.04-.75-2.62-.6-.84-1.37-1.26-2.3-1.26-.84,0-1.55,.35-2.15,1.05-.59,.7-.92,1.64-.98,2.83Z"/><path d="M420.61,63.73l1.87-.36c.11,.95,.41,1.66,.9,2.12,.49,.46,1.14,.7,1.95,.7s1.44-.2,1.88-.6c.44-.4,.67-.91,.67-1.53,0-.53-.19-.95-.57-1.24-.26-.2-.9-.46-1.9-.76-1.46-.45-2.43-.83-2.92-1.14s-.87-.73-1.14-1.26-.41-1.12-.41-1.79c0-1.15,.37-2.09,1.1-2.81s1.76-1.08,3.06-1.08c.82,0,1.54,.15,2.17,.44,.62,.3,1.1,.69,1.43,1.19s.56,1.21,.69,2.15l-1.83,.3c-.17-1.47-.97-2.21-2.4-2.21-.81,0-1.42,.16-1.82,.49-.4,.33-.6,.74-.6,1.25s.19,.89,.57,1.18c.23,.17,.91,.44,2.04,.81,1.55,.49,2.55,.88,3.01,1.18,.46,.29,.81,.69,1.06,1.2,.25,.5,.38,1.1,.38,1.8,0,1.29-.41,2.33-1.23,3.13-.82,.8-1.93,1.19-3.34,1.19-2.65,0-4.19-1.45-4.61-4.34Z"/><path d="M442.76,72.93v-18.65h1.73v1.75c.42-.73,.89-1.25,1.41-1.57,.51-.32,1.11-.48,1.77-.48,.87,0,1.66,.26,2.36,.77s1.26,1.3,1.69,2.35c.43,1.05,.64,2.32,.64,3.8,0,2.29-.48,4.06-1.44,5.3-.96,1.24-2.09,1.86-3.38,1.86-.58,0-1.11-.15-1.61-.44-.5-.3-.93-.71-1.29-1.26v6.56h-1.87Zm1.7-11.83c0,1.74,.29,3.03,.87,3.85,.58,.83,1.29,1.24,2.12,1.24s1.49-.43,2.09-1.28,.9-2.17,.9-3.96-.29-3.06-.87-3.91c-.58-.85-1.29-1.27-2.13-1.27-.75,0-1.44,.46-2.05,1.36-.62,.91-.92,2.23-.92,3.97Z"/><path d="M456.33,61.03c0-2.33,.49-4.08,1.47-5.27,.98-1.18,2.22-1.78,3.71-1.78s2.7,.59,3.69,1.78,1.49,2.89,1.49,5.13c0,2.42-.49,4.22-1.46,5.41-.97,1.18-2.21,1.78-3.72,1.78s-2.71-.59-3.7-1.78c-.99-1.19-1.48-2.94-1.48-5.26Zm1.92,0c0,1.75,.32,3.04,.95,3.9s1.42,1.28,2.36,1.28c.88,0,1.64-.43,2.27-1.29,.63-.86,.95-2.15,.95-3.88s-.32-3.03-.95-3.88-1.42-1.28-2.36-1.28c-.89,0-1.65,.43-2.27,1.28-.63,.86-.94,2.15-.94,3.88Z"/><path d="M470.59,63.73l1.87-.36c.11,.95,.41,1.66,.9,2.12,.49,.46,1.14,.7,1.95,.7s1.44-.2,1.88-.6c.44-.4,.67-.91,.67-1.53,0-.53-.19-.95-.57-1.24-.26-.2-.9-.46-1.9-.76-1.46-.45-2.43-.83-2.92-1.14s-.87-.73-1.14-1.26-.41-1.12-.41-1.79c0-1.15,.37-2.09,1.1-2.81s1.76-1.08,3.06-1.08c.82,0,1.54,.15,2.17,.44,.62,.3,1.1,.69,1.43,1.19s.56,1.21,.69,2.15l-1.83,.3c-.17-1.47-.97-2.21-2.4-2.21-.81,0-1.42,.16-1.82,.49-.4,.33-.6,.74-.6,1.25s.19,.89,.57,1.18c.23,.17,.91,.44,2.04,.81,1.55,.49,2.55,.88,3.01,1.18,.46,.29,.81,.69,1.06,1.2,.25,.5,.38,1.1,.38,1.8,0,1.29-.41,2.33-1.23,3.13-.82,.8-1.93,1.19-3.34,1.19-2.65,0-4.19-1.45-4.61-4.34Z"/><path d="M484.4,51.78v-2.63h1.87v2.63h-1.87Zm0,15.98v-13.48h1.87v13.48h-1.87Z"/><path d="M495.71,65.72l.25,2.02c-.52,.14-.98,.2-1.4,.2-.65,0-1.18-.13-1.57-.39-.4-.26-.67-.61-.82-1.06-.15-.45-.22-1.34-.22-2.68v-7.76h-1.37v-1.78h1.37v-3.34l1.87-1.37v4.71h1.89v1.78h-1.89v7.88c0,.73,.05,1.2,.17,1.41,.16,.3,.46,.46,.9,.46,.21,0,.49-.03,.83-.09Z"/><path d="M499.9,51.78v-2.63h1.87v2.63h-1.87Zm0,15.98v-13.48h1.87v13.48h-1.87Z"/><path d="M510.14,67.77l-4.21-13.48h1.98l2.38,8.07c.27,.91,.51,1.82,.71,2.72,.16-.71,.39-1.57,.69-2.56l2.47-8.23h1.93l-4.21,13.48h-1.75Z"/><path d="M527.69,63.43l1.93,.29c-.32,1.44-.9,2.52-1.75,3.26-.84,.73-1.88,1.1-3.13,1.1-1.57,0-2.83-.59-3.8-1.78-.97-1.19-1.45-2.91-1.45-5.15s.49-4.1,1.47-5.33c.98-1.22,2.21-1.83,3.71-1.83s2.62,.6,3.58,1.8,1.43,2.94,1.43,5.22v.61h-8.26c.08,1.51,.43,2.66,1.05,3.43s1.39,1.16,2.29,1.16c1.41,0,2.38-.92,2.93-2.77Zm-6.16-3.69h6.17c-.08-1.17-.33-2.04-.75-2.62-.6-.84-1.37-1.26-2.3-1.26-.84,0-1.55,.35-2.15,1.05-.59,.7-.92,1.64-.98,2.83Z"/><path d="M533.68,63.73l1.87-.36c.11,.95,.41,1.66,.9,2.12,.49,.46,1.14,.7,1.95,.7s1.44-.2,1.88-.6c.44-.4,.67-.91,.67-1.53,0-.53-.19-.95-.57-1.24-.26-.2-.9-.46-1.9-.76-1.46-.45-2.43-.83-2.92-1.14s-.87-.73-1.14-1.26-.41-1.12-.41-1.79c0-1.15,.37-2.09,1.1-2.81s1.76-1.08,3.06-1.08c.82,0,1.54,.15,2.17,.44,.62,.3,1.1,.69,1.43,1.19s.56,1.21,.69,2.15l-1.83,.3c-.17-1.47-.97-2.21-2.4-2.21-.81,0-1.42,.16-1.82,.49-.4,.33-.6,.74-.6,1.25s.19,.89,.57,1.18c.23,.17,.91,.44,2.04,.81,1.55,.49,2.55,.88,3.01,1.18,.46,.29,.81,.69,1.06,1.2,.25,.5,.38,1.1,.38,1.8,0,1.29-.41,2.33-1.23,3.13-.82,.8-1.93,1.19-3.34,1.19-2.65,0-4.19-1.45-4.61-4.34Z"/><path d="M25,104.44c-.93-1.46-1.78-3.25-2.55-5.38s-1.15-4.41-1.15-6.84c0-4.11,1.23-8.17,3.69-12.17h1.35c-.95,1.99-1.6,3.53-1.96,4.63-.36,1.1-.64,2.3-.85,3.61s-.31,2.63-.31,3.96c0,4.06,1.04,8.13,3.12,12.2h-1.35Z"/><path d="M30.92,104.13v-18.65h1.73v1.75c.42-.73,.89-1.25,1.41-1.57,.52-.32,1.11-.48,1.77-.48,.87,0,1.66,.26,2.36,.77,.7,.52,1.27,1.3,1.69,2.35,.43,1.05,.64,2.32,.64,3.8,0,2.29-.48,4.06-1.44,5.3-.96,1.24-2.09,1.86-3.38,1.86-.58,0-1.11-.15-1.61-.44s-.93-.71-1.29-1.26v6.56h-1.87Zm1.7-11.83c0,1.74,.29,3.03,.87,3.85,.58,.83,1.29,1.24,2.11,1.24s1.49-.43,2.09-1.28c.6-.85,.9-2.17,.9-3.96s-.29-3.06-.87-3.91-1.29-1.27-2.13-1.27c-.75,0-1.44,.46-2.05,1.36-.62,.91-.92,2.23-.92,3.97Z"/><path d="M45.2,98.97v-13.48h1.69v2.04c.43-.95,.83-1.58,1.19-1.89,.36-.31,.76-.46,1.21-.46,.63,0,1.27,.25,1.92,.74l-.63,2.12c-.47-.33-.92-.5-1.36-.5-.4,0-.76,.14-1.09,.42s-.56,.67-.7,1.17c-.24,.87-.36,1.8-.36,2.78v7.06h-1.87Z"/><path d="M54,92.23c0-2.33,.49-4.08,1.47-5.27s2.22-1.78,3.71-1.78,2.7,.59,3.69,1.78,1.49,2.89,1.49,5.13c0,2.42-.49,4.22-1.46,5.41s-2.21,1.78-3.72,1.78-2.71-.59-3.7-1.78c-.99-1.19-1.48-2.94-1.48-5.26Zm1.92,0c0,1.75,.32,3.04,.95,3.9s1.42,1.28,2.36,1.28c.88,0,1.64-.43,2.27-1.29s.95-2.15,.95-3.88-.32-3.03-.95-3.88-1.42-1.28-2.36-1.28c-.89,0-1.65,.43-2.27,1.28-.63,.86-.94,2.15-.94,3.88Z"/><path d="M73.15,96.92l.25,2.02c-.52,.14-.98,.2-1.4,.2-.65,0-1.18-.13-1.57-.39-.4-.26-.67-.61-.82-1.06s-.22-1.34-.22-2.68v-7.76h-1.37v-1.78h1.37v-3.34l1.87-1.37v4.71h1.89v1.78h-1.89v7.88c0,.73,.06,1.2,.17,1.41,.16,.3,.46,.46,.9,.46,.21,0,.49-.03,.83-.09Z"/><path d="M76.62,92.23c0-2.33,.49-4.08,1.47-5.27s2.22-1.78,3.71-1.78,2.7,.59,3.69,1.78,1.49,2.89,1.49,5.13c0,2.42-.49,4.22-1.46,5.41s-2.21,1.78-3.72,1.78-2.71-.59-3.7-1.78c-.99-1.19-1.48-2.94-1.48-5.26Zm1.92,0c0,1.75,.32,3.04,.95,3.9s1.42,1.28,2.36,1.28c.88,0,1.64-.43,2.27-1.29s.95-2.15,.95-3.88-.32-3.03-.95-3.88-1.42-1.28-2.36-1.28c-.89,0-1.65,.43-2.27,1.28-.63,.86-.94,2.15-.94,3.88Z"/><path d="M91.61,98.97v-13.48h1.69v1.9c.41-.74,.9-1.29,1.49-1.66,.59-.37,1.26-.55,2.02-.55,.59,0,1.14,.12,1.64,.35,.5,.23,.91,.54,1.22,.91,.31,.38,.54,.87,.69,1.47,.15,.6,.23,1.52,.23,2.77v8.29h-1.87v-8.21c0-.99-.08-1.72-.25-2.17-.17-.46-.43-.81-.79-1.06s-.78-.38-1.25-.38c-.9,0-1.61,.33-2.15,1-.53,.67-.8,1.82-.8,3.44v7.37h-1.87Z"/><path d="M106.62,104.44h-1.35c2.07-4.07,3.11-8.14,3.11-12.2,0-1.33-.1-2.65-.31-3.96s-.49-2.52-.84-3.61c-.36-1.1-1.01-2.64-1.96-4.63h1.35c2.45,4,3.68,8.06,3.68,12.17,0,2.36-.37,4.61-1.1,6.73-.73,2.13-1.59,3.96-2.58,5.49Z"/><path d="M130.78,104.13v-6.6c-.3,.52-.71,.94-1.24,1.26s-1.06,.48-1.59,.48c-1.32,0-2.46-.63-3.43-1.88s-1.45-3.02-1.45-5.29c0-1.98,.41-3.63,1.22-4.94,.81-1.32,1.96-1.97,3.45-1.97,.69,0,1.29,.18,1.83,.53,.53,.35,.99,.88,1.38,1.58v-1.8h1.69v18.65h-1.87Zm-5.79-11.95c0,1.75,.3,3.06,.91,3.92,.61,.86,1.34,1.29,2.18,1.29,.75,0,1.42-.41,2.01-1.24,.58-.82,.88-2.05,.88-3.69,0-1.85-.31-3.23-.92-4.13-.61-.9-1.34-1.35-2.19-1.35-.77,0-1.44,.42-2.01,1.26-.57,.84-.86,2.16-.86,3.94Z"/><path d="M145.26,98.97v-1.98c-.43,.76-.94,1.33-1.52,1.71s-1.24,.57-1.98,.57c-.87,0-1.62-.23-2.23-.71-.62-.47-1.03-1.06-1.24-1.78s-.31-1.7-.31-2.95v-8.35h1.87v7.48c0,1.39,.07,2.32,.21,2.79,.14,.47,.4,.85,.77,1.13,.38,.28,.81,.42,1.29,.42,.9,0,1.63-.37,2.21-1.1,.49-.63,.74-1.8,.74-3.49v-7.22h1.88v13.48h-1.68Z"/><path d="M159.85,94.63l1.93,.29c-.32,1.44-.9,2.52-1.75,3.26-.84,.73-1.89,1.1-3.13,1.1-1.57,0-2.83-.59-3.8-1.78-.97-1.19-1.45-2.91-1.45-5.15s.49-4.1,1.47-5.33c.98-1.22,2.22-1.83,3.71-1.83s2.62,.6,3.58,1.8,1.43,2.94,1.43,5.22v.61h-8.26c.08,1.51,.43,2.66,1.05,3.43s1.39,1.16,2.29,1.16c1.4,0,2.38-.92,2.93-2.77Zm-6.16-3.69h6.17c-.08-1.17-.33-2.04-.75-2.62-.6-.84-1.37-1.26-2.3-1.26-.84,0-1.55,.35-2.15,1.05-.59,.7-.92,1.64-.98,2.83Z"/><path d="M174.92,98.97v-13.48h1.69v1.9c.41-.74,.9-1.29,1.49-1.66,.59-.37,1.26-.55,2.02-.55,.59,0,1.14,.12,1.64,.35,.5,.23,.91,.54,1.22,.91,.31,.38,.54,.87,.69,1.47,.15,.6,.23,1.52,.23,2.77v8.29h-1.87v-8.21c0-.99-.08-1.72-.25-2.17-.17-.46-.43-.81-.79-1.06s-.78-.38-1.25-.38c-.9,0-1.61,.33-2.15,1-.53,.67-.8,1.82-.8,3.44v7.37h-1.87Z"/><path d="M196.75,94.63l1.93,.29c-.32,1.44-.9,2.52-1.75,3.26-.84,.73-1.89,1.1-3.13,1.1-1.57,0-2.83-.59-3.8-1.78-.97-1.19-1.45-2.91-1.45-5.15s.49-4.1,1.47-5.33c.98-1.22,2.22-1.83,3.71-1.83s2.62,.6,3.58,1.8,1.43,2.94,1.43,5.22v.61h-8.26c.08,1.51,.43,2.66,1.05,3.43s1.39,1.16,2.29,1.16c1.4,0,2.38-.92,2.93-2.77Zm-6.16-3.69h6.17c-.08-1.17-.33-2.04-.75-2.62-.6-.84-1.37-1.26-2.3-1.26-.84,0-1.55,.35-2.15,1.05-.59,.7-.92,1.64-.98,2.83Zm1.71-7.12l1.38-3.55h2.45l-2.29,3.55h-1.55Z"/><path d="M203.1,100.08l1.83,.33c.08,.72,.34,1.26,.76,1.62s1.01,.53,1.76,.53c.82,0,1.47-.2,1.96-.59s.82-.98,1-1.76c.11-.47,.17-1.47,.17-3-.41,.58-.86,1.02-1.37,1.31s-1.07,.44-1.69,.44c-1.32,0-2.42-.56-3.29-1.68-1-1.29-1.5-3.01-1.5-5.17,0-1.45,.22-2.71,.66-3.8s1.02-1.88,1.73-2.39,1.52-.76,2.41-.76c.65,0,1.25,.16,1.78,.48s1.01,.8,1.43,1.44v-1.61h1.73v11.65c0,2.07-.17,3.55-.51,4.44-.34,.88-.89,1.58-1.66,2.09-.77,.51-1.7,.77-2.78,.77-1.43,0-2.53-.38-3.3-1.16s-1.14-1.84-1.12-3.2Zm1.55-8.1c0,1.77,.29,3.07,.88,3.88,.58,.81,1.3,1.22,2.15,1.22s1.57-.4,2.16-1.2,.89-2.07,.89-3.81-.31-2.96-.92-3.79-1.35-1.24-2.23-1.24c-.78,0-1.47,.41-2.05,1.24-.59,.83-.88,2.06-.88,3.68Z"/><path d="M224.94,97.3c-.63,.65-1.28,1.14-1.96,1.47s-1.38,.5-2.11,.5c-1.15,0-2.07-.35-2.75-1.04s-1.03-1.63-1.03-2.81c0-.78,.16-1.47,.48-2.07s.76-1.07,1.32-1.41,1.4-.59,2.54-.75c1.52-.22,2.64-.49,3.35-.8v-.58c.01-.92-.15-1.57-.48-1.94-.47-.54-1.18-.81-2.15-.81-.87,0-1.52,.18-1.96,.54s-.75,1.04-.95,2.04l-1.84-.3c.26-1.45,.79-2.5,1.59-3.16s1.94-.99,3.43-.99c1.16,0,2.07,.22,2.73,.65,.66,.44,1.08,.97,1.25,1.62s.26,1.58,.26,2.82v3.05c0,2.13,.04,3.48,.12,4.03,.08,.55,.24,1.09,.48,1.62h-1.96c-.19-.47-.32-1.02-.38-1.66Zm-.15-5.1c-.69,.34-1.71,.63-3.06,.86-.79,.14-1.34,.29-1.65,.46-.31,.17-.56,.42-.73,.74-.17,.32-.26,.68-.26,1.1,0,.64,.2,1.16,.6,1.54,.4,.38,.95,.58,1.65,.58s1.28-.17,1.82-.52,.95-.81,1.23-1.39c.27-.58,.41-1.42,.41-2.53v-.84Z"/><path d="M236.18,96.92l.25,2.02c-.52,.14-.98,.2-1.4,.2-.65,0-1.18-.13-1.57-.39-.4-.26-.67-.61-.82-1.06s-.22-1.34-.22-2.68v-7.76h-1.37v-1.78h1.37v-3.34l1.87-1.37v4.71h1.89v1.78h-1.89v7.88c0,.73,.06,1.2,.17,1.41,.16,.3,.46,.46,.9,.46,.21,0,.49-.03,.83-.09Z"/><path d="M240.37,82.98v-2.63h1.87v2.63h-1.87Zm0,15.98v-13.48h1.87v13.48h-1.87Z"/><path d="M250.61,98.97l-4.21-13.48h1.98l2.38,8.07c.27,.91,.51,1.82,.71,2.72,.16-.71,.39-1.57,.69-2.56l2.47-8.23h1.93l-4.21,13.48h-1.75Z"/><path d="M268.16,94.63l1.93,.29c-.32,1.44-.9,2.52-1.75,3.26-.84,.73-1.89,1.1-3.13,1.1-1.57,0-2.83-.59-3.8-1.78-.97-1.19-1.45-2.91-1.45-5.15s.49-4.1,1.47-5.33c.98-1.22,2.22-1.83,3.71-1.83s2.62,.6,3.58,1.8,1.43,2.94,1.43,5.22v.61h-8.26c.08,1.51,.43,2.66,1.05,3.43s1.39,1.16,2.29,1.16c1.4,0,2.38-.92,2.93-2.77Zm-6.16-3.69h6.17c-.08-1.17-.33-2.04-.75-2.62-.6-.84-1.37-1.26-2.3-1.26-.84,0-1.55,.35-2.15,1.05-.59,.7-.92,1.64-.98,2.83Z"/><path d="M274.15,94.93l1.87-.36c.11,.95,.41,1.66,.9,2.12,.49,.46,1.14,.7,1.95,.7s1.44-.2,1.88-.6c.44-.4,.67-.91,.67-1.53,0-.53-.19-.95-.57-1.24-.26-.2-.9-.46-1.9-.76-1.46-.45-2.43-.83-2.92-1.14s-.87-.73-1.14-1.26-.41-1.12-.41-1.79c0-1.15,.37-2.09,1.1-2.81s1.76-1.08,3.06-1.08c.82,0,1.54,.15,2.16,.44s1.1,.69,1.43,1.19,.56,1.21,.69,2.15l-1.83,.3c-.17-1.47-.97-2.21-2.4-2.21-.81,0-1.42,.16-1.82,.49-.4,.33-.6,.74-.6,1.25s.19,.89,.57,1.18c.23,.17,.91,.44,2.04,.81,1.55,.49,2.55,.88,3.01,1.18,.46,.29,.81,.69,1.06,1.2,.25,.5,.38,1.1,.38,1.8,0,1.29-.41,2.33-1.23,3.13s-1.93,1.2-3.35,1.2c-2.65,0-4.19-1.45-4.61-4.34Z"/><path d="M299.9,104.44c-.93-1.46-1.78-3.25-2.55-5.38s-1.15-4.41-1.15-6.84c0-4.11,1.23-8.17,3.69-12.17h1.35c-.95,1.99-1.6,3.53-1.96,4.63-.36,1.1-.64,2.3-.85,3.61s-.31,2.63-.31,3.96c0,4.06,1.04,8.13,3.12,12.2h-1.35Z"/><path d="M313.37,94.63l1.93,.29c-.32,1.44-.9,2.52-1.75,3.26-.84,.73-1.89,1.1-3.13,1.1-1.57,0-2.83-.59-3.8-1.78-.97-1.19-1.45-2.91-1.45-5.15s.49-4.1,1.47-5.33c.98-1.22,2.22-1.83,3.71-1.83s2.62,.6,3.58,1.8,1.43,2.94,1.43,5.22v.61h-8.26c.08,1.51,.43,2.66,1.05,3.43s1.39,1.16,2.29,1.16c1.4,0,2.38-.92,2.93-2.77Zm-6.16-3.69h6.17c-.08-1.17-.33-2.04-.75-2.62-.6-.84-1.37-1.26-2.3-1.26-.84,0-1.55,.35-2.15,1.05-.59,.7-.92,1.64-.98,2.83Zm1.71-7.12l1.38-3.55h2.45l-2.29,3.55h-1.55Z"/><path d="M320.03,98.97v-18.61h1.87v18.61h-1.87Z"/><path d="M334.8,94.63l1.93,.29c-.32,1.44-.9,2.52-1.75,3.26-.84,.73-1.89,1.1-3.13,1.1-1.57,0-2.83-.59-3.8-1.78-.97-1.19-1.45-2.91-1.45-5.15s.49-4.1,1.47-5.33c.98-1.22,2.22-1.83,3.71-1.83s2.62,.6,3.58,1.8,1.43,2.94,1.43,5.22v.61h-8.26c.08,1.51,.43,2.66,1.05,3.43s1.39,1.16,2.29,1.16c1.4,0,2.38-.92,2.93-2.77Zm-6.16-3.69h6.17c-.08-1.17-.33-2.04-.75-2.62-.6-.84-1.37-1.26-2.3-1.26-.84,0-1.55,.35-2.15,1.05-.59,.7-.92,1.64-.98,2.83Z"/><path d="M348.76,94.03l1.84,.29c-.21,1.61-.74,2.83-1.59,3.68s-1.87,1.27-3.07,1.27c-1.45,0-2.64-.59-3.57-1.78-.94-1.19-1.4-2.95-1.4-5.28s.47-4.1,1.42-5.28c.94-1.17,2.16-1.76,3.64-1.76,1.14,0,2.11,.36,2.89,1.07,.78,.71,1.28,1.78,1.5,3.2l-1.82,.33c-.18-.91-.49-1.59-.93-2.04-.44-.45-.97-.68-1.59-.68-.92,0-1.69,.41-2.29,1.22-.61,.82-.91,2.11-.91,3.89s.29,3.17,.87,3.99c.58,.82,1.32,1.23,2.23,1.23,.71,0,1.32-.27,1.82-.82,.5-.55,.82-1.39,.96-2.55Z"/><path d="M358.77,96.92l.25,2.02c-.52,.14-.98,.2-1.4,.2-.65,0-1.18-.13-1.57-.39-.4-.26-.67-.61-.82-1.06-.15-.45-.22-1.34-.22-2.68v-7.76h-1.37v-1.78h1.37v-3.34l1.87-1.37v4.71h1.89v1.78h-1.89v7.88c0,.73,.06,1.2,.17,1.41,.16,.3,.46,.46,.9,.46,.21,0,.49-.03,.83-.09Z"/><path d="M362.95,98.97v-13.48h1.69v2.04c.43-.95,.83-1.58,1.19-1.89,.36-.31,.76-.46,1.21-.46,.63,0,1.27,.25,1.92,.74l-.63,2.12c-.46-.33-.92-.5-1.36-.5-.4,0-.76,.14-1.09,.42s-.56,.67-.7,1.17c-.24,.87-.36,1.8-.36,2.78v7.06h-1.87Z"/><path d="M371.76,92.23c0-2.33,.49-4.08,1.47-5.27s2.21-1.78,3.71-1.78,2.7,.59,3.69,1.78,1.49,2.89,1.49,5.13c0,2.42-.49,4.22-1.46,5.41-.97,1.18-2.21,1.78-3.72,1.78s-2.71-.59-3.7-1.78c-.99-1.19-1.48-2.94-1.48-5.26Zm1.92,0c0,1.75,.32,3.04,.95,3.9s1.42,1.28,2.36,1.28c.88,0,1.64-.43,2.27-1.29,.63-.86,.95-2.15,.95-3.88s-.32-3.03-.95-3.88-1.42-1.28-2.36-1.28c-.89,0-1.65,.43-2.27,1.28-.63,.86-.94,2.15-.94,3.88Z"/><path d="M386.74,98.97v-13.48h1.69v1.9c.41-.74,.9-1.29,1.49-1.66s1.26-.55,2.02-.55c.59,0,1.14,.12,1.64,.35,.5,.23,.91,.54,1.22,.91,.31,.38,.54,.87,.69,1.47,.15,.6,.23,1.52,.23,2.77v8.29h-1.87v-8.21c0-.99-.08-1.72-.25-2.17-.17-.46-.43-.81-.79-1.06-.36-.25-.78-.38-1.25-.38-.9,0-1.61,.33-2.15,1-.53,.67-.8,1.82-.8,3.44v7.37h-1.87Z"/><path d="M400.29,94.93l1.87-.36c.11,.95,.41,1.66,.9,2.12,.49,.46,1.14,.7,1.95,.7s1.44-.2,1.88-.6c.44-.4,.67-.91,.67-1.53,0-.53-.19-.95-.57-1.24-.26-.2-.9-.46-1.9-.76-1.46-.45-2.43-.83-2.92-1.14s-.87-.73-1.14-1.26-.41-1.12-.41-1.79c0-1.15,.37-2.09,1.1-2.81s1.76-1.08,3.06-1.08c.82,0,1.54,.15,2.17,.44,.62,.3,1.1,.69,1.43,1.19s.56,1.21,.69,2.15l-1.83,.3c-.17-1.47-.97-2.21-2.4-2.21-.81,0-1.42,.16-1.82,.49-.4,.33-.6,.74-.6,1.25s.19,.89,.57,1.18c.23,.17,.91,.44,2.04,.81,1.55,.49,2.55,.88,3.01,1.18,.46,.29,.81,.69,1.06,1.2,.25,.5,.38,1.1,.38,1.8,0,1.29-.41,2.33-1.23,3.13-.82,.8-1.93,1.2-3.34,1.2-2.65,0-4.19-1.45-4.61-4.34Z"/><path d="M414.84,104.44h-1.35c2.07-4.07,3.11-8.14,3.11-12.2,0-1.33-.1-2.65-.31-3.96-.21-1.31-.49-2.52-.84-3.61-.36-1.1-1.01-2.64-1.96-4.63h1.35c2.45,4,3.68,8.06,3.68,12.17,0,2.36-.37,4.61-1.1,6.73-.73,2.13-1.59,3.96-2.58,5.49Z"/><path d="M424.2,98.97v-2.6h2.13v2.6h-2.13Z"/></g></svg>