<?xml version="1.0" encoding="UTF-8"?>
<svg id="a" xmlns="http://www.w3.org/2000/svg" width="274.89mm" height="29.28mm" viewBox="0 0 779.21 82.99" fill="currentColor"><path d="M0,45.55H17.06l9.5-7.65H0v-7.56H53.02l9.5-7.65H0v-7.47H89.07l9.5-7.65H0V0H134.62V7.56h-24.71l-17.06,15.12h-19l-16.97,15.21h-19l-17.06,15.12H0v-7.47Zm0,15.12H22.68l19-15.12h17.06l18.99-15.21h17.06l18.9-15.12h20.93v7.47h-19l-9.5,7.65h28.49v7.56h-55.05l-9.5,7.65h64.55v7.47H43.52l-9.5,7.65h100.6v7.56H0v-7.56Z"/><path d="M155.27,44.26V23.97c0-15.86,7.75-23.97,22.13-23.97h14.57V14.66h-10.88c-7.56,0-9.5,3.87-9.5,11.34v16.41c0,7.47,1.94,11.16,9.5,11.16h10.88v14.66h-14.57c-14.38,0-22.13-8.11-22.13-23.97Z"/><path d="M194.46,48.59v-12.36c0-12.63,8.39-20.75,21.39-20.75,12.26,0,20.56,8.11,20.56,20.56v9.77h-26.83v3.78c0,4.7,1.75,7.01,5.9,7.01s5.53-2.12,5.53-6.27h15.31c-.18,11.34-8.58,19-20.66,19-12.91,0-21.21-8.11-21.21-20.75Zm27.02-12.54v-1.48c0-4.33-1.66-6.92-5.81-6.92-4.43,0-6.09,2.58-6.09,6.92v1.48h11.9Z"/><path d="M240.92,16.6h14.94v4.61c2.4-3.23,6.45-5.72,11.8-5.72,7.47,0,14.57,4.15,14.57,16.14v36.61h-15.21V35.68c0-4.24-1.38-6.55-5.16-6.55-3.96,0-5.72,2.49-5.72,6.73v32.37h-15.21V16.6Z"/><path d="M290.62,54.13V29.97h-5.53v-13.37h5.53V5.44h15.21v11.16h7.38v13.37h-7.38v21.39c0,2.86,.92,3.5,3.6,3.5h3.78v13.37h-9.68c-10.97,0-12.91-4.52-12.91-14.11Z"/><path d="M317.64,16.6h14.94v5.62c1.94-3.5,5.44-5.99,9.59-5.99h2.86v15.86h-3.41c-5.72,0-8.76,2.03-8.76,10.79v25.36h-15.21V16.6Z"/><path d="M346.5,48.59v-12.36c0-12.63,8.39-20.75,21.39-20.75,12.26,0,20.56,8.11,20.56,20.56v9.77h-26.83v3.78c0,4.7,1.75,7.01,5.9,7.01s5.53-2.12,5.53-6.27h15.31c-.18,11.34-8.58,19-20.65,19-12.91,0-21.21-8.11-21.21-20.75Zm27.02-12.54v-1.48c0-4.33-1.66-6.92-5.81-6.92-4.43,0-6.09,2.58-6.09,6.92v1.48h11.89Z"/><path d="M408.92,0h25.36c13,0,20.84,7.93,20.84,17.43v9.68c0,9.41-7.84,17.8-20.84,17.8h-9.41v23.33h-15.95V0Zm29.97,24.71v-4.52c0-4.33-2.03-6.45-6.09-6.45h-7.93V31.17h7.93c4.06,0,6.09-2.12,6.09-6.45Z"/><path d="M457.33,48.59v-12.36c0-12.63,8.48-20.75,21.67-20.75s21.67,8.11,21.67,20.75v12.36c0,12.63-8.48,20.75-21.67,20.75s-21.67-8.11-21.67-20.75Zm27.94,.37v-13c0-5.07-1.94-7.19-6.27-7.19s-6.27,2.12-6.27,7.19v13c0,5.07,1.94,7.1,6.27,7.1s6.27-2.03,6.27-7.1Z"/><path d="M505.27,16.6h14.94v4.79c2.3-3.69,6.73-5.9,11.71-5.9,4.61,0,8.3,1.57,10.7,5.72,3.32-3.69,7.75-5.72,13-5.72,7.84,0,15.12,4.24,15.12,16.23v36.51h-15.21V35.59c0-4.33-1.29-6.46-4.79-6.46-3.69,0-5.26,2.31-5.26,6.64v32.46h-14.85V35.59c0-4.33-1.29-6.46-4.79-6.46-3.69,0-5.35,2.31-5.35,6.64v32.46h-15.21V16.6Z"/><path d="M575.9,16.6h14.94v4.06c1.84-2.3,5.72-5.16,11.8-5.16,9.41,0,16.04,7.1,16.04,18.63v16.69c0,11.53-6.82,18.53-16.23,18.53-5.81,0-9.68-2.95-11.34-5.07v18.72h-15.21V16.6Zm27.39,32.64v-13.65c0-4.79-1.75-6.73-6.18-6.73s-6.18,1.94-6.18,6.73v13.65c0,4.79,1.75,6.73,6.18,6.73s6.18-1.94,6.18-6.73Z"/><path d="M623.38,0h15.21V13.09h-15.21V0Zm0,16.6h15.21v51.64h-15.21V16.6Z"/><path d="M643.3,50.71v-16.69c0-11.53,6.82-18.53,16.23-18.53,5.81,0,9.68,2.95,11.34,5.07V0h15.21V68.23h-14.94v-4.06c-1.84,2.31-5.72,5.16-11.8,5.16-9.41,0-16.04-7.1-16.04-18.63Zm27.75-1.48v-13.65c0-4.79-1.75-6.73-6.18-6.73s-6.18,1.94-6.18,6.73v13.65c0,4.79,1.75,6.73,6.18,6.73s6.18-1.94,6.18-6.73Z"/><path d="M690.69,48.59v-12.36c0-12.63,8.48-20.75,21.67-20.75s21.67,8.11,21.67,20.75v12.36c0,12.63-8.48,20.75-21.67,20.75s-21.67-8.11-21.67-20.75Zm27.94,.37v-13c0-5.07-1.94-7.19-6.27-7.19s-6.27,2.12-6.27,7.19v13c0,5.07,1.94,7.1,6.27,7.1s6.27-2.03,6.27-7.1Z"/><path d="M779.21,68.23h-14.94v-4.61c-2.4,3.23-6.46,5.72-11.62,5.72-7.1,0-14.2-4.15-14.2-16.14V16.6h15.21V49.15c0,4.52,1.38,6.55,4.89,6.55,3.69,0,5.44-2.21,5.44-6.73V16.6h15.21v51.64Z"/></svg>