<svg version="1.1" id="Layer_1" xmlns="http://www.w3.org/2000/svg" xmlns:xlink="http://www.w3.org/1999/xlink" x="0px" y="0px"
	 width="650px" height="200px" viewBox="0 0 650 200" enable-background="new 0 0 650 200" xml:space="preserve">
<path fill="currentColor" d="M46.8,26.5c0,0.133-0.5,2.7-1.5,7.7S42.7,47.133,40.5,58s-4.167,20.767-5.9,29.7l-12,60.8l0.2,0.4
	c0.933,2,3.6,4.8,8,8.399c4.4,3.601,7.333,5.4,8.8,5.4H40l3.2-15.8l3.2-16l20-19c2.933-2.801,6.233-5.9,9.9-9.301
	c3.667-3.399,6.3-5.899,7.9-7.5l2.6-2.2l8,27.8c1.2,4.399,2.533,9,4,13.8c1.467,4.8,2.567,8.4,3.3,10.8c0.733,2.4,1.1,3.667,1.1,3.8
	c0.933,1.867,3.633,4.601,8.1,8.2c4.467,3.601,7.367,5.4,8.7,5.4c0.267,0,0.4-0.067,0.4-0.2c0-0.267-3.867-13.6-11.6-40
	c-4.267-14.4-8.133-27.533-11.6-39.4l22.6-21.2c10.267-9.733,17.733-16.867,22.4-21.4c0-0.933-1.267-2.667-3.8-5.2
	c-6.667-6.133-11.067-9.2-13.2-9.2c-0.4,0-12.267,11.067-35.6,33.2C66,81.433,54.133,92.5,54,92.5l5.2-26l5.2-26.2l-0.2-0.6
	c-0.933-1.867-3.6-4.6-8-8.2c-4.4-3.6-7.333-5.4-8.8-5.4C47.133,26.1,46.933,26.233,46.8,26.5"/>
<path fill="currentColor" d="M210.2,109.9l-15.6,0.199H179l1.6-3c1.067-2,2.733-5.199,5-9.6c2.267-4.4,4.267-8.333,6-11.8
	c2.133-4.267,4.233-8.333,6.3-12.2s3.667-6.867,4.8-9c1.133-2.133,1.7-3.133,1.7-3c0,0.667,0.933,8.733,2.8,24.2L210.2,109.9z
	 M199.4,22.7c-0.667,1.2-11.667,22.367-33,63.5c-21.333,41.133-32,61.767-32,61.899c-0.133,0.134-0.133,0.4,0,0.801
	c0.933,2,3.6,4.8,8,8.399c4.4,3.601,7.333,5.4,8.8,5.4c0.133,0,3.533-6.333,10.2-19l9.8-18.8h20.4H212l1.2,11.8
	c1.067,7.732,1.667,11.867,1.8,12.399c0.933,1.867,3.6,4.601,8,8.2c4.4,3.601,7.333,5.4,8.8,5.4c0.267,0,0.4-0.133,0.4-0.4
	c0-0.267-2.533-21.399-7.6-63.4c-4.933-42-7.533-63.133-7.8-63.4c-0.667-1.6-2.867-4-6.6-7.2c-5.333-4.267-8.667-6.4-10-6.4
	C200.067,21.9,199.8,22.167,199.4,22.7"/>
<path fill="currentColor"  d="M327.2,41.1c3.467,0.8,5.533,1.333,6.2,1.6l1.199,0.4l0.801,1.4c0.933,1.2,2.199,3.6,3.8,7.2
	c1.732,4.267,3,9.267,3.8,15c0.267,4.133,0.267,8.6,0,13.4c-1.2,10-4.033,19.733-8.5,29.2s-10.167,17.667-17.1,24.601
	c-7.6,7.6-15.467,12.199-23.6,13.8c-1.6,0-5.867,0.066-12.8,0.2c-7.6,0-11.4-0.067-11.4-0.2l1.4-7c0.933-4.533,2.3-11.3,4.1-20.3
	c1.8-9,3.567-17.768,5.3-26.3L291,40.9h17.4C320.133,40.9,326.4,40.967,327.2,41.1 M273.4,26.5c0,0.133-0.5,2.7-1.5,7.7
	s-2.6,12.933-4.8,23.8c-2.2,10.867-4.167,20.767-5.9,29.7l-12,60.8l0.2,0.4c0.8,1.732,3.067,4.199,6.8,7.399
	c3.733,3.2,6.667,5.268,8.8,6.2l0.8,0.2h22c13.333-0.133,21-0.2,23-0.2c8.267-1.6,16.268-6.267,24-14
	c6.934-6.933,12.667-15.167,17.2-24.7s7.333-19.3,8.4-29.3c0.267-4.933,0.267-9.667,0-14.2c-1.333-11.6-5.801-21.8-13.4-30.6
	c-1.067-1.333-3.6-4-7.6-8c-9.468-8.267-18-13.2-25.601-14.8c-2.4-0.533-9.733-0.8-22-0.8h-18.2L273.4,26.5z"/>
<path fill="currentColor" d="M393,26.5c0,0.133-0.5,2.7-1.5,7.7s-2.6,12.933-4.8,23.8s-4.167,20.767-5.9,29.7l-12,60.8l0.2,0.4
	c0.933,2,3.6,4.8,8,8.399c4.4,3.601,7.333,5.4,8.8,5.4h0.4l12.399-61.2l12-61.2l-0.199-0.6c-0.934-1.867-3.601-4.6-8-8.2
	c-4.4-3.6-7.333-5.4-8.801-5.4C393.333,26.1,393.133,26.233,393,26.5"/>
<path fill="currentColor" d="M469.2,21.9c-7.733,0.533-15.133,3.033-22.2,7.5c-7.067,4.467-12.133,9.9-15.2,16.3
	c-3.467,6.533-4.066,13.2-1.8,20c1.333,4.133,4.467,8.667,9.4,13.6c8.399,8.4,16.532,13.867,24.399,16.4
	c2.133,0.533,6,1.6,11.601,3.2c6.8,1.867,10.467,2.8,11,2.8c0.399,0.267,0.8,0.8,1.199,1.6c0.801,2.4,1.333,4.268,1.601,5.601
	c0.133,0.667,0.2,2.066,0.2,4.199c0,2.667-0.333,5.134-1,7.4c-1.468,6.133-4.9,11.933-10.301,17.4
	c-5.399,5.467-11.633,9.399-18.699,11.8c-7.067,2.399-14.2,2.8-21.4,1.2c-2.933-0.4-4.733-0.934-5.4-1.601
	c-0.667-0.267-1.6-2.267-2.8-6c-0.399-1.066-1-2.2-1.8-3.399c-1.867-2.268-4.567-4.768-8.1-7.5
	c-3.533-2.733-5.968-4.167-7.301-4.301H412v0.601c0.267,2.267,1.667,5.333,4.2,9.2c3.732,6,9.533,11.933,17.399,17.8
	c8,6.133,15.934,9.732,23.801,10.8c3.732,0.4,6.532,0.4,8.399,0c11.2-0.8,21.067-5.467,29.601-14c5.6-5.6,9.066-11.467,10.399-17.6
	c0.8-2.934,1.133-5.601,1-8c0-2.934-0.333-5.533-1-7.801c-1.467-5.066-4.8-10.199-10-15.399c-7.6-7.333-14.667-12.4-21.2-15.2
	c-2-0.8-6.732-2.2-14.199-4.2c-5.867-1.467-9.601-2.467-11.2-3l-1-0.2l-0.4-0.8c-1.333-3.067-1.867-6.4-1.6-10
	c0.399-5.2,2.399-10.333,6-15.4c6.933-9.2,16.399-15,28.399-17.4c2.801-0.533,5.533-0.8,8.2-0.8c2.934,0,5.667,0.267,8.2,0.8
	c1.6,0.267,2.4,0.667,2.4,1.2c0.667,1.733,3.3,4.533,7.899,8.4c4.601,3.867,7.7,5.8,9.3,5.8h0.4v-0.4c-0.267-1.467-1.6-4-4-7.6
	c-4.533-5.867-10.733-11.4-18.6-16.6c-2.134-1.333-5-2.733-8.601-4.2c-3.333-1.333-6.6-2.067-9.8-2.2
	C473.6,21.633,471.333,21.633,469.2,21.9"/>
<path fill="currentColor"  d="M527.2,26.5c0,1.067,1.867,3.3,5.6,6.7c3.733,3.4,6.934,5.767,9.601,7.1l1.199,0.6h13.2H570l-1.4,7
	c-0.933,4.533-2.3,11.333-4.1,20.4c-1.8,9.067-3.567,17.933-5.3,26.6L548.6,148.5l0.2,0.4c0.934,2,3.601,4.8,8,8.399
	c4.4,3.601,7.333,5.4,8.8,5.4h0.4l12.2-61l12-60.8h23l23-0.2v-0.2c0.133-1.067-1.9-3.467-6.101-7.2c-4.199-3.733-7.5-6.067-9.899-7
	l-0.601-0.2H573.4h-46.2V26.5z"/>
</svg>
