<?xml version="1.0" encoding="UTF-8"?><svg xmlns="http://www.w3.org/2000/svg" width="585.72" height="187.15" viewBox="0 0 585.72 187.15"><defs><style>.d{fill:none;stroke:#ebebeb;stroke-miterlimit:10;}</style></defs><g id="a"/><g id="b"><g id="c"><g><path class="d" d="M132.8,62.7c-1.12,.4-2.37,.46-3.72,.19,.19-.98,.34-2.15,.46-3.54-.14-2.55-.54-4.69-1.2-6.38-.6-1.55-1.57-3.36-2.89-5.37,2.41-1.29,3.54-2.37,3.54-3.4,0-.72-.36-1.12-.66-1.33-.38-.26-.81-.4-1.28-.4-.6,0-1.31,.56-2.37,1.86-.91,1.12-1.91,2.33-2.95,3.59l-11.82,10.18v-.41l-.85,.85c-10.43,10.43-19.35,15.71-26.51,15.71-1.04,0-1.9-.21-2.57-.64-.6-.38-.9-.84-.9-1.39,0-1.89,1.66-4.73,4.93-8.46,3.99-.15,7.52-.65,10.5-1.48,3.05-.86,5.48-1.97,7.21-3.3,1.81-1.39,2.72-2.96,2.72-4.67,0-1.16-.44-2.1-1.31-2.81-.84-.69-1.99-1.04-3.43-1.04-2.38,0-5.49,.76-9.24,2.26-3.68,1.47-6.93,3.59-9.69,6.29-6.61,5.9-11.5,10.09-14.53,12.44-3.09,2.4-5.91,4.08-8.38,5.02-2.46,.93-5.2,1.4-8.13,1.4-5.43,0-10.82-.85-16.03-2.52,4.02-1.95,7.6-4.03,10.68-6.21,3.36-2.37,6.29-4.84,8.72-7.34,2.42-2.49,4.33-4.65,5.68-6.44,1.36-1.8,4.11-5.55,8.17-11.15l1-1.37c6.95-2.22,13.53-4.96,19.55-8.15,6.06-3.21,11.35-6.67,15.7-10.28,4.36-3.61,7.79-7.11,10.17-10.42,2.42-3.35,3.65-6.24,3.65-8.56s-.99-4.94-5.7-4.94c-5.69,0-11.97,2.56-18.66,7.62-6.63,5.01-12.65,10.58-17.88,16.54-5.19,5.91-9.99,11.88-14.28,17.74-4.33,1.27-8.26,1.84-11.71,1.71-6.34-.18-11.29-1.55-14.72-4.07-3.38-2.49-5.09-5.98-5.09-10.4,0-4.77,1.84-9.25,5.48-13.3,3.67-4.09,8.84-7.45,15.39-9.98,6.57-2.54,13.96-3.85,21.97-3.9h.5V.5h-.5c-8.73,0-16.66,1.36-23.59,4.03-6.95,2.68-12.44,6.29-16.33,10.73-3.92,4.47-5.9,9.17-5.9,13.97,0,3.28,.87,6.26,2.58,8.89,1.71,2.62,4.24,4.71,7.53,6.2,3.26,1.48,7.23,2.23,11.79,2.23,3.47,0,7.03-.4,10.58-1.18l-1.16,1.92c-4.33,7-8.59,12.59-12.64,16.62-4,3.98-8.68,7.49-13.92,10.44l-2.72-.88c-3.47-1.23-6.5-2.08-9-2.52s-5.12-.66-7.78-.66c-7.24,0-10.75,1.59-10.75,4.88s3.92,4.67,11.98,4.67c3.43,0,6.64-.26,9.55-.76,2.86-.5,5.91-1.31,9.05-2.43,7.1,2.12,13.38,3.19,18.65,3.19,2.35,0,4.59-.27,6.65-.8,2.06-.53,4.19-1.44,6.31-2.68,2.11-1.24,4.67-3.12,7.59-5.59,1.83-1.54,4.06-3.49,6.67-5.81-.43,1.33-.66,2.73-.66,4.2,0,5.84,3.39,7.06,6.24,7.06,4.41,0,8.82-1.37,13.12-4.08,3.71-2.33,7.8-5.64,12.18-9.84l15.45-13.23c1.07,1.92,1.61,3.82,1.61,5.66,0,2.81-.89,5.79-2.63,8.84-1.76,3.07-3.98,5.66-6.61,7.68-2.59,1.99-5.06,3.01-7.35,3.01-1.13,0-2.13-.27-2.98-.81-1.05-.67-1.17-1.08-1.17-1.22,0-.35,.06-.65,.2-.9,.49,1.11,1.19,1.68,2.11,1.68,.75,0,1.47-.27,2.12-.79,.69-.55,1.04-1.21,1.04-1.96,0-.88-.33-1.6-.97-2.13-.61-.51-1.4-.76-2.33-.76-1.41,0-2.51,.41-3.27,1.22-.75,.8-1.13,1.85-1.13,3.11,0,1.45,.64,2.6,1.91,3.4,1.19,.75,2.74,1.14,4.61,1.14s4.22-.43,6.85-1.29c2.63-.85,5.23-2.19,7.72-3.96,2.39-1.71,4.18-3.77,5.32-6.14,1.97,.5,3.75,.49,5.29-.05,1.66-.58,3.38-2.02,5.28-4.4l.11-.14v-2.54l-.85,.85c-2.31,2.31-4.12,3.7-5.39,4.16Zm-30.65-8.79c0,.47-.32,1.34-1.87,2.86-1.29,1.26-3.22,2.38-5.74,3.31-2.28,.84-5.06,1.3-8.3,1.39,2.33-2.66,4.74-4.81,7.17-6.42,2.64-1.74,4.96-2.62,6.9-2.62,1.61,0,1.82,.75,1.82,1.48ZM114.18,5.92c0,1.3-.99,3.39-2.95,6.21-2,2.87-4.93,6.04-8.71,9.41-3.79,3.38-8.69,6.83-14.58,10.26-5.56,3.24-11.85,6.08-18.7,8.44,2.66-4.8,6.25-10.04,10.69-15.59,4.78-5.98,10.04-11.16,15.63-15.4,5.54-4.2,10.86-6.49,15.78-6.8,.05,0,.11,0,.16,0,.84,0,1.47,.29,1.91,.89,.5,.68,.76,1.55,.76,2.58ZM2.94,75.17c0-.74,.62-1.39,1.86-1.94,1.37-.61,3.33-.91,5.85-.91,2.14,0,4.9,.33,8.21,.98,2.85,.56,5.71,1.29,8.51,2.17-4.62,1.6-9.66,2.41-15.01,2.41-6.16,0-9.41-.94-9.41-2.71Z"/><path class="d" d="M220.23,52.43c.23,0,.41,.07,.57,.23,.21,.21,.23,.33,.23,.37,0,.77-.53,1.71-1.57,2.8-1.12,1.17-3.23,3.11-6.26,5.78-4.11,3.55-6.19,7.31-6.19,11.18,0,2.25,1.24,3.44,3.58,3.44,2.22,0,5.12-1.22,8.86-3.74,2.64-1.78,5.57-4.05,8.72-6.77-.38,1.23-.58,2.48-.58,3.73,0,2.16,.47,3.84,1.41,5,.96,1.19,2.22,1.79,3.74,1.79,2.99,0,7.31-2.51,13.17-7.66-.73,2.01-1.09,3.62-1.09,4.9,0,2.4,1.56,2.76,2.48,2.76,2.1,0,4.53-.97,7.23-2.9,2.62-1.87,6.71-5.12,12.17-9.66l3.66-3.09v-.07c1.25-1.05,2.5-2.08,3.71-3.05,1.8-1.44,3.48-2.66,5.01-3.62,1.82-1.15,2.75-1.39,3.22-1.39,.18,0,.32,0,.32,.45-.02,.2-.43,1.2-4.79,5.69l-15.17,16.97h7.19l2.12-1.97c6.79-6.12,12.79-11.21,17.82-15.15,4.94-3.88,8.68-5.84,11.11-5.84,.34,0,.47,.11,.54,.19,.13,.16,.19,.29,.19,.4,0,.08-.07,.59-1.46,2.24-1.04,1.24-2.31,2.65-3.77,4.18-1.48,1.55-2.59,2.71-3.32,3.5l-11.36,12.46h7.07l.14-.14c3.07-2.89,7.05-6.23,11.82-9.92,4.77-3.69,9.19-6.83,13.12-9.34,4.81-3.07,6.71-3.72,7.46-3.72,.33,0,.59,.05,.59,.73,0,.35-.52,1.64-5.31,6.13-3.16,2.98-5.44,5.51-6.77,7.54-1.37,2.08-2.07,4.17-2.07,6.22s1.12,3.17,3.17,3.17c2.6,0,5.64-1.28,9.01-3.79,3.3-2.46,8.1-6.4,14.28-11.71l.17-.15v-.09c6.39-5.65,11.37-10.07,14.95-13.26l-52.24,59.08h7.36l27.63-32.37c1.61-1.88,4.63-4.62,8.96-8.14,4.34-3.52,8.67-6.68,12.87-9.37,5.15-3.3,7.2-3.99,8-3.99,.63,0,.87,.24,.87,.87,0,.41-.53,1.83-5.44,6.26-5.95,5.39-8.85,9.63-8.85,12.95,0,1.59,.65,3.52,3.78,3.71,1.77,0,4.81-1.62,9.29-4.95,3.57-2.65,7.28-5.6,11.06-8.75v.28l16.02-13.71c1.07,1.92,1.61,3.82,1.61,5.66,0,2.81-.89,5.79-2.63,8.84-1.76,3.07-3.98,5.66-6.61,7.68-2.59,1.99-5.06,3.01-7.35,3.01-1.13,0-2.13-.27-2.98-.81-1.05-.67-1.17-1.08-1.17-1.22,0-.35,.06-.65,.2-.9,.49,1.11,1.19,1.68,2.11,1.68,.75,0,1.47-.27,2.12-.79,.69-.55,1.04-1.21,1.04-1.96,0-.88-.33-1.6-.97-2.13-.61-.51-1.4-.76-2.33-.76-1.41,0-2.51,.41-3.27,1.22-.75,.8-1.13,1.85-1.13,3.11,0,1.45,.64,2.6,1.91,3.4,1.19,.75,2.74,1.14,4.61,1.14s4.22-.43,6.85-1.29c2.63-.85,5.23-2.19,7.72-3.96,2.39-1.71,4.18-3.77,5.32-6.14,1.97,.5,3.75,.49,5.29-.05,1.66-.58,3.38-2.02,5.28-4.4l.11-.14v-2.54l-.85,.85c-2.31,2.31-4.12,3.7-5.39,4.16-1.12,.4-2.37,.46-3.72,.19,.19-.98,.34-2.15,.46-3.54-.14-2.55-.54-4.69-1.2-6.38-.6-1.55-1.57-3.36-2.89-5.37,2.41-1.29,3.54-2.37,3.54-3.4,0-.72-.36-1.12-.66-1.33-.38-.26-.81-.4-1.28-.4-.6,0-1.31,.56-2.37,1.86-.91,1.12-1.91,2.33-2.95,3.59l-11.82,10.18v-.28l-.82,.69c-15.48,13.01-20.52,15.74-22.03,15.74-1.31,0-1.48-.54-1.48-1.07,0-.57,.76-2.12,5.82-6.03,3.12-2.43,5.4-4.64,6.76-6.56,1.4-1.97,2.11-4.03,2.11-6.13,0-3.29-1.65-3.99-3.03-3.99-1.95,0-4.38,.82-7.22,2.42-2.78,1.58-5.47,3.33-7.98,5.23-1.68,1.26-3.72,2.85-6.1,4.72l23.19-27.96h-4.77l-.15,.17c-1.12,1.26-5.52,5.35-13.05,12.16-5.67,5.13-9.85,8.87-12.49,11.19l-.46,.39c-6.48,5.49-11.43,9.49-14.71,11.91-3.2,2.36-5.78,3.56-7.67,3.56-1.41,0-1.41-.54-1.41-.8,0-.05,.05-.54,1.71-2.33,1.2-1.29,2.49-2.44,3.83-3.43,3.4-2.53,5.84-4.85,7.26-6.92,1.44-2.1,2.17-4.28,2.17-6.47,0-1.2-.25-2.14-.75-2.8-.53-.7-1.25-1.05-2.14-1.05-1.65,0-3.75,.7-6.42,2.14-2.59,1.4-5.31,3.15-8.09,5.2-2.43,1.79-4.97,3.66-7.61,5.59,3.07-4.14,4.58-7.47,4.58-10.11,0-1.82-1.08-2.82-3.03-2.82-2.41,0-5.3,1.11-8.58,3.3-2.62,1.75-6.34,4.56-11.08,8.38,.96-1.29,1.71-2.36,2.24-3.22,1-1.6,1.51-3.29,1.51-5.02,0-2.84-1.46-3.44-2.69-3.44-1.88,0-4.02,.86-6.38,2.55-2.28,1.64-5.15,4.02-8.52,7.08l-.16,.15v.09c-.77,.64-1.75,1.45-2.96,2.45-2.76,2.29-5.26,4.3-7.41,5.97-2.14,1.66-4.08,3.02-5.79,4.03-2.05,1.21-3.11,1.47-3.64,1.47-.32,0-.46-.07-.46-.53,0-.67,1.37-3.27,10.54-13.21,.64-.73,1.42-1.66,2.34-2.78,.91-1.12,2.09-2.54,3.55-4.27l2.51-3.08-7.1,.51-3.25,3.82c.02-.18,.05-.37,.09-.57v-.12c-.04-1.24-.44-2.16-1.17-2.73-.71-.55-1.76-.82-3.21-.82-2.73,0-5.58,.52-8.47,1.53-2.88,1.02-5.53,2.42-7.86,4.17-1.94,1.46-3.56,3.14-4.86,4.98-4.47,4-8.29,7.13-11.36,9.29-3.59,2.53-6.46,3.81-8.53,3.81-1.12,0-1.21-.48-1.21-.94,0-.65,.67-2.21,5.13-5.48,2.89-2.15,5.22-4.27,6.92-6.3,1.76-2.09,2.65-4.52,2.65-7.23,0-3.18-1.94-3.85-3.58-3.85-1.94,0-5.55,1.74-11.04,5.31-3.55,2.31-6.9,4.68-10.02,7.08L241.78,14.86h-6.94l-.15,.17c-3.4,3.85-6.27,7-8.53,9.35-2.26,2.35-4.88,4.88-7.77,7.5-2.88,2.61-7.14,6.36-12.64,11.14l-17.08,15.05v-.27l-.83,.74c-6.11,5.43-11.17,9.46-15.05,11.99-3.82,2.49-7.8,3.75-11.83,3.75-2.85,0-2.85-1.28-2.85-1.76,0-1.75,1.23-4.27,3.66-7.49,2.47-3.27,5.44-6.23,8.82-8.79,3.33-2.52,6.19-3.8,8.48-3.8,.74,0,1.32,.18,1.72,.53,.39,.34,.58,.78,.58,1.37,0,.36-.09,.68-.27,.96-.14,.22-.23,.29-.23,.31-.02-.01-.06-.05-.11-.12-.26-.98-1-1.52-2.1-1.52-1.87,0-2.89,1.12-2.89,3.17,0,.85,.33,2.28,2.55,2.28,1.27,0,2.44-.52,3.46-1.55s1.55-2.22,1.55-3.53c0-1.2-.44-2.16-1.32-2.85-.84-.66-1.92-1-3.21-1-2.64,0-5.39,.5-8.17,1.5-2.77,.99-5.34,2.37-7.65,4.1-2.32,1.74-4.21,3.77-5.63,6.05-1.43,2.3-2.16,4.62-2.16,6.89,0,2.66,.47,4.48,1.42,5.56,.96,1.09,2.49,1.64,4.54,1.64,6.74,0,15.09-4.53,24.86-13.46v.04l26.8-23.19-32.19,36.61h7.19l.15-.15c4.97-5.06,10.88-10.08,17.57-14.92,10.06-7.21,13.54-8.72,14.68-8.72Zm33.68,1.89c0,1.74-1.38,4.23-4.12,7.4-2.79,3.24-5.96,6.18-9.42,8.74-3.41,2.52-6.02,3.8-7.77,3.8-.55,0-.99-.18-1.36-.54s-.54-.8-.54-1.36c0-.89,.63-2.82,3.63-6.95,2.44-3.36,5.36-6.41,8.66-9.06,3.24-2.6,6.21-3.92,8.81-3.92,1.45,0,2.1,.58,2.1,1.89Z"/><path class="d" d="M395.01,110.68l-1.31,.91h3.5l.11-.06c7.85-4.29,13.69-8.46,17.35-12.4l.78-.84h-8.82l-.15,.25c-2.78,4.7-6.64,8.79-11.48,12.15Z"/><path class="d" d="M452.99,115.9c.78,0,1.44-.29,1.94-.85,.49-.55,.74-1.26,.74-2.11,0-2.04-1.26-2.35-2-2.35-.83,0-1.55,.34-2.15,1.02-.58,.66-.88,1.38-.88,2.14,0,.8,.3,2.14,2.35,2.14Z"/><path class="d" d="M584.37,132.55c-2.31,2.31-4.12,3.7-5.39,4.16-1.12,.4-2.37,.46-3.72,.19,.19-.98,.34-2.15,.46-3.54-.14-2.55-.54-4.69-1.2-6.38-.6-1.55-1.57-3.36-2.89-5.37,2.41-1.29,3.54-2.37,3.54-3.4,0-.72-.36-1.12-.66-1.33-.38-.26-.81-.4-1.28-.4-.6,0-1.31,.56-2.37,1.86-.91,1.12-1.91,2.33-2.95,3.59l-11.82,10.18v-.41l-.85,.85c-10.43,10.43-19.35,15.71-26.51,15.71-1.04,0-1.9-.21-2.57-.64-.6-.38-.9-.84-.9-1.39,0-1.89,1.66-4.73,4.93-8.46,3.99-.15,7.52-.65,10.5-1.48,3.05-.86,5.48-1.97,7.21-3.3,1.81-1.39,2.72-2.96,2.72-4.67,0-1.16-.44-2.1-1.31-2.81-.84-.69-1.99-1.04-3.43-1.04-2.38,0-5.49,.76-9.24,2.26-3.08,1.23-5.86,2.92-8.3,5.02v-.07l-.45,.46c-.38,.34-.75,.69-1.12,1.06-.25,.25-.47,.51-.7,.76-3.94,3.86-8,7.16-12.11,9.84-4.54,2.96-7.65,4.46-9.23,4.46-.22,0-.59-.02-.6-.25-.02-.17,.01-.49,.32-1.02,.28-.49,.69-1.05,1.24-1.66,.58-.65,.96-1.09,1.13-1.3l16.65-19.01h-6.7l-.14,.14c-6.88,6.47-13.24,12-18.9,16.41-5.58,4.35-9.62,6.56-12,6.56-.11,0-.66,0-.66-.15,.03-.16,.4-.98,3.71-4.76l15.97-18.19h-6.98l-.12,.07c-4.04,2.36-7.46,4.69-10.19,6.95v-.07l-.78,.52c-.08,.05-.23,.16-6.24,5.37-3.99,3.46-7.34,6.38-10.05,8.75-2.71,2.37-5.89,5.16-9.54,8.38-1.18,1.04-2.26,1.99-3.22,2.84l27.3-33.35h-3.93l-5.38,5.43c.23-.77,.35-1.44,.35-2,0-1.57-.71-3.44-4.12-3.44s-6.92,.9-10.64,2.68c-2.76,1.32-5.21,2.97-7.32,4.92v-.22l-.85,.83c-3.79,3.7-7.99,7.28-12.46,10.62-4.4,3.29-7.73,4.96-9.89,4.96-.2,0-.34-.04-.39-.11-.07-.1-.1-.38,.05-.9,.3-1.02,1-2.15,2.08-3.36l16.88-18.88h-5.24l.65-.65-1.08,.65h-1.73l-.12,.07c-3.6,2.19-6.87,4.49-9.77,6.88v-.16l-.83,.71c-12.15,10.44-20.14,15.74-23.74,15.74-.73,0-1-.25-1.01-.85,.05-.16,.47-.92,3.22-4.43,2.19-2.8,4.22-5.23,6.03-7.22l16.46-18.7h8.87l1.4-2.16h-8.49l11.35-12.85h-7.21l-11.35,12.85h-5.07l-1.78,2.16h4.45c-3.5,2.46-7.11,5.2-10.75,8.17-2.95,2.41-5.58,4.66-7.87,6.72v-.26l-.85,.85c-10.43,10.43-19.35,15.71-26.51,15.71-1.04,0-1.9-.21-2.57-.64-.6-.38-.9-.84-.9-1.39,0-1.89,1.66-4.73,4.93-8.46,3.99-.15,7.52-.65,10.5-1.48,3.05-.86,5.48-1.97,7.21-3.3,1.81-1.39,2.72-2.96,2.72-4.67,0-1.16-.44-2.1-1.31-2.81-.84-.69-1.99-1.04-3.43-1.04-2.38,0-5.49,.76-9.24,2.26-3.59,1.43-6.78,3.49-9.5,6.11-1.87,1.6-4.24,3.66-7.15,6.21-3.07,2.69-5.94,4.93-8.53,6.66-2.52,1.69-4.56,2.55-6.04,2.55-.33,0-.66-.15-1-.45-.32-.29-.48-.58-.48-.89,0-.54,.67-1.96,5.13-5.34,3.36-2.44,5.81-4.74,7.29-6.85,1.51-2.15,2.28-4.35,2.28-6.54,0-3.07-1.54-3.71-2.82-3.71-3.05,0-6.73,1.43-10.94,4.25-3.3,2.21-7.11,5.06-11.38,8.49,1.49-1.97,2.56-3.46,3.19-4.46,1-1.58,1.51-3.21,1.51-4.85,0-2.84-1.54-3.44-2.82-3.44-2.57,0-6.61,2.44-12.32,7.44l-.72,.61c-6.38,5.39-11.93,9.81-16.48,13.14-3.71,2.72-7.37,5.04-10.9,6.93l24.43-27.84h-7.08l-3.49,4.05c.03-.23,.05-.43,.05-.61,0-1.57-.8-3.44-4.6-3.44-2.28,0-4.79,.46-7.47,1.36-2.67,.9-5.28,2.18-7.77,3.82-2.01,1.32-3.73,2.87-5.17,4.61-.73,.61-1.64,1.36-2.74,2.26-2.76,2.29-5.26,4.3-7.41,5.97-2.14,1.66-4.08,3.02-5.79,4.03-2.05,1.21-3.11,1.47-3.64,1.47-.32,0-.46-.07-.46-.53,0-.67,1.37-3.27,10.54-13.21,.64-.73,1.42-1.66,2.34-2.78,.91-1.12,2.09-2.54,3.55-4.27l2.51-3.08-7.1,.51-3.25,3.82c.02-.18,.05-.37,.09-.57v-.12c-.04-1.24-.44-2.16-1.17-2.73-.71-.55-1.76-.82-3.21-.82-2.73,0-5.58,.52-8.47,1.53-2.88,1.02-5.53,2.42-7.86,4.17-1.81,1.36-3.34,2.91-4.6,4.6-5.34,4.48-9.49,7.81-12.35,9.93-3.2,2.36-5.78,3.56-7.67,3.56-1.41,0-1.41-.54-1.41-.8,0-.05,.05-.54,1.71-2.33,1.2-1.29,2.49-2.44,3.83-3.43,3.4-2.53,5.84-4.85,7.26-6.92,1.44-2.1,2.17-4.28,2.17-6.47,0-1.2-.25-2.14-.75-2.8-.53-.7-1.25-1.05-2.14-1.05-1.65,0-3.75,.7-6.42,2.14-2.59,1.4-5.31,3.15-8.09,5.2-2.43,1.79-4.97,3.66-7.61,5.59,3.07-4.14,4.58-7.47,4.58-10.11,0-1.82-1.08-2.82-3.03-2.82-2.41,0-5.3,1.11-8.58,3.3-2.62,1.75-6.34,4.56-11.08,8.38,.96-1.29,1.71-2.36,2.24-3.22,1-1.6,1.51-3.29,1.51-5.02,0-2.84-1.46-3.44-2.69-3.44-1.88,0-4.02,.86-6.38,2.55-2.28,1.64-5.15,4.02-8.52,7.08l-.16,.15v2.54l.83-.71c1.89-1.62,3.78-3.18,5.59-4.64,1.8-1.44,3.48-2.66,5.01-3.62,1.82-1.15,2.75-1.39,3.22-1.39,.18,0,.32,0,.32,.45-.02,.2-.43,1.2-4.79,5.69l-15.17,16.97h7.19l2.12-1.97c6.79-6.12,12.79-11.21,17.82-15.15,4.94-3.88,8.68-5.84,11.11-5.84,.34,0,.47,.11,.54,.19,.13,.16,.19,.29,.19,.4,0,.08-.07,.59-1.46,2.24-1.04,1.24-2.31,2.65-3.77,4.18-1.48,1.55-2.59,2.71-3.32,3.5l-11.36,12.46h7.07l.14-.14c3.07-2.89,7.05-6.23,11.82-9.92,4.77-3.69,9.19-6.83,13.12-9.34,4.81-3.07,6.71-3.72,7.46-3.72,.33,0,.59,.05,.59,.73,0,.35-.52,1.64-5.31,6.13-3.16,2.98-5.44,5.51-6.77,7.54-1.37,2.08-2.07,4.17-2.07,6.22s1.12,3.17,3.17,3.17c2.6,0,5.64-1.28,9.01-3.79,2.25-1.67,5.21-4.05,8.82-7.07-.46,1.35-.69,2.71-.69,4.07,0,2.16,.47,3.84,1.41,5,.96,1.19,2.22,1.79,3.74,1.79,2.99,0,7.31-2.51,13.17-7.66-.73,2.01-1.09,3.62-1.09,4.9,0,2.4,1.56,2.76,2.48,2.76,2.1,0,4.53-.97,7.23-2.9,2.27-1.62,5.65-4.28,10.05-7.91-.41,1.25-.62,2.55-.62,3.88,0,5.61,2.87,6.79,5.29,6.79,1.86,0,4.27-.98,7.35-3l-8.23,10.39-.82,.47-9.98,4.24c-4.74,1.96-8.95,4.1-12.52,6.36-3.58,2.27-6.38,4.6-8.32,6.9-1.98,2.36-2.99,4.58-2.99,6.61,0,1.32,.47,2.43,1.39,3.3,.91,.86,2.13,1.3,3.62,1.3,1.62,0,3.36-.43,5.2-1.28,1.8-.83,4.06-2.33,6.7-4.44,2.62-2.1,5.95-5.16,9.88-9.09s8.82-9.09,14.61-15.42c3.52-1.63,6.98-3.51,10.29-5.59,3.33-2.1,6.61-4.42,9.75-6.9,2.48-1.96,5.4-4.37,8.69-7.18v.06l.83-.72c9.21-7.98,12.67-9.65,13.96-9.65,.32,0,.32,.07,.32,.14-.08,.35-1.2,2.21-9.86,11.88l-9.83,11.09h6.64l.14-.13c3.36-3.09,6.97-6.27,10.72-9.46,3.75-3.18,7.83-6.25,12.12-9.12,4.23-2.83,7.4-4.26,9.43-4.26,.72,0,.98,.15,1.03,.24,.05,.1,0,.47-.51,1.19-1.04,1.44-2.96,3.41-5.69,5.83-2.44,2.07-4.38,4.24-5.77,6.44-1.41,2.24-2.13,4.29-2.13,6.11,0,.87,.27,1.72,.8,2.53,.57,.88,1.51,1.32,2.78,1.32,1.85,0,4.07-.84,6.8-2.57,2.63-1.67,5.3-3.66,7.95-5.92,1.01-.87,2.05-1.77,3.09-2.69-.42,1.31-.63,2.69-.63,4.12,0,5.84,3.39,7.06,6.24,7.06,4.41,0,8.82-1.37,13.12-4.08,3.67-2.31,7.72-5.57,12.04-9.71l.4-.35c5.76-5.1,10.68-9.2,14.7-12.26-5.34,5.6-9.09,10.16-11.18,13.61-2.65,4.36-3.93,7.42-3.93,9.35,0,.91,.35,1.72,1.04,2.4,.69,.69,1.63,1.04,2.81,1.04,4.45,0,11.29-4.11,20.91-12.57l1.39-1.23,.02,.18,.72-.67c2.48-2.33,5.13-4.46,7.9-6.36-6.93,7.1-10.45,13.07-10.45,17.76,0,1.87,.98,2.89,2.76,2.89,2.73,0,6.12-1.53,10.35-4.68,2.55-1.9,5.18-4.05,7.88-6.42-.53,1.38-.81,2.77-.81,4.17,0,4.6,1.57,6.93,4.67,6.93,2.47,0,5.4-1.24,8.89-3.78l-29.89,33.86h7.21l.15-.17c4.65-5.15,7.94-8.78,9.88-10.9,1.92-2.1,3.62-3.83,5.06-5.13,9.51-8.63,19.89-17.87,30.88-27.5v.25l.84-.79c1.39-1.3,3.68-3.13,6.75-5.4l.74-.43c-.73,.82-1.46,1.63-2.18,2.44-1.42,1.57-2.77,3.21-4.02,4.85-1.27,1.66-2.3,3.29-3.06,4.83-.78,1.59-1.18,3.08-1.18,4.42,0,2.22,1.08,3.44,3.03,3.44,2.41,0,5.58-1.45,9.69-4.44,3.45-2.5,7.53-5.81,12.14-9.85-1.62,2.1-2.9,3.93-3.83,5.46-1.45,2.38-2.16,4.32-2.16,5.93,0,1.87,1.03,2.89,2.89,2.89,2.22,0,5.54-1.48,10.15-4.53,2.8-1.85,5.62-4.01,8.45-6.47-.38,1.26-.58,2.57-.58,3.94,0,5.84,3.39,7.06,6.24,7.06,4.41,0,8.82-1.37,13.12-4.08,3.71-2.33,7.8-5.64,12.18-9.84l15.45-13.23c1.07,1.92,1.61,3.82,1.61,5.66,0,2.81-.89,5.79-2.63,8.84-1.76,3.07-3.98,5.66-6.61,7.68-2.59,1.99-5.06,3.01-7.35,3.01-1.13,0-2.13-.27-2.98-.81-1.05-.67-1.17-1.08-1.17-1.22,0-.35,.06-.65,.2-.9,.49,1.11,1.19,1.68,2.11,1.68,.75,0,1.47-.27,2.12-.79,.69-.55,1.04-1.21,1.04-1.96,0-.88-.33-1.6-.97-2.13-.61-.51-1.4-.76-2.33-.76-1.41,0-2.51,.41-3.27,1.22-.75,.8-1.13,1.85-1.13,3.11,0,1.45,.64,2.6,1.91,3.4,1.19,.75,2.74,1.14,4.61,1.14s4.22-.43,6.85-1.29c2.63-.85,5.23-2.19,7.72-3.96,2.39-1.71,4.18-3.77,5.32-6.14,1.97,.5,3.75,.49,5.29-.05,1.66-.58,3.38-2.02,5.28-4.4l.11-.14v-2.54l-.85,.85Zm-36.04-4.64c0,.47-.32,1.34-1.87,2.86-1.29,1.26-3.22,2.38-5.74,3.31-2.28,.84-5.06,1.3-8.3,1.39,2.33-2.66,4.74-4.81,7.17-6.42,2.64-1.74,4.96-2.62,6.9-2.62,1.61,0,1.82,.75,1.82,1.48Zm-97.57,18.87c0-1.92,1.32-4.52,3.92-7.72,2.65-3.25,5.76-6.22,9.24-8.8,3.43-2.54,6.19-3.83,8.21-3.83,.54,0,.98,.19,1.34,.59,.37,.41,.55,.84,.55,1.3,0,1.73-1.42,4.22-4.22,7.39-2.86,3.24-6.09,6.18-9.59,8.75-3.45,2.52-6.04,3.8-7.7,3.8-.52,0-.94-.14-1.28-.43-.32-.27-.47-.61-.47-1.05Zm-52.82-18.87c0,.47-.32,1.34-1.87,2.86-1.29,1.26-3.22,2.38-5.74,3.31-2.28,.84-5.06,1.3-8.3,1.39,2.33-2.66,4.74-4.81,7.17-6.42,2.64-1.74,4.96-2.62,6.9-2.62,1.61,0,1.82,.75,1.82,1.48Zm-101.22,11.44c2.42-3.32,5.32-6.3,8.62-8.85,3.24-2.52,6.12-3.79,8.55-3.79,.76,0,1.41,.19,1.93,.56,.49,.34,.71,.77,.71,1.33,0,1.51-1.38,3.87-4.12,7.02-2.79,3.21-5.96,6.15-9.42,8.71-3.41,2.52-6,3.8-7.7,3.8-.53,0-1.02-.18-1.51-.55-.44-.34-.66-.69-.66-1.07,0-1.48,1.21-3.89,3.6-7.16Zm-15.06,33.68c-3.74,4.05-6.99,7.04-9.66,8.88-2.61,1.8-4.99,2.71-7.06,2.71-.97,0-1.76-.24-2.35-.71-.56-.45-.84-1.06-.84-1.87,0-1.69,1.11-3.78,3.28-6.22,2.64-2.82,5.98-5.3,9.92-7.38,3.71-1.96,9.42-4.61,16.99-7.89-2.14,2.81-5.58,6.99-10.27,12.48Zm-24.9-26.66c0-.89,.63-2.82,3.63-6.95,2.44-3.36,5.36-6.41,8.66-9.06,3.24-2.6,6.21-3.92,8.81-3.92,1.45,0,2.1,.58,2.1,1.89,0,1.74-1.38,4.23-4.12,7.4-2.79,3.24-5.96,6.18-9.42,8.74-3.41,2.52-6.02,3.8-7.77,3.8-.55,0-.99-.18-1.36-.54s-.54-.8-.54-1.36Z"/></g></g></g></svg>