<?xml version="1.0" encoding="UTF-8"?><svg xmlns="http://www.w3.org/2000/svg" width="585.29" height="146.62" viewBox="0 0 585.29 146.62"><defs><style>.d{fill:#fff;stroke:#000;stroke-miterlimit:10;stroke-width:2px;}</style></defs><g id="a"/><g id="b"><g id="c"><path class="d" d="M572.99,50.96c7.4-2.27,12.15-9.53,11.18-17.27l-.25-2.02c-.12-.97-.33-1.91-.62-2.83,.48-1.53,.74-3.15,.74-4.84v-1.78c0-3.02-.84-5.84-2.29-8.25-1.04-4.59-4.07-8.56-8.38-10.74-5.38-2.72-11.84-2.19-16.7,1.38l-1.77,1.3s-.07,0-.1,0c-1.18,0-2.36,.1-3.5,.3h-1.69c-1.38,0-2.71,.19-3.99,.52-1.85-.54-3.78-.83-5.75-.83-1.79,0-3.54,.24-5.23,.68-1.09-.23-2.21-.37-3.35-.37h-1.93c-1.06,0-2.11,.1-3.12,.31-1.01-.2-2.06-.31-3.12-.31h-1.98c-.72,0-1.43,.06-2.13,.16-.69-.09-1.39-.16-2.11-.16h-1.88c-.89,0-1.76,.07-2.61,.21-.85-.14-1.72-.21-2.61-.21h-1.87c-1.37,0-2.69,.19-3.96,.52-1.84-.54-3.76-.82-5.73-.82-2.43,0-4.8,.43-7.02,1.23-2.18-.8-4.5-1.23-6.88-1.23-1.17,0-2.32,.1-3.46,.3h-1.45c-2.87,0-5.55,.76-7.88,2.08-.25-.13-.5-.27-.77-.4-2.78-1.32-5.82-1.99-9.03-1.99-2.26,0-4.45,.36-6.51,1.02-2.02-.68-4.14-1.02-6.33-1.02-1.18,0-2.35,.1-3.5,.3h-1.7c-1.37,0-2.7,.19-3.97,.52-1.86-.54-3.82-.82-5.83-.82-1.77,0-3.48,.22-5.13,.63-1.27-.34-2.58-.53-3.89-.59-1.12-1.07-2.38-2-3.8-2.72-5.38-2.73-11.84-2.19-16.7,1.38l-1.79,1.31c-2.34,.04-4.61,.48-6.75,1.27-1.74-.65-3.58-1.06-5.47-1.21-2.91-3.01-6.98-4.9-11.5-4.9h-1.87c-4.53,0-8.61,1.89-11.52,4.91-3.29,.29-6.43,1.36-9.18,3.1-.69-.44-1.4-.84-2.15-1.2-2.78-1.32-5.82-1.99-9.03-1.99-2.38,0-4.67,.4-6.82,1.13-1.62-.56-3.32-.92-5.06-1.06-2.91-3.01-6.98-4.9-11.5-4.9h-1.87c-5.53,0-10.4,2.8-13.27,7.06-2.3-1.24-4.9-1.93-7.6-1.93h-2.23c-.87,0-1.74,.07-2.58,.21-.85-.14-1.71-.21-2.58-.21h-2.34c-.77,0-1.53,.06-2.27,.17-.72-.1-1.44-.17-2.19-.17h-1.88c-.89,0-1.76,.07-2.61,.21-.85-.14-1.72-.21-2.61-.21h-1.87c-1.27,0-2.51,.16-3.69,.45-1.38-.37-2.83-.61-4.34-.7-2.91-3-6.97-4.87-11.48-4.87h-1.87c-3.06,0-5.9,.87-8.33,2.36-2.51-1.58-5.44-2.46-8.51-2.46h-2.45c-2.11,0-4.15,.42-6.03,1.19-4.74-1.4-9.93-.55-14.01,2.44l-1.79,1.32c-.2,0-.39-.02-.58-.02-2.66,0-4.97,.42-6.96,1.05-2.01-.69-4.15-1.05-6.34-1.05-1.1,0-2.18,.09-3.25,.27-2.19-.37-4.52-.36-6.74,.03h-1.58c-2.87,0-5.55,.76-7.88,2.09-.26-.14-.51-.27-.77-.4-2.78-1.32-5.82-1.99-9.03-1.99-2.26,0-4.45,.36-6.51,1.02-1.72-.58-3.51-.91-5.35-1-2.91-2.99-6.96-4.85-11.46-4.85h-1.87c-3.99,0-7.63,1.47-10.43,3.88-.83-.66-1.72-1.25-2.69-1.74-5.38-2.72-11.84-2.19-16.7,1.38l-1.87,1.37c-.1,.07-.19,.16-.29,.23h-.16c-1.38,0-2.71,.19-3.99,.52-1.85-.54-3.78-.83-5.75-.83-2.27,0-4.49,.38-6.59,1.08-2.08-.7-4.28-1.08-6.53-1.08-3.96,0-7.75,1.12-11,3.18-.68-.43-1.39-.83-2.12-1.18-2.78-1.32-5.82-2-9.04-2-2.26,0-4.45,.36-6.51,1.02-2.02-.68-4.14-1.02-6.33-1.02-1.18,0-2.36,.1-3.5,.3h-1.7c-1.28,0-2.52,.17-3.72,.45-1.84-.5-3.8-.76-5.86-.76-.78,0-1.53,.04-2.25,.1-2-1.66-4.26-2.94-6.68-3.75-2.36-.8-5-1.18-8.09-1.18h-5.27C9.1,1.1,1.94,8.27,1.94,17.1v18.61c0,3.58,1.19,6.87,3.17,9.54-2.45,3.36-3.8,7.43-3.8,11.76,0,.73,.04,1.45,.11,2.17-.46,1.92-.56,3.95-.26,6.01,.53,3.62,1.82,6.83,3.69,9.52-.41,.71-.79,1.43-1.13,2.19-1.57,3.49-2.37,7.46-2.37,11.78s.74,8.1,2.2,11.59c.91,2.17,2.04,4.11,3.38,5.82-1.73,1.9-3.12,4.14-4.14,6.7-1.17,2.95-1.76,6.24-1.76,9.79,0,5.85,1.61,10.9,4.77,14.98,3.96,5.13,9.81,8.07,16.04,8.07,1.15,0,2.28-.1,3.4-.3h1.39c1.39,0,2.73-.2,4.02-.53,1.89,.55,3.89,.83,5.95,.83,4.13,0,7.98-1.14,11.3-3.3,3.28,2.13,7.12,3.3,11.13,3.3,2.24,0,4.42-.38,6.48-1.07,2.1,.71,4.33,1.07,6.65,1.07s4.71-.39,6.87-1.14c2.11,.75,4.35,1.14,6.66,1.14,1.17,0,2.34-.1,3.47-.3h1.71c.92,0,1.81-.09,2.68-.24,.87,.15,1.77,.24,2.68,.24h1.87c1.58,0,3.11-.24,4.55-.67,1.98,.63,4.07,.97,6.23,.97,1.24,0,2.46-.11,3.66-.32,.26,.01,.52,.02,.78,.02h1.96c.81,0,1.62-.07,2.41-.19,.76,.11,1.54,.19,2.34,.19h1.87c.89,0,1.77-.07,2.62-.21,.85,.14,1.73,.21,2.62,.21h1.87c1.23,0,2.41-.15,3.56-.41,1.53,.38,3.13,.59,4.76,.59,1.79,0,3.62-.25,5.46-.73,1.21-.32,2.34-.78,3.41-1.34,2.82,1.43,5.96,2.2,9.22,2.2,1.78,0,3.52-.25,5.2-.69,1.12,.25,2.27,.39,3.46,.39h1.87c.9,0,1.78-.09,2.64-.24,.86,.14,1.74,.24,2.64,.24h1.87c1.82,0,3.56-.32,5.2-.88,2.18,.78,4.49,1.18,6.87,1.18,2.14,0,4.22-.34,6.2-.97,1.97,.64,4.05,.97,6.19,.97,1.17,0,2.34-.1,3.47-.3h1.71c.9,0,1.79-.09,2.65-.24,.86,.14,1.75,.24,2.65,.24h1.87c1.15,0,2.27-.13,3.36-.36,1.65,.42,3.36,.66,5.13,.66,1.24,0,2.46-.11,3.66-.32,.26,.01,.52,.02,.78,.02h1.96c.81,0,1.62-.07,2.41-.19,.76,.11,1.54,.19,2.34,.19h1.87c.9,0,1.78-.09,2.64-.24,.86,.14,1.74,.24,2.64,.24h1.87c1.82,0,3.57-.32,5.2-.88,2.21,.78,4.58,1.19,7.05,1.19,2.1,0,4.13-.31,6.06-.88,1.34,.36,2.74,.57,4.19,.57h2.13c8.84,0,16-7.16,16-16v-2.6c0-5.1-2.39-9.63-6.11-12.56,.84-.13,1.66-.32,2.46-.55,1.27,.32,2.59,.51,3.96,.51h1.87c.89,0,1.77-.07,2.62-.21,.85,.14,1.73,.21,2.62,.21h1.87c.9,0,1.79-.09,2.65-.24,.86,.14,1.75,.24,2.65,.24h1.87c1.23,0,2.42-.15,3.57-.41,1.77,.47,3.65,.72,5.61,.72,2.4,0,4.72-.4,6.9-1.13,2.17,.75,4.49,1.13,6.91,1.13s4.89-.42,7.13-1.22c2.24,.8,4.64,1.22,7.14,1.22,4.13,0,7.98-1.14,11.3-3.3,3.28,2.13,7.12,3.3,11.13,3.3,1.78,0,3.52-.25,5.2-.69,1.12,.25,2.27,.39,3.46,.39h1.87c1.82,0,3.57-.32,5.2-.88,2.21,.78,4.58,1.19,7.05,1.19s4.89-.42,7.13-1.22c2.24,.8,4.64,1.22,7.14,1.22,4.02,0,7.78-1.08,11.04-3.12,3.16,2.05,6.83,3.12,10.71,3.12,1.17,0,2.34-.1,3.47-.3h1.71c.92,0,1.81-.09,2.68-.24,.87,.15,1.77,.24,2.68,.24h1.87c.89,0,1.77-.07,2.62-.21,.85,.14,1.73,.21,2.62,.21h1.87c1.38,0,2.71-.19,3.99-.52,1.88,.54,3.87,.83,5.92,.83,3.58,0,6.95-.86,9.95-2.49,2.37,1.38,5.11,2.18,8.04,2.18h1.38c1.12,.2,2.27,.3,3.43,.3,2.36,0,4.67-.43,6.85-1.24,2.24,.81,4.63,1.24,7.12,1.24s4.71-.39,6.87-1.14c2.11,.75,4.35,1.14,6.67,1.14,1.17,0,2.34-.1,3.47-.3h1.71c1.38,0,2.72-.19,4-.52,1.85,.54,3.79,.83,5.78,.83,1.77,0,3.5-.25,5.17-.68,1.11,.24,2.25,.38,3.43,.38h1.87c1.39,0,2.73-.2,4.01-.53,1.89,.55,3.88,.83,5.95,.83,5.13,0,9.84-1.74,13.62-5.02,3.43-2.98,5.81-7.08,6.88-11.86,.31-1.37,.43-2.76,.37-4.14,.03-.36,.05-.72,.06-1.08v-.61c.02-.12,.02-.24,.02-.36,0-3.03-.43-5.83-1.27-8.39,1.08,.16,2.19,.26,3.33,.26,2.03,0,4.01-.28,5.88-.8,1.25,.31,2.55,.5,3.9,.5h2.13c8.84,0,16-7.16,16-16v-2.6c0-5.58-2.86-10.48-7.18-13.35Z"/><g><path d="M17.94,35.71V17.1h5.27c1.3,0,2.29,.11,2.97,.34,.89,.3,1.66,.84,2.31,1.62s1.16,1.78,1.52,2.98c.36,1.2,.55,2.62,.55,4.26,0,2.11-.31,3.9-.93,5.36-.62,1.47-1.41,2.51-2.38,3.12-.97,.61-2.24,.92-3.8,.92h-5.51Zm2.02-2.2h3.25c1.31,0,2.31-.21,2.98-.64,.68-.43,1.2-1.11,1.56-2.06,.48-1.26,.72-2.77,.72-4.53,0-1.89-.26-3.37-.77-4.45-.51-1.08-1.17-1.8-1.97-2.16-.54-.25-1.4-.37-2.58-.37h-3.2v14.22Z"/><path d="M42.73,34.05c-.63,.65-1.28,1.14-1.96,1.47s-1.38,.5-2.11,.5c-1.15,0-2.07-.35-2.75-1.04s-1.03-1.63-1.03-2.81c0-.78,.16-1.47,.48-2.07s.76-1.07,1.32-1.41,1.4-.59,2.54-.75c1.52-.22,2.64-.49,3.35-.8v-.58c.01-.92-.15-1.57-.48-1.94-.47-.54-1.18-.81-2.15-.81-.87,0-1.52,.18-1.96,.54s-.75,1.04-.95,2.04l-1.84-.3c.26-1.45,.79-2.5,1.59-3.16s1.94-.99,3.43-.99c1.16,0,2.07,.22,2.73,.65,.66,.44,1.08,.97,1.25,1.62s.26,1.58,.26,2.82v3.05c0,2.13,.04,3.48,.12,4.03,.08,.55,.24,1.09,.48,1.62h-1.96c-.19-.47-.32-1.02-.38-1.66Zm-.15-5.1c-.69,.34-1.71,.63-3.06,.86-.79,.14-1.34,.29-1.65,.46-.31,.17-.56,.42-.73,.74-.17,.32-.26,.68-.26,1.1,0,.64,.2,1.16,.6,1.54,.4,.38,.95,.58,1.65,.58s1.28-.17,1.82-.52,.95-.81,1.23-1.39c.27-.58,.41-1.42,.41-2.53v-.84Z"/><path d="M49.81,35.71v-13.48h1.69v1.9c.41-.74,.9-1.29,1.49-1.66,.59-.37,1.26-.55,2.02-.55,.59,0,1.14,.12,1.64,.35,.5,.23,.91,.54,1.22,.91,.31,.38,.54,.87,.69,1.47,.15,.6,.23,1.52,.23,2.77v8.29h-1.87v-8.21c0-.99-.08-1.72-.25-2.17-.17-.46-.43-.81-.79-1.06s-.78-.38-1.25-.38c-.9,0-1.61,.33-2.15,1-.53,.67-.8,1.82-.8,3.44v7.37h-1.87Z"/><path d="M63.36,31.68l1.87-.36c.11,.95,.41,1.66,.9,2.12,.49,.46,1.14,.7,1.95,.7s1.44-.2,1.88-.6c.44-.4,.67-.91,.67-1.53,0-.53-.19-.95-.57-1.24-.26-.2-.9-.46-1.9-.76-1.46-.45-2.43-.83-2.92-1.14s-.87-.73-1.14-1.26-.41-1.12-.41-1.79c0-1.15,.37-2.09,1.1-2.81s1.76-1.08,3.06-1.08c.82,0,1.54,.15,2.16,.44s1.1,.69,1.43,1.19,.56,1.21,.69,2.15l-1.83,.3c-.17-1.47-.97-2.21-2.4-2.21-.81,0-1.42,.16-1.82,.49-.4,.33-.6,.74-.6,1.25s.19,.89,.57,1.18c.23,.17,.91,.44,2.04,.81,1.55,.49,2.55,.88,3.01,1.18,.46,.29,.81,.69,1.06,1.2,.25,.5,.38,1.1,.38,1.8,0,1.29-.41,2.33-1.22,3.13s-1.93,1.2-3.35,1.2c-2.65,0-4.19-1.45-4.61-4.34Z"/><path d="M92.75,30.77l1.84,.29c-.21,1.61-.74,2.83-1.59,3.68-.85,.85-1.87,1.27-3.07,1.27-1.45,0-2.64-.59-3.57-1.78-.94-1.19-1.4-2.95-1.4-5.28s.47-4.1,1.42-5.28c.94-1.17,2.16-1.76,3.64-1.76,1.14,0,2.11,.36,2.89,1.07,.78,.71,1.29,1.78,1.5,3.2l-1.82,.33c-.18-.91-.49-1.59-.93-2.04-.44-.45-.97-.68-1.59-.68-.92,0-1.69,.41-2.29,1.22-.61,.82-.91,2.11-.91,3.89s.29,3.17,.87,3.99c.58,.82,1.32,1.23,2.23,1.23,.71,0,1.32-.27,1.82-.82,.5-.55,.82-1.39,.96-2.55Z"/><path d="M106.14,31.37l1.93,.29c-.32,1.44-.9,2.52-1.75,3.26-.84,.73-1.88,1.1-3.13,1.1-1.57,0-2.83-.59-3.8-1.78-.97-1.19-1.45-2.91-1.45-5.15s.49-4.1,1.47-5.33c.98-1.22,2.21-1.83,3.71-1.83s2.62,.6,3.58,1.8,1.43,2.94,1.43,5.22v.61h-8.26c.08,1.51,.43,2.66,1.05,3.43s1.39,1.16,2.29,1.16c1.41,0,2.38-.92,2.93-2.77Zm-6.16-3.69h6.17c-.08-1.17-.33-2.04-.75-2.62-.6-.84-1.37-1.26-2.3-1.26-.84,0-1.55,.35-2.15,1.05-.59,.7-.92,1.64-.98,2.83Z"/><path d="M112.87,35.71v-13.48h1.69v2.04c.43-.95,.83-1.58,1.19-1.89,.36-.31,.76-.46,1.21-.46,.63,0,1.27,.25,1.92,.74l-.63,2.12c-.47-.33-.92-.5-1.36-.5-.4,0-.76,.14-1.09,.42s-.56,.67-.7,1.17c-.24,.87-.36,1.8-.36,2.78v7.06h-1.87Z"/><path d="M126.55,33.67l.25,2.02c-.52,.14-.98,.2-1.4,.2-.65,0-1.18-.13-1.57-.39-.4-.26-.67-.61-.82-1.06-.15-.45-.22-1.34-.22-2.68v-7.76h-1.37v-1.78h1.37v-3.34l1.87-1.37v4.71h1.89v1.78h-1.89v7.88c0,.73,.05,1.2,.17,1.41,.16,.3,.46,.46,.9,.46,.21,0,.49-.03,.83-.09Z"/><path d="M137.93,34.05c-.63,.65-1.28,1.14-1.96,1.47s-1.38,.5-2.11,.5c-1.15,0-2.07-.35-2.75-1.04s-1.03-1.63-1.03-2.81c0-.78,.16-1.47,.48-2.07s.76-1.07,1.32-1.41,1.41-.59,2.54-.75c1.52-.22,2.64-.49,3.35-.8v-.58c.01-.92-.15-1.57-.48-1.94-.47-.54-1.18-.81-2.15-.81-.87,0-1.52,.18-1.96,.54s-.75,1.04-.95,2.04l-1.84-.3c.26-1.45,.79-2.5,1.59-3.16,.8-.66,1.95-.99,3.43-.99,1.16,0,2.07,.22,2.73,.65,.66,.44,1.08,.97,1.25,1.62,.17,.64,.26,1.58,.26,2.82v3.05c0,2.13,.04,3.48,.12,4.03,.08,.55,.24,1.09,.48,1.62h-1.96c-.19-.47-.32-1.02-.38-1.66Zm-.15-5.1c-.69,.34-1.71,.63-3.06,.86-.79,.14-1.34,.29-1.65,.46-.31,.17-.56,.42-.73,.74-.17,.32-.26,.68-.26,1.1,0,.64,.2,1.16,.6,1.54,.4,.38,.95,.58,1.65,.58s1.28-.17,1.82-.52c.54-.35,.95-.81,1.22-1.39,.27-.58,.41-1.42,.41-2.53v-.84Z"/><path d="M145,19.73v-2.63h1.87v2.63h-1.87Zm0,15.98v-13.48h1.87v13.48h-1.87Z"/><path d="M152.16,35.71v-13.48h1.69v1.9c.41-.74,.9-1.29,1.49-1.66s1.26-.55,2.02-.55c.59,0,1.14,.12,1.64,.35,.5,.23,.91,.54,1.22,.91,.31,.38,.54,.87,.69,1.47,.15,.6,.23,1.52,.23,2.77v8.29h-1.87v-8.21c0-.99-.08-1.72-.25-2.17-.17-.46-.43-.81-.79-1.06-.36-.25-.78-.38-1.25-.38-.9,0-1.61,.33-2.15,1-.53,.67-.8,1.82-.8,3.44v7.37h-1.87Z"/><path d="M165.71,31.68l1.87-.36c.11,.95,.41,1.66,.9,2.12,.49,.46,1.14,.7,1.95,.7s1.44-.2,1.88-.6c.44-.4,.67-.91,.67-1.53,0-.53-.19-.95-.57-1.24-.26-.2-.9-.46-1.9-.76-1.46-.45-2.43-.83-2.92-1.14s-.87-.73-1.14-1.26-.41-1.12-.41-1.79c0-1.15,.37-2.09,1.1-2.81s1.76-1.08,3.06-1.08c.82,0,1.54,.15,2.17,.44,.62,.3,1.1,.69,1.43,1.19s.56,1.21,.69,2.15l-1.83,.3c-.17-1.47-.97-2.21-2.4-2.21-.81,0-1.42,.16-1.82,.49-.4,.33-.6,.74-.6,1.25s.19,.89,.57,1.18c.23,.17,.91,.44,2.04,.81,1.55,.49,2.55,.88,3.01,1.18,.46,.29,.81,.69,1.06,1.2,.25,.5,.38,1.1,.38,1.8,0,1.29-.41,2.33-1.23,3.13-.82,.8-1.93,1.2-3.34,1.2-2.65,0-4.19-1.45-4.61-4.34Z"/><path d="M187.87,35.71v-13.48h1.68v1.88c.37-.7,.85-1.24,1.43-1.62,.58-.38,1.22-.57,1.91-.57,.78,0,1.43,.2,1.97,.6,.54,.4,.92,.98,1.15,1.75,.44-.78,.95-1.37,1.52-1.76s1.21-.59,1.9-.59c1.06,0,1.9,.36,2.51,1.08s.92,1.87,.92,3.45v9.25h-1.87v-8.5c0-.97-.07-1.65-.21-2.05s-.37-.71-.68-.93c-.31-.22-.67-.33-1.06-.33-.81,0-1.47,.32-1.98,.96s-.77,1.65-.77,3.02v7.84h-1.87v-8.77c0-1.12-.17-1.91-.51-2.36-.34-.46-.81-.69-1.42-.69-.85,0-1.53,.35-2.02,1.04-.5,.69-.74,1.95-.74,3.78v7h-1.87Z"/><path d="M215.24,34.05c-.63,.65-1.28,1.14-1.96,1.47s-1.38,.5-2.11,.5c-1.15,0-2.07-.35-2.75-1.04s-1.03-1.63-1.03-2.81c0-.78,.16-1.47,.48-2.07s.76-1.07,1.32-1.41,1.41-.59,2.54-.75c1.52-.22,2.64-.49,3.35-.8v-.58c.01-.92-.15-1.57-.48-1.94-.47-.54-1.18-.81-2.15-.81-.87,0-1.52,.18-1.96,.54s-.75,1.04-.95,2.04l-1.84-.3c.26-1.45,.79-2.5,1.59-3.16,.8-.66,1.95-.99,3.43-.99,1.16,0,2.07,.22,2.73,.65,.66,.44,1.08,.97,1.25,1.62,.17,.64,.26,1.58,.26,2.82v3.05c0,2.13,.04,3.48,.12,4.03,.08,.55,.24,1.09,.48,1.62h-1.96c-.19-.47-.32-1.02-.38-1.66Zm-.15-5.1c-.69,.34-1.71,.63-3.06,.86-.79,.14-1.34,.29-1.65,.46-.31,.17-.56,.42-.73,.74-.17,.32-.26,.68-.26,1.1,0,.64,.2,1.16,.6,1.54,.4,.38,.95,.58,1.65,.58s1.28-.17,1.82-.52c.54-.35,.95-.81,1.22-1.39,.27-.58,.41-1.42,.41-2.53v-.84Z"/><path d="M226.48,33.67l.25,2.02c-.52,.14-.98,.2-1.4,.2-.65,0-1.18-.13-1.57-.39-.4-.26-.67-.61-.82-1.06-.15-.45-.22-1.34-.22-2.68v-7.76h-1.37v-1.78h1.37v-3.34l1.87-1.37v4.71h1.89v1.78h-1.89v7.88c0,.73,.05,1.2,.17,1.41,.16,.3,.46,.46,.9,.46,.21,0,.49-.03,.83-.09Z"/><path d="M238.22,31.37l1.93,.29c-.32,1.44-.9,2.52-1.75,3.26-.84,.73-1.88,1.1-3.13,1.1-1.57,0-2.83-.59-3.8-1.78-.97-1.19-1.45-2.91-1.45-5.15s.49-4.1,1.47-5.33c.98-1.22,2.21-1.83,3.71-1.83s2.62,.6,3.58,1.8,1.43,2.94,1.43,5.22v.61h-8.26c.08,1.51,.43,2.66,1.05,3.43s1.39,1.16,2.29,1.16c1.41,0,2.38-.92,2.93-2.77Zm-6.16-3.69h6.17c-.08-1.17-.33-2.04-.75-2.62-.6-.84-1.37-1.26-2.3-1.26-.84,0-1.55,.35-2.15,1.05-.59,.7-.92,1.64-.98,2.83Zm1.71-7.12l1.38-3.55h2.45l-2.29,3.55h-1.55Z"/><path d="M244.94,35.71v-13.48h1.69v2.04c.43-.95,.83-1.58,1.19-1.89,.36-.31,.76-.46,1.21-.46,.63,0,1.27,.25,1.92,.74l-.63,2.12c-.47-.33-.92-.5-1.36-.5-.4,0-.76,.14-1.09,.42s-.56,.67-.7,1.17c-.24,.87-.36,1.8-.36,2.78v7.06h-1.87Z"/><path d="M254.45,19.73v-2.63h1.87v2.63h-1.87Zm0,15.98v-13.48h1.87v13.48h-1.87Z"/><path d="M268.8,34.05c-.63,.65-1.28,1.14-1.96,1.47s-1.38,.5-2.11,.5c-1.15,0-2.07-.35-2.75-1.04s-1.03-1.63-1.03-2.81c0-.78,.16-1.47,.48-2.07s.76-1.07,1.32-1.41,1.41-.59,2.54-.75c1.52-.22,2.64-.49,3.35-.8v-.58c.01-.92-.15-1.57-.48-1.94-.47-.54-1.18-.81-2.15-.81-.87,0-1.52,.18-1.96,.54s-.75,1.04-.95,2.04l-1.84-.3c.26-1.45,.79-2.5,1.59-3.16,.8-.66,1.95-.99,3.43-.99,1.16,0,2.07,.22,2.73,.65,.66,.44,1.08,.97,1.25,1.62,.17,.64,.26,1.58,.26,2.82v3.05c0,2.13,.04,3.48,.12,4.03,.08,.55,.24,1.09,.48,1.62h-1.96c-.19-.47-.32-1.02-.38-1.66Zm-.15-5.1c-.69,.34-1.71,.63-3.06,.86-.79,.14-1.34,.29-1.65,.46-.31,.17-.56,.42-.73,.74-.17,.32-.26,.68-.26,1.1,0,.64,.2,1.16,.6,1.54,.4,.38,.95,.58,1.65,.58s1.28-.17,1.82-.52c.54-.35,.95-.81,1.22-1.39,.27-.58,.41-1.42,.41-2.53v-.84Z"/><path d="M283.12,35.71v-1.98c-.43,.76-.94,1.33-1.52,1.71s-1.24,.57-1.98,.57c-.87,0-1.62-.23-2.23-.71-.62-.47-1.03-1.06-1.24-1.78-.21-.72-.31-1.7-.31-2.95v-8.35h1.87v7.48c0,1.39,.07,2.32,.21,2.79,.14,.47,.4,.85,.78,1.13,.38,.28,.81,.42,1.29,.42,.9,0,1.63-.37,2.21-1.1,.49-.63,.74-1.8,.74-3.49v-7.22h1.88v13.48h-1.68Z"/><path d="M288.94,35.71l4.03-7-3.72-6.48h2.34l1.68,3.15c.31,.58,.57,1.09,.78,1.51,.32-.57,.6-1.05,.85-1.47l1.86-3.2h2.23l-3.82,6.33,4.11,7.15h-2.3l-2.27-4.2-.59-1.13-2.91,5.33h-2.27Z"/><path d="M303.78,35.71v-2.6h2.13v2.6c0,1.01-.15,1.8-.44,2.37-.3,.57-.73,1.01-1.29,1.31l-.52-.98c.38-.2,.67-.51,.86-.91,.2-.4,.3-1,.32-1.8h-1.05Z"/><path d="M319.87,35.71V17.1h1.87v18.61h-1.87Z"/><path d="M334.64,31.37l1.93,.29c-.32,1.44-.9,2.52-1.75,3.26-.84,.73-1.88,1.1-3.13,1.1-1.57,0-2.83-.59-3.8-1.78-.97-1.19-1.45-2.91-1.45-5.15s.49-4.1,1.47-5.33c.98-1.22,2.21-1.83,3.71-1.83s2.62,.6,3.58,1.8c.96,1.2,1.43,2.94,1.43,5.22v.61h-8.26c.08,1.51,.43,2.66,1.05,3.43,.63,.77,1.39,1.16,2.29,1.16,1.41,0,2.38-.92,2.93-2.77Zm-6.16-3.69h6.17c-.08-1.17-.33-2.04-.75-2.62-.6-.84-1.37-1.26-2.3-1.26-.84,0-1.55,.35-2.14,1.05-.59,.7-.92,1.64-.98,2.83Z"/><path d="M340.64,31.68l1.87-.36c.11,.95,.41,1.66,.9,2.12,.49,.46,1.14,.7,1.95,.7s1.44-.2,1.88-.6c.44-.4,.67-.91,.67-1.53,0-.53-.19-.95-.57-1.24-.26-.2-.9-.46-1.9-.76-1.46-.45-2.43-.83-2.92-1.14-.49-.31-.87-.73-1.14-1.26-.27-.52-.41-1.12-.41-1.79,0-1.15,.37-2.09,1.11-2.81s1.76-1.08,3.06-1.08c.82,0,1.54,.15,2.17,.44,.62,.3,1.1,.69,1.43,1.19s.56,1.21,.69,2.15l-1.83,.3c-.17-1.47-.97-2.21-2.4-2.21-.81,0-1.42,.16-1.81,.49-.4,.33-.6,.74-.6,1.25s.19,.89,.57,1.18c.23,.17,.91,.44,2.04,.81,1.55,.49,2.55,.88,3.01,1.18,.46,.29,.81,.69,1.06,1.2,.25,.5,.38,1.1,.38,1.8,0,1.29-.41,2.33-1.22,3.13s-1.93,1.2-3.35,1.2c-2.65,0-4.19-1.45-4.61-4.34Z"/><path d="M370.34,31.37l1.93,.29c-.32,1.44-.9,2.52-1.75,3.26-.84,.73-1.88,1.1-3.13,1.1-1.56,0-2.83-.59-3.8-1.78-.97-1.19-1.45-2.91-1.45-5.15s.49-4.1,1.47-5.33c.98-1.22,2.21-1.83,3.71-1.83s2.62,.6,3.58,1.8c.96,1.2,1.44,2.94,1.44,5.22v.61h-8.27c.08,1.51,.43,2.66,1.05,3.43,.62,.77,1.39,1.16,2.29,1.16,1.4,0,2.38-.92,2.93-2.77Zm-6.16-3.69h6.17c-.09-1.17-.33-2.04-.75-2.62-.6-.84-1.37-1.26-2.3-1.26-.84,0-1.55,.35-2.15,1.05-.59,.7-.92,1.64-.98,2.83Z"/><path d="M377,35.71V17.1h1.87v18.61h-1.87Z"/><path d="M391.77,31.37l1.93,.29c-.32,1.44-.9,2.52-1.75,3.26-.84,.73-1.88,1.1-3.13,1.1-1.57,0-2.83-.59-3.8-1.78-.97-1.19-1.45-2.91-1.45-5.15s.49-4.1,1.47-5.33c.98-1.22,2.21-1.83,3.71-1.83s2.62,.6,3.58,1.8c.96,1.2,1.43,2.94,1.43,5.22v.61h-8.26c.08,1.51,.43,2.66,1.05,3.43,.63,.77,1.39,1.16,2.29,1.16,1.41,0,2.38-.92,2.93-2.77Zm-6.16-3.69h6.17c-.08-1.17-.33-2.04-.75-2.62-.6-.84-1.37-1.26-2.3-1.26-.84,0-1.55,.35-2.14,1.05-.59,.7-.92,1.64-.98,2.83Z"/><path d="M405.73,30.77l1.84,.29c-.21,1.61-.74,2.83-1.59,3.68-.85,.85-1.87,1.27-3.07,1.27-1.45,0-2.64-.59-3.57-1.78-.94-1.19-1.4-2.95-1.4-5.28s.47-4.1,1.42-5.28c.94-1.17,2.16-1.76,3.64-1.76,1.14,0,2.11,.36,2.89,1.07s1.29,1.78,1.5,3.2l-1.81,.33c-.18-.91-.49-1.59-.93-2.04-.44-.45-.97-.68-1.59-.68-.92,0-1.69,.41-2.29,1.22-.61,.82-.91,2.11-.91,3.89s.29,3.17,.87,3.99,1.32,1.23,2.23,1.23c.71,0,1.32-.27,1.82-.82,.5-.55,.82-1.39,.96-2.55Z"/><path d="M415.74,33.67l.25,2.02c-.52,.14-.98,.2-1.4,.2-.65,0-1.18-.13-1.57-.39-.4-.26-.67-.61-.82-1.06s-.22-1.34-.22-2.68v-7.76h-1.37v-1.78h1.37v-3.34l1.87-1.37v4.71h1.89v1.78h-1.89v7.88c0,.73,.05,1.2,.16,1.41,.16,.3,.46,.46,.9,.46,.21,0,.49-.03,.82-.09Z"/><path d="M419.92,35.71v-13.48h1.69v2.04c.43-.95,.83-1.58,1.19-1.89,.36-.31,.76-.46,1.21-.46,.62,0,1.27,.25,1.92,.74l-.63,2.12c-.46-.33-.92-.5-1.36-.5-.4,0-.76,.14-1.09,.42s-.56,.67-.7,1.17c-.24,.87-.36,1.8-.36,2.78v7.06h-1.87Z"/><path d="M428.73,28.97c0-2.33,.49-4.08,1.47-5.27,.98-1.18,2.21-1.78,3.71-1.78s2.71,.59,3.7,1.78,1.48,2.89,1.48,5.13c0,2.42-.49,4.22-1.46,5.41-.97,1.18-2.21,1.78-3.72,1.78s-2.71-.59-3.7-1.78c-.99-1.19-1.48-2.94-1.48-5.26Zm1.92,0c0,1.75,.32,3.04,.95,3.9s1.42,1.28,2.36,1.28c.88,0,1.64-.43,2.27-1.29,.63-.86,.95-2.15,.95-3.88s-.32-3.03-.95-3.88-1.42-1.28-2.36-1.28c-.89,0-1.65,.43-2.27,1.28-.63,.86-.94,2.15-.94,3.88Z"/><path d="M443.71,35.71v-13.48h1.69v1.9c.4-.74,.9-1.29,1.49-1.66,.59-.37,1.26-.55,2.02-.55,.59,0,1.14,.12,1.64,.35,.5,.23,.91,.54,1.22,.91,.31,.38,.54,.87,.69,1.47s.23,1.52,.23,2.77v8.29h-1.87v-8.21c0-.99-.08-1.72-.25-2.17-.17-.46-.43-.81-.79-1.06s-.78-.38-1.25-.38c-.9,0-1.61,.33-2.15,1-.53,.67-.8,1.82-.8,3.44v7.37h-1.87Z"/><path d="M457.26,31.68l1.87-.36c.11,.95,.41,1.66,.9,2.12,.49,.46,1.14,.7,1.95,.7s1.44-.2,1.88-.6c.44-.4,.67-.91,.67-1.53,0-.53-.19-.95-.57-1.24-.26-.2-.9-.46-1.9-.76-1.46-.45-2.43-.83-2.92-1.14-.49-.31-.87-.73-1.14-1.26-.27-.52-.41-1.12-.41-1.79,0-1.15,.37-2.09,1.11-2.81s1.76-1.08,3.06-1.08c.82,0,1.54,.15,2.17,.44,.62,.3,1.1,.69,1.43,1.19s.56,1.21,.69,2.15l-1.83,.3c-.17-1.47-.97-2.21-2.4-2.21-.81,0-1.42,.16-1.81,.49-.4,.33-.6,.74-.6,1.25s.19,.89,.57,1.18c.23,.17,.91,.44,2.04,.81,1.55,.49,2.55,.88,3.01,1.18,.46,.29,.81,.69,1.06,1.2,.25,.5,.38,1.1,.38,1.8,0,1.29-.41,2.33-1.22,3.13s-1.93,1.2-3.35,1.2c-2.65,0-4.19-1.45-4.61-4.34Z"/><path d="M479.42,40.88V22.23h1.73v1.75c.42-.73,.89-1.25,1.41-1.57s1.11-.48,1.78-.48c.87,0,1.66,.26,2.36,.77s1.26,1.3,1.69,2.35c.43,1.05,.64,2.32,.64,3.8,0,2.29-.48,4.06-1.44,5.3-.96,1.24-2.09,1.86-3.38,1.86-.58,0-1.11-.15-1.61-.44-.5-.3-.93-.71-1.29-1.26v6.56h-1.87Zm1.7-11.83c0,1.74,.29,3.03,.87,3.85,.58,.83,1.29,1.24,2.12,1.24s1.49-.43,2.09-1.28,.9-2.17,.9-3.96-.29-3.06-.87-3.91-1.29-1.27-2.13-1.27c-.75,0-1.44,.46-2.05,1.36-.62,.91-.92,2.23-.92,3.97Z"/><path d="M501.24,31.37l1.93,.29c-.32,1.44-.9,2.52-1.75,3.26-.84,.73-1.88,1.1-3.13,1.1-1.56,0-2.83-.59-3.8-1.78-.97-1.19-1.45-2.91-1.45-5.15s.49-4.1,1.47-5.33c.98-1.22,2.21-1.83,3.71-1.83s2.62,.6,3.58,1.8c.96,1.2,1.44,2.94,1.44,5.22v.61h-8.27c.08,1.51,.43,2.66,1.05,3.43,.62,.77,1.39,1.16,2.29,1.16,1.4,0,2.38-.92,2.93-2.77Zm-6.16-3.69h6.17c-.09-1.17-.33-2.04-.75-2.62-.6-.84-1.37-1.26-2.3-1.26-.84,0-1.55,.35-2.15,1.05-.59,.7-.92,1.64-.98,2.83Z"/><path d="M515.2,35.71v-1.98c-.43,.76-.94,1.33-1.52,1.71s-1.24,.57-1.98,.57c-.87,0-1.62-.23-2.23-.71-.62-.47-1.03-1.06-1.24-1.78s-.31-1.7-.31-2.95v-8.35h1.87v7.48c0,1.39,.07,2.32,.21,2.79,.14,.47,.4,.85,.78,1.13,.38,.28,.81,.42,1.29,.42,.9,0,1.63-.37,2.21-1.1,.49-.63,.74-1.8,.74-3.49v-7.22h1.88v13.48h-1.68Z"/><path d="M525.33,35.71l-4.21-13.48h1.98l2.38,8.07c.27,.91,.51,1.82,.71,2.72,.16-.71,.39-1.57,.69-2.56l2.47-8.23h1.93l-4.21,13.48h-1.75Z"/><path d="M542.88,31.37l1.93,.29c-.32,1.44-.9,2.52-1.75,3.26-.84,.73-1.88,1.1-3.13,1.1-1.56,0-2.83-.59-3.8-1.78-.97-1.19-1.45-2.91-1.45-5.15s.49-4.1,1.47-5.33c.98-1.22,2.21-1.83,3.71-1.83s2.62,.6,3.58,1.8c.96,1.2,1.44,2.94,1.44,5.22v.61h-8.27c.08,1.51,.43,2.66,1.05,3.43,.62,.77,1.39,1.16,2.29,1.16,1.4,0,2.38-.92,2.93-2.77Zm-6.16-3.69h6.17c-.09-1.17-.33-2.04-.75-2.62-.6-.84-1.37-1.26-2.3-1.26-.84,0-1.55,.35-2.15,1.05-.59,.7-.92,1.64-.98,2.83Z"/><path d="M549.6,35.71v-13.48h1.69v1.9c.41-.74,.9-1.29,1.49-1.66,.59-.37,1.26-.55,2.02-.55,.59,0,1.14,.12,1.64,.35,.5,.23,.91,.54,1.22,.91,.31,.38,.54,.87,.69,1.47,.15,.6,.23,1.52,.23,2.77v8.29h-1.87v-8.21c0-.99-.09-1.72-.25-2.17-.17-.46-.43-.81-.79-1.06-.36-.25-.78-.38-1.25-.38-.9,0-1.61,.33-2.14,1-.53,.67-.8,1.82-.8,3.44v7.37h-1.87Z"/><path d="M568.04,33.67l.25,2.02c-.52,.14-.98,.2-1.4,.2-.65,0-1.18-.13-1.57-.39-.4-.26-.67-.61-.82-1.06-.15-.45-.22-1.34-.22-2.68v-7.76h-1.37v-1.78h1.37v-3.34l1.87-1.37v4.71h1.89v1.78h-1.89v7.88c0,.73,.05,1.2,.17,1.41,.16,.3,.46,.46,.9,.46,.21,0,.49-.03,.83-.09Z"/><path d="M17,62.88l1.87-.36c.11,.95,.41,1.66,.9,2.12,.49,.46,1.14,.7,1.95,.7s1.44-.2,1.88-.6c.44-.4,.67-.91,.67-1.53,0-.53-.19-.95-.57-1.24-.26-.2-.9-.46-1.9-.76-1.46-.45-2.43-.83-2.92-1.14s-.87-.73-1.14-1.26-.41-1.12-.41-1.79c0-1.15,.37-2.09,1.1-2.81s1.76-1.08,3.06-1.08c.82,0,1.54,.15,2.16,.44s1.1,.69,1.43,1.19,.56,1.21,.69,2.15l-1.83,.3c-.17-1.47-.97-2.21-2.4-2.21-.81,0-1.42,.16-1.82,.49-.4,.33-.6,.74-.6,1.25s.19,.89,.57,1.18c.23,.17,.91,.44,2.04,.81,1.55,.49,2.55,.88,3.01,1.18,.46,.29,.81,.69,1.06,1.2,.25,.5,.38,1.1,.38,1.8,0,1.29-.41,2.33-1.23,3.13s-1.93,1.2-3.35,1.2c-2.65,0-4.19-1.45-4.61-4.34Z"/><path d="M38.36,62.57l1.93,.29c-.32,1.44-.9,2.52-1.75,3.26-.84,.73-1.89,1.1-3.13,1.1-1.57,0-2.83-.59-3.8-1.78-.97-1.19-1.45-2.91-1.45-5.15s.49-4.1,1.47-5.33c.98-1.22,2.22-1.83,3.71-1.83s2.62,.6,3.58,1.8,1.43,2.94,1.43,5.22v.61h-8.26c.08,1.51,.43,2.66,1.05,3.43s1.39,1.16,2.29,1.16c1.4,0,2.38-.92,2.93-2.77Zm-6.16-3.69h6.17c-.08-1.17-.33-2.04-.75-2.62-.6-.84-1.37-1.26-2.3-1.26-.84,0-1.55,.35-2.15,1.05-.59,.7-.92,1.64-.98,2.83Z"/><path d="M52.71,62.88l1.87-.36c.11,.95,.41,1.66,.9,2.12,.49,.46,1.14,.7,1.95,.7s1.44-.2,1.88-.6c.44-.4,.67-.91,.67-1.53,0-.53-.19-.95-.57-1.24-.26-.2-.9-.46-1.9-.76-1.46-.45-2.43-.83-2.92-1.14s-.87-.73-1.14-1.26-.41-1.12-.41-1.79c0-1.15,.37-2.09,1.1-2.81s1.76-1.08,3.06-1.08c.82,0,1.54,.15,2.16,.44s1.1,.69,1.43,1.19,.56,1.21,.69,2.15l-1.83,.3c-.17-1.47-.97-2.21-2.4-2.21-.81,0-1.42,.16-1.82,.49-.4,.33-.6,.74-.6,1.25s.19,.89,.57,1.18c.23,.17,.91,.44,2.04,.81,1.55,.49,2.55,.88,3.01,1.18,.46,.29,.81,.69,1.06,1.2,.25,.5,.38,1.1,.38,1.8,0,1.29-.41,2.33-1.23,3.13s-1.93,1.2-3.35,1.2c-2.65,0-4.19-1.45-4.61-4.34Z"/><path d="M66.45,72.11l-.2-2.15c.42,.14,.77,.2,1.07,.2,.4,0,.73-.08,.98-.24,.26-.16,.47-.41,.64-.75,.06-.12,.3-.87,.74-2.24l-4.21-13.5h2.02l2.31,7.8c.29,.97,.55,2.01,.8,3.12,.21-1.05,.46-2.07,.76-3.07l2.36-7.85h1.88l-4.2,13.71c-.55,1.78-.98,2.96-1.3,3.56-.32,.6-.68,1.03-1.08,1.29-.4,.26-.86,.39-1.37,.39-.36,0-.76-.09-1.21-.28Z"/><path d="M79.59,66.91v-13.48h1.69v1.9c.41-.74,.9-1.29,1.49-1.66s1.26-.55,2.02-.55c.59,0,1.14,.12,1.64,.35,.5,.23,.91,.54,1.22,.91,.31,.38,.54,.87,.69,1.47,.15,.6,.23,1.52,.23,2.77v8.29h-1.87v-8.21c0-.99-.08-1.72-.25-2.17-.17-.46-.43-.81-.79-1.06-.36-.25-.78-.38-1.25-.38-.9,0-1.61,.33-2.15,1-.53,.67-.8,1.82-.8,3.44v7.37h-1.87Z"/><path d="M101.1,61.97l1.84,.29c-.21,1.61-.74,2.83-1.59,3.68-.85,.85-1.87,1.27-3.07,1.27-1.45,0-2.64-.59-3.57-1.78-.94-1.19-1.4-2.95-1.4-5.28s.47-4.1,1.42-5.28c.94-1.17,2.16-1.76,3.64-1.76,1.14,0,2.11,.36,2.89,1.07,.78,.71,1.29,1.78,1.5,3.2l-1.82,.33c-.18-.91-.49-1.59-.93-2.04-.44-.45-.97-.68-1.59-.68-.92,0-1.69,.41-2.29,1.22-.61,.82-.91,2.11-.91,3.89s.29,3.17,.87,3.99c.58,.82,1.32,1.23,2.23,1.23,.71,0,1.32-.27,1.82-.82,.5-.55,.82-1.39,.96-2.55Z"/><path d="M106.95,66.91v-18.61h1.87v6.68c.44-.62,.94-1.08,1.49-1.39,.55-.31,1.17-.46,1.83-.46,1.18,0,2.11,.38,2.79,1.12,.68,.75,1.02,2.12,1.02,4.12v8.54h-1.87v-8.54c0-1.17-.21-2.01-.62-2.51s-.99-.76-1.71-.76c-.81,0-1.5,.33-2.08,.98-.57,.65-.86,1.81-.86,3.47v7.38h-1.87Z"/><path d="M121.23,66.91v-13.48h1.69v2.04c.43-.95,.83-1.58,1.19-1.89,.36-.31,.76-.46,1.21-.46,.63,0,1.27,.25,1.92,.74l-.63,2.12c-.47-.33-.92-.5-1.36-.5-.4,0-.76,.14-1.09,.42s-.56,.67-.7,1.17c-.24,.87-.36,1.8-.36,2.78v7.06h-1.87Z"/><path d="M130.03,60.17c0-2.33,.49-4.08,1.47-5.27,.98-1.18,2.22-1.78,3.71-1.78s2.7,.59,3.69,1.78,1.49,2.89,1.49,5.13c0,2.42-.49,4.22-1.46,5.41s-2.21,1.78-3.72,1.78-2.71-.59-3.7-1.78c-.99-1.19-1.48-2.94-1.48-5.26Zm1.92,0c0,1.75,.32,3.04,.95,3.9s1.42,1.28,2.36,1.28c.88,0,1.64-.43,2.27-1.29,.63-.86,.95-2.15,.95-3.88s-.32-3.03-.95-3.88-1.42-1.28-2.36-1.28c-.89,0-1.65,.43-2.27,1.28-.63,.86-.94,2.15-.94,3.88Z"/><path d="M145.02,66.91v-13.48h1.69v1.9c.41-.74,.9-1.29,1.49-1.66s1.26-.55,2.02-.55c.59,0,1.14,.12,1.64,.35,.5,.23,.91,.54,1.22,.91,.31,.38,.54,.87,.69,1.47,.15,.6,.23,1.52,.23,2.77v8.29h-1.87v-8.21c0-.99-.08-1.72-.25-2.17-.17-.46-.43-.81-.79-1.06-.36-.25-.78-.38-1.25-.38-.9,0-1.61,.33-2.15,1-.53,.67-.8,1.82-.8,3.44v7.37h-1.87Z"/><path d="M159.29,50.93v-2.63h1.87v2.63h-1.87Zm0,15.98v-13.48h1.87v13.48h-1.87Z"/><path d="M165.72,62.88l1.87-.36c.11,.95,.41,1.66,.9,2.12,.49,.46,1.14,.7,1.95,.7s1.44-.2,1.88-.6c.44-.4,.67-.91,.67-1.53,0-.53-.19-.95-.57-1.24-.26-.2-.9-.46-1.9-.76-1.46-.45-2.43-.83-2.92-1.14s-.87-.73-1.14-1.26-.41-1.12-.41-1.79c0-1.15,.37-2.09,1.1-2.81s1.76-1.08,3.06-1.08c.82,0,1.54,.15,2.17,.44,.62,.3,1.1,.69,1.43,1.19s.56,1.21,.69,2.15l-1.83,.3c-.17-1.47-.97-2.21-2.4-2.21-.81,0-1.42,.16-1.82,.49-.4,.33-.6,.74-.6,1.25s.19,.89,.57,1.18c.23,.17,.91,.44,2.04,.81,1.55,.49,2.55,.88,3.01,1.18,.46,.29,.81,.69,1.06,1.2,.25,.5,.38,1.1,.38,1.8,0,1.29-.41,2.33-1.23,3.13-.82,.8-1.93,1.2-3.34,1.2-2.65,0-4.19-1.45-4.61-4.34Z"/><path d="M187.08,62.57l1.93,.29c-.32,1.44-.9,2.52-1.75,3.26-.84,.73-1.88,1.1-3.13,1.1-1.57,0-2.83-.59-3.8-1.78-.97-1.19-1.45-2.91-1.45-5.15s.49-4.1,1.47-5.33c.98-1.22,2.21-1.83,3.71-1.83s2.62,.6,3.58,1.8,1.43,2.94,1.43,5.22v.61h-8.26c.08,1.51,.43,2.66,1.05,3.43s1.39,1.16,2.29,1.16c1.41,0,2.38-.92,2.93-2.77Zm-6.16-3.69h6.17c-.08-1.17-.33-2.04-.75-2.62-.6-.84-1.37-1.26-2.3-1.26-.84,0-1.55,.35-2.15,1.05-.59,.7-.92,1.64-.98,2.83Z"/><path d="M193.8,66.91v-13.48h1.69v2.04c.43-.95,.83-1.58,1.19-1.89,.36-.31,.76-.46,1.21-.46,.63,0,1.27,.25,1.92,.74l-.63,2.12c-.47-.33-.92-.5-1.36-.5-.4,0-.76,.14-1.09,.42s-.56,.67-.7,1.17c-.24,.87-.36,1.8-.36,2.78v7.06h-1.87Z"/><path d="M219.22,62.57l1.93,.29c-.32,1.44-.9,2.52-1.75,3.26-.84,.73-1.88,1.1-3.13,1.1-1.57,0-2.83-.59-3.8-1.78-.97-1.19-1.45-2.91-1.45-5.15s.49-4.1,1.47-5.33c.98-1.22,2.21-1.83,3.71-1.83s2.62,.6,3.58,1.8,1.43,2.94,1.43,5.22v.61h-8.26c.08,1.51,.43,2.66,1.05,3.43s1.39,1.16,2.29,1.16c1.41,0,2.38-.92,2.93-2.77Zm-6.16-3.69h6.17c-.08-1.17-.33-2.04-.75-2.62-.6-.84-1.37-1.26-2.3-1.26-.84,0-1.55,.35-2.15,1.05-.59,.7-.92,1.64-.98,2.83Z"/><path d="M230.1,64.87l.25,2.02c-.52,.14-.98,.2-1.4,.2-.65,0-1.18-.13-1.57-.39-.4-.26-.67-.61-.82-1.06-.15-.45-.22-1.34-.22-2.68v-7.76h-1.37v-1.78h1.37v-3.34l1.87-1.37v4.71h1.89v1.78h-1.89v7.88c0,.73,.05,1.2,.17,1.41,.16,.3,.46,.46,.9,.46,.21,0,.49-.03,.83-.09Z"/><path d="M246.8,64.87l.25,2.02c-.52,.14-.98,.2-1.4,.2-.65,0-1.18-.13-1.57-.39-.4-.26-.67-.61-.82-1.06-.15-.45-.22-1.34-.22-2.68v-7.76h-1.37v-1.78h1.37v-3.34l1.87-1.37v4.71h1.89v1.78h-1.89v7.88c0,.73,.05,1.2,.17,1.41,.16,.3,.46,.46,.9,.46,.21,0,.49-.03,.83-.09Z"/><path d="M250.27,60.17c0-2.33,.49-4.08,1.47-5.27,.98-1.18,2.22-1.78,3.71-1.78s2.7,.59,3.69,1.78,1.49,2.89,1.49,5.13c0,2.42-.49,4.22-1.46,5.41s-2.21,1.78-3.72,1.78-2.71-.59-3.7-1.78c-.99-1.19-1.48-2.94-1.48-5.26Zm1.92,0c0,1.75,.32,3.04,.95,3.9s1.42,1.28,2.36,1.28c.88,0,1.64-.43,2.27-1.29,.63-.86,.95-2.15,.95-3.88s-.32-3.03-.95-3.88-1.42-1.28-2.36-1.28c-.89,0-1.65,.43-2.27,1.28-.63,.86-.94,2.15-.94,3.88Z"/><path d="M272.49,66.91v-1.98c-.43,.76-.94,1.33-1.52,1.71s-1.24,.57-1.98,.57c-.87,0-1.62-.23-2.23-.71-.62-.47-1.03-1.06-1.24-1.78-.21-.72-.31-1.7-.31-2.95v-8.35h1.87v7.48c0,1.39,.07,2.32,.21,2.79,.14,.47,.4,.85,.78,1.13,.38,.28,.81,.42,1.29,.42,.9,0,1.63-.37,2.21-1.1,.49-.63,.74-1.8,.74-3.49v-7.22h1.88v13.48h-1.68Z"/><path d="M279.53,66.91v-13.48h1.69v2.04c.43-.95,.83-1.58,1.19-1.89,.36-.31,.76-.46,1.21-.46,.63,0,1.27,.25,1.92,.74l-.63,2.12c-.47-.33-.92-.5-1.36-.5-.4,0-.76,.14-1.09,.42s-.56,.67-.7,1.17c-.24,.87-.36,1.8-.36,2.78v7.06h-1.87Z"/><path d="M289.05,66.91v-13.48h1.69v1.9c.41-.74,.9-1.29,1.49-1.66s1.26-.55,2.02-.55c.59,0,1.14,.12,1.64,.35,.5,.23,.91,.54,1.22,.91,.31,.38,.54,.87,.69,1.47,.15,.6,.23,1.52,.23,2.77v8.29h-1.87v-8.21c0-.99-.08-1.72-.25-2.17-.17-.46-.43-.81-.79-1.06-.36-.25-.78-.38-1.25-.38-.9,0-1.61,.33-2.15,1-.53,.67-.8,1.82-.8,3.44v7.37h-1.87Z"/><path d="M310.87,62.57l1.93,.29c-.32,1.44-.9,2.52-1.75,3.26-.84,.73-1.88,1.1-3.13,1.1-1.56,0-2.83-.59-3.8-1.78-.97-1.19-1.45-2.91-1.45-5.15s.49-4.1,1.47-5.33c.98-1.22,2.21-1.83,3.71-1.83s2.62,.6,3.58,1.8c.96,1.2,1.44,2.94,1.44,5.22v.61h-8.27c.08,1.51,.43,2.66,1.05,3.43,.62,.77,1.39,1.16,2.29,1.16,1.4,0,2.38-.92,2.93-2.77Zm-6.16-3.69h6.17c-.09-1.17-.33-2.04-.75-2.62-.6-.84-1.37-1.26-2.3-1.26-.84,0-1.55,.35-2.15,1.05-.59,.7-.92,1.64-.98,2.83Z"/><path d="M317.6,66.91v-13.48h1.69v2.04c.43-.95,.83-1.58,1.19-1.89,.36-.31,.76-.46,1.21-.46,.62,0,1.27,.25,1.92,.74l-.63,2.12c-.46-.33-.92-.5-1.36-.5-.4,0-.76,.14-1.09,.42s-.56,.67-.7,1.17c-.24,.87-.36,1.8-.36,2.78v7.06h-1.87Z"/><path d="M342.62,66.91v-1.7c-.34,.65-.78,1.15-1.31,1.49-.53,.34-1.11,.51-1.73,.51-1.3,0-2.43-.62-3.38-1.85-.95-1.23-1.43-2.96-1.43-5.2,0-1.53,.21-2.83,.63-3.9s.99-1.86,1.69-2.37c.71-.52,1.49-.77,2.35-.77,.62,0,1.19,.16,1.72,.49,.53,.33,.96,.78,1.31,1.37v-6.68h1.89v18.61h-1.75Zm-5.93-6.73c0,1.74,.3,3.04,.91,3.88s1.31,1.27,2.12,1.27,1.49-.41,2.07-1.22c.59-.81,.88-2.04,.88-3.68,0-1.89-.29-3.26-.88-4.13-.58-.87-1.32-1.3-2.21-1.3-.79,0-1.47,.42-2.03,1.25-.57,.83-.85,2.14-.85,3.93Z"/><path d="M356.93,65.25c-.62,.65-1.28,1.14-1.96,1.47-.68,.33-1.38,.5-2.11,.5-1.15,0-2.07-.35-2.75-1.04s-1.03-1.63-1.03-2.81c0-.78,.16-1.47,.48-2.07,.32-.6,.76-1.07,1.32-1.41s1.41-.59,2.54-.75c1.52-.22,2.64-.49,3.35-.8v-.58c.01-.92-.15-1.57-.48-1.94-.46-.54-1.18-.81-2.14-.81-.87,0-1.52,.18-1.96,.54s-.75,1.04-.95,2.04l-1.84-.3c.26-1.45,.79-2.5,1.59-3.16,.8-.66,1.95-.99,3.44-.99,1.16,0,2.07,.22,2.73,.65,.66,.44,1.08,.97,1.25,1.62,.17,.64,.26,1.58,.26,2.82v3.05c0,2.13,.04,3.48,.12,4.03,.08,.55,.24,1.09,.48,1.62h-1.96c-.19-.47-.32-1.02-.38-1.66Zm-.15-5.1c-.69,.34-1.71,.63-3.06,.86-.79,.14-1.34,.29-1.65,.46-.31,.17-.56,.42-.73,.74-.17,.32-.26,.68-.26,1.1,0,.64,.2,1.16,.6,1.54,.4,.38,.95,.58,1.65,.58s1.28-.17,1.82-.52c.54-.35,.96-.81,1.22-1.39,.27-.58,.41-1.42,.41-2.53v-.84Z"/><path d="M364.01,66.91v-13.48h1.69v1.9c.41-.74,.9-1.29,1.49-1.66,.59-.37,1.26-.55,2.02-.55,.59,0,1.14,.12,1.64,.35,.5,.23,.91,.54,1.22,.91,.31,.38,.54,.87,.69,1.47,.15,.6,.23,1.52,.23,2.77v8.29h-1.87v-8.21c0-.99-.09-1.72-.25-2.17-.17-.46-.43-.81-.79-1.06-.36-.25-.78-.38-1.25-.38-.9,0-1.61,.33-2.14,1-.53,.67-.8,1.82-.8,3.44v7.37h-1.87Z"/><path d="M377.56,62.88l1.87-.36c.11,.95,.41,1.66,.9,2.12,.49,.46,1.14,.7,1.95,.7s1.44-.2,1.88-.6c.44-.4,.66-.91,.66-1.53,0-.53-.19-.95-.57-1.24-.26-.2-.9-.46-1.9-.76-1.46-.45-2.43-.83-2.92-1.14-.49-.31-.87-.73-1.14-1.26-.27-.52-.41-1.12-.41-1.79,0-1.15,.37-2.09,1.1-2.81s1.76-1.08,3.06-1.08c.82,0,1.54,.15,2.16,.44,.62,.3,1.1,.69,1.43,1.19s.56,1.21,.69,2.15l-1.83,.3c-.17-1.47-.97-2.21-2.4-2.21-.81,0-1.42,.16-1.82,.49-.4,.33-.6,.74-.6,1.25s.19,.89,.57,1.18c.23,.17,.91,.44,2.04,.81,1.55,.49,2.55,.88,3.01,1.18,.46,.29,.81,.69,1.06,1.2,.25,.5,.38,1.1,.38,1.8,0,1.29-.41,2.33-1.23,3.13-.82,.8-1.93,1.2-3.34,1.2-2.65,0-4.19-1.45-4.61-4.34Z"/><path d="M399.65,66.91v-18.61h1.87v18.61h-1.87Z"/><path d="M414.42,62.57l1.93,.29c-.32,1.44-.9,2.52-1.75,3.26-.84,.73-1.88,1.1-3.13,1.1-1.56,0-2.83-.59-3.8-1.78-.97-1.19-1.45-2.91-1.45-5.15s.49-4.1,1.47-5.33c.98-1.22,2.21-1.83,3.71-1.83s2.62,.6,3.58,1.8c.96,1.2,1.44,2.94,1.44,5.22v.61h-8.27c.08,1.51,.43,2.66,1.05,3.43,.62,.77,1.39,1.16,2.29,1.16,1.4,0,2.38-.92,2.93-2.77Zm-6.16-3.69h6.17c-.09-1.17-.33-2.04-.75-2.62-.6-.84-1.37-1.26-2.3-1.26-.84,0-1.55,.35-2.15,1.05-.59,.7-.92,1.64-.98,2.83Z"/><path d="M429.5,66.91v-13.48h1.68v1.88c.37-.7,.85-1.24,1.43-1.62s1.22-.57,1.91-.57c.78,0,1.43,.2,1.97,.6,.54,.4,.92,.98,1.15,1.75,.44-.78,.95-1.37,1.52-1.76,.57-.39,1.21-.59,1.9-.59,1.06,0,1.9,.36,2.51,1.08s.92,1.87,.92,3.45v9.25h-1.87v-8.5c0-.97-.07-1.65-.21-2.05s-.37-.71-.68-.93c-.31-.22-.67-.33-1.06-.33-.81,0-1.47,.32-1.98,.96-.51,.64-.77,1.65-.77,3.02v7.84h-1.87v-8.77c0-1.12-.17-1.91-.51-2.36-.34-.46-.81-.69-1.42-.69-.85,0-1.53,.35-2.02,1.04-.5,.69-.74,1.95-.74,3.78v7h-1.87Z"/><path d="M457.22,62.57l1.93,.29c-.32,1.44-.9,2.52-1.75,3.26-.84,.73-1.88,1.1-3.13,1.1-1.56,0-2.83-.59-3.8-1.78-.97-1.19-1.45-2.91-1.45-5.15s.49-4.1,1.47-5.33c.98-1.22,2.21-1.83,3.71-1.83s2.62,.6,3.58,1.8c.96,1.2,1.44,2.94,1.44,5.22v.61h-8.27c.08,1.51,.43,2.66,1.05,3.43,.62,.77,1.39,1.16,2.29,1.16,1.4,0,2.38-.92,2.93-2.77Zm-6.16-3.69h6.17c-.09-1.17-.33-2.04-.75-2.62-.6-.84-1.37-1.26-2.3-1.26-.84,0-1.55,.35-2.15,1.05-.59,.7-.92,1.64-.98,2.83Zm3.43-9.28l-1.18,2.16h-2.13l2.25-3.55h2.01l2.34,3.55h-2.13l-1.14-2.16Z"/><path d="M463.95,66.91v-13.48h1.68v1.88c.37-.7,.85-1.24,1.43-1.62,.58-.38,1.22-.57,1.91-.57,.78,0,1.44,.2,1.97,.6,.54,.4,.92,.98,1.15,1.75,.44-.78,.95-1.37,1.52-1.76,.57-.39,1.21-.59,1.9-.59,1.06,0,1.9,.36,2.51,1.08s.92,1.87,.92,3.45v9.25h-1.87v-8.5c0-.97-.07-1.65-.21-2.05s-.37-.71-.68-.93c-.31-.22-.67-.33-1.06-.33-.81,0-1.47,.32-1.98,.96-.51,.64-.77,1.65-.77,3.02v7.84h-1.87v-8.77c0-1.12-.17-1.91-.52-2.36-.34-.46-.81-.69-1.41-.69-.86,0-1.53,.35-2.03,1.04-.5,.69-.74,1.95-.74,3.78v7h-1.87Z"/><path d="M491.67,62.57l1.93,.29c-.32,1.44-.9,2.52-1.75,3.26-.84,.73-1.88,1.1-3.13,1.1-1.57,0-2.83-.59-3.8-1.78-.97-1.19-1.45-2.91-1.45-5.15s.49-4.1,1.47-5.33c.98-1.22,2.21-1.83,3.71-1.83s2.62,.6,3.58,1.8c.96,1.2,1.43,2.94,1.43,5.22v.61h-8.26c.08,1.51,.43,2.66,1.05,3.43,.63,.77,1.39,1.16,2.29,1.16,1.41,0,2.38-.92,2.93-2.77Zm-6.16-3.69h6.17c-.08-1.17-.33-2.04-.75-2.62-.6-.84-1.37-1.26-2.3-1.26-.84,0-1.55,.35-2.14,1.05-.59,.7-.92,1.64-.98,2.83Z"/><path d="M506.02,62.88l1.87-.36c.11,.95,.41,1.66,.9,2.12,.49,.46,1.14,.7,1.95,.7s1.44-.2,1.88-.6c.44-.4,.66-.91,.66-1.53,0-.53-.19-.95-.57-1.24-.26-.2-.9-.46-1.9-.76-1.46-.45-2.43-.83-2.92-1.14-.49-.31-.87-.73-1.14-1.26-.27-.52-.41-1.12-.41-1.79,0-1.15,.37-2.09,1.1-2.81s1.76-1.08,3.06-1.08c.82,0,1.54,.15,2.16,.44,.62,.3,1.1,.69,1.43,1.19s.56,1.21,.69,2.15l-1.83,.3c-.17-1.47-.97-2.21-2.4-2.21-.81,0-1.42,.16-1.82,.49-.4,.33-.6,.74-.6,1.25s.19,.89,.57,1.18c.23,.17,.91,.44,2.04,.81,1.55,.49,2.55,.88,3.01,1.18,.46,.29,.81,.69,1.06,1.2,.25,.5,.38,1.1,.38,1.8,0,1.29-.41,2.33-1.23,3.13-.82,.8-1.93,1.2-3.34,1.2-2.65,0-4.19-1.45-4.61-4.34Z"/><path d="M527.38,62.57l1.93,.29c-.32,1.44-.9,2.52-1.75,3.26-.84,.73-1.88,1.1-3.13,1.1-1.56,0-2.83-.59-3.8-1.78-.97-1.19-1.45-2.91-1.45-5.15s.49-4.1,1.47-5.33c.98-1.22,2.21-1.83,3.71-1.83s2.62,.6,3.58,1.8c.96,1.2,1.44,2.94,1.44,5.22v.61h-8.27c.08,1.51,.43,2.66,1.05,3.43,.62,.77,1.39,1.16,2.29,1.16,1.4,0,2.38-.92,2.93-2.77Zm-6.16-3.69h6.17c-.09-1.17-.33-2.04-.75-2.62-.6-.84-1.37-1.26-2.3-1.26-.84,0-1.55,.35-2.15,1.05-.59,.7-.92,1.64-.98,2.83Z"/><path d="M534.1,66.91v-13.48h1.69v1.9c.41-.74,.9-1.29,1.49-1.66,.59-.37,1.26-.55,2.02-.55,.59,0,1.14,.12,1.64,.35,.5,.23,.91,.54,1.22,.91,.31,.38,.54,.87,.69,1.47,.15,.6,.23,1.52,.23,2.77v8.29h-1.87v-8.21c0-.99-.09-1.72-.25-2.17-.17-.46-.43-.81-.79-1.06-.36-.25-.78-.38-1.25-.38-.9,0-1.61,.33-2.14,1-.53,.67-.8,1.82-.8,3.44v7.37h-1.87Z"/><path d="M547.65,62.88l1.87-.36c.11,.95,.41,1.66,.9,2.12,.49,.46,1.14,.7,1.95,.7s1.44-.2,1.88-.6c.44-.4,.66-.91,.66-1.53,0-.53-.19-.95-.57-1.24-.26-.2-.9-.46-1.9-.76-1.46-.45-2.43-.83-2.92-1.14-.49-.31-.87-.73-1.14-1.26-.27-.52-.41-1.12-.41-1.79,0-1.15,.37-2.09,1.1-2.81s1.76-1.08,3.06-1.08c.82,0,1.54,.15,2.16,.44,.62,.3,1.1,.69,1.43,1.19s.56,1.21,.69,2.15l-1.83,.3c-.17-1.47-.97-2.21-2.4-2.21-.81,0-1.42,.16-1.82,.49-.4,.33-.6,.74-.6,1.25s.19,.89,.57,1.18c.23,.17,.91,.44,2.04,.81,1.55,.49,2.55,.88,3.01,1.18,.46,.29,.81,.69,1.06,1.2,.25,.5,.38,1.1,.38,1.8,0,1.29-.41,2.33-1.23,3.13-.82,.8-1.93,1.2-3.34,1.2-2.65,0-4.19-1.45-4.61-4.34Z"/><path d="M562.04,66.91v-2.6h2.13v2.6h-2.13Z"/><path d="M28.82,91.59l2.03,.62c-.45,2.09-1.23,3.65-2.35,4.68-1.12,1.03-2.49,1.54-4.09,1.54-1.41,0-2.62-.34-3.62-1.04s-1.82-1.8-2.46-3.32-.96-3.32-.96-5.4,.32-3.78,.96-5.2c.64-1.42,1.51-2.49,2.6-3.21,1.09-.72,2.31-1.09,3.66-1.09,1.47,0,2.74,.46,3.8,1.37,1.06,.92,1.8,2.26,2.22,4.03l-1.98,.57c-.68-2.58-2.04-3.87-4.08-3.87-1.02,0-1.9,.26-2.64,.78-.75,.52-1.34,1.33-1.79,2.43-.45,1.1-.67,2.49-.67,4.18,0,2.55,.45,4.46,1.35,5.74s2.09,1.91,3.58,1.91c1.1,0,2.05-.39,2.85-1.17,.8-.78,1.33-1.97,1.61-3.56Z"/><path d="M43.08,93.77l1.93,.29c-.32,1.44-.9,2.52-1.75,3.26-.84,.73-1.89,1.1-3.13,1.1-1.57,0-2.83-.59-3.8-1.78-.97-1.19-1.45-2.91-1.45-5.15s.49-4.1,1.47-5.33c.98-1.22,2.22-1.83,3.71-1.83s2.62,.6,3.58,1.8,1.43,2.94,1.43,5.22v.61h-8.26c.08,1.51,.43,2.66,1.05,3.43s1.39,1.16,2.29,1.16c1.4,0,2.38-.92,2.93-2.77Zm-6.16-3.69h6.17c-.08-1.17-.33-2.04-.75-2.62-.6-.84-1.37-1.26-2.3-1.26-.84,0-1.55,.35-2.15,1.05-.59,.7-.92,1.64-.98,2.83Z"/><path d="M53.97,96.07l.25,2.02c-.52,.14-.98,.2-1.4,.2-.65,0-1.18-.13-1.57-.39-.4-.26-.67-.61-.82-1.06s-.22-1.34-.22-2.68v-7.76h-1.37v-1.78h1.37v-3.34l1.87-1.37v4.71h1.89v1.78h-1.89v7.88c0,.73,.06,1.2,.17,1.41,.16,.3,.46,.46,.9,.46,.21,0,.49-.03,.83-.09Z"/><path d="M62.32,96.07l.25,2.02c-.52,.14-.98,.2-1.4,.2-.65,0-1.18-.13-1.57-.39-.4-.26-.67-.61-.82-1.06s-.22-1.34-.22-2.68v-7.76h-1.37v-1.78h1.37v-3.34l1.87-1.37v4.71h1.89v1.78h-1.89v7.88c0,.73,.06,1.2,.17,1.41,.16,.3,.46,.46,.9,.46,.21,0,.49-.03,.83-.09Z"/><path d="M74.05,93.77l1.93,.29c-.32,1.44-.9,2.52-1.75,3.26-.84,.73-1.88,1.1-3.13,1.1-1.57,0-2.83-.59-3.8-1.78-.97-1.19-1.45-2.91-1.45-5.15s.49-4.1,1.47-5.33c.98-1.22,2.22-1.83,3.71-1.83s2.62,.6,3.58,1.8c.96,1.2,1.43,2.94,1.43,5.22v.61h-8.26c.08,1.51,.43,2.66,1.05,3.43s1.39,1.16,2.28,1.16c1.41,0,2.38-.92,2.93-2.77Zm-6.16-3.69h6.17c-.08-1.17-.33-2.04-.75-2.62-.6-.84-1.37-1.26-2.3-1.26-.84,0-1.55,.35-2.15,1.05-.59,.7-.92,1.64-.98,2.83Z"/><path d="M89.12,98.11v-13.48h1.69v2.04c.43-.95,.83-1.58,1.19-1.89,.36-.31,.76-.46,1.21-.46,.63,0,1.27,.25,1.92,.74l-.63,2.12c-.47-.33-.92-.5-1.36-.5-.4,0-.76,.14-1.09,.42s-.56,.67-.7,1.17c-.24,.87-.36,1.8-.36,2.78v7.06h-1.87Z"/><path d="M97.92,91.37c0-2.33,.49-4.08,1.47-5.27,.98-1.18,2.22-1.78,3.71-1.78s2.7,.59,3.69,1.78,1.49,2.89,1.49,5.13c0,2.42-.49,4.22-1.46,5.41s-2.21,1.78-3.72,1.78-2.71-.59-3.7-1.78c-.99-1.19-1.48-2.94-1.48-5.26Zm1.92,0c0,1.75,.32,3.04,.95,3.9s1.42,1.28,2.36,1.28c.88,0,1.64-.43,2.27-1.29,.63-.86,.95-2.15,.95-3.88s-.32-3.03-.95-3.88-1.42-1.28-2.36-1.28c-.89,0-1.65,.43-2.27,1.28-.63,.86-.94,2.15-.94,3.88Z"/><path d="M117.07,96.07l.25,2.02c-.52,.14-.98,.2-1.4,.2-.65,0-1.18-.13-1.57-.39-.4-.26-.67-.61-.82-1.06-.15-.45-.22-1.34-.22-2.68v-7.76h-1.37v-1.78h1.37v-3.34l1.87-1.37v4.71h1.89v1.78h-1.89v7.88c0,.73,.05,1.2,.17,1.41,.16,.3,.46,.46,.9,.46,.21,0,.49-.03,.83-.09Z"/><path d="M128.46,96.45c-.63,.65-1.28,1.14-1.96,1.47s-1.38,.5-2.11,.5c-1.15,0-2.07-.35-2.75-1.04s-1.03-1.63-1.03-2.81c0-.78,.16-1.47,.48-2.07s.76-1.07,1.32-1.41,1.41-.59,2.54-.75c1.52-.22,2.64-.49,3.35-.8v-.58c.01-.92-.15-1.57-.48-1.94-.47-.54-1.18-.81-2.15-.81-.87,0-1.52,.18-1.96,.54s-.75,1.04-.95,2.04l-1.84-.3c.26-1.45,.79-2.5,1.59-3.16,.8-.66,1.95-.99,3.43-.99,1.16,0,2.07,.22,2.73,.65,.66,.44,1.08,.97,1.25,1.62,.17,.64,.26,1.58,.26,2.82v3.05c0,2.13,.04,3.48,.12,4.03,.08,.55,.24,1.09,.48,1.62h-1.96c-.19-.47-.32-1.02-.38-1.66Zm-.15-5.1c-.69,.34-1.71,.63-3.06,.86-.79,.14-1.34,.29-1.65,.46-.31,.17-.56,.42-.73,.74-.17,.32-.26,.68-.26,1.1,0,.64,.2,1.16,.6,1.54,.4,.38,.95,.58,1.65,.58s1.28-.17,1.82-.52c.54-.35,.95-.81,1.22-1.39,.27-.58,.41-1.42,.41-2.53v-.84Z"/><path d="M139.7,96.07l.25,2.02c-.52,.14-.98,.2-1.4,.2-.65,0-1.18-.13-1.57-.39-.4-.26-.67-.61-.82-1.06-.15-.45-.22-1.34-.22-2.68v-7.76h-1.37v-1.78h1.37v-3.34l1.87-1.37v4.71h1.89v1.78h-1.89v7.88c0,.73,.05,1.2,.17,1.41,.16,.3,.46,.46,.9,.46,.21,0,.49-.03,.83-.09Z"/><path d="M143.88,82.13v-2.63h1.87v2.63h-1.87Zm0,15.98v-13.48h1.87v13.48h-1.87Z"/><path d="M150.32,91.37c0-2.33,.49-4.08,1.47-5.27,.98-1.18,2.22-1.78,3.71-1.78s2.7,.59,3.69,1.78,1.49,2.89,1.49,5.13c0,2.42-.49,4.22-1.46,5.41s-2.21,1.78-3.72,1.78-2.71-.59-3.7-1.78c-.99-1.19-1.48-2.94-1.48-5.26Zm1.92,0c0,1.75,.32,3.04,.95,3.9s1.42,1.28,2.36,1.28c.88,0,1.64-.43,2.27-1.29,.63-.86,.95-2.15,.95-3.88s-.32-3.03-.95-3.88-1.42-1.28-2.36-1.28c-.89,0-1.65,.43-2.27,1.28-.63,.86-.94,2.15-.94,3.88Z"/><path d="M165.31,98.11v-13.48h1.69v1.9c.41-.74,.9-1.29,1.49-1.66s1.26-.55,2.02-.55c.59,0,1.14,.12,1.64,.35,.5,.23,.91,.54,1.22,.91,.31,.38,.54,.87,.69,1.47,.15,.6,.23,1.52,.23,2.77v8.29h-1.87v-8.21c0-.99-.08-1.72-.25-2.17-.17-.46-.43-.81-.79-1.06-.36-.25-.78-.38-1.25-.38-.9,0-1.61,.33-2.15,1-.53,.67-.8,1.82-.8,3.44v7.37h-1.87Z"/><path d="M187.21,94.08l1.87-.36c.11,.95,.41,1.66,.9,2.12,.49,.46,1.14,.7,1.95,.7s1.44-.2,1.88-.6c.44-.4,.67-.91,.67-1.53,0-.53-.19-.95-.57-1.24-.26-.2-.9-.46-1.9-.76-1.46-.45-2.43-.83-2.92-1.14s-.87-.73-1.14-1.26-.41-1.12-.41-1.79c0-1.15,.37-2.09,1.1-2.81s1.76-1.08,3.06-1.08c.82,0,1.54,.15,2.17,.44,.62,.3,1.1,.69,1.43,1.19s.56,1.21,.69,2.15l-1.83,.3c-.17-1.47-.97-2.21-2.4-2.21-.81,0-1.42,.16-1.82,.49-.4,.33-.6,.74-.6,1.25s.19,.89,.57,1.18c.23,.17,.91,.44,2.04,.81,1.55,.49,2.55,.88,3.01,1.18,.46,.29,.81,.69,1.06,1.2,.25,.5,.38,1.1,.38,1.8,0,1.29-.41,2.33-1.23,3.13-.82,.8-1.93,1.2-3.34,1.2-2.65,0-4.19-1.45-4.61-4.34Z"/><path d="M200.95,103.31l-.2-2.15c.42,.14,.77,.2,1.07,.2,.4,0,.73-.08,.98-.24,.26-.16,.47-.41,.64-.75,.06-.12,.31-.87,.74-2.24l-4.21-13.5h2.02l2.31,7.8c.29,.97,.55,2.01,.8,3.12,.21-1.05,.47-2.07,.76-3.07l2.36-7.85h1.88l-4.19,13.71c-.55,1.78-.99,2.96-1.3,3.56-.32,.6-.68,1.03-1.08,1.29-.4,.26-.86,.39-1.37,.39-.36,0-.76-.09-1.21-.28Z"/><path d="M214.1,98.11v-13.48h1.69v1.9c.41-.74,.9-1.29,1.49-1.66s1.26-.55,2.02-.55c.59,0,1.14,.12,1.64,.35,.5,.23,.91,.54,1.22,.91,.31,.38,.54,.87,.69,1.47,.15,.6,.23,1.52,.23,2.77v8.29h-1.87v-8.21c0-.99-.08-1.72-.25-2.17-.17-.46-.43-.81-.79-1.06-.36-.25-.78-.38-1.25-.38-.9,0-1.61,.33-2.15,1-.53,.67-.8,1.82-.8,3.44v7.37h-1.87Z"/><path d="M235.61,93.17l1.84,.29c-.21,1.61-.74,2.83-1.59,3.68-.85,.85-1.87,1.27-3.07,1.27-1.45,0-2.64-.59-3.57-1.78-.94-1.19-1.4-2.95-1.4-5.28s.47-4.1,1.42-5.28c.94-1.17,2.16-1.76,3.64-1.76,1.14,0,2.11,.36,2.89,1.07,.78,.71,1.29,1.78,1.5,3.2l-1.82,.33c-.18-.91-.49-1.59-.93-2.04-.44-.45-.97-.68-1.59-.68-.92,0-1.69,.41-2.29,1.22-.61,.82-.91,2.11-.91,3.89s.29,3.17,.87,3.99c.58,.82,1.32,1.23,2.23,1.23,.71,0,1.32-.27,1.82-.82,.5-.55,.82-1.39,.96-2.55Z"/><path d="M241.45,98.11v-18.61h1.87v6.68c.44-.62,.94-1.08,1.49-1.39,.55-.31,1.17-.46,1.83-.46,1.18,0,2.11,.38,2.79,1.12,.68,.75,1.02,2.12,1.02,4.12v8.54h-1.87v-8.54c0-1.17-.21-2.01-.62-2.51s-.99-.76-1.71-.76c-.81,0-1.5,.33-2.08,.98-.57,.65-.86,1.81-.86,3.47v7.38h-1.87Z"/><path d="M255.73,98.11v-13.48h1.69v2.04c.43-.95,.83-1.58,1.19-1.89,.36-.31,.76-.46,1.21-.46,.63,0,1.27,.25,1.92,.74l-.63,2.12c-.47-.33-.92-.5-1.36-.5-.4,0-.76,.14-1.09,.42s-.56,.67-.7,1.17c-.24,.87-.36,1.8-.36,2.78v7.06h-1.87Z"/><path d="M264.53,91.37c0-2.33,.49-4.08,1.47-5.27,.98-1.18,2.22-1.78,3.71-1.78s2.7,.59,3.69,1.78,1.49,2.89,1.49,5.13c0,2.42-.49,4.22-1.46,5.41s-2.21,1.78-3.72,1.78-2.71-.59-3.7-1.78c-.99-1.19-1.48-2.94-1.48-5.26Zm1.92,0c0,1.75,.32,3.04,.95,3.9s1.42,1.28,2.36,1.28c.88,0,1.64-.43,2.27-1.29,.63-.86,.95-2.15,.95-3.88s-.32-3.03-.95-3.88-1.42-1.28-2.36-1.28c-.89,0-1.65,.43-2.27,1.28-.63,.86-.94,2.15-.94,3.88Z"/><path d="M279.52,98.11v-13.48h1.69v1.9c.41-.74,.9-1.29,1.49-1.66s1.26-.55,2.02-.55c.59,0,1.14,.12,1.64,.35,.5,.23,.91,.54,1.22,.91,.31,.38,.54,.87,.69,1.47,.15,.6,.23,1.52,.23,2.77v8.29h-1.87v-8.21c0-.99-.08-1.72-.25-2.17-.17-.46-.43-.81-.79-1.06-.36-.25-.78-.38-1.25-.38-.9,0-1.61,.33-2.15,1-.53,.67-.8,1.82-.8,3.44v7.37h-1.87Z"/><path d="M293.79,82.13v-2.63h1.87v2.63h-1.87Zm0,15.98v-13.48h1.87v13.48h-1.87Z"/><path d="M300.22,94.08l1.87-.36c.11,.95,.41,1.66,.9,2.12,.49,.46,1.14,.7,1.95,.7s1.44-.2,1.88-.6c.44-.4,.67-.91,.67-1.53,0-.53-.19-.95-.57-1.24-.26-.2-.9-.46-1.9-.76-1.46-.45-2.43-.83-2.92-1.14-.49-.31-.87-.73-1.14-1.26-.27-.52-.41-1.12-.41-1.79,0-1.15,.37-2.09,1.1-2.81,.74-.72,1.76-1.08,3.06-1.08,.82,0,1.54,.15,2.17,.44,.62,.3,1.1,.69,1.43,1.19s.56,1.21,.69,2.15l-1.83,.3c-.17-1.47-.97-2.21-2.4-2.21-.81,0-1.42,.16-1.81,.49-.4,.33-.6,.74-.6,1.25s.19,.89,.57,1.18c.23,.17,.91,.44,2.04,.81,1.55,.49,2.55,.88,3.01,1.18,.46,.29,.81,.69,1.06,1.2,.25,.5,.38,1.1,.38,1.8,0,1.29-.41,2.33-1.22,3.13s-1.93,1.2-3.35,1.2c-2.65,0-4.19-1.45-4.61-4.34Z"/><path d="M321.58,93.77l1.93,.29c-.32,1.44-.9,2.52-1.75,3.26-.84,.73-1.88,1.1-3.13,1.1-1.57,0-2.83-.59-3.8-1.78-.97-1.19-1.45-2.91-1.45-5.15s.49-4.1,1.47-5.33c.98-1.22,2.21-1.83,3.71-1.83s2.62,.6,3.58,1.8c.96,1.2,1.43,2.94,1.43,5.22v.61h-8.26c.08,1.51,.43,2.66,1.05,3.43,.63,.77,1.39,1.16,2.29,1.16,1.41,0,2.38-.92,2.93-2.77Zm-6.16-3.69h6.17c-.08-1.17-.33-2.04-.75-2.62-.6-.84-1.37-1.26-2.3-1.26-.84,0-1.55,.35-2.14,1.05-.59,.7-.92,1.64-.98,2.83Zm1.71-7.12l1.38-3.55h2.45l-2.29,3.55h-1.55Z"/><path d="M335.86,93.77l1.93,.29c-.32,1.44-.9,2.52-1.75,3.26-.84,.73-1.88,1.1-3.13,1.1-1.57,0-2.83-.59-3.8-1.78-.97-1.19-1.45-2.91-1.45-5.15s.49-4.1,1.47-5.33c.98-1.22,2.21-1.83,3.71-1.83s2.62,.6,3.58,1.8c.96,1.2,1.43,2.94,1.43,5.22v.61h-8.26c.08,1.51,.43,2.66,1.05,3.43,.63,.77,1.39,1.16,2.29,1.16,1.41,0,2.38-.92,2.93-2.77Zm-6.16-3.69h6.17c-.08-1.17-.33-2.04-.75-2.62-.6-.84-1.37-1.26-2.3-1.26-.84,0-1.55,.35-2.14,1.05-.59,.7-.92,1.64-.98,2.83Z"/><path d="M358.16,93.17l1.84,.29c-.21,1.61-.74,2.83-1.59,3.68-.85,.85-1.87,1.27-3.06,1.27-1.45,0-2.64-.59-3.57-1.78-.94-1.19-1.4-2.95-1.4-5.28s.47-4.1,1.41-5.28c.95-1.17,2.16-1.76,3.64-1.76,1.14,0,2.11,.36,2.89,1.07,.78,.71,1.29,1.78,1.51,3.2l-1.82,.33c-.18-.91-.49-1.59-.93-2.04-.44-.45-.97-.68-1.59-.68-.92,0-1.69,.41-2.29,1.22-.61,.82-.91,2.11-.91,3.89s.29,3.17,.87,3.99c.58,.82,1.32,1.23,2.23,1.23,.71,0,1.32-.27,1.82-.82,.5-.55,.82-1.39,.96-2.55Z"/><path d="M364.01,98.11v-13.48h1.69v2.04c.43-.95,.83-1.58,1.19-1.89,.36-.31,.76-.46,1.21-.46,.62,0,1.27,.25,1.92,.74l-.63,2.12c-.46-.33-.92-.5-1.36-.5-.4,0-.76,.14-1.09,.42s-.56,.67-.7,1.17c-.24,.87-.36,1.8-.36,2.78v7.06h-1.87Z"/><path d="M381.08,93.77l1.93,.29c-.32,1.44-.9,2.52-1.75,3.26-.84,.73-1.88,1.1-3.13,1.1-1.57,0-2.83-.59-3.8-1.78-.97-1.19-1.45-2.91-1.45-5.15s.49-4.1,1.47-5.33c.98-1.22,2.21-1.83,3.71-1.83s2.62,.6,3.58,1.8c.96,1.2,1.43,2.94,1.43,5.22v.61h-8.26c.08,1.51,.43,2.66,1.05,3.43,.63,.77,1.39,1.16,2.29,1.16,1.41,0,2.38-.92,2.93-2.77Zm-6.16-3.69h6.17c-.08-1.17-.33-2.04-.75-2.62-.6-.84-1.37-1.26-2.3-1.26-.84,0-1.55,.35-2.14,1.05-.59,.7-.92,1.64-.98,2.83Zm1.71-7.12l1.38-3.55h2.45l-2.29,3.55h-1.55Z"/><path d="M395.35,93.77l1.93,.29c-.32,1.44-.9,2.52-1.75,3.26-.84,.73-1.88,1.1-3.13,1.1-1.57,0-2.83-.59-3.8-1.78-.97-1.19-1.45-2.91-1.45-5.15s.49-4.1,1.47-5.33c.98-1.22,2.21-1.83,3.71-1.83s2.62,.6,3.58,1.8c.96,1.2,1.43,2.94,1.43,5.22v.61h-8.26c.08,1.51,.43,2.66,1.05,3.43,.63,.77,1.39,1.16,2.29,1.16,1.41,0,2.38-.92,2.93-2.77Zm-6.16-3.69h6.17c-.08-1.17-.33-2.04-.75-2.62-.6-.84-1.37-1.26-2.3-1.26-.84,0-1.55,.35-2.14,1.05-.59,.7-.92,1.64-.98,2.83Z"/><path d="M417.66,98.11v-1.98c-.43,.76-.94,1.33-1.52,1.71s-1.24,.57-1.98,.57c-.87,0-1.62-.23-2.23-.71-.62-.47-1.03-1.06-1.24-1.78s-.31-1.7-.31-2.95v-8.35h1.87v7.48c0,1.39,.07,2.32,.21,2.79,.14,.47,.4,.85,.78,1.13,.38,.28,.81,.42,1.29,.42,.9,0,1.63-.37,2.21-1.1,.49-.63,.74-1.8,.74-3.49v-7.22h1.88v13.48h-1.68Z"/><path d="M424.7,98.11v-13.48h1.69v1.9c.41-.74,.9-1.29,1.49-1.66,.59-.37,1.26-.55,2.02-.55,.59,0,1.14,.12,1.64,.35,.5,.23,.91,.54,1.22,.91,.31,.38,.54,.87,.69,1.47,.15,.6,.23,1.52,.23,2.77v8.29h-1.87v-8.21c0-.99-.09-1.72-.25-2.17-.17-.46-.43-.81-.79-1.06-.36-.25-.78-.38-1.25-.38-.9,0-1.61,.33-2.14,1-.53,.67-.8,1.82-.8,3.44v7.37h-1.87Z"/><path d="M446.52,93.77l1.93,.29c-.32,1.44-.9,2.52-1.75,3.26-.84,.73-1.88,1.1-3.13,1.1-1.56,0-2.83-.59-3.8-1.78-.97-1.19-1.45-2.91-1.45-5.15s.49-4.1,1.47-5.33c.98-1.22,2.21-1.83,3.71-1.83s2.62,.6,3.58,1.8c.96,1.2,1.44,2.94,1.44,5.22v.61h-8.27c.08,1.51,.43,2.66,1.05,3.43,.62,.77,1.39,1.16,2.29,1.16,1.4,0,2.38-.92,2.93-2.77Zm-6.16-3.69h6.17c-.09-1.17-.33-2.04-.75-2.62-.6-.84-1.37-1.26-2.3-1.26-.84,0-1.55,.35-2.15,1.05-.59,.7-.92,1.64-.98,2.83Z"/><path d="M463.31,98.11h-1.74v-18.61h1.88v6.64c.4-.61,.85-1.06,1.35-1.36,.5-.3,1.06-.45,1.68-.45,.86,0,1.65,.26,2.36,.77,.71,.52,1.27,1.3,1.69,2.35,.42,1.05,.63,2.32,.63,3.82,0,2.29-.48,4.05-1.44,5.29-.96,1.24-2.08,1.86-3.36,1.86-.64,0-1.22-.17-1.74-.5-.51-.33-.96-.83-1.33-1.49v1.69Zm-.03-6.84c0,1.4,.13,2.44,.38,3.14s.62,1.22,1.08,1.59,.98,.55,1.55,.55c.77,0,1.46-.43,2.05-1.3,.6-.87,.9-2.17,.9-3.89s-.29-3.07-.87-3.9c-.58-.83-1.29-1.24-2.13-1.24-.77,0-1.46,.43-2.07,1.3-.61,.87-.91,2.12-.91,3.76Z"/><path d="M475.16,91.37c0-2.33,.49-4.08,1.47-5.27,.98-1.18,2.21-1.78,3.71-1.78s2.71,.59,3.7,1.78,1.48,2.89,1.48,5.13c0,2.42-.49,4.22-1.46,5.41-.97,1.18-2.21,1.78-3.72,1.78s-2.71-.59-3.7-1.78c-.99-1.19-1.48-2.94-1.48-5.26Zm1.92,0c0,1.75,.32,3.04,.95,3.9s1.42,1.28,2.36,1.28c.88,0,1.64-.43,2.27-1.29,.63-.86,.95-2.15,.95-3.88s-.32-3.03-.95-3.88-1.42-1.28-2.36-1.28c-.89,0-1.65,.43-2.27,1.28-.63,.86-.94,2.15-.94,3.88Z"/><path d="M497.38,98.11v-1.98c-.43,.76-.94,1.33-1.52,1.71s-1.24,.57-1.98,.57c-.87,0-1.62-.23-2.23-.71-.62-.47-1.03-1.06-1.24-1.78-.21-.72-.31-1.7-.31-2.95v-8.35h1.87v7.48c0,1.39,.07,2.32,.21,2.79,.14,.47,.4,.85,.78,1.13,.38,.28,.8,.42,1.29,.42,.9,0,1.63-.37,2.21-1.1,.49-.63,.74-1.8,.74-3.49v-7.22h1.88v13.48h-1.68Z"/><path d="M511.66,93.17l1.84,.29c-.21,1.61-.74,2.83-1.59,3.68-.85,.85-1.87,1.27-3.07,1.27-1.45,0-2.64-.59-3.57-1.78-.94-1.19-1.4-2.95-1.4-5.28s.47-4.1,1.42-5.28c.94-1.17,2.16-1.76,3.64-1.76,1.14,0,2.11,.36,2.89,1.07s1.29,1.78,1.5,3.2l-1.81,.33c-.18-.91-.49-1.59-.93-2.04-.44-.45-.97-.68-1.59-.68-.92,0-1.69,.41-2.29,1.22-.61,.82-.91,2.11-.91,3.89s.29,3.17,.87,3.99,1.32,1.23,2.23,1.23c.71,0,1.32-.27,1.82-.82,.5-.55,.82-1.39,.96-2.55Z"/><path d="M517.44,98.11v-18.61h1.87v18.61h-1.87Z"/><path d="M532.21,93.77l1.93,.29c-.32,1.44-.9,2.52-1.75,3.26-.84,.73-1.88,1.1-3.13,1.1-1.56,0-2.83-.59-3.8-1.78-.97-1.19-1.45-2.91-1.45-5.15s.49-4.1,1.47-5.33c.98-1.22,2.21-1.83,3.71-1.83s2.62,.6,3.58,1.8c.96,1.2,1.44,2.94,1.44,5.22v.61h-8.27c.08,1.51,.43,2.66,1.05,3.43,.62,.77,1.39,1.16,2.29,1.16,1.4,0,2.38-.92,2.93-2.77Zm-6.16-3.69h6.17c-.09-1.17-.33-2.04-.75-2.62-.6-.84-1.37-1.26-2.3-1.26-.84,0-1.55,.35-2.15,1.05-.59,.7-.92,1.64-.98,2.83Z"/><path d="M24.89,129.31v-1.7c-.34,.65-.77,1.15-1.31,1.49-.53,.34-1.11,.51-1.73,.51-1.3,0-2.43-.62-3.38-1.85-.95-1.23-1.43-2.96-1.43-5.2,0-1.53,.21-2.83,.63-3.9,.42-1.07,.99-1.86,1.69-2.37s1.49-.77,2.35-.77c.62,0,1.19,.16,1.72,.49,.53,.33,.97,.78,1.31,1.37v-6.68h1.89v18.61h-1.75Zm-5.93-6.73c0,1.74,.3,3.04,.91,3.88s1.31,1.27,2.12,1.27,1.49-.41,2.07-1.22c.58-.81,.88-2.04,.88-3.68,0-1.89-.29-3.26-.88-4.13-.58-.87-1.32-1.3-2.21-1.3-.79,0-1.47,.42-2.03,1.25-.57,.83-.85,2.14-.85,3.93Z"/><path d="M39.55,124.97l1.93,.29c-.32,1.44-.9,2.52-1.75,3.26-.84,.73-1.89,1.1-3.13,1.1-1.57,0-2.83-.59-3.8-1.78-.97-1.19-1.45-2.91-1.45-5.15s.49-4.1,1.47-5.33c.98-1.22,2.22-1.83,3.71-1.83s2.62,.6,3.58,1.8,1.43,2.94,1.43,5.22v.61h-8.26c.08,1.51,.43,2.66,1.05,3.43s1.39,1.16,2.29,1.16c1.4,0,2.38-.92,2.93-2.77Zm-6.16-3.69h6.17c-.08-1.17-.33-2.04-.75-2.62-.6-.84-1.37-1.26-2.3-1.26-.84,0-1.55,.35-2.15,1.05-.59,.7-.92,1.64-.98,2.83Z"/><path d="M61.86,124.38l1.84,.29c-.21,1.61-.74,2.83-1.59,3.68s-1.87,1.27-3.07,1.27c-1.45,0-2.64-.59-3.57-1.78-.94-1.19-1.4-2.95-1.4-5.28s.47-4.1,1.42-5.28c.94-1.17,2.16-1.76,3.64-1.76,1.14,0,2.11,.36,2.89,1.07s1.28,1.78,1.5,3.2l-1.82,.33c-.18-.91-.49-1.59-.93-2.04-.44-.45-.97-.68-1.59-.68-.92,0-1.69,.41-2.29,1.22-.6,.82-.91,2.11-.91,3.89s.29,3.17,.87,3.99,1.32,1.23,2.23,1.23c.71,0,1.32-.27,1.82-.82,.5-.55,.82-1.39,.96-2.55Z"/><path d="M66.99,122.57c0-2.33,.49-4.08,1.47-5.27s2.22-1.78,3.71-1.78,2.7,.59,3.69,1.78,1.49,2.89,1.49,5.13c0,2.42-.49,4.22-1.46,5.41-.97,1.18-2.21,1.78-3.72,1.78s-2.72-.59-3.7-1.78c-.99-1.19-1.48-2.94-1.48-5.26Zm1.92,0c0,1.75,.32,3.04,.95,3.9,.64,.85,1.42,1.28,2.36,1.28,.88,0,1.63-.43,2.27-1.29s.95-2.15,.95-3.88-.32-3.03-.95-3.88-1.42-1.28-2.36-1.28c-.89,0-1.65,.43-2.27,1.28-.63,.86-.94,2.15-.94,3.88Z"/><path d="M89.22,129.31v-1.98c-.43,.76-.94,1.33-1.52,1.71s-1.24,.57-1.98,.57c-.87,0-1.62-.23-2.23-.71-.62-.47-1.03-1.06-1.24-1.78-.21-.72-.31-1.7-.31-2.95v-8.35h1.87v7.48c0,1.39,.07,2.32,.21,2.79,.14,.47,.4,.85,.78,1.13,.38,.28,.81,.42,1.29,.42,.9,0,1.63-.37,2.21-1.1,.49-.63,.74-1.8,.74-3.49v-7.22h1.88v13.48h-1.68Z"/><path d="M96.26,129.31v-13.48h1.69v2.04c.43-.95,.83-1.58,1.19-1.89,.36-.31,.76-.46,1.21-.46,.63,0,1.27,.25,1.92,.74l-.63,2.12c-.47-.33-.92-.5-1.36-.5-.4,0-.76,.14-1.09,.42s-.56,.67-.7,1.17c-.24,.87-.36,1.8-.36,2.78v7.06h-1.87Z"/><path d="M112.97,127.65c-.63,.65-1.28,1.14-1.96,1.47s-1.38,.5-2.11,.5c-1.15,0-2.07-.35-2.75-1.04s-1.03-1.63-1.03-2.81c0-.78,.16-1.47,.48-2.07s.76-1.07,1.32-1.41,1.41-.59,2.54-.75c1.52-.22,2.64-.49,3.35-.8v-.58c.01-.92-.15-1.57-.48-1.94-.47-.54-1.18-.81-2.15-.81-.87,0-1.52,.18-1.96,.54s-.75,1.04-.95,2.04l-1.84-.3c.26-1.45,.79-2.5,1.59-3.16,.8-.66,1.95-.99,3.43-.99,1.16,0,2.07,.22,2.73,.65,.66,.44,1.08,.97,1.25,1.62,.17,.64,.26,1.58,.26,2.82v3.05c0,2.13,.04,3.48,.12,4.03,.08,.55,.24,1.09,.48,1.62h-1.96c-.19-.47-.32-1.02-.38-1.66Zm-.15-5.1c-.69,.34-1.71,.63-3.06,.86-.79,.14-1.34,.29-1.65,.46-.31,.17-.56,.42-.73,.74-.17,.32-.26,.68-.26,1.1,0,.64,.2,1.16,.6,1.54,.4,.38,.95,.58,1.65,.58s1.28-.17,1.82-.52c.54-.35,.95-.81,1.22-1.39,.27-.58,.41-1.42,.41-2.53v-.84Z"/><path d="M120.05,129.31v-13.48h1.69v1.9c.41-.74,.9-1.29,1.49-1.66s1.26-.55,2.02-.55c.59,0,1.14,.12,1.64,.35,.5,.23,.91,.54,1.22,.91,.31,.38,.54,.87,.69,1.47,.15,.6,.23,1.52,.23,2.77v8.29h-1.87v-8.21c0-.99-.08-1.72-.25-2.17-.17-.46-.43-.81-.79-1.06-.36-.25-.78-.38-1.25-.38-.9,0-1.61,.33-2.15,1-.53,.67-.8,1.82-.8,3.44v7.37h-1.87Z"/><path d="M138.48,127.27l.25,2.02c-.52,.14-.98,.2-1.4,.2-.65,0-1.18-.13-1.57-.39-.4-.26-.67-.61-.82-1.06-.15-.45-.22-1.34-.22-2.68v-7.76h-1.37v-1.78h1.37v-3.34l1.87-1.37v4.71h1.89v1.78h-1.89v7.88c0,.73,.05,1.2,.17,1.41,.16,.3,.46,.46,.9,.46,.21,0,.49-.03,.83-.09Z"/><path d="M158.25,124.38l1.84,.29c-.21,1.61-.74,2.83-1.59,3.68-.85,.85-1.87,1.27-3.07,1.27-1.45,0-2.64-.59-3.57-1.78-.94-1.19-1.4-2.95-1.4-5.28s.47-4.1,1.42-5.28c.94-1.17,2.16-1.76,3.64-1.76,1.14,0,2.11,.36,2.89,1.07,.78,.71,1.29,1.78,1.5,3.2l-1.82,.33c-.18-.91-.49-1.59-.93-2.04-.44-.45-.97-.68-1.59-.68-.92,0-1.69,.41-2.29,1.22-.61,.82-.91,2.11-.91,3.89s.29,3.17,.87,3.99c.58,.82,1.32,1.23,2.23,1.23,.71,0,1.32-.27,1.82-.82,.5-.55,.82-1.39,.96-2.55Z"/><path d="M164.1,113.33v-2.63h1.87v2.63h-1.87Zm0,15.98v-13.48h1.87v13.48h-1.87Z"/><path d="M171.25,129.31v-13.48h1.69v2.04c.43-.95,.83-1.58,1.19-1.89,.36-.31,.76-.46,1.21-.46,.63,0,1.27,.25,1.92,.74l-.63,2.12c-.47-.33-.92-.5-1.36-.5-.4,0-.76,.14-1.09,.42s-.56,.67-.7,1.17c-.24,.87-.36,1.8-.36,2.78v7.06h-1.87Z"/><path d="M188,124.38l1.84,.29c-.21,1.61-.74,2.83-1.59,3.68-.85,.85-1.87,1.27-3.07,1.27-1.45,0-2.64-.59-3.57-1.78-.94-1.19-1.4-2.95-1.4-5.28s.47-4.1,1.42-5.28c.94-1.17,2.16-1.76,3.64-1.76,1.14,0,2.11,.36,2.89,1.07,.78,.71,1.29,1.78,1.5,3.2l-1.82,.33c-.18-.91-.49-1.59-.93-2.04-.44-.45-.97-.68-1.59-.68-.92,0-1.69,.41-2.29,1.22-.61,.82-.91,2.11-.91,3.89s.29,3.17,.87,3.99c.58,.82,1.32,1.23,2.23,1.23,.71,0,1.32-.27,1.82-.82,.5-.55,.82-1.39,.96-2.55Z"/><path d="M201.08,129.31v-1.98c-.43,.76-.94,1.33-1.52,1.71s-1.24,.57-1.98,.57c-.87,0-1.62-.23-2.23-.71-.62-.47-1.03-1.06-1.24-1.78-.21-.72-.31-1.7-.31-2.95v-8.35h1.87v7.48c0,1.39,.07,2.32,.21,2.79,.14,.47,.4,.85,.78,1.13,.38,.28,.81,.42,1.29,.42,.9,0,1.63-.37,2.21-1.1,.49-.63,.74-1.8,.74-3.49v-7.22h1.88v13.48h-1.68Z"/><path d="M208.06,129.31v-18.61h1.87v18.61h-1.87Z"/><path d="M222.47,127.65c-.63,.65-1.28,1.14-1.96,1.47s-1.38,.5-2.11,.5c-1.15,0-2.07-.35-2.75-1.04s-1.03-1.63-1.03-2.81c0-.78,.16-1.47,.48-2.07s.76-1.07,1.32-1.41,1.41-.59,2.54-.75c1.52-.22,2.64-.49,3.35-.8v-.58c.01-.92-.15-1.57-.48-1.94-.47-.54-1.18-.81-2.15-.81-.87,0-1.52,.18-1.96,.54s-.75,1.04-.95,2.04l-1.84-.3c.26-1.45,.79-2.5,1.59-3.16,.8-.66,1.95-.99,3.43-.99,1.16,0,2.07,.22,2.73,.65,.66,.44,1.08,.97,1.25,1.62,.17,.64,.26,1.58,.26,2.82v3.05c0,2.13,.04,3.48,.12,4.03,.08,.55,.24,1.09,.48,1.62h-1.96c-.19-.47-.32-1.02-.38-1.66Zm-.15-5.1c-.69,.34-1.71,.63-3.06,.86-.79,.14-1.34,.29-1.65,.46-.31,.17-.56,.42-.73,.74-.17,.32-.26,.68-.26,1.1,0,.64,.2,1.16,.6,1.54,.4,.38,.95,.58,1.65,.58s1.28-.17,1.82-.52c.54-.35,.95-.81,1.22-1.39,.27-.58,.41-1.42,.41-2.53v-.84Z"/><path d="M229.55,113.33v-2.63h1.87v2.63h-1.87Zm0,15.98v-13.48h1.87v13.48h-1.87Z"/><path d="M236.7,129.31v-13.48h1.69v2.04c.43-.95,.83-1.58,1.19-1.89,.36-.31,.76-.46,1.21-.46,.63,0,1.27,.25,1.92,.74l-.63,2.12c-.47-.33-.92-.5-1.36-.5-.4,0-.76,.14-1.09,.42s-.56,.67-.7,1.17c-.24,.87-.36,1.8-.36,2.78v7.06h-1.87Z"/><path d="M253.77,124.97l1.93,.29c-.32,1.44-.9,2.52-1.75,3.26-.84,.73-1.88,1.1-3.13,1.1-1.57,0-2.83-.59-3.8-1.78-.97-1.19-1.45-2.91-1.45-5.15s.49-4.1,1.47-5.33c.98-1.22,2.21-1.83,3.71-1.83s2.62,.6,3.58,1.8,1.43,2.94,1.43,5.22v.61h-8.26c.08,1.51,.43,2.66,1.05,3.43s1.39,1.16,2.29,1.16c1.41,0,2.38-.92,2.93-2.77Zm-6.16-3.69h6.17c-.08-1.17-.33-2.04-.75-2.62-.6-.84-1.37-1.26-2.3-1.26-.84,0-1.55,.35-2.15,1.05-.59,.7-.92,1.64-.98,2.83Z"/><path d="M261.08,129.31v-2.6h2.13v2.6h-2.13Z"/></g></g></g></svg>