<?xml version="1.0" encoding="UTF-8"?><svg xmlns="http://www.w3.org/2000/svg" width="586.29" height="90.38" viewBox="0 0 586.29 90.38"><defs><style>.d{fill:none;stroke:#000;stroke-miterlimit:10;stroke-width:2px;}</style></defs><g id="a"/><g id="b"><g id="c"><g><path d="M18.44,36.21V17.6h5.27c1.3,0,2.29,.11,2.97,.34,.89,.3,1.66,.84,2.31,1.62,.65,.79,1.16,1.78,1.52,2.98,.36,1.2,.55,2.62,.55,4.26,0,2.11-.31,3.9-.93,5.36-.62,1.47-1.41,2.51-2.38,3.12-.97,.61-2.24,.92-3.8,.92h-5.51Zm2.02-2.2h3.25c1.31,0,2.31-.21,2.98-.64,.68-.43,1.2-1.11,1.56-2.06,.48-1.26,.72-2.77,.72-4.53,0-1.89-.26-3.37-.77-4.45-.51-1.08-1.17-1.8-1.97-2.16-.54-.25-1.4-.37-2.58-.37h-3.2v14.22Z"/><path d="M43.23,34.55c-.63,.65-1.28,1.14-1.96,1.47-.68,.33-1.38,.5-2.11,.5-1.15,0-2.07-.35-2.75-1.04s-1.03-1.63-1.03-2.81c0-.78,.16-1.47,.48-2.07,.32-.6,.76-1.07,1.32-1.41s1.4-.59,2.54-.75c1.52-.22,2.64-.49,3.35-.8v-.58c.01-.92-.15-1.57-.48-1.94-.47-.54-1.18-.81-2.15-.81-.87,0-1.52,.18-1.96,.54s-.75,1.04-.95,2.04l-1.84-.3c.26-1.45,.79-2.5,1.59-3.16s1.94-.99,3.43-.99c1.16,0,2.07,.22,2.73,.65,.66,.44,1.08,.97,1.25,1.62,.17,.64,.26,1.58,.26,2.82v3.05c0,2.13,.04,3.48,.12,4.03,.08,.55,.24,1.09,.48,1.62h-1.96c-.2-.47-.32-1.02-.38-1.66Zm-.15-5.1c-.69,.34-1.71,.63-3.06,.86-.79,.14-1.34,.29-1.65,.46-.31,.17-.56,.42-.73,.74-.17,.32-.26,.68-.26,1.1,0,.64,.2,1.16,.6,1.54,.4,.38,.95,.58,1.65,.58s1.28-.17,1.82-.52,.95-.81,1.23-1.39c.27-.58,.41-1.42,.41-2.53v-.84Z"/><path d="M50.31,36.21v-13.48h1.69v1.9c.41-.74,.9-1.29,1.49-1.66,.59-.37,1.26-.55,2.02-.55,.59,0,1.14,.12,1.64,.35,.5,.23,.91,.54,1.22,.91,.31,.38,.54,.87,.69,1.47s.23,1.52,.23,2.77v8.29h-1.87v-8.21c0-.99-.08-1.72-.25-2.17-.17-.46-.43-.81-.79-1.06-.36-.25-.78-.38-1.25-.38-.9,0-1.61,.33-2.15,1-.53,.67-.8,1.82-.8,3.44v7.37h-1.87Z"/><path d="M63.86,32.18l1.87-.36c.11,.95,.41,1.66,.9,2.12,.49,.46,1.14,.7,1.95,.7s1.44-.2,1.88-.6c.44-.4,.67-.91,.67-1.53,0-.53-.19-.95-.57-1.24-.26-.2-.9-.46-1.9-.76-1.46-.45-2.43-.83-2.92-1.14-.49-.31-.87-.73-1.14-1.26-.27-.52-.41-1.12-.41-1.79,0-1.15,.37-2.09,1.1-2.81s1.76-1.08,3.06-1.08c.82,0,1.54,.15,2.16,.44s1.1,.69,1.43,1.19,.56,1.21,.69,2.15l-1.83,.3c-.17-1.47-.97-2.21-2.4-2.21-.81,0-1.42,.16-1.82,.49-.4,.33-.6,.74-.6,1.25s.19,.89,.57,1.18c.23,.17,.91,.44,2.04,.81,1.55,.49,2.55,.88,3.01,1.18,.46,.29,.81,.69,1.06,1.2,.25,.5,.38,1.1,.38,1.8,0,1.29-.41,2.33-1.22,3.13s-1.93,1.2-3.34,1.2c-2.65,0-4.19-1.45-4.61-4.34Z"/><path d="M93.25,31.27l1.84,.29c-.21,1.61-.74,2.83-1.59,3.68-.85,.85-1.87,1.27-3.07,1.27-1.45,0-2.64-.59-3.57-1.78-.94-1.19-1.4-2.95-1.4-5.28s.47-4.1,1.42-5.28c.94-1.17,2.16-1.76,3.64-1.76,1.14,0,2.11,.36,2.89,1.07,.78,.71,1.29,1.78,1.5,3.2l-1.82,.33c-.18-.91-.49-1.59-.93-2.04-.44-.45-.97-.68-1.59-.68-.92,0-1.69,.41-2.29,1.22-.61,.82-.91,2.11-.91,3.89s.29,3.17,.87,3.99c.58,.82,1.32,1.23,2.23,1.23,.71,0,1.32-.27,1.82-.82,.5-.55,.82-1.39,.96-2.55Z"/><path d="M106.65,31.87l1.93,.29c-.32,1.44-.9,2.52-1.75,3.26-.84,.73-1.88,1.1-3.13,1.1-1.57,0-2.83-.59-3.8-1.78-.97-1.19-1.45-2.91-1.45-5.15s.49-4.1,1.47-5.33c.98-1.22,2.21-1.83,3.71-1.83s2.62,.6,3.58,1.8,1.43,2.94,1.43,5.22v.61h-8.26c.08,1.51,.43,2.66,1.05,3.43s1.39,1.16,2.29,1.16c1.41,0,2.38-.92,2.93-2.77Zm-6.16-3.69h6.17c-.08-1.17-.33-2.04-.75-2.62-.6-.84-1.37-1.26-2.3-1.26-.84,0-1.55,.35-2.15,1.05-.59,.7-.92,1.64-.98,2.83Z"/><path d="M113.37,36.21v-13.48h1.69v2.04c.43-.95,.83-1.58,1.19-1.89,.36-.31,.76-.46,1.21-.46,.63,0,1.27,.25,1.92,.74l-.63,2.12c-.47-.33-.92-.5-1.36-.5-.4,0-.76,.14-1.09,.42s-.56,.67-.7,1.17c-.24,.87-.36,1.8-.36,2.78v7.06h-1.87Z"/><path d="M127.05,34.17l.25,2.02c-.52,.14-.98,.2-1.4,.2-.65,0-1.18-.13-1.57-.39-.4-.26-.67-.61-.82-1.06-.15-.45-.22-1.34-.22-2.68v-7.76h-1.37v-1.78h1.37v-3.34l1.87-1.37v4.71h1.89v1.78h-1.89v7.88c0,.73,.05,1.2,.17,1.41,.16,.3,.46,.46,.9,.46,.21,0,.49-.03,.83-.09Z"/><path d="M138.43,34.55c-.63,.65-1.28,1.14-1.96,1.47s-1.38,.5-2.11,.5c-1.15,0-2.07-.35-2.75-1.04s-1.03-1.63-1.03-2.81c0-.78,.16-1.47,.48-2.07s.76-1.07,1.32-1.41,1.41-.59,2.54-.75c1.52-.22,2.64-.49,3.35-.8v-.58c.01-.92-.15-1.57-.48-1.94-.47-.54-1.18-.81-2.15-.81-.87,0-1.52,.18-1.96,.54s-.75,1.04-.95,2.04l-1.84-.3c.26-1.45,.79-2.5,1.59-3.16,.8-.66,1.95-.99,3.43-.99,1.16,0,2.07,.22,2.73,.65,.66,.44,1.08,.97,1.25,1.62,.17,.64,.26,1.58,.26,2.82v3.05c0,2.13,.04,3.48,.12,4.03,.08,.55,.24,1.09,.48,1.62h-1.96c-.19-.47-.32-1.02-.38-1.66Zm-.15-5.1c-.69,.34-1.71,.63-3.06,.86-.79,.14-1.34,.29-1.65,.46-.31,.17-.56,.42-.73,.74-.17,.32-.26,.68-.26,1.1,0,.64,.2,1.16,.6,1.54,.4,.38,.95,.58,1.65,.58s1.28-.17,1.82-.52c.54-.35,.95-.81,1.22-1.39,.27-.58,.41-1.42,.41-2.53v-.84Z"/><path d="M145.5,20.23v-2.63h1.87v2.63h-1.87Zm0,15.98v-13.48h1.87v13.48h-1.87Z"/><path d="M152.66,36.21v-13.48h1.69v1.9c.41-.74,.9-1.29,1.49-1.66s1.26-.55,2.02-.55c.59,0,1.14,.12,1.64,.35,.5,.23,.91,.54,1.22,.91,.31,.38,.54,.87,.69,1.47,.15,.6,.23,1.52,.23,2.77v8.29h-1.87v-8.21c0-.99-.08-1.72-.25-2.17-.17-.46-.43-.81-.79-1.06-.36-.25-.78-.38-1.25-.38-.9,0-1.61,.33-2.15,1-.53,.67-.8,1.82-.8,3.44v7.37h-1.87Z"/><path d="M166.21,32.18l1.87-.36c.11,.95,.41,1.66,.9,2.12,.49,.46,1.14,.7,1.95,.7s1.44-.2,1.88-.6c.44-.4,.67-.91,.67-1.53,0-.53-.19-.95-.57-1.24-.26-.2-.9-.46-1.9-.76-1.46-.45-2.43-.83-2.92-1.14s-.87-.73-1.14-1.26-.41-1.12-.41-1.79c0-1.15,.37-2.09,1.1-2.81s1.76-1.08,3.06-1.08c.82,0,1.54,.15,2.17,.44,.62,.3,1.1,.69,1.43,1.19s.56,1.21,.69,2.15l-1.83,.3c-.17-1.47-.97-2.21-2.4-2.21-.81,0-1.42,.16-1.82,.49-.4,.33-.6,.74-.6,1.25s.19,.89,.57,1.18c.23,.17,.91,.44,2.04,.81,1.55,.49,2.55,.88,3.01,1.18,.46,.29,.81,.69,1.06,1.2,.25,.5,.38,1.1,.38,1.8,0,1.29-.41,2.33-1.23,3.13-.82,.8-1.93,1.2-3.34,1.2-2.65,0-4.19-1.45-4.61-4.34Z"/><path d="M188.37,36.21v-13.48h1.68v1.88c.37-.7,.85-1.24,1.43-1.62,.58-.38,1.22-.57,1.91-.57,.78,0,1.43,.2,1.97,.6,.54,.4,.92,.98,1.15,1.75,.44-.78,.95-1.37,1.52-1.76s1.21-.59,1.9-.59c1.06,0,1.9,.36,2.51,1.08s.92,1.87,.92,3.45v9.25h-1.87v-8.5c0-.97-.07-1.65-.21-2.05s-.37-.71-.68-.93c-.31-.22-.67-.33-1.06-.33-.81,0-1.47,.32-1.98,.96s-.77,1.65-.77,3.02v7.84h-1.87v-8.77c0-1.12-.17-1.91-.51-2.36-.34-.46-.81-.69-1.42-.69-.85,0-1.53,.35-2.02,1.04-.5,.69-.74,1.95-.74,3.78v7h-1.87Z"/><path d="M215.74,34.55c-.63,.65-1.28,1.14-1.96,1.47s-1.38,.5-2.11,.5c-1.15,0-2.07-.35-2.75-1.04s-1.03-1.63-1.03-2.81c0-.78,.16-1.47,.48-2.07s.76-1.07,1.32-1.41,1.41-.59,2.54-.75c1.52-.22,2.64-.49,3.35-.8v-.58c.01-.92-.15-1.57-.48-1.94-.47-.54-1.18-.81-2.15-.81-.87,0-1.52,.18-1.96,.54s-.75,1.04-.95,2.04l-1.84-.3c.26-1.45,.79-2.5,1.59-3.16,.8-.66,1.95-.99,3.43-.99,1.16,0,2.07,.22,2.73,.65,.66,.44,1.08,.97,1.25,1.62,.17,.64,.26,1.58,.26,2.82v3.05c0,2.13,.04,3.48,.12,4.03,.08,.55,.24,1.09,.48,1.62h-1.96c-.19-.47-.32-1.02-.38-1.66Zm-.15-5.1c-.69,.34-1.71,.63-3.06,.86-.79,.14-1.34,.29-1.65,.46-.31,.17-.56,.42-.73,.74-.17,.32-.26,.68-.26,1.1,0,.64,.2,1.16,.6,1.54,.4,.38,.95,.58,1.65,.58s1.28-.17,1.82-.52c.54-.35,.95-.81,1.22-1.39,.27-.58,.41-1.42,.41-2.53v-.84Z"/><path d="M226.98,34.17l.25,2.02c-.52,.14-.98,.2-1.4,.2-.65,0-1.18-.13-1.57-.39-.4-.26-.67-.61-.82-1.06-.15-.45-.22-1.34-.22-2.68v-7.76h-1.37v-1.78h1.37v-3.34l1.87-1.37v4.71h1.89v1.78h-1.89v7.88c0,.73,.05,1.2,.17,1.41,.16,.3,.46,.46,.9,.46,.21,0,.49-.03,.83-.09Z"/><path d="M238.72,31.87l1.93,.29c-.32,1.44-.9,2.52-1.75,3.26-.84,.73-1.88,1.1-3.13,1.1-1.57,0-2.83-.59-3.8-1.78-.97-1.19-1.45-2.91-1.45-5.15s.49-4.1,1.47-5.33c.98-1.22,2.21-1.83,3.71-1.83s2.62,.6,3.58,1.8,1.43,2.94,1.43,5.22v.61h-8.26c.08,1.51,.43,2.66,1.05,3.43s1.39,1.16,2.29,1.16c1.41,0,2.38-.92,2.93-2.77Zm-6.16-3.69h6.17c-.08-1.17-.33-2.04-.75-2.62-.6-.84-1.37-1.26-2.3-1.26-.84,0-1.55,.35-2.15,1.05-.59,.7-.92,1.64-.98,2.83Zm1.71-7.12l1.38-3.55h2.45l-2.29,3.55h-1.55Z"/><path d="M245.44,36.21v-13.48h1.69v2.04c.43-.95,.83-1.58,1.19-1.89,.36-.31,.76-.46,1.21-.46,.63,0,1.27,.25,1.92,.74l-.63,2.12c-.47-.33-.92-.5-1.36-.5-.4,0-.76,.14-1.09,.42s-.56,.67-.7,1.17c-.24,.87-.36,1.8-.36,2.78v7.06h-1.87Z"/><path d="M254.95,20.23v-2.63h1.87v2.63h-1.87Zm0,15.98v-13.48h1.87v13.48h-1.87Z"/><path d="M269.3,34.55c-.63,.65-1.28,1.14-1.96,1.47s-1.38,.5-2.11,.5c-1.15,0-2.07-.35-2.75-1.04s-1.03-1.63-1.03-2.81c0-.78,.16-1.47,.48-2.07s.76-1.07,1.32-1.41,1.41-.59,2.54-.75c1.52-.22,2.64-.49,3.35-.8v-.58c.01-.92-.15-1.57-.48-1.94-.47-.54-1.18-.81-2.15-.81-.87,0-1.52,.18-1.96,.54s-.75,1.04-.95,2.04l-1.84-.3c.26-1.45,.79-2.5,1.59-3.16,.8-.66,1.95-.99,3.43-.99,1.16,0,2.07,.22,2.73,.65,.66,.44,1.08,.97,1.25,1.62,.17,.64,.26,1.58,.26,2.82v3.05c0,2.13,.04,3.48,.12,4.03,.08,.55,.24,1.09,.48,1.62h-1.96c-.19-.47-.32-1.02-.38-1.66Zm-.15-5.1c-.69,.34-1.71,.63-3.06,.86-.79,.14-1.34,.29-1.65,.46-.31,.17-.56,.42-.73,.74-.17,.32-.26,.68-.26,1.1,0,.64,.2,1.16,.6,1.54,.4,.38,.95,.58,1.65,.58s1.28-.17,1.82-.52c.54-.35,.95-.81,1.22-1.39,.27-.58,.41-1.42,.41-2.53v-.84Z"/><path d="M283.62,36.21v-1.98c-.43,.76-.94,1.33-1.52,1.71s-1.24,.57-1.98,.57c-.87,0-1.62-.23-2.23-.71-.62-.47-1.03-1.06-1.24-1.78-.21-.72-.31-1.7-.31-2.95v-8.35h1.87v7.48c0,1.39,.07,2.32,.21,2.79,.14,.47,.4,.85,.78,1.13,.38,.28,.81,.42,1.29,.42,.9,0,1.63-.37,2.21-1.1,.49-.63,.74-1.8,.74-3.49v-7.22h1.88v13.48h-1.68Z"/><path d="M289.44,36.21l4.03-7-3.72-6.48h2.34l1.68,3.15c.31,.58,.57,1.09,.78,1.51,.32-.57,.6-1.05,.85-1.47l1.86-3.2h2.23l-3.82,6.33,4.11,7.15h-2.3l-2.27-4.2-.59-1.13-2.91,5.33h-2.27Z"/><path d="M304.28,36.21v-2.6h2.13v2.6c0,1.01-.15,1.8-.44,2.37-.3,.57-.73,1.01-1.29,1.31l-.52-.98c.38-.2,.67-.51,.86-.91,.19-.4,.3-1,.32-1.8h-1.05Z"/><path d="M320.37,36.21V17.6h1.87v18.61h-1.87Z"/><path d="M335.14,31.87l1.93,.29c-.32,1.44-.9,2.52-1.75,3.26-.84,.73-1.88,1.1-3.13,1.1-1.57,0-2.83-.59-3.8-1.78-.97-1.19-1.45-2.91-1.45-5.15s.49-4.1,1.47-5.33c.98-1.22,2.21-1.83,3.71-1.83s2.62,.6,3.58,1.8,1.43,2.94,1.43,5.22v.61h-8.26c.08,1.51,.43,2.66,1.05,3.43s1.39,1.16,2.29,1.16c1.41,0,2.38-.92,2.93-2.77Zm-6.16-3.69h6.17c-.08-1.17-.33-2.04-.75-2.62-.6-.84-1.37-1.26-2.3-1.26-.84,0-1.55,.35-2.15,1.05-.59,.7-.92,1.64-.98,2.83Z"/><path d="M341.14,32.18l1.87-.36c.11,.95,.41,1.66,.9,2.12,.49,.46,1.14,.7,1.95,.7s1.44-.2,1.88-.6c.44-.4,.67-.91,.67-1.53,0-.53-.19-.95-.57-1.24-.26-.2-.9-.46-1.9-.76-1.46-.45-2.43-.83-2.92-1.14s-.87-.73-1.14-1.26-.41-1.12-.41-1.79c0-1.15,.37-2.09,1.1-2.81s1.76-1.08,3.06-1.08c.82,0,1.54,.15,2.17,.44,.62,.3,1.1,.69,1.43,1.19s.56,1.21,.69,2.15l-1.83,.3c-.17-1.47-.97-2.21-2.4-2.21-.81,0-1.42,.16-1.82,.49-.4,.33-.6,.74-.6,1.25s.19,.89,.57,1.18c.23,.17,.91,.44,2.04,.81,1.55,.49,2.55,.88,3.01,1.18,.46,.29,.81,.69,1.06,1.2,.25,.5,.38,1.1,.38,1.8,0,1.29-.41,2.33-1.23,3.13-.82,.8-1.93,1.2-3.34,1.2-2.65,0-4.19-1.45-4.61-4.34Z"/><path d="M370.84,31.87l1.93,.29c-.32,1.44-.9,2.52-1.75,3.26-.84,.73-1.88,1.1-3.13,1.1-1.57,0-2.83-.59-3.8-1.78-.97-1.19-1.45-2.91-1.45-5.15s.49-4.1,1.47-5.33c.98-1.22,2.21-1.83,3.71-1.83s2.62,.6,3.58,1.8,1.43,2.94,1.43,5.22v.61h-8.26c.08,1.51,.43,2.66,1.05,3.43s1.39,1.16,2.29,1.16c1.41,0,2.38-.92,2.93-2.77Zm-6.16-3.69h6.17c-.08-1.17-.33-2.04-.75-2.62-.6-.84-1.37-1.26-2.3-1.26-.84,0-1.55,.35-2.15,1.05-.59,.7-.92,1.64-.98,2.83Z"/><path d="M377.5,36.21V17.6h1.87v18.61h-1.87Z"/><path d="M392.27,31.87l1.93,.29c-.32,1.44-.9,2.52-1.75,3.26-.84,.73-1.88,1.1-3.13,1.1-1.57,0-2.83-.59-3.8-1.78-.97-1.19-1.45-2.91-1.45-5.15s.49-4.1,1.47-5.33c.98-1.22,2.21-1.83,3.71-1.83s2.62,.6,3.58,1.8,1.43,2.94,1.43,5.22v.61h-8.26c.08,1.51,.43,2.66,1.05,3.43s1.39,1.16,2.29,1.16c1.41,0,2.38-.92,2.93-2.77Zm-6.16-3.69h6.17c-.08-1.17-.33-2.04-.75-2.62-.6-.84-1.37-1.26-2.3-1.26-.84,0-1.55,.35-2.15,1.05-.59,.7-.92,1.64-.98,2.83Z"/><path d="M406.23,31.27l1.84,.29c-.21,1.61-.74,2.83-1.59,3.68-.85,.85-1.87,1.27-3.07,1.27-1.45,0-2.64-.59-3.57-1.78-.94-1.19-1.4-2.95-1.4-5.28s.47-4.1,1.42-5.28c.94-1.17,2.16-1.76,3.64-1.76,1.14,0,2.11,.36,2.89,1.07,.78,.71,1.29,1.78,1.5,3.2l-1.82,.33c-.18-.91-.49-1.59-.93-2.04-.44-.45-.97-.68-1.59-.68-.92,0-1.69,.41-2.29,1.22-.61,.82-.91,2.11-.91,3.89s.29,3.17,.87,3.99c.58,.82,1.32,1.23,2.23,1.23,.71,0,1.32-.27,1.82-.82,.5-.55,.82-1.39,.96-2.55Z"/><path d="M416.24,34.17l.25,2.02c-.52,.14-.98,.2-1.4,.2-.65,0-1.18-.13-1.57-.39-.4-.26-.67-.61-.82-1.06-.15-.45-.22-1.34-.22-2.68v-7.76h-1.37v-1.78h1.37v-3.34l1.87-1.37v4.71h1.89v1.78h-1.89v7.88c0,.73,.05,1.2,.17,1.41,.16,.3,.46,.46,.9,.46,.21,0,.49-.03,.83-.09Z"/><path d="M420.42,36.21v-13.48h1.69v2.04c.43-.95,.83-1.58,1.19-1.89,.36-.31,.76-.46,1.21-.46,.63,0,1.27,.25,1.92,.74l-.63,2.12c-.47-.33-.92-.5-1.36-.5-.4,0-.76,.14-1.09,.42s-.56,.67-.7,1.17c-.24,.87-.36,1.8-.36,2.78v7.06h-1.87Z"/><path d="M429.23,29.47c0-2.33,.49-4.08,1.47-5.27,.98-1.18,2.22-1.78,3.71-1.78s2.7,.59,3.69,1.78,1.49,2.89,1.49,5.13c0,2.42-.49,4.22-1.46,5.41s-2.21,1.78-3.72,1.78-2.71-.59-3.7-1.78c-.99-1.19-1.48-2.94-1.48-5.26Zm1.92,0c0,1.75,.32,3.04,.95,3.9s1.42,1.28,2.36,1.28c.88,0,1.64-.43,2.27-1.29,.63-.86,.95-2.15,.95-3.88s-.32-3.03-.95-3.88-1.42-1.28-2.36-1.28c-.89,0-1.65,.43-2.27,1.28-.63,.86-.94,2.15-.94,3.88Z"/><path d="M444.21,36.21v-13.48h1.69v1.9c.41-.74,.9-1.29,1.49-1.66s1.26-.55,2.02-.55c.59,0,1.14,.12,1.64,.35,.5,.23,.91,.54,1.22,.91,.31,.38,.54,.87,.69,1.47,.15,.6,.23,1.52,.23,2.77v8.29h-1.87v-8.21c0-.99-.08-1.72-.25-2.17-.17-.46-.43-.81-.79-1.06-.36-.25-.78-.38-1.25-.38-.9,0-1.61,.33-2.15,1-.53,.67-.8,1.82-.8,3.44v7.37h-1.87Z"/><path d="M457.76,32.18l1.87-.36c.11,.95,.41,1.66,.9,2.12,.49,.46,1.14,.7,1.95,.7s1.44-.2,1.88-.6c.44-.4,.67-.91,.67-1.53,0-.53-.19-.95-.57-1.24-.26-.2-.9-.46-1.9-.76-1.46-.45-2.43-.83-2.92-1.14s-.87-.73-1.14-1.26-.41-1.12-.41-1.79c0-1.15,.37-2.09,1.1-2.81s1.76-1.08,3.06-1.08c.82,0,1.54,.15,2.17,.44,.62,.3,1.1,.69,1.43,1.19s.56,1.21,.69,2.15l-1.83,.3c-.17-1.47-.97-2.21-2.4-2.21-.81,0-1.42,.16-1.82,.49-.4,.33-.6,.74-.6,1.25s.19,.89,.57,1.18c.23,.17,.91,.44,2.04,.81,1.55,.49,2.55,.88,3.01,1.18,.46,.29,.81,.69,1.06,1.2,.25,.5,.38,1.1,.38,1.8,0,1.29-.41,2.33-1.23,3.13-.82,.8-1.93,1.2-3.34,1.2-2.65,0-4.19-1.45-4.61-4.34Z"/><path d="M479.92,41.38V22.73h1.73v1.75c.42-.73,.89-1.25,1.41-1.57,.51-.32,1.11-.48,1.77-.48,.87,0,1.66,.26,2.36,.77s1.26,1.3,1.69,2.35c.43,1.05,.64,2.32,.64,3.8,0,2.29-.48,4.06-1.44,5.3-.96,1.24-2.09,1.86-3.38,1.86-.58,0-1.11-.15-1.61-.44s-.93-.71-1.29-1.26v6.56h-1.87Zm1.7-11.83c0,1.74,.29,3.03,.87,3.85,.58,.83,1.29,1.24,2.12,1.24s1.49-.43,2.09-1.28,.9-2.17,.9-3.96-.29-3.06-.87-3.91c-.58-.85-1.29-1.27-2.13-1.27-.75,0-1.44,.46-2.05,1.36-.62,.91-.92,2.23-.92,3.97Z"/><path d="M501.75,31.87l1.93,.29c-.32,1.44-.9,2.52-1.75,3.26-.84,.73-1.88,1.1-3.13,1.1-1.57,0-2.83-.59-3.8-1.78-.97-1.19-1.45-2.91-1.45-5.15s.49-4.1,1.47-5.33c.98-1.22,2.21-1.83,3.71-1.83s2.62,.6,3.58,1.8,1.43,2.94,1.43,5.22v.61h-8.26c.08,1.51,.43,2.66,1.05,3.43s1.39,1.16,2.29,1.16c1.41,0,2.38-.92,2.93-2.77Zm-6.16-3.69h6.17c-.08-1.17-.33-2.04-.75-2.62-.6-.84-1.37-1.26-2.3-1.26-.84,0-1.55,.35-2.15,1.05-.59,.7-.92,1.64-.98,2.83Z"/><path d="M515.7,36.21v-1.98c-.43,.76-.94,1.33-1.52,1.71s-1.24,.57-1.98,.57c-.87,0-1.62-.23-2.23-.71-.62-.47-1.03-1.06-1.24-1.78-.21-.72-.31-1.7-.31-2.95v-8.35h1.87v7.48c0,1.39,.07,2.32,.21,2.79,.14,.47,.4,.85,.78,1.13,.38,.28,.81,.42,1.29,.42,.9,0,1.63-.37,2.21-1.1,.49-.63,.74-1.8,.74-3.49v-7.22h1.88v13.48h-1.68Z"/><path d="M525.83,36.21l-4.21-13.48h1.98l2.38,8.07c.27,.91,.51,1.82,.71,2.72,.16-.71,.39-1.57,.69-2.56l2.47-8.23h1.93l-4.21,13.48h-1.75Z"/><path d="M543.38,31.87l1.93,.29c-.32,1.44-.9,2.52-1.75,3.26-.84,.73-1.88,1.1-3.13,1.1-1.57,0-2.83-.59-3.8-1.78-.97-1.19-1.45-2.91-1.45-5.15s.49-4.1,1.47-5.33c.98-1.22,2.21-1.83,3.71-1.83s2.62,.6,3.58,1.8,1.43,2.94,1.43,5.22v.61h-8.26c.08,1.51,.43,2.66,1.05,3.43s1.39,1.16,2.29,1.16c1.41,0,2.38-.92,2.93-2.77Zm-6.16-3.69h6.17c-.08-1.17-.33-2.04-.75-2.62-.6-.84-1.37-1.26-2.3-1.26-.84,0-1.55,.35-2.15,1.05-.59,.7-.92,1.64-.98,2.83Z"/><path d="M550.1,36.21v-13.48h1.69v1.9c.41-.74,.9-1.29,1.49-1.66s1.26-.55,2.02-.55c.59,0,1.14,.12,1.64,.35,.5,.23,.91,.54,1.22,.91,.31,.38,.54,.87,.69,1.47,.15,.6,.23,1.52,.23,2.77v8.29h-1.87v-8.21c0-.99-.08-1.72-.25-2.17-.17-.46-.43-.81-.79-1.06-.36-.25-.78-.38-1.25-.38-.9,0-1.61,.33-2.15,1-.53,.67-.8,1.82-.8,3.44v7.37h-1.87Z"/><path d="M568.54,34.17l.25,2.02c-.52,.14-.98,.2-1.4,.2-.65,0-1.18-.13-1.57-.39-.4-.26-.67-.61-.82-1.06-.15-.45-.22-1.34-.22-2.68v-7.76h-1.37v-1.78h1.37v-3.34l1.87-1.37v4.71h1.89v1.78h-1.89v7.88c0,.73,.05,1.2,.17,1.41,.16,.3,.46,.46,.9,.46,.21,0,.49-.03,.83-.09Z"/><path d="M17.5,63.38l1.87-.36c.11,.95,.41,1.66,.9,2.12,.49,.46,1.14,.7,1.95,.7s1.44-.2,1.88-.6c.44-.4,.67-.91,.67-1.53,0-.53-.19-.95-.57-1.24-.26-.2-.9-.46-1.9-.76-1.46-.45-2.43-.83-2.92-1.14-.49-.31-.87-.73-1.14-1.26-.27-.52-.41-1.12-.41-1.79,0-1.15,.37-2.09,1.1-2.81s1.76-1.08,3.06-1.08c.82,0,1.54,.15,2.16,.44s1.1,.69,1.43,1.19,.56,1.21,.69,2.15l-1.83,.3c-.17-1.47-.97-2.21-2.4-2.21-.81,0-1.42,.16-1.82,.49-.4,.33-.6,.74-.6,1.25s.19,.89,.57,1.18c.23,.17,.91,.44,2.04,.81,1.55,.49,2.55,.88,3.01,1.18,.46,.29,.81,.69,1.06,1.2,.25,.5,.38,1.1,.38,1.8,0,1.29-.41,2.33-1.23,3.13-.82,.8-1.93,1.2-3.34,1.2-2.65,0-4.19-1.45-4.61-4.34Z"/><path d="M38.86,63.07l1.93,.29c-.32,1.44-.9,2.52-1.75,3.26-.84,.73-1.88,1.1-3.13,1.1-1.57,0-2.83-.59-3.8-1.78-.97-1.19-1.45-2.91-1.45-5.15s.49-4.1,1.47-5.33c.98-1.22,2.22-1.83,3.71-1.83s2.62,.6,3.58,1.8c.96,1.2,1.43,2.94,1.43,5.22v.61h-8.26c.08,1.51,.43,2.66,1.05,3.43,.63,.77,1.39,1.16,2.29,1.16,1.4,0,2.38-.92,2.93-2.77Zm-6.16-3.69h6.17c-.08-1.17-.33-2.04-.75-2.62-.6-.84-1.37-1.26-2.3-1.26-.84,0-1.55,.35-2.15,1.05-.59,.7-.92,1.64-.98,2.83Z"/><path d="M53.21,63.38l1.87-.36c.11,.95,.41,1.66,.9,2.12,.49,.46,1.14,.7,1.95,.7s1.44-.2,1.88-.6c.44-.4,.67-.91,.67-1.53,0-.53-.19-.95-.57-1.24-.26-.2-.9-.46-1.9-.76-1.46-.45-2.43-.83-2.92-1.14-.49-.31-.87-.73-1.14-1.26-.27-.52-.41-1.12-.41-1.79,0-1.15,.37-2.09,1.1-2.81s1.76-1.08,3.06-1.08c.82,0,1.54,.15,2.16,.44s1.1,.69,1.43,1.19,.56,1.21,.69,2.15l-1.83,.3c-.17-1.47-.97-2.21-2.4-2.21-.81,0-1.42,.16-1.82,.49-.4,.33-.6,.74-.6,1.25s.19,.89,.57,1.18c.23,.17,.91,.44,2.04,.81,1.55,.49,2.55,.88,3.01,1.18,.46,.29,.81,.69,1.06,1.2,.25,.5,.38,1.1,.38,1.8,0,1.29-.41,2.33-1.23,3.13-.82,.8-1.93,1.2-3.34,1.2-2.65,0-4.19-1.45-4.61-4.34Z"/><path d="M66.95,72.61l-.2-2.15c.42,.14,.77,.2,1.07,.2,.4,0,.73-.08,.98-.24s.47-.41,.64-.75c.06-.12,.3-.87,.74-2.24l-4.21-13.5h2.02l2.31,7.8c.29,.97,.55,2.01,.8,3.12,.21-1.05,.46-2.07,.76-3.07l2.36-7.85h1.88l-4.2,13.71c-.55,1.78-.98,2.96-1.3,3.56-.32,.6-.68,1.03-1.08,1.29-.4,.26-.86,.39-1.37,.39-.36,0-.76-.09-1.21-.28Z"/><path d="M80.09,67.41v-13.48h1.69v1.9c.41-.74,.9-1.29,1.49-1.66s1.26-.55,2.02-.55c.59,0,1.14,.12,1.64,.35,.5,.23,.91,.54,1.22,.91,.31,.38,.54,.87,.69,1.47,.15,.6,.23,1.52,.23,2.77v8.29h-1.87v-8.21c0-.99-.08-1.72-.25-2.17-.17-.46-.43-.81-.79-1.06-.36-.25-.78-.38-1.25-.38-.9,0-1.61,.33-2.15,1-.53,.67-.8,1.82-.8,3.44v7.37h-1.87Z"/><path d="M101.61,62.47l1.84,.29c-.21,1.61-.74,2.83-1.59,3.68-.85,.85-1.87,1.27-3.07,1.27-1.45,0-2.64-.59-3.57-1.78-.94-1.19-1.4-2.95-1.4-5.28s.47-4.1,1.42-5.28c.94-1.17,2.16-1.76,3.64-1.76,1.14,0,2.11,.36,2.89,1.07,.78,.71,1.29,1.78,1.5,3.2l-1.82,.33c-.18-.91-.49-1.59-.93-2.04-.44-.45-.97-.68-1.59-.68-.92,0-1.69,.41-2.29,1.22-.61,.82-.91,2.11-.91,3.89s.29,3.17,.87,3.99c.58,.82,1.32,1.23,2.23,1.23,.71,0,1.32-.27,1.82-.82,.5-.55,.82-1.39,.96-2.55Z"/><path d="M107.45,67.41v-18.61h1.87v6.68c.44-.62,.94-1.08,1.49-1.39,.55-.31,1.17-.46,1.83-.46,1.18,0,2.11,.38,2.79,1.12,.68,.75,1.02,2.12,1.02,4.12v8.54h-1.87v-8.54c0-1.17-.21-2.01-.62-2.51s-.99-.76-1.71-.76c-.81,0-1.5,.33-2.08,.98-.57,.65-.86,1.81-.86,3.47v7.38h-1.87Z"/><path d="M121.73,67.41v-13.48h1.69v2.04c.43-.95,.83-1.58,1.19-1.89,.36-.31,.76-.46,1.21-.46,.63,0,1.27,.25,1.92,.74l-.63,2.12c-.47-.33-.92-.5-1.36-.5-.4,0-.76,.14-1.09,.42s-.56,.67-.7,1.17c-.24,.87-.36,1.8-.36,2.78v7.06h-1.87Z"/><path d="M130.53,60.67c0-2.33,.49-4.08,1.47-5.27,.98-1.18,2.22-1.78,3.71-1.78s2.7,.59,3.69,1.78,1.49,2.89,1.49,5.13c0,2.42-.49,4.22-1.46,5.41s-2.21,1.78-3.72,1.78-2.71-.59-3.7-1.78c-.99-1.19-1.48-2.94-1.48-5.26Zm1.92,0c0,1.75,.32,3.04,.95,3.9s1.42,1.28,2.36,1.28c.88,0,1.64-.43,2.27-1.29,.63-.86,.95-2.15,.95-3.88s-.32-3.03-.95-3.88-1.42-1.28-2.36-1.28c-.89,0-1.65,.43-2.27,1.28-.63,.86-.94,2.15-.94,3.88Z"/><path d="M145.52,67.41v-13.48h1.69v1.9c.41-.74,.9-1.29,1.49-1.66s1.26-.55,2.02-.55c.59,0,1.14,.12,1.64,.35,.5,.23,.91,.54,1.22,.91,.31,.38,.54,.87,.69,1.47,.15,.6,.23,1.52,.23,2.77v8.29h-1.87v-8.21c0-.99-.08-1.72-.25-2.17-.17-.46-.43-.81-.79-1.06-.36-.25-.78-.38-1.25-.38-.9,0-1.61,.33-2.15,1-.53,.67-.8,1.82-.8,3.44v7.37h-1.87Z"/><path d="M159.79,51.43v-2.63h1.87v2.63h-1.87Zm0,15.98v-13.48h1.87v13.48h-1.87Z"/><path d="M166.22,63.38l1.87-.36c.11,.95,.41,1.66,.9,2.12,.49,.46,1.14,.7,1.95,.7s1.44-.2,1.88-.6c.44-.4,.67-.91,.67-1.53,0-.53-.19-.95-.57-1.24-.26-.2-.9-.46-1.9-.76-1.46-.45-2.43-.83-2.92-1.14s-.87-.73-1.14-1.26-.41-1.12-.41-1.79c0-1.15,.37-2.09,1.1-2.81s1.76-1.08,3.06-1.08c.82,0,1.54,.15,2.17,.44,.62,.3,1.1,.69,1.43,1.19s.56,1.21,.69,2.15l-1.83,.3c-.17-1.47-.97-2.21-2.4-2.21-.81,0-1.42,.16-1.82,.49-.4,.33-.6,.74-.6,1.25s.19,.89,.57,1.18c.23,.17,.91,.44,2.04,.81,1.55,.49,2.55,.88,3.01,1.18,.46,.29,.81,.69,1.06,1.2,.25,.5,.38,1.1,.38,1.8,0,1.29-.41,2.33-1.23,3.13-.82,.8-1.93,1.2-3.34,1.2-2.65,0-4.19-1.45-4.61-4.34Z"/><path d="M187.58,63.07l1.93,.29c-.32,1.44-.9,2.52-1.75,3.26-.84,.73-1.88,1.1-3.13,1.1-1.57,0-2.83-.59-3.8-1.78-.97-1.19-1.45-2.91-1.45-5.15s.49-4.1,1.47-5.33c.98-1.22,2.21-1.83,3.71-1.83s2.62,.6,3.58,1.8,1.43,2.94,1.43,5.22v.61h-8.26c.08,1.51,.43,2.66,1.05,3.43s1.39,1.16,2.29,1.16c1.41,0,2.38-.92,2.93-2.77Zm-6.16-3.69h6.17c-.08-1.17-.33-2.04-.75-2.62-.6-.84-1.37-1.26-2.3-1.26-.84,0-1.55,.35-2.15,1.05-.59,.7-.92,1.64-.98,2.83Z"/><path d="M194.3,67.41v-13.48h1.69v2.04c.43-.95,.83-1.58,1.19-1.89,.36-.31,.76-.46,1.21-.46,.63,0,1.27,.25,1.92,.74l-.63,2.12c-.47-.33-.92-.5-1.36-.5-.4,0-.76,.14-1.09,.42s-.56,.67-.7,1.17c-.24,.87-.36,1.8-.36,2.78v7.06h-1.87Z"/><path d="M219.72,63.07l1.93,.29c-.32,1.44-.9,2.52-1.75,3.26-.84,.73-1.88,1.1-3.13,1.1-1.57,0-2.83-.59-3.8-1.78-.97-1.19-1.45-2.91-1.45-5.15s.49-4.1,1.47-5.33c.98-1.22,2.21-1.83,3.71-1.83s2.62,.6,3.58,1.8,1.43,2.94,1.43,5.22v.61h-8.26c.08,1.51,.43,2.66,1.05,3.43s1.39,1.16,2.29,1.16c1.41,0,2.38-.92,2.93-2.77Zm-6.16-3.69h6.17c-.08-1.17-.33-2.04-.75-2.62-.6-.84-1.37-1.26-2.3-1.26-.84,0-1.55,.35-2.15,1.05-.59,.7-.92,1.64-.98,2.83Z"/><path d="M230.6,65.37l.25,2.02c-.52,.14-.98,.2-1.4,.2-.65,0-1.18-.13-1.57-.39-.4-.26-.67-.61-.82-1.06-.15-.45-.22-1.34-.22-2.68v-7.76h-1.37v-1.78h1.37v-3.34l1.87-1.37v4.71h1.89v1.78h-1.89v7.88c0,.73,.05,1.2,.17,1.41,.16,.3,.46,.46,.9,.46,.21,0,.49-.03,.83-.09Z"/><path d="M247.3,65.37l.25,2.02c-.52,.14-.98,.2-1.4,.2-.65,0-1.18-.13-1.57-.39-.4-.26-.67-.61-.82-1.06-.15-.45-.22-1.34-.22-2.68v-7.76h-1.37v-1.78h1.37v-3.34l1.87-1.37v4.71h1.89v1.78h-1.89v7.88c0,.73,.05,1.2,.17,1.41,.16,.3,.46,.46,.9,.46,.21,0,.49-.03,.83-.09Z"/><path d="M250.77,60.67c0-2.33,.49-4.08,1.47-5.27,.98-1.18,2.22-1.78,3.71-1.78s2.7,.59,3.69,1.78,1.49,2.89,1.49,5.13c0,2.42-.49,4.22-1.46,5.41s-2.21,1.78-3.72,1.78-2.71-.59-3.7-1.78c-.99-1.19-1.48-2.94-1.48-5.26Zm1.92,0c0,1.75,.32,3.04,.95,3.9s1.42,1.28,2.36,1.28c.88,0,1.64-.43,2.27-1.29,.63-.86,.95-2.15,.95-3.88s-.32-3.03-.95-3.88-1.42-1.28-2.36-1.28c-.89,0-1.65,.43-2.27,1.28-.63,.86-.94,2.15-.94,3.88Z"/><path d="M272.99,67.41v-1.98c-.43,.76-.94,1.33-1.52,1.71s-1.24,.57-1.98,.57c-.87,0-1.62-.23-2.23-.71-.62-.47-1.03-1.06-1.24-1.78-.21-.72-.31-1.7-.31-2.95v-8.35h1.87v7.48c0,1.39,.07,2.32,.21,2.79,.14,.47,.4,.85,.78,1.13,.38,.28,.81,.42,1.29,.42,.9,0,1.63-.37,2.21-1.1,.49-.63,.74-1.8,.74-3.49v-7.22h1.88v13.48h-1.68Z"/><path d="M280.03,67.41v-13.48h1.69v2.04c.43-.95,.83-1.58,1.19-1.89,.36-.31,.76-.46,1.21-.46,.63,0,1.27,.25,1.92,.74l-.63,2.12c-.47-.33-.92-.5-1.36-.5-.4,0-.76,.14-1.09,.42s-.56,.67-.7,1.17c-.24,.87-.36,1.8-.36,2.78v7.06h-1.87Z"/><path d="M289.54,67.41v-13.48h1.69v1.9c.41-.74,.9-1.29,1.49-1.66s1.26-.55,2.02-.55c.59,0,1.14,.12,1.64,.35,.5,.23,.91,.54,1.22,.91,.31,.38,.54,.87,.69,1.47,.15,.6,.23,1.52,.23,2.77v8.29h-1.87v-8.21c0-.99-.08-1.72-.25-2.17-.17-.46-.43-.81-.79-1.06-.36-.25-.78-.38-1.25-.38-.9,0-1.61,.33-2.15,1-.53,.67-.8,1.82-.8,3.44v7.37h-1.87Z"/><path d="M311.37,63.07l1.93,.29c-.32,1.44-.9,2.52-1.75,3.26-.84,.73-1.88,1.1-3.13,1.1-1.57,0-2.83-.59-3.8-1.78-.97-1.19-1.45-2.91-1.45-5.15s.49-4.1,1.47-5.33c.98-1.22,2.21-1.83,3.71-1.83s2.62,.6,3.58,1.8,1.43,2.94,1.43,5.22v.61h-8.26c.08,1.51,.43,2.66,1.05,3.43s1.39,1.16,2.29,1.16c1.41,0,2.38-.92,2.93-2.77Zm-6.16-3.69h6.17c-.08-1.17-.33-2.04-.75-2.62-.6-.84-1.37-1.26-2.3-1.26-.84,0-1.55,.35-2.15,1.05-.59,.7-.92,1.64-.98,2.83Z"/><path d="M318.1,67.41v-13.48h1.69v2.04c.43-.95,.83-1.58,1.19-1.89,.36-.31,.76-.46,1.21-.46,.63,0,1.27,.25,1.92,.74l-.63,2.12c-.47-.33-.92-.5-1.36-.5-.4,0-.76,.14-1.09,.42s-.56,.67-.7,1.17c-.24,.87-.36,1.8-.36,2.78v7.06h-1.87Z"/><path d="M343.12,67.41v-1.7c-.34,.65-.77,1.15-1.31,1.49-.53,.34-1.11,.51-1.73,.51-1.3,0-2.43-.62-3.38-1.85-.95-1.23-1.43-2.96-1.43-5.2,0-1.53,.21-2.83,.63-3.9,.42-1.07,.99-1.86,1.69-2.37,.71-.52,1.49-.77,2.35-.77,.62,0,1.19,.16,1.72,.49,.53,.33,.96,.78,1.31,1.37v-6.68h1.89v18.61h-1.75Zm-5.93-6.73c0,1.74,.3,3.04,.91,3.88s1.31,1.27,2.12,1.27,1.49-.41,2.07-1.22c.58-.81,.88-2.04,.88-3.68,0-1.89-.29-3.26-.88-4.13-.58-.87-1.32-1.3-2.21-1.3-.79,0-1.47,.42-2.03,1.25-.57,.83-.85,2.14-.85,3.93Z"/><path d="M357.43,65.75c-.63,.65-1.28,1.14-1.96,1.47s-1.38,.5-2.11,.5c-1.15,0-2.07-.35-2.75-1.04s-1.03-1.63-1.03-2.81c0-.78,.16-1.47,.48-2.07s.76-1.07,1.32-1.41,1.41-.59,2.54-.75c1.52-.22,2.64-.49,3.35-.8v-.58c.01-.92-.15-1.57-.48-1.94-.47-.54-1.18-.81-2.15-.81-.87,0-1.52,.18-1.96,.54s-.75,1.04-.95,2.04l-1.84-.3c.26-1.45,.79-2.5,1.59-3.16,.8-.66,1.95-.99,3.43-.99,1.16,0,2.07,.22,2.73,.65,.66,.44,1.08,.97,1.25,1.62,.17,.64,.26,1.58,.26,2.82v3.05c0,2.13,.04,3.48,.12,4.03,.08,.55,.24,1.09,.48,1.62h-1.96c-.19-.47-.32-1.02-.38-1.66Zm-.15-5.1c-.69,.34-1.71,.63-3.06,.86-.79,.14-1.34,.29-1.65,.46-.31,.17-.56,.42-.73,.74-.17,.32-.26,.68-.26,1.1,0,.64,.2,1.16,.6,1.54,.4,.38,.95,.58,1.65,.58s1.28-.17,1.82-.52c.54-.35,.95-.81,1.22-1.39,.27-.58,.41-1.42,.41-2.53v-.84Z"/><path d="M364.51,67.41v-13.48h1.69v1.9c.41-.74,.9-1.29,1.49-1.66s1.26-.55,2.02-.55c.59,0,1.14,.12,1.64,.35,.5,.23,.91,.54,1.22,.91,.31,.38,.54,.87,.69,1.47,.15,.6,.23,1.52,.23,2.77v8.29h-1.87v-8.21c0-.99-.08-1.72-.25-2.17-.17-.46-.43-.81-.79-1.06-.36-.25-.78-.38-1.25-.38-.9,0-1.61,.33-2.15,1-.53,.67-.8,1.82-.8,3.44v7.37h-1.87Z"/><path d="M378.06,63.38l1.87-.36c.11,.95,.41,1.66,.9,2.12,.49,.46,1.14,.7,1.95,.7s1.44-.2,1.88-.6c.44-.4,.67-.91,.67-1.53,0-.53-.19-.95-.57-1.24-.26-.2-.9-.46-1.9-.76-1.46-.45-2.43-.83-2.92-1.14s-.87-.73-1.14-1.26-.41-1.12-.41-1.79c0-1.15,.37-2.09,1.1-2.81s1.76-1.08,3.06-1.08c.82,0,1.54,.15,2.17,.44,.62,.3,1.1,.69,1.43,1.19s.56,1.21,.69,2.15l-1.83,.3c-.17-1.47-.97-2.21-2.4-2.21-.81,0-1.42,.16-1.82,.49-.4,.33-.6,.74-.6,1.25s.19,.89,.57,1.18c.23,.17,.91,.44,2.04,.81,1.55,.49,2.55,.88,3.01,1.18,.46,.29,.81,.69,1.06,1.2,.25,.5,.38,1.1,.38,1.8,0,1.29-.41,2.33-1.23,3.13-.82,.8-1.93,1.2-3.34,1.2-2.65,0-4.19-1.45-4.61-4.34Z"/><path d="M400.15,67.41v-18.61h1.87v18.61h-1.87Z"/><path d="M414.92,63.07l1.93,.29c-.32,1.44-.9,2.52-1.75,3.26-.84,.73-1.88,1.1-3.13,1.1-1.57,0-2.83-.59-3.8-1.78-.97-1.19-1.45-2.91-1.45-5.15s.49-4.1,1.47-5.33c.98-1.22,2.21-1.83,3.71-1.83s2.62,.6,3.58,1.8,1.43,2.94,1.43,5.22v.61h-8.26c.08,1.51,.43,2.66,1.05,3.43s1.39,1.16,2.29,1.16c1.41,0,2.38-.92,2.93-2.77Zm-6.16-3.69h6.17c-.08-1.17-.33-2.04-.75-2.62-.6-.84-1.37-1.26-2.3-1.26-.84,0-1.55,.35-2.15,1.05-.59,.7-.92,1.64-.98,2.83Z"/><path d="M430,67.41v-13.48h1.68v1.88c.37-.7,.85-1.24,1.43-1.62,.58-.38,1.22-.57,1.91-.57,.78,0,1.43,.2,1.97,.6,.54,.4,.92,.98,1.15,1.75,.44-.78,.95-1.37,1.52-1.76s1.21-.59,1.9-.59c1.06,0,1.9,.36,2.51,1.08s.92,1.87,.92,3.45v9.25h-1.87v-8.5c0-.97-.07-1.65-.21-2.05s-.37-.71-.68-.93c-.31-.22-.67-.33-1.06-.33-.81,0-1.47,.32-1.98,.96s-.77,1.65-.77,3.02v7.84h-1.87v-8.77c0-1.12-.17-1.91-.51-2.36-.34-.46-.81-.69-1.42-.69-.85,0-1.53,.35-2.02,1.04-.5,.69-.74,1.95-.74,3.78v7h-1.87Z"/><path d="M457.72,63.07l1.93,.29c-.32,1.44-.9,2.52-1.75,3.26-.84,.73-1.88,1.1-3.13,1.1-1.57,0-2.83-.59-3.8-1.78-.97-1.19-1.45-2.91-1.45-5.15s.49-4.1,1.47-5.33c.98-1.22,2.21-1.83,3.71-1.83s2.62,.6,3.58,1.8,1.43,2.94,1.43,5.22v.61h-8.26c.08,1.51,.43,2.66,1.05,3.43s1.39,1.16,2.29,1.16c1.41,0,2.38-.92,2.93-2.77Zm-6.16-3.69h6.17c-.08-1.17-.33-2.04-.75-2.62-.6-.84-1.37-1.26-2.3-1.26-.84,0-1.55,.35-2.15,1.05-.59,.7-.92,1.64-.98,2.83Zm3.43-9.28l-1.18,2.16h-2.13l2.25-3.55h2.01l2.34,3.55h-2.13l-1.14-2.16Z"/><path d="M464.46,67.41v-13.48h1.68v1.88c.37-.7,.85-1.24,1.43-1.62,.58-.38,1.22-.57,1.91-.57,.78,0,1.43,.2,1.97,.6,.54,.4,.92,.98,1.15,1.75,.44-.78,.95-1.37,1.52-1.76s1.21-.59,1.9-.59c1.06,0,1.9,.36,2.51,1.08s.92,1.87,.92,3.45v9.25h-1.87v-8.5c0-.97-.07-1.65-.21-2.05s-.37-.71-.68-.93c-.31-.22-.67-.33-1.06-.33-.81,0-1.47,.32-1.98,.96s-.77,1.65-.77,3.02v7.84h-1.87v-8.77c0-1.12-.17-1.91-.51-2.36-.34-.46-.81-.69-1.42-.69-.85,0-1.53,.35-2.02,1.04-.5,.69-.74,1.95-.74,3.78v7h-1.87Z"/><path d="M492.17,63.07l1.93,.29c-.32,1.44-.9,2.52-1.75,3.26-.84,.73-1.88,1.1-3.13,1.1-1.57,0-2.83-.59-3.8-1.78-.97-1.19-1.45-2.91-1.45-5.15s.49-4.1,1.47-5.33c.98-1.22,2.21-1.83,3.71-1.83s2.62,.6,3.58,1.8,1.43,2.94,1.43,5.22v.61h-8.26c.08,1.51,.43,2.66,1.05,3.43s1.39,1.16,2.29,1.16c1.41,0,2.38-.92,2.93-2.77Zm-6.16-3.69h6.17c-.08-1.17-.33-2.04-.75-2.62-.6-.84-1.37-1.26-2.3-1.26-.84,0-1.55,.35-2.15,1.05-.59,.7-.92,1.64-.98,2.83Z"/><path d="M506.52,63.38l1.87-.36c.11,.95,.41,1.66,.9,2.12,.49,.46,1.14,.7,1.95,.7s1.44-.2,1.88-.6c.44-.4,.67-.91,.67-1.53,0-.53-.19-.95-.57-1.24-.26-.2-.9-.46-1.9-.76-1.46-.45-2.43-.83-2.92-1.14s-.87-.73-1.14-1.26-.41-1.12-.41-1.79c0-1.15,.37-2.09,1.1-2.81s1.76-1.08,3.06-1.08c.82,0,1.54,.15,2.17,.44,.62,.3,1.1,.69,1.43,1.19s.56,1.21,.69,2.15l-1.83,.3c-.17-1.47-.97-2.21-2.4-2.21-.81,0-1.42,.16-1.82,.49-.4,.33-.6,.74-.6,1.25s.19,.89,.57,1.18c.23,.17,.91,.44,2.04,.81,1.55,.49,2.55,.88,3.01,1.18,.46,.29,.81,.69,1.06,1.2,.25,.5,.38,1.1,.38,1.8,0,1.29-.41,2.33-1.23,3.13-.82,.8-1.93,1.2-3.34,1.2-2.65,0-4.19-1.45-4.61-4.34Z"/><path d="M527.88,63.07l1.93,.29c-.32,1.44-.9,2.52-1.75,3.26-.84,.73-1.88,1.1-3.13,1.1-1.57,0-2.83-.59-3.8-1.78-.97-1.19-1.45-2.91-1.45-5.15s.49-4.1,1.47-5.33c.98-1.22,2.21-1.83,3.71-1.83s2.62,.6,3.58,1.8,1.43,2.94,1.43,5.22v.61h-8.26c.08,1.51,.43,2.66,1.05,3.43s1.39,1.16,2.29,1.16c1.41,0,2.38-.92,2.93-2.77Zm-6.16-3.69h6.17c-.08-1.17-.33-2.04-.75-2.62-.6-.84-1.37-1.26-2.3-1.26-.84,0-1.55,.35-2.15,1.05-.59,.7-.92,1.64-.98,2.83Z"/><path d="M534.6,67.41v-13.48h1.69v1.9c.41-.74,.9-1.29,1.49-1.66s1.26-.55,2.02-.55c.59,0,1.14,.12,1.64,.35,.5,.23,.91,.54,1.22,.91,.31,.38,.54,.87,.69,1.47,.15,.6,.23,1.52,.23,2.77v8.29h-1.87v-8.21c0-.99-.08-1.72-.25-2.17-.17-.46-.43-.81-.79-1.06-.36-.25-.78-.38-1.25-.38-.9,0-1.61,.33-2.15,1-.53,.67-.8,1.82-.8,3.44v7.37h-1.87Z"/><path d="M548.15,63.38l1.87-.36c.11,.95,.41,1.66,.9,2.12,.49,.46,1.14,.7,1.95,.7s1.44-.2,1.88-.6c.44-.4,.67-.91,.67-1.53,0-.53-.19-.95-.57-1.24-.26-.2-.9-.46-1.9-.76-1.46-.45-2.43-.83-2.92-1.14s-.87-.73-1.14-1.26-.41-1.12-.41-1.79c0-1.15,.37-2.09,1.1-2.81s1.76-1.08,3.06-1.08c.82,0,1.54,.15,2.17,.44,.62,.3,1.1,.69,1.43,1.19s.56,1.21,.69,2.15l-1.83,.3c-.17-1.47-.97-2.21-2.4-2.21-.81,0-1.42,.16-1.82,.49-.4,.33-.6,.74-.6,1.25s.19,.89,.57,1.18c.23,.17,.91,.44,2.04,.81,1.55,.49,2.55,.88,3.01,1.18,.46,.29,.81,.69,1.06,1.2,.25,.5,.38,1.1,.38,1.8,0,1.29-.41,2.33-1.23,3.13-.82,.8-1.93,1.2-3.34,1.2-2.65,0-4.19-1.45-4.61-4.34Z"/><path d="M562.54,67.41v-2.6h2.13v2.6h-2.13Z"/></g><path class="d" d="M574.58,51.64c7.09-2.65,11.55-9.86,10.59-17.51l-.25-2.02c-.12-.94-.32-1.87-.59-2.76,.47-1.53,.72-3.15,.72-4.84v-1.78c0-3.08-.85-5.97-2.32-8.44-1.09-4.7-4.21-8.76-8.62-10.99-5.55-2.81-12.21-2.26-17.22,1.42l-1.64,1.2c-1.18,0-2.34,.1-3.49,.3h-1.65c-1.38,0-2.71,.19-3.99,.51-1.85-.53-3.78-.81-5.76-.81-1.78,0-3.53,.23-5.21,.66-1.1-.23-2.22-.35-3.36-.35h-1.93c-1.06,0-2.11,.1-3.12,.3-1.02-.2-2.06-.3-3.12-.3h-1.98c-.73,0-1.45,.05-2.16,.15-.69-.09-1.38-.15-2.09-.15h-1.88c-.89,0-1.76,.07-2.61,.21-.85-.13-1.72-.21-2.61-.21h-1.87c-1.37,0-2.69,.18-3.96,.5-1.84-.53-3.77-.8-5.73-.8-2.43,0-4.8,.41-7.02,1.2-2.19-.78-4.5-1.2-6.88-1.2-1.18,0-2.35,.1-3.5,.3h-1.41c-2.86,0-5.55,.73-7.9,2.01-.18-.09-.35-.19-.53-.28-2.85-1.35-5.96-2.04-9.24-2.04-2.26,0-4.45,.35-6.51,1-2.03-.66-4.14-1-6.32-1-1.2,0-2.38,.1-3.55,.3h-1.65c-1.37,0-2.69,.18-3.96,.5-1.87-.53-3.83-.8-5.85-.8-1.76,0-3.47,.21-5.12,.61-1.21-.31-2.45-.5-3.7-.57-1.12-1.04-2.38-1.96-3.78-2.67-5.55-2.81-12.21-2.26-17.22,1.42l-1.66,1.22c-2.27,.06-4.49,.48-6.58,1.23-1.68-.61-3.43-.99-5.23-1.15-2.99-3.03-7.15-4.91-11.74-4.91h-1.87c-4.6,0-8.76,1.89-11.76,4.93-3.2,.31-6.24,1.34-8.95,3-.62-.38-1.27-.75-1.94-1.06-2.85-1.35-5.96-2.04-9.24-2.04-2.38,0-4.67,.39-6.82,1.1-1.55-.52-3.17-.86-4.82-1.01-2.99-3.03-7.15-4.91-11.74-4.91h-1.87c-5.53,0-10.42,2.73-13.41,6.92-2.27-1.15-4.82-1.79-7.46-1.79h-2.23c-.87,0-1.74,.07-2.58,.2-.85-.13-1.71-.2-2.58-.2h-2.34c-.77,0-1.53,.06-2.28,.16-.72-.09-1.44-.16-2.18-.16h-1.88c-.89,0-1.76,.07-2.61,.21-.85-.13-1.72-.21-2.61-.21h-1.87c-1.27,0-2.51,.16-3.69,.43-1.31-.34-2.68-.57-4.1-.67-2.99-3.02-7.13-4.89-11.72-4.89h-1.87c-3.04,0-5.88,.84-8.33,2.27-2.53-1.52-5.46-2.37-8.52-2.37h-2.45c-2.12,0-4.17,.41-6.06,1.15-4.84-1.38-10.12-.48-14.27,2.57l-1.66,1.22c-.14,0-.28-.01-.43-.01-2.65,0-4.96,.4-6.95,1.02-2.02-.67-4.16-1.02-6.35-1.02-1.1,0-2.18,.09-3.25,.26-2.21-.36-4.55-.35-6.79,.04h-1.54c-2.86,0-5.55,.73-7.9,2.01-.18-.09-.35-.19-.54-.28-2.85-1.35-5.96-2.04-9.24-2.04-2.26,0-4.45,.35-6.51,1-1.65-.54-3.36-.86-5.11-.96-2.99-3-7.12-4.86-11.69-4.86h-1.87c-3.97,0-7.61,1.4-10.46,3.74-.76-.57-1.57-1.1-2.44-1.54-5.55-2.81-12.21-2.26-17.22,1.42l-1.87,1.37c-.06,.04-.11,.09-.17,.14-1.37,0-2.69,.19-3.97,.5-1.85-.53-3.78-.81-5.76-.81-2.27,0-4.49,.37-6.58,1.06-2.09-.68-4.28-1.06-6.54-1.06-3.95,0-7.73,1.09-11,3.09-.62-.38-1.25-.73-1.91-1.05-2.85-1.36-5.96-2.04-9.25-2.04-2.26,0-4.45,.35-6.51,1-2.03-.66-4.14-1-6.32-1-1.2,0-2.38,.1-3.55,.3h-1.65c-1.28,0-2.52,.16-3.72,.44-1.85-.49-3.8-.74-5.86-.74-.72,0-1.41,.04-2.09,.09-2.01-1.64-4.27-2.9-6.69-3.71-2.41-.81-5.11-1.21-8.24-1.21h-5.27C9.33,1.1,1.94,8.49,1.94,17.6v18.61c0,3.56,1.14,6.84,3.05,9.54-2.38,3.39-3.67,7.45-3.67,11.76,0,.72,.04,1.43,.11,2.14-.45,1.95-.56,4.02-.25,6.12,1.61,11.04,10.03,18.46,20.94,18.46,2.4,0,4.72-.39,6.9-1.11,2.18,.73,4.49,1.11,6.9,1.11,3.95,0,7.66-1.01,10.9-2.93,2.43,1.45,5.22,2.39,8.24,2.75,1.55,1.61,3.43,2.92,5.57,3.81,2.46,1.02,5,1.54,7.54,1.54,3.7,0,7.29-1.06,10.39-3.08,1.07-.7,2.06-1.5,2.96-2.39h.45c.89,0,1.77-.07,2.62-.21,.85,.14,1.73,.21,2.62,.21h1.87c1.37,0,2.69-.19,3.96-.5,1.85,.53,3.78,.8,5.75,.8,1.78,0,3.52-.25,5.2-.68,1.12,.24,2.28,.37,3.47,.37h1.87c.9,0,1.78-.07,2.63-.21,.86,.14,1.74,.21,2.63,.21h1.87c.9,0,1.78-.09,2.64-.23,.86,.14,1.74,.23,2.64,.23h1.87c1.81,0,3.54-.3,5.17-.84,2.19,.75,4.53,1.14,6.95,1.14,2.03,0,4-.27,5.87-.8,1.26,.31,2.58,.49,3.94,.49h1.87c.89,0,1.77-.07,2.62-.21,.85,.14,1.73,.21,2.62,.21h1.87c.9,0,1.79-.09,2.65-.23,.86,.14,1.75,.23,2.65,.23h1.87c1.23,0,2.42-.14,3.57-.4,1.77,.46,3.64,.7,5.6,.7,2.4,0,4.72-.39,6.9-1.11,2.18,.73,4.49,1.11,6.9,1.11,2.01,0,3.96-.27,5.81-.78,1.24,.3,2.52,.47,3.85,.47h1.87c3.45,0,6.65-1.06,9.3-2.87,3.32,2.07,7.18,3.18,11.31,3.18,2.33,0,4.56-.37,6.68-1.05,1.91,.6,3.93,.92,6.01,.92,1.83,0,3.71-.25,5.59-.74,1-.26,1.95-.61,2.85-1.04,2.53,1.17,5.34,1.78,8.25,1.78,1.5,0,3.04-.18,4.58-.51,1.68,.42,3.42,.64,5.21,.64,2.39,0,4.7-.38,6.86-1.11,2.11,.73,4.36,1.11,6.67,1.11,1.19,0,2.36-.1,3.52-.3h1.66c.92,0,1.81-.09,2.68-.24,.87,.14,1.77,.24,2.68,.24h1.87c1.32,0,2.59-.17,3.82-.46,1.23,.29,2.51,.46,3.82,.46h1.87c.89,0,1.77-.07,2.62-.21,.85,.14,1.73,.21,2.62,.21h1.87c1.37,0,2.7-.19,3.97-.5,1.89,.53,3.88,.81,5.94,.81s3.96-.27,5.81-.78c1.24,.3,2.52,.47,3.85,.47h1.87c3.44,0,6.63-1.05,9.27-2.85,3.24,2.04,6.97,3.16,10.85,3.16,1.16,0,2.31-.1,3.45-.3h1.34c1.15,0,2.28-.12,3.36-.35,1.65,.41,3.37,.65,5.13,.65,1.25,0,2.48-.11,3.7-.32,.25,.01,.5,.02,.75,.02h1.96c.81,0,1.62-.07,2.41-.18,.76,.11,1.54,.18,2.33,.18h1.87c.89,0,1.77-.07,2.62-.21,.85,.14,1.73,.21,2.62,.21h1.87c1.23,0,2.42-.14,3.58-.4,1.77,.46,3.65,.7,5.61,.7,3.47,0,6.78-.78,9.72-2.25,2.31,1.24,4.95,1.94,7.76,1.94h1.87c1.38,0,2.72-.19,4-.51,1.9,.54,3.9,.81,5.96,.81,3.57,0,6.94-.84,9.95-2.43,2.39,1.34,5.14,2.12,8.08,2.12h1.87c.8,0,1.58-.06,2.35-.17,.77,.11,1.55,.17,2.35,.17h1.87c.8,0,1.58-.06,2.35-.17,.77,.11,1.55,.17,2.35,.17h1.87c1.35,0,2.65-.18,3.91-.48,1.87,.52,3.84,.79,5.88,.79s3.96-.27,5.82-.78c1.24,.3,2.53,.47,3.86,.47h1.87c.8,0,1.58-.06,2.35-.17,.77,.11,1.55,.17,2.35,.17h1.87c.8,0,1.58-.06,2.35-.17,.77,.11,1.55,.17,2.35,.17h1.87c1.35,0,2.65-.18,3.91-.48,1.87,.52,3.84,.79,5.88,.79,3.95,0,7.66-1.01,10.9-2.93,3.16,1.89,6.91,2.93,11,2.93,2.4,0,4.72-.39,6.9-1.11,2.18,.73,4.49,1.11,6.9,1.11,2.01,0,3.96-.27,5.81-.78,1.24,.3,2.52,.47,3.85,.47h1.87c.89,0,1.77-.07,2.62-.21,.85,.14,1.73,.21,2.62,.21h1.87c1.23,0,2.42-.14,3.58-.4,1.77,.46,3.65,.7,5.61,.7s4-.28,5.88-.79c1.25,.3,2.56,.48,3.9,.48h2.13c9.11,0,16.5-7.39,16.5-16.5v-2.6c0-5.39-2.6-10.16-6.6-13.17Z"/></g></g></svg>